M48
INCH,LZ
T01C0.0360
T02C0.0400
%
G05
G90
T01
X003510Y-018300
X004510Y-018300
X005510Y-018300
X006510Y-018300
X007510Y-018300
X007510Y-017300
X007510Y-016300
X007510Y-015300
X007510Y-014300
X007510Y-013300
X007510Y-012300
X007510Y-011300
X007510Y-010300
X007510Y-009300
X007510Y-008300
X007510Y-007300
X007010Y-006300
X006010Y-006300
X005010Y-006300
X004010Y-006300
X003010Y-006300
X001510Y-018300
X001510Y-017300
X001510Y-016300
X001510Y-015300
X001510Y-014300
X001510Y-013300
X001510Y-012300
X001510Y-011300
X001510Y-010300
X001510Y-009300
X001510Y-008300
X001510Y-007300
X002010Y-006300
X002500Y-018300
T02
X008000Y-007300
X008000Y-008300
X008000Y-009300
X008000Y-010300
X008000Y-011300
X008000Y-012300
X008000Y-013300
X008000Y-014300
X008000Y-015300
X008000Y-016300
X008000Y-017300
X008000Y-018300
X001000Y-018300
X001000Y-017300
X001000Y-016300
X001000Y-015300
X001000Y-014300
X002500Y-018800
X003500Y-018800
X004500Y-018800
X001000Y-013300
X001000Y-011300
X001000Y-010300
X001000Y-012300
X001000Y-009300
X001000Y-008300
X001000Y-007300
X005500Y-018800
X006500Y-018800
X002000Y-005700
X007000Y-005700
M30
