M48
INCH,LZ
T01C0.0120
T02C0.0150
%
G05
G90
T01
X004260Y-005100
X004560Y-005300
X004410Y-005930
X004910Y-005300
X006110Y-004950
X003290Y-011650
X003070Y-010550
X003580Y-010340
X005170Y-008770
X004930Y-006910
X005600Y-011200
X006650Y-012190
X006310Y-013420
X004090Y-010600
X004500Y-006750
X005590Y-006660
X006640Y-014380
X006590Y-014720
X005300Y-009250
X003100Y-015800
X005700Y-015800
X006950Y-014100
T02
X002890Y-009090
X002600Y-010600
X004410Y-010600
X002690Y-009380
X002850Y-014600
X002850Y-015150
X002850Y-015450
X006400Y-012800
X004700Y-010600
X005150Y-010250
X006400Y-009150
X002200Y-006900
X004830Y-007750
X004520Y-007750
X004500Y-008250
X004650Y-015100
X005000Y-010800
X006700Y-017150
M30
