%FSLAX36Y36*%
%MOIN*%

%ADD10C,0.0040*%
%ADD11C,0.0060*%
%ADD12C,0.0050*%
%ADD13C,0.0020*%
%ADD14C,0.0079*%
%ADD15C,0.0060*%
%ADD16C,0.0100*%
%ADD17C,0.0039*%
%ADD18C,0.0079*%
%ADD19C,0.0118*%
%ADD20C,0.0119*%

%LPD*%
G36*
X470300Y-136500D02*
G01*
X467400Y-136660D01*
X464700Y-137100D01*
X462220Y-137840D01*
X459940Y-138840D01*
X457860Y-140100D01*
X456000Y-141600D01*
X454340Y-143320D01*
X452900Y-145260D01*
X451659Y-147380D01*
X450620Y-149700D01*
X449799Y-152180D01*
X449200Y-154800D01*
X448700Y-154800D01*
X447920Y-152780D01*
X446960Y-150920D01*
X445820Y-149200D01*
X444500Y-147680D01*
X443040Y-146300D01*
X441440Y-145100D01*
X439700Y-144080D01*
X437860Y-143220D01*
X435920Y-142560D01*
X433880Y-142080D01*
X431780Y-141800D01*
X429600Y-141700D01*
X427380Y-141780D01*
X425300Y-142060D01*
X423360Y-142500D01*
X421540Y-143100D01*
X419840Y-143880D01*
X418280Y-144800D01*
X416820Y-145880D01*
X415500Y-147100D01*
X414300Y-148480D01*
X413200Y-149980D01*
X412220Y-151640D01*
X411360Y-153400D01*
X410600Y-155300D01*
X409940Y-157320D01*
X409400Y-159460D01*
X408960Y-161700D01*
X408620Y-164060D01*
X408380Y-166520D01*
X408240Y-169060D01*
X408200Y-187200D01*
X416100Y-187200D01*
X416100Y-173100D01*
X416180Y-169680D01*
X416440Y-166540D01*
X416880Y-163700D01*
X417520Y-161140D01*
X418340Y-158900D01*
X419400Y-156940D01*
X420680Y-155280D01*
X422180Y-153920D01*
X423940Y-152860D01*
X425959Y-152100D01*
X428240Y-151660D01*
X430800Y-151500D01*
X433040Y-151640D01*
X435140Y-152040D01*
X437060Y-152740D01*
X438820Y-153740D01*
X440400Y-155060D01*
X441780Y-156680D01*
X442980Y-158620D01*
X443980Y-160920D01*
X444760Y-163560D01*
X445340Y-166560D01*
X445680Y-169940D01*
X445800Y-173700D01*
X445800Y-187200D01*
X453500Y-187200D01*
X453500Y-171300D01*
X453560Y-168400D01*
X453740Y-165660D01*
X454060Y-163080D01*
X454480Y-160680D01*
X455060Y-158440D01*
X455740Y-156380D01*
X456560Y-154480D01*
X457520Y-152780D01*
X458600Y-151280D01*
X459820Y-149940D01*
X461160Y-148820D01*
X462660Y-147880D01*
X464280Y-147160D01*
X466040Y-146620D01*
X467960Y-146300D01*
X470000Y-146200D01*
X472239Y-146320D01*
X474340Y-146640D01*
X476280Y-147180D01*
X478060Y-147920D01*
X479700Y-148880D01*
X481180Y-150020D01*
X482520Y-151380D01*
X483700Y-152900D01*
X484739Y-154620D01*
X485640Y-156500D01*
X486400Y-158560D01*
X487020Y-160799D01*
X487500Y-163200D01*
X487840Y-165740D01*
X488040Y-168440D01*
X488100Y-171300D01*
X488100Y-187200D01*
X408200Y-187200D01*
X408200Y-197100D01*
X496000Y-197100D01*
X496000Y-169800D01*
X495940Y-166900D01*
X495740Y-164080D01*
X495420Y-161380D01*
X494980Y-158780D01*
X494400Y-156280D01*
X493700Y-153920D01*
X492860Y-151680D01*
X491900Y-149560D01*
X490820Y-147600D01*
X489600Y-145760D01*
X488260Y-144080D01*
X486780Y-142540D01*
X485180Y-141180D01*
X483440Y-139960D01*
X481580Y-138940D01*
X479580Y-138080D01*
X477460Y-137400D01*
X475200Y-136900D01*
X472819Y-136600D01*
G37*
G36*
X473000Y-214600D02*
G01*
X469860Y-214760D01*
X467020Y-215260D01*
X464420Y-216040D01*
X462060Y-217100D01*
X459920Y-218420D01*
X457980Y-219960D01*
X456220Y-221720D01*
X454600Y-223660D01*
X453140Y-225780D01*
X451800Y-228039D01*
X450560Y-230420D01*
X449400Y-232900D01*
X442920Y-248160D01*
X441700Y-250700D01*
X440340Y-253160D01*
X438720Y-255420D01*
X436820Y-257340D01*
X434580Y-258860D01*
X431920Y-259840D01*
X428800Y-260200D01*
X426800Y-260060D01*
X424920Y-259640D01*
X423200Y-258980D01*
X421640Y-258060D01*
X420220Y-256900D01*
X418980Y-255520D01*
X417920Y-253939D01*
X417020Y-252140D01*
X416320Y-250159D01*
X415820Y-248000D01*
X415500Y-245680D01*
X415400Y-243200D01*
X415540Y-240140D01*
X415980Y-237240D01*
X416680Y-234500D01*
X417640Y-231920D01*
X418860Y-229480D01*
X420300Y-227160D01*
X421940Y-224980D01*
X423800Y-222900D01*
X417400Y-217600D01*
X415840Y-219160D01*
X414380Y-220840D01*
X413020Y-222640D01*
X411760Y-224540D01*
X410620Y-226560D01*
X409600Y-228680D01*
X408720Y-230880D01*
X407980Y-233180D01*
X407380Y-235580D01*
X406960Y-238039D01*
X406700Y-240580D01*
X406599Y-243200D01*
X406719Y-246080D01*
X407040Y-248840D01*
X407580Y-251500D01*
X408300Y-254020D01*
X409240Y-256400D01*
X410340Y-258640D01*
X411620Y-260700D01*
X413060Y-262600D01*
X414660Y-264320D01*
X416400Y-265840D01*
X418300Y-267160D01*
X420319Y-268260D01*
X422440Y-269140D01*
X424700Y-269780D01*
X427060Y-270160D01*
X429500Y-270300D01*
X432580Y-270100D01*
X435400Y-269540D01*
X437939Y-268660D01*
X440260Y-267480D01*
X442340Y-266060D01*
X444219Y-264420D01*
X445880Y-262620D01*
X447380Y-260680D01*
X448700Y-258660D01*
X449860Y-256580D01*
X450900Y-254480D01*
X459320Y-235680D01*
X461240Y-232079D01*
X462280Y-230479D01*
X463420Y-229040D01*
X464680Y-227800D01*
X466100Y-226720D01*
X467680Y-225859D01*
X469460Y-225219D01*
X471460Y-224840D01*
X473700Y-224700D01*
X475880Y-224860D01*
X477939Y-225300D01*
X479860Y-226020D01*
X481620Y-227040D01*
X483200Y-228320D01*
X484620Y-229840D01*
X485860Y-231640D01*
X486880Y-233660D01*
X487700Y-235920D01*
X488300Y-238400D01*
X488680Y-241100D01*
X488800Y-244000D01*
X488720Y-246340D01*
X488440Y-248640D01*
X488020Y-250920D01*
X487420Y-253160D01*
X486680Y-255340D01*
X485780Y-257460D01*
X484739Y-259520D01*
X483579Y-261520D01*
X482260Y-263420D01*
X480820Y-265240D01*
X479260Y-266980D01*
X477600Y-268600D01*
X484500Y-274600D01*
X487360Y-271640D01*
X488680Y-270080D01*
X491079Y-266720D01*
X492160Y-264960D01*
X493160Y-263120D01*
X494060Y-261240D01*
X494860Y-259300D01*
X496180Y-255240D01*
X496680Y-253120D01*
X497080Y-250960D01*
X497360Y-248760D01*
X497540Y-246500D01*
X497600Y-244200D01*
X497520Y-241520D01*
X497280Y-238939D01*
X496900Y-236480D01*
X496360Y-234140D01*
X495700Y-231900D01*
X494900Y-229780D01*
X493960Y-227780D01*
X492920Y-225920D01*
X491740Y-224180D01*
X490480Y-222580D01*
X489099Y-221100D01*
X487620Y-219780D01*
X486060Y-218600D01*
X484400Y-217560D01*
X482660Y-216660D01*
X480860Y-215940D01*
X478980Y-215360D01*
X477040Y-214940D01*
X475040Y-214680D01*
G37*
G36*
X408200Y-291000D02*
G01*
X408200Y-300400D01*
X460500Y-300400D01*
X463620Y-300480D01*
X466540Y-300680D01*
X469240Y-301040D01*
X471740Y-301520D01*
X474040Y-302120D01*
X476140Y-302840D01*
X478060Y-303660D01*
X479799Y-304600D01*
X481360Y-305640D01*
X482760Y-306780D01*
X483980Y-308000D01*
X485060Y-309300D01*
X485980Y-310680D01*
X486760Y-312140D01*
X487420Y-313640D01*
X487939Y-315220D01*
X488320Y-316860D01*
X488600Y-318520D01*
X488800Y-322000D01*
X488720Y-324159D01*
X488459Y-326280D01*
X488040Y-328300D01*
X487420Y-330240D01*
X486580Y-332100D01*
X485540Y-333840D01*
X484260Y-335480D01*
X482760Y-336980D01*
X480980Y-338360D01*
X478940Y-339580D01*
X476640Y-340640D01*
X474040Y-341540D01*
X471140Y-342239D01*
X467920Y-342760D01*
X464380Y-343100D01*
X460500Y-343200D01*
X408200Y-343200D01*
X408200Y-353100D01*
X460400Y-353100D01*
X463800Y-353020D01*
X467000Y-352819D01*
X470000Y-352480D01*
X472840Y-352000D01*
X475500Y-351400D01*
X477980Y-350680D01*
X480300Y-349840D01*
X482440Y-348880D01*
X484440Y-347819D01*
X486260Y-346659D01*
X487939Y-345400D01*
X489460Y-344040D01*
X490840Y-342600D01*
X492080Y-341060D01*
X493180Y-339440D01*
X494159Y-337760D01*
X495000Y-335980D01*
X495720Y-334159D01*
X496300Y-332260D01*
X496780Y-330319D01*
X497140Y-328300D01*
X497400Y-326240D01*
X497560Y-324140D01*
X497560Y-319860D01*
X497400Y-317780D01*
X497140Y-315720D01*
X496780Y-313740D01*
X496300Y-311780D01*
X495720Y-309900D01*
X495000Y-308080D01*
X494159Y-306320D01*
X493180Y-304640D01*
X492080Y-303020D01*
X490840Y-301500D01*
X489460Y-300040D01*
X487939Y-298700D01*
X486260Y-297440D01*
X484440Y-296280D01*
X482440Y-295220D01*
X480300Y-294260D01*
X477980Y-293420D01*
X475500Y-292700D01*
X472840Y-292100D01*
X470000Y-291620D01*
X467000Y-291280D01*
X463800Y-291080D01*
X460400Y-291000D01*
G37*
D10*
X162887Y-777887D02*
G01*
X179081Y-794081D01*
X162887Y-777887D02*
G01*
X169818Y-770958D01*
X172928Y-769403D01*
X174484Y-769403D01*
X176747Y-770109D01*
X179081Y-772442D01*
X179859Y-774776D01*
X179859Y-776332D01*
X178303Y-779443D01*
X171372Y-786372D01*
X184949Y-755826D02*
G01*
X194991Y-778171D01*
X184949Y-755826D02*
G01*
X207294Y-765866D01*
X191878Y-770533D02*
G01*
X199657Y-762755D01*
X200859Y-739915D02*
G01*
X199304Y-743027D01*
X200010Y-746846D01*
X203121Y-751512D01*
X205455Y-753845D01*
X210052Y-756887D01*
X213940Y-757665D01*
X217051Y-756109D01*
X218607Y-754553D01*
X220093Y-751512D01*
X219315Y-747624D01*
X216275Y-743027D01*
X213940Y-740693D01*
X209274Y-737582D01*
X205455Y-736876D01*
X202415Y-738360D01*
X200859Y-739915D01*
X162887Y-877887D02*
G01*
X179081Y-894081D01*
X162887Y-877887D02*
G01*
X169818Y-870958D01*
X172928Y-869403D01*
X174484Y-869403D01*
X176747Y-870109D01*
X179081Y-872442D01*
X179859Y-874776D01*
X179859Y-876332D01*
X178303Y-879443D01*
X171372Y-886372D01*
X184949Y-855826D02*
G01*
X194991Y-878171D01*
X184949Y-855826D02*
G01*
X207294Y-865866D01*
X191878Y-870533D02*
G01*
X199657Y-862755D01*
X199232Y-847624D02*
G01*
X200082Y-845360D01*
X200082Y-840693D01*
X216275Y-856887D01*
X162845Y-977845D02*
G01*
X179108Y-994108D01*
X162845Y-977845D02*
G01*
X169774Y-970916D01*
X172887Y-969360D01*
X174441Y-969360D01*
X176775Y-970138D01*
X179108Y-972471D01*
X179886Y-974805D01*
X179886Y-976361D01*
X178261Y-979400D01*
X171331Y-986331D01*
X184906Y-955783D02*
G01*
X195019Y-978198D01*
X184906Y-955783D02*
G01*
X207323Y-965895D01*
X191837Y-970491D02*
G01*
X199614Y-962714D01*
X200817Y-947651D02*
G01*
X200039Y-946873D01*
X199261Y-944540D01*
X199261Y-942984D01*
X200039Y-940652D01*
X203079Y-937611D01*
X205412Y-936833D01*
X206968Y-936833D01*
X209302Y-937611D01*
X210857Y-939167D01*
X211635Y-941500D01*
X212343Y-945318D01*
X212413Y-960803D01*
X223233Y-949985D01*
X162908Y-1077853D02*
G01*
X179101Y-1094045D01*
X162908Y-1077853D02*
G01*
X169839Y-1070922D01*
X172950Y-1069367D01*
X174434Y-1069438D01*
X176768Y-1070216D01*
X179030Y-1072478D01*
X179809Y-1074812D01*
X179879Y-1076296D01*
X178323Y-1079407D01*
X171395Y-1086338D01*
X184971Y-1055790D02*
G01*
X194940Y-1078206D01*
X184971Y-1055790D02*
G01*
X207316Y-1065832D01*
X191900Y-1070498D02*
G01*
X199607Y-1062791D01*
X197770Y-1042991D02*
G01*
X206255Y-1034506D01*
X207739Y-1045326D01*
X210073Y-1042991D01*
X212406Y-1042213D01*
X213962Y-1042213D01*
X217073Y-1043769D01*
X218629Y-1045326D01*
X220113Y-1048366D01*
X220113Y-1051478D01*
X218559Y-1054589D01*
X216224Y-1056921D01*
X213184Y-1058407D01*
X211628Y-1058407D01*
X209295Y-1057629D01*
X162845Y-1177845D02*
G01*
X179108Y-1194108D01*
X162845Y-1177845D02*
G01*
X169774Y-1170916D01*
X172887Y-1169360D01*
X174441Y-1169360D01*
X176775Y-1170138D01*
X179108Y-1172471D01*
X179886Y-1174805D01*
X179886Y-1176361D01*
X178261Y-1179400D01*
X171331Y-1186331D01*
X184906Y-1155783D02*
G01*
X195019Y-1178198D01*
X184906Y-1155783D02*
G01*
X207323Y-1165895D01*
X191837Y-1170491D02*
G01*
X199614Y-1162714D01*
X203858Y-1136833D02*
G01*
X206968Y-1155360D01*
X218566Y-1143762D01*
X203858Y-1136833D02*
G01*
X220120Y-1153096D01*
X162860Y-1277860D02*
G01*
X179052Y-1294052D01*
X162860Y-1277860D02*
G01*
X169789Y-1270929D01*
X172901Y-1269373D01*
X174456Y-1269373D01*
X176790Y-1270151D01*
X179122Y-1272485D01*
X179830Y-1274747D01*
X179830Y-1276304D01*
X178274Y-1279414D01*
X171345Y-1286345D01*
X184920Y-1255797D02*
G01*
X194962Y-1278143D01*
X184920Y-1255797D02*
G01*
X207265Y-1265839D01*
X191851Y-1270506D02*
G01*
X199628Y-1262728D01*
X205428Y-1235291D02*
G01*
X197719Y-1242998D01*
X203872Y-1250707D01*
X203872Y-1249151D01*
X205497Y-1246111D01*
X207831Y-1243777D01*
X210801Y-1242222D01*
X213912Y-1242222D01*
X217024Y-1243777D01*
X218580Y-1245333D01*
X220135Y-1248443D01*
X220064Y-1251484D01*
X218580Y-1254524D01*
X216246Y-1256858D01*
X213135Y-1258413D01*
X211579Y-1258413D01*
X209317Y-1257707D01*
X162845Y-1377845D02*
G01*
X179108Y-1394108D01*
X162845Y-1377845D02*
G01*
X169774Y-1370916D01*
X172887Y-1369360D01*
X174441Y-1369360D01*
X176775Y-1370138D01*
X179108Y-1372471D01*
X179886Y-1374805D01*
X179886Y-1376361D01*
X178261Y-1379400D01*
X171331Y-1386331D01*
X184906Y-1355783D02*
G01*
X195019Y-1378198D01*
X184906Y-1355783D02*
G01*
X207323Y-1365895D01*
X191837Y-1370491D02*
G01*
X199614Y-1362714D01*
X207746Y-1337611D02*
G01*
X205412Y-1336833D01*
X202372Y-1338317D01*
X200817Y-1339873D01*
X199261Y-1342984D01*
X200039Y-1346873D01*
X203150Y-1351541D01*
X206968Y-1355360D01*
X210857Y-1357692D01*
X213969Y-1357692D01*
X217080Y-1356136D01*
X217858Y-1355360D01*
X219342Y-1352319D01*
X219342Y-1349207D01*
X217788Y-1346095D01*
X217010Y-1345318D01*
X213899Y-1343762D01*
X210857Y-1343834D01*
X207818Y-1345318D01*
X207040Y-1346095D01*
X205484Y-1349207D01*
X205412Y-1352247D01*
X206968Y-1355360D01*
X162853Y-1477853D02*
G01*
X179045Y-1494045D01*
X162853Y-1477853D02*
G01*
X169782Y-1470922D01*
X172894Y-1469367D01*
X174448Y-1469367D01*
X176783Y-1470145D01*
X179115Y-1472478D01*
X179893Y-1474812D01*
X179823Y-1476296D01*
X178267Y-1479407D01*
X171338Y-1486338D01*
X184913Y-1455790D02*
G01*
X194954Y-1478135D01*
X184913Y-1455790D02*
G01*
X207258Y-1465832D01*
X191844Y-1470498D02*
G01*
X199621Y-1462721D01*
X206975Y-1433728D02*
G01*
X215461Y-1457629D01*
X196156Y-1444547D02*
G01*
X206975Y-1433728D01*
X162853Y-1577853D02*
G01*
X179045Y-1594045D01*
X162853Y-1577853D02*
G01*
X169782Y-1570922D01*
X172894Y-1569367D01*
X174448Y-1569367D01*
X176783Y-1570145D01*
X179115Y-1572478D01*
X179893Y-1574812D01*
X179823Y-1576296D01*
X178267Y-1579407D01*
X171338Y-1586338D01*
X178762Y-1561943D02*
G01*
X194954Y-1578135D01*
X178762Y-1561943D02*
G01*
X185691Y-1555012D01*
X188802Y-1553456D01*
X190358Y-1553456D01*
X192622Y-1554306D01*
X194176Y-1555862D01*
X195025Y-1558123D01*
X195025Y-1559679D01*
X193400Y-1562721D01*
X186469Y-1569650D02*
G01*
X193400Y-1562721D01*
X196511Y-1561165D01*
X198067Y-1561165D01*
X200329Y-1562013D01*
X202662Y-1564346D01*
X203510Y-1566610D01*
X203510Y-1568164D01*
X201885Y-1571206D01*
X194954Y-1578135D01*
X199268Y-1541437D02*
G01*
X197712Y-1544547D01*
X198490Y-1548436D01*
X201601Y-1553103D01*
X203865Y-1555367D01*
X208532Y-1558478D01*
X212420Y-1559256D01*
X215461Y-1557629D01*
X217017Y-1556073D01*
X218573Y-1553103D01*
X217795Y-1549214D01*
X214684Y-1544547D01*
X212420Y-1542285D01*
X207753Y-1539173D01*
X203865Y-1538395D01*
X200823Y-1539881D01*
X199268Y-1541437D01*
X162908Y-1677853D02*
G01*
X179101Y-1694045D01*
X162908Y-1677853D02*
G01*
X169839Y-1670922D01*
X172950Y-1669367D01*
X174434Y-1669438D01*
X176768Y-1670216D01*
X179030Y-1672478D01*
X179809Y-1674812D01*
X179879Y-1676296D01*
X178323Y-1679407D01*
X171395Y-1686338D01*
X178748Y-1662013D02*
G01*
X194940Y-1678206D01*
X178748Y-1662013D02*
G01*
X185749Y-1655012D01*
X188789Y-1653528D01*
X190345Y-1653528D01*
X192678Y-1654306D01*
X194162Y-1655790D01*
X194940Y-1658123D01*
X194940Y-1659679D01*
X193456Y-1662721D01*
X186455Y-1669720D02*
G01*
X193456Y-1662721D01*
X196496Y-1661235D01*
X198051Y-1661235D01*
X200385Y-1662013D01*
X202649Y-1664275D01*
X203425Y-1666610D01*
X203425Y-1668164D01*
X201941Y-1671206D01*
X194940Y-1678206D01*
X197770Y-1649214D02*
G01*
X198546Y-1646880D01*
X198546Y-1642213D01*
X214740Y-1658407D01*
X172831Y-1767887D02*
G01*
X189023Y-1784081D01*
X172831Y-1767887D02*
G01*
X179832Y-1760888D01*
X182872Y-1759403D01*
X184427Y-1759403D01*
X186761Y-1760180D01*
X189095Y-1762514D01*
X189801Y-1764776D01*
X189801Y-1766332D01*
X188317Y-1769373D01*
X181316Y-1776372D01*
X188741Y-1751977D02*
G01*
X204933Y-1768171D01*
X188741Y-1751977D02*
G01*
X195671Y-1745048D01*
X198782Y-1743492D01*
X200338Y-1743492D01*
X202671Y-1744270D01*
X204227Y-1745826D01*
X204933Y-1748089D01*
X204933Y-1749645D01*
X203377Y-1752755D01*
X196448Y-1759686D02*
G01*
X203377Y-1752755D01*
X206489Y-1751199D01*
X208045Y-1751199D01*
X210378Y-1751977D01*
X212712Y-1754312D01*
X213418Y-1756574D01*
X213418Y-1758130D01*
X211864Y-1761241D01*
X204933Y-1768171D01*
X207762Y-1739178D02*
G01*
X208539Y-1736846D01*
X208470Y-1732249D01*
X224661Y-1748443D01*
X218227Y-1722492D02*
G01*
X216671Y-1725603D01*
X217449Y-1729492D01*
X220489Y-1734088D01*
X222824Y-1736421D01*
X227491Y-1739533D01*
X231309Y-1740239D01*
X234420Y-1738685D01*
X235976Y-1737129D01*
X237460Y-1734088D01*
X236754Y-1730270D01*
X233643Y-1725603D01*
X231309Y-1723270D01*
X226712Y-1720228D01*
X222824Y-1719450D01*
X219783Y-1720936D01*
X218227Y-1722492D01*
X292916Y-1797874D02*
G01*
X309108Y-1814067D01*
X292916Y-1797874D02*
G01*
X299845Y-1790943D01*
X302957Y-1789389D01*
X304513Y-1789389D01*
X306705Y-1790165D01*
X309038Y-1792500D01*
X309886Y-1794762D01*
X309886Y-1796318D01*
X308330Y-1799430D01*
X301401Y-1806359D01*
X308755Y-1782035D02*
G01*
X324947Y-1798227D01*
X308755Y-1782035D02*
G01*
X315756Y-1775034D01*
X318796Y-1773548D01*
X320351Y-1773548D01*
X322615Y-1774256D01*
X324169Y-1775812D01*
X324947Y-1778146D01*
X324947Y-1779701D01*
X323463Y-1782741D01*
X316462Y-1789742D02*
G01*
X323463Y-1782741D01*
X326503Y-1781257D01*
X328060Y-1781257D01*
X330322Y-1781963D01*
X332656Y-1784297D01*
X333434Y-1786631D01*
X333434Y-1788186D01*
X331948Y-1791226D01*
X324947Y-1798227D01*
X327705Y-1769164D02*
G01*
X328483Y-1766831D01*
X328553Y-1762235D01*
X344747Y-1778427D01*
X338242Y-1760185D02*
G01*
X337463Y-1759407D01*
X336756Y-1757145D01*
X336685Y-1755659D01*
X337463Y-1753326D01*
X340574Y-1750214D01*
X342908Y-1749436D01*
X344463Y-1749436D01*
X346727Y-1750144D01*
X348283Y-1751700D01*
X349061Y-1754032D01*
X349837Y-1757921D01*
X349837Y-1773337D01*
X360585Y-1762588D01*
X392867Y-1797867D02*
G01*
X409059Y-1814059D01*
X392867Y-1797867D02*
G01*
X399796Y-1790936D01*
X402908Y-1789382D01*
X404463Y-1789382D01*
X406797Y-1790158D01*
X409059Y-1792422D01*
X409837Y-1794756D01*
X409837Y-1796311D01*
X408281Y-1799421D01*
X401352Y-1806352D01*
X408777Y-1781957D02*
G01*
X424969Y-1798150D01*
X408777Y-1781957D02*
G01*
X415706Y-1775027D01*
X418818Y-1773472D01*
X420372Y-1773472D01*
X422636Y-1774319D01*
X424191Y-1775875D01*
X424969Y-1778067D01*
X424969Y-1779623D01*
X423413Y-1782734D01*
X416484Y-1789663D02*
G01*
X423413Y-1782734D01*
X426525Y-1781179D01*
X428081Y-1781179D01*
X430342Y-1782028D01*
X432676Y-1784360D01*
X433454Y-1786552D01*
X433454Y-1788108D01*
X431898Y-1791219D01*
X424969Y-1798150D01*
X427726Y-1769229D02*
G01*
X428505Y-1766896D01*
X428505Y-1762229D01*
X444697Y-1778420D01*
X435151Y-1755581D02*
G01*
X443636Y-1747096D01*
X445122Y-1757914D01*
X447454Y-1755581D01*
X449789Y-1754803D01*
X451345Y-1754803D01*
X454456Y-1756359D01*
X456010Y-1757914D01*
X457496Y-1760956D01*
X457496Y-1764067D01*
X455940Y-1767177D01*
X453677Y-1769441D01*
X450567Y-1770997D01*
X449011Y-1770997D01*
X446747Y-1770290D01*
X492867Y-1797853D02*
G01*
X509059Y-1814045D01*
X492867Y-1797853D02*
G01*
X499796Y-1790922D01*
X502908Y-1789367D01*
X504463Y-1789367D01*
X506797Y-1790145D01*
X509130Y-1792478D01*
X509837Y-1794740D01*
X509837Y-1796296D01*
X508281Y-1799407D01*
X501352Y-1806338D01*
X508777Y-1781943D02*
G01*
X524969Y-1798135D01*
X508777Y-1781943D02*
G01*
X515706Y-1775012D01*
X518818Y-1773456D01*
X520302Y-1773528D01*
X522636Y-1774306D01*
X524191Y-1775862D01*
X524899Y-1778123D01*
X524969Y-1779609D01*
X523413Y-1782721D01*
X516484Y-1789650D02*
G01*
X523413Y-1782721D01*
X526525Y-1781165D01*
X528009Y-1781235D01*
X530342Y-1782013D01*
X532676Y-1784346D01*
X533384Y-1786610D01*
X533454Y-1788094D01*
X531898Y-1791206D01*
X524969Y-1798135D01*
X527726Y-1769214D02*
G01*
X528505Y-1766880D01*
X528505Y-1762213D01*
X544697Y-1778407D01*
X541304Y-1749416D02*
G01*
X544414Y-1767941D01*
X556010Y-1756345D01*
X541304Y-1749416D02*
G01*
X557496Y-1765608D01*
X592894Y-1797838D02*
G01*
X609088Y-1814031D01*
X592894Y-1797838D02*
G01*
X599825Y-1790909D01*
X602935Y-1789353D01*
X604421Y-1789423D01*
X606754Y-1790201D01*
X609016Y-1792465D01*
X609794Y-1794798D01*
X609866Y-1796282D01*
X608310Y-1799394D01*
X601379Y-1806323D01*
X608733Y-1781999D02*
G01*
X624926Y-1798191D01*
X608733Y-1781999D02*
G01*
X615734Y-1774998D01*
X618775Y-1773514D01*
X620331Y-1773514D01*
X622663Y-1774292D01*
X624220Y-1775846D01*
X624926Y-1778110D01*
X624926Y-1779666D01*
X623442Y-1782705D01*
X616442Y-1789706D02*
G01*
X623442Y-1782705D01*
X626482Y-1781221D01*
X628038Y-1781221D01*
X630372Y-1781999D01*
X632705Y-1784333D01*
X633411Y-1786595D01*
X633411Y-1788150D01*
X631927Y-1791192D01*
X624926Y-1798191D01*
X627755Y-1769200D02*
G01*
X628533Y-1766867D01*
X628533Y-1762199D01*
X644726Y-1778393D01*
X642887Y-1747845D02*
G01*
X635109Y-1755623D01*
X641332Y-1763261D01*
X641260Y-1761775D01*
X642817Y-1758665D01*
X645149Y-1756331D01*
X648261Y-1754776D01*
X651302Y-1754845D01*
X654412Y-1756401D01*
X655969Y-1757957D01*
X657453Y-1760997D01*
X657525Y-1764038D01*
X655969Y-1767150D01*
X653636Y-1769484D01*
X650524Y-1771039D01*
X649038Y-1770967D01*
X646777Y-1770261D01*
X677105Y-1757894D02*
G01*
X660911Y-1774088D01*
X677105Y-1757894D02*
G01*
X684034Y-1764825D01*
X685590Y-1767935D01*
X685590Y-1769492D01*
X684882Y-1771754D01*
X682550Y-1774088D01*
X680216Y-1774866D01*
X678661Y-1774866D01*
X675549Y-1773310D01*
X668620Y-1766379D01*
X699167Y-1779956D02*
G01*
X676822Y-1789998D01*
X699167Y-1779956D02*
G01*
X689126Y-1802301D01*
X684529Y-1786815D02*
G01*
X692307Y-1794594D01*
X714299Y-1795088D02*
G01*
X711186Y-1793533D01*
X708924Y-1794239D01*
X707368Y-1795796D01*
X706590Y-1798128D01*
X707368Y-1800462D01*
X709702Y-1804351D01*
X711186Y-1807393D01*
X711186Y-1810504D01*
X710479Y-1812766D01*
X708146Y-1815100D01*
X705812Y-1815877D01*
X704257Y-1815877D01*
X701147Y-1814322D01*
X698105Y-1811282D01*
X696550Y-1808170D01*
X696550Y-1806615D01*
X697328Y-1804281D01*
X699661Y-1801948D01*
X701923Y-1801241D01*
X705036Y-1801241D01*
X708146Y-1802795D01*
X711965Y-1805059D01*
X714299Y-1805837D01*
X716631Y-1805059D01*
X718188Y-1803503D01*
X718895Y-1801241D01*
X717339Y-1798128D01*
X714299Y-1795088D01*
X677112Y-1652887D02*
G01*
X660918Y-1669081D01*
X677112Y-1652887D02*
G01*
X684041Y-1659818D01*
X685596Y-1662928D01*
X685596Y-1664484D01*
X684890Y-1666747D01*
X682557Y-1669081D01*
X680223Y-1669859D01*
X678667Y-1669859D01*
X675556Y-1668303D01*
X668627Y-1661372D01*
X699173Y-1674949D02*
G01*
X676828Y-1684991D01*
X699173Y-1674949D02*
G01*
X689133Y-1697294D01*
X684466Y-1681878D02*
G01*
X692244Y-1689657D01*
X715084Y-1701608D02*
G01*
X711972Y-1703162D01*
X708861Y-1703162D01*
X705821Y-1701678D01*
X705043Y-1700900D01*
X703487Y-1697788D01*
X703487Y-1694677D01*
X705043Y-1691567D01*
X705821Y-1690788D01*
X708861Y-1689304D01*
X711972Y-1689304D01*
X715084Y-1690859D01*
X715860Y-1691637D01*
X717345Y-1694677D01*
X717345Y-1697788D01*
X715084Y-1701608D01*
X711194Y-1705497D01*
X706597Y-1708537D01*
X702708Y-1709315D01*
X699668Y-1707829D01*
X698112Y-1706275D01*
X696556Y-1703162D01*
X697334Y-1700830D01*
X672112Y-1542901D02*
G01*
X655918Y-1559095D01*
X672112Y-1542901D02*
G01*
X679041Y-1549832D01*
X680596Y-1552943D01*
X680596Y-1554499D01*
X679890Y-1556761D01*
X677557Y-1559095D01*
X675223Y-1559872D01*
X673667Y-1559872D01*
X670556Y-1558317D01*
X663627Y-1551386D01*
X694173Y-1564964D02*
G01*
X671828Y-1575005D01*
X694173Y-1564964D02*
G01*
X684133Y-1587307D01*
X679537Y-1571822D02*
G01*
X687244Y-1579529D01*
X702375Y-1579247D02*
G01*
X704710Y-1580025D01*
X709306Y-1580095D01*
X693112Y-1596289D01*
X718993Y-1589783D02*
G01*
X715882Y-1588227D01*
X712134Y-1589005D01*
X707467Y-1592116D01*
X705133Y-1594450D01*
X702092Y-1599045D01*
X701244Y-1602865D01*
X702800Y-1605976D01*
X704355Y-1607532D01*
X707467Y-1609086D01*
X711356Y-1608310D01*
X715882Y-1605198D01*
X718215Y-1602865D01*
X721397Y-1598269D01*
X722103Y-1594450D01*
X720549Y-1591338D01*
X718993Y-1589783D01*
X672112Y-1442901D02*
G01*
X655918Y-1459095D01*
X672112Y-1442901D02*
G01*
X679041Y-1449832D01*
X680596Y-1452943D01*
X680596Y-1454499D01*
X679890Y-1456761D01*
X677557Y-1459095D01*
X675223Y-1459872D01*
X673667Y-1459872D01*
X670556Y-1458317D01*
X663627Y-1451386D01*
X694173Y-1464964D02*
G01*
X671828Y-1475005D01*
X694173Y-1464964D02*
G01*
X684133Y-1487307D01*
X679537Y-1471822D02*
G01*
X687244Y-1479529D01*
X702375Y-1479247D02*
G01*
X704710Y-1480025D01*
X709306Y-1480095D01*
X693112Y-1496289D01*
X711356Y-1488227D02*
G01*
X713690Y-1489005D01*
X718215Y-1489005D01*
X702022Y-1505198D01*
X672105Y-1342894D02*
G01*
X655911Y-1359088D01*
X672105Y-1342894D02*
G01*
X679034Y-1349825D01*
X680590Y-1352935D01*
X680590Y-1354492D01*
X679882Y-1356754D01*
X677550Y-1359088D01*
X675216Y-1359866D01*
X673661Y-1359866D01*
X670549Y-1358310D01*
X663620Y-1351379D01*
X694167Y-1364956D02*
G01*
X671822Y-1374998D01*
X694167Y-1364956D02*
G01*
X684126Y-1387301D01*
X679529Y-1371815D02*
G01*
X687307Y-1379594D01*
X702368Y-1379239D02*
G01*
X704702Y-1380018D01*
X709299Y-1380088D01*
X693105Y-1396282D01*
X711349Y-1389776D02*
G01*
X712127Y-1388998D01*
X714389Y-1388290D01*
X715945Y-1388290D01*
X718207Y-1388998D01*
X721320Y-1392109D01*
X722096Y-1394443D01*
X722096Y-1395999D01*
X721390Y-1398261D01*
X719834Y-1399816D01*
X717501Y-1400594D01*
X713611Y-1401372D01*
X698197Y-1401372D01*
X709016Y-1412192D01*
X677112Y-1262901D02*
G01*
X660918Y-1279095D01*
X677112Y-1262901D02*
G01*
X684041Y-1269832D01*
X685596Y-1272943D01*
X685596Y-1274499D01*
X684890Y-1276761D01*
X682557Y-1279095D01*
X680223Y-1279872D01*
X678667Y-1279872D01*
X675556Y-1278317D01*
X668627Y-1271386D01*
X693022Y-1278811D02*
G01*
X676828Y-1295005D01*
X693022Y-1278811D02*
G01*
X699951Y-1285742D01*
X701507Y-1288852D01*
X701435Y-1290338D01*
X700729Y-1292600D01*
X699173Y-1294155D01*
X696840Y-1294933D01*
X695354Y-1295005D01*
X692244Y-1293449D01*
X685313Y-1286520D02*
G01*
X692244Y-1293449D01*
X693800Y-1296559D01*
X693728Y-1298045D01*
X693022Y-1300308D01*
X690688Y-1302642D01*
X688355Y-1303418D01*
X686869Y-1303490D01*
X683759Y-1301934D01*
X676828Y-1295005D01*
X710417Y-1296206D02*
G01*
X718901Y-1304692D01*
X708153Y-1306248D01*
X710417Y-1308510D01*
X711194Y-1310844D01*
X711194Y-1312399D01*
X709639Y-1315511D01*
X708153Y-1316995D01*
X705043Y-1318551D01*
X701930Y-1318551D01*
X698890Y-1317067D01*
X696556Y-1314733D01*
X695001Y-1311622D01*
X695001Y-1310066D01*
X695779Y-1307732D01*
X677105Y-1157894D02*
G01*
X660911Y-1174088D01*
X677105Y-1157894D02*
G01*
X684034Y-1164825D01*
X685590Y-1167935D01*
X685590Y-1169492D01*
X684882Y-1171754D01*
X682550Y-1174088D01*
X680216Y-1174866D01*
X678661Y-1174866D01*
X675549Y-1173310D01*
X668620Y-1166379D01*
X693015Y-1173805D02*
G01*
X676822Y-1189998D01*
X693015Y-1173805D02*
G01*
X699944Y-1180734D01*
X701500Y-1183845D01*
X701500Y-1185401D01*
X700722Y-1187593D01*
X699167Y-1189149D01*
X696903Y-1189998D01*
X695347Y-1189998D01*
X692237Y-1188442D01*
X685306Y-1181511D02*
G01*
X692237Y-1188442D01*
X693793Y-1191552D01*
X693793Y-1193108D01*
X693015Y-1195300D01*
X690680Y-1197633D01*
X688418Y-1198483D01*
X686862Y-1198483D01*
X683751Y-1196927D01*
X676822Y-1189998D01*
X716631Y-1197422D02*
G01*
X698105Y-1200392D01*
X709702Y-1211988D01*
X716631Y-1197422D02*
G01*
X700439Y-1213614D01*
X677105Y-1057894D02*
G01*
X660911Y-1074088D01*
X677105Y-1057894D02*
G01*
X684034Y-1064825D01*
X685590Y-1067935D01*
X685590Y-1069492D01*
X684882Y-1071754D01*
X682550Y-1074088D01*
X680216Y-1074866D01*
X678661Y-1074866D01*
X675549Y-1073310D01*
X668620Y-1066379D01*
X693015Y-1073805D02*
G01*
X676822Y-1089998D01*
X693015Y-1073805D02*
G01*
X699944Y-1080734D01*
X701500Y-1083845D01*
X701500Y-1085401D01*
X700722Y-1087593D01*
X699167Y-1089149D01*
X696903Y-1089998D01*
X695347Y-1089998D01*
X692237Y-1088442D01*
X685306Y-1081511D02*
G01*
X692237Y-1088442D01*
X693793Y-1091552D01*
X693793Y-1093108D01*
X693015Y-1095300D01*
X690680Y-1097633D01*
X688418Y-1098483D01*
X686862Y-1098483D01*
X683751Y-1096927D01*
X676822Y-1089998D01*
X718117Y-1098906D02*
G01*
X710410Y-1091199D01*
X702701Y-1097352D01*
X704257Y-1097352D01*
X707368Y-1098906D01*
X709702Y-1101241D01*
X711186Y-1104281D01*
X711186Y-1107393D01*
X709632Y-1110504D01*
X708146Y-1111988D01*
X705036Y-1113544D01*
X701923Y-1113544D01*
X698883Y-1112058D01*
X696550Y-1109726D01*
X694994Y-1106615D01*
X694994Y-1105059D01*
X695772Y-1102725D01*
X677105Y-957894D02*
G01*
X660911Y-974088D01*
X677105Y-957894D02*
G01*
X684034Y-964825D01*
X685590Y-967935D01*
X685590Y-969492D01*
X684882Y-971754D01*
X682550Y-974088D01*
X680216Y-974866D01*
X678661Y-974866D01*
X675549Y-973310D01*
X668620Y-966379D01*
X693015Y-973805D02*
G01*
X676822Y-989998D01*
X693015Y-973805D02*
G01*
X699944Y-980734D01*
X701500Y-983845D01*
X701500Y-985401D01*
X700722Y-987593D01*
X699167Y-989149D01*
X696903Y-989998D01*
X695347Y-989998D01*
X692237Y-988442D01*
X685306Y-981511D02*
G01*
X692237Y-988442D01*
X693793Y-991552D01*
X693793Y-993108D01*
X693015Y-995300D01*
X690680Y-997633D01*
X688418Y-998483D01*
X686862Y-998483D01*
X683751Y-996927D01*
X676822Y-989998D01*
X715853Y-1001170D02*
G01*
X716561Y-998906D01*
X715077Y-995866D01*
X713521Y-994310D01*
X710410Y-992755D01*
X706590Y-993463D01*
X701923Y-996574D01*
X698105Y-1000392D01*
X695772Y-1004281D01*
X695772Y-1007393D01*
X697328Y-1010504D01*
X698105Y-1011282D01*
X701217Y-1012836D01*
X704257Y-1012766D01*
X707368Y-1011210D01*
X708146Y-1010432D01*
X709632Y-1007393D01*
X709702Y-1004351D01*
X708146Y-1001241D01*
X707368Y-1000462D01*
X704257Y-998906D01*
X701147Y-998906D01*
X698105Y-1000392D01*
X677112Y-852901D02*
G01*
X660918Y-869095D01*
X677112Y-852901D02*
G01*
X684041Y-859832D01*
X685596Y-862943D01*
X685596Y-864499D01*
X684890Y-866761D01*
X682557Y-869095D01*
X680223Y-869872D01*
X678667Y-869872D01*
X675556Y-868317D01*
X668627Y-861386D01*
X693022Y-868811D02*
G01*
X676828Y-885005D01*
X693022Y-868811D02*
G01*
X699951Y-875742D01*
X701507Y-878852D01*
X701435Y-880338D01*
X700729Y-882600D01*
X699173Y-884155D01*
X696840Y-884933D01*
X695354Y-885005D01*
X692244Y-883449D01*
X685313Y-876520D02*
G01*
X692244Y-883449D01*
X693800Y-886559D01*
X693728Y-888045D01*
X693022Y-890308D01*
X690688Y-892642D01*
X688355Y-893418D01*
X686869Y-893490D01*
X683759Y-891934D01*
X676828Y-885005D01*
X719679Y-895470D02*
G01*
X695779Y-903955D01*
X708861Y-884650D02*
G01*
X719679Y-895470D01*
X677105Y-752894D02*
G01*
X660911Y-769088D01*
X677105Y-752894D02*
G01*
X684034Y-759825D01*
X685590Y-762935D01*
X685590Y-764492D01*
X684882Y-766754D01*
X682550Y-769088D01*
X680216Y-769866D01*
X678661Y-769866D01*
X675549Y-768310D01*
X668620Y-761379D01*
X693015Y-768805D02*
G01*
X676822Y-784998D01*
X693015Y-768805D02*
G01*
X699944Y-775734D01*
X701500Y-778845D01*
X701500Y-780401D01*
X700722Y-782593D01*
X699167Y-784149D01*
X696903Y-784998D01*
X695347Y-784998D01*
X692237Y-783442D01*
X685306Y-776511D02*
G01*
X692237Y-783442D01*
X693793Y-786552D01*
X693793Y-788108D01*
X693015Y-790300D01*
X690680Y-792633D01*
X688418Y-793483D01*
X686862Y-793483D01*
X683751Y-791927D01*
X676822Y-784998D01*
X712743Y-788533D02*
G01*
X709632Y-786977D01*
X707368Y-787685D01*
X705812Y-789239D01*
X705036Y-791574D01*
X705812Y-793906D01*
X708146Y-797795D01*
X709632Y-800837D01*
X709632Y-803948D01*
X708924Y-806210D01*
X706590Y-808544D01*
X704257Y-809322D01*
X702701Y-809322D01*
X699661Y-807836D01*
X696550Y-804726D01*
X694994Y-801615D01*
X694994Y-800059D01*
X695772Y-797725D01*
X698105Y-795392D01*
X700369Y-794684D01*
X703479Y-794684D01*
X706590Y-796241D01*
X710479Y-798573D01*
X712743Y-799281D01*
X715077Y-798503D01*
X716631Y-796948D01*
X717339Y-794684D01*
X715853Y-791644D01*
X712743Y-788533D01*
X667112Y-692887D02*
G01*
X650918Y-709081D01*
X667112Y-692887D02*
G01*
X674041Y-699818D01*
X675596Y-702928D01*
X675596Y-704484D01*
X674890Y-706747D01*
X672557Y-709081D01*
X670223Y-709859D01*
X668667Y-709859D01*
X665556Y-708303D01*
X658627Y-701372D01*
X683022Y-708798D02*
G01*
X666828Y-724991D01*
X683022Y-708798D02*
G01*
X689951Y-715727D01*
X691507Y-718838D01*
X691507Y-720394D01*
X690729Y-722586D01*
X689173Y-724142D01*
X686911Y-724991D01*
X685354Y-724991D01*
X682244Y-723434D01*
X675313Y-716505D02*
G01*
X682244Y-723434D01*
X683800Y-726545D01*
X683800Y-728101D01*
X682950Y-730365D01*
X680688Y-732627D01*
X678425Y-733476D01*
X676869Y-733476D01*
X673759Y-731920D01*
X666828Y-724991D01*
X703528Y-740052D02*
G01*
X700417Y-741608D01*
X697375Y-741678D01*
X694265Y-740122D01*
X693487Y-739344D01*
X691930Y-736233D01*
X691930Y-733121D01*
X693487Y-730010D01*
X694265Y-729232D01*
X697305Y-727748D01*
X700417Y-727748D01*
X703528Y-729304D01*
X704306Y-730082D01*
X705860Y-733193D01*
X705790Y-736233D01*
X703528Y-740052D01*
X699639Y-743940D01*
X695043Y-746981D01*
X691224Y-747829D01*
X688112Y-746275D01*
X686556Y-744719D01*
X685001Y-741608D01*
X685779Y-739274D01*
X353667Y-639443D02*
G01*
X362152Y-647928D01*
X351334Y-649414D01*
X353667Y-651747D01*
X354445Y-654081D01*
X354445Y-655635D01*
X352890Y-658748D01*
X351404Y-660232D01*
X348294Y-661788D01*
X345181Y-661788D01*
X342071Y-660232D01*
X339807Y-657970D01*
X338252Y-654859D01*
X338252Y-653303D01*
X339030Y-650969D01*
X368022Y-653798D02*
G01*
X357980Y-676141D01*
X380326Y-666102D02*
G01*
X357980Y-676141D01*
X386972Y-672748D02*
G01*
X395457Y-681233D01*
X384710Y-682788D01*
X386972Y-685052D01*
X387750Y-687384D01*
X387750Y-688940D01*
X386194Y-692051D01*
X384710Y-693537D01*
X381597Y-695093D01*
X378487Y-695093D01*
X375446Y-693607D01*
X373112Y-691275D01*
X371556Y-688162D01*
X371556Y-686608D01*
X372334Y-684274D01*
X460596Y-641039D02*
G01*
X460596Y-637928D01*
X459041Y-634818D01*
X456001Y-631777D01*
X452890Y-630221D01*
X449778Y-630221D01*
X448294Y-631705D01*
X447516Y-634040D01*
X447516Y-635594D01*
X448294Y-637928D01*
X451334Y-644081D01*
X452112Y-646413D01*
X452112Y-647970D01*
X451404Y-650232D01*
X449070Y-652566D01*
X445960Y-652566D01*
X442849Y-651010D01*
X439807Y-647970D01*
X438252Y-644859D01*
X438252Y-641747D01*
X468022Y-643798D02*
G01*
X455648Y-663809D01*
X475729Y-651505D02*
G01*
X455648Y-663809D01*
X475729Y-651505D02*
G01*
X463355Y-671516D01*
X483436Y-659212D02*
G01*
X463355Y-671516D01*
X496305Y-679719D02*
G01*
X497013Y-677456D01*
X497013Y-674344D01*
X496235Y-672011D01*
X493123Y-668899D01*
X490860Y-668193D01*
X487750Y-668193D01*
X485486Y-668899D01*
X482375Y-670455D01*
X478487Y-674344D01*
X477002Y-677384D01*
X476224Y-679719D01*
X476224Y-682829D01*
X476930Y-685093D01*
X480043Y-688204D01*
X482375Y-688982D01*
X485486Y-688982D01*
X487820Y-688204D01*
X505216Y-680992D02*
G01*
X489023Y-697184D01*
X489023Y-697184D02*
G01*
X498215Y-706377D01*
X519499Y-695275D02*
G01*
X503306Y-711467D01*
X530318Y-706093D02*
G01*
X508681Y-706093D01*
X516458Y-706093D02*
G01*
X514124Y-722287D01*
X560596Y-641039D02*
G01*
X560596Y-637928D01*
X559041Y-634818D01*
X556001Y-631777D01*
X552890Y-630221D01*
X549778Y-630221D01*
X548294Y-631705D01*
X547516Y-634040D01*
X547516Y-635594D01*
X548294Y-637928D01*
X551334Y-644081D01*
X552112Y-646413D01*
X552112Y-647970D01*
X551404Y-650232D01*
X549070Y-652566D01*
X545960Y-652566D01*
X542849Y-651010D01*
X539807Y-647970D01*
X538252Y-644859D01*
X538252Y-641747D01*
X568022Y-643798D02*
G01*
X555648Y-663809D01*
X575729Y-651505D02*
G01*
X555648Y-663809D01*
X575729Y-651505D02*
G01*
X563355Y-671516D01*
X583436Y-659212D02*
G01*
X563355Y-671516D01*
X588528Y-664304D02*
G01*
X572334Y-680497D01*
X588528Y-664304D02*
G01*
X593901Y-669677D01*
X595457Y-672788D01*
X595457Y-675900D01*
X594751Y-678162D01*
X593195Y-681275D01*
X589306Y-685163D01*
X586264Y-686649D01*
X583931Y-687426D01*
X580821Y-687426D01*
X577708Y-685871D01*
X572334Y-680497D01*
X604438Y-680214D02*
G01*
X588245Y-696406D01*
X614124Y-689900D02*
G01*
X611792Y-689122D01*
X608681Y-689122D01*
X606487Y-689900D01*
X603377Y-691457D01*
X599488Y-695345D01*
X598002Y-698386D01*
X597154Y-700648D01*
X597154Y-703760D01*
X597932Y-706093D01*
X601044Y-709205D01*
X603377Y-709983D01*
X606417Y-709911D01*
X608751Y-709135D01*
X611792Y-707649D01*
X615680Y-703760D01*
X617237Y-700648D01*
X617944Y-698386D01*
X618013Y-695345D01*
X617237Y-693013D01*
X614124Y-689900D01*
X652112Y-642887D02*
G01*
X642071Y-665232D01*
X664486Y-655261D02*
G01*
X642071Y-665232D01*
X669578Y-660354D02*
G01*
X653384Y-676545D01*
X674668Y-665444D02*
G01*
X658476Y-681637D01*
X674668Y-665444D02*
G01*
X669223Y-692384D01*
X685417Y-676192D02*
G01*
X669223Y-692384D01*
X259890Y-653303D02*
G01*
X260596Y-651039D01*
X260596Y-647928D01*
X259819Y-645594D01*
X256707Y-642483D01*
X254445Y-641777D01*
X251334Y-641777D01*
X249070Y-642483D01*
X245960Y-644040D01*
X242071Y-647928D01*
X240585Y-650969D01*
X239807Y-653303D01*
X239807Y-656413D01*
X240515Y-658676D01*
X243627Y-661788D01*
X245960Y-662566D01*
X249070Y-662566D01*
X251404Y-661788D01*
X253667Y-659524D01*
X249778Y-655635D02*
G01*
X253667Y-659524D01*
X268800Y-654576D02*
G01*
X252606Y-670767D01*
X268800Y-654576D02*
G01*
X263355Y-681516D01*
X279547Y-665324D02*
G01*
X263355Y-681516D01*
X284639Y-670414D02*
G01*
X268445Y-686608D01*
X284639Y-670414D02*
G01*
X290084Y-675859D01*
X291568Y-678899D01*
X291568Y-682011D01*
X290860Y-684274D01*
X289306Y-687384D01*
X285417Y-691275D01*
X282375Y-692759D01*
X280043Y-693537D01*
X276930Y-693537D01*
X273890Y-692051D01*
X268445Y-686608D01*
X157112Y-642887D02*
G01*
X140918Y-659081D01*
X157112Y-642887D02*
G01*
X164041Y-649818D01*
X165596Y-652928D01*
X165596Y-654484D01*
X164890Y-656747D01*
X162557Y-659081D01*
X160223Y-659859D01*
X158667Y-659859D01*
X155556Y-658303D01*
X148627Y-651372D01*
X180729Y-674142D02*
G01*
X181435Y-671878D01*
X181507Y-668838D01*
X180729Y-666505D01*
X177618Y-663393D01*
X175284Y-662615D01*
X172244Y-662687D01*
X169980Y-663393D01*
X166869Y-664949D01*
X162980Y-668838D01*
X161496Y-671878D01*
X160718Y-674212D01*
X160648Y-677253D01*
X161424Y-679587D01*
X164537Y-682698D01*
X166869Y-683476D01*
X169911Y-683404D01*
X172244Y-682627D01*
X186597Y-678454D02*
G01*
X188861Y-679304D01*
X193528Y-679304D01*
X177334Y-695497D01*
X200174Y-685951D02*
G01*
X208659Y-694436D01*
X197840Y-695920D01*
X200174Y-698254D01*
X200952Y-700587D01*
X200952Y-702143D01*
X199396Y-705255D01*
X197912Y-706739D01*
X194801Y-708294D01*
X191689Y-708294D01*
X188578Y-706739D01*
X186244Y-704405D01*
X184760Y-701365D01*
X184760Y-699810D01*
X185538Y-697476D01*
D11*
X621601Y-910000D02*
G01*
X650300Y-910000D01*
X650300Y-910000D02*
G01*
X650300Y-893600D01*
X621601Y-884600D02*
G01*
X650300Y-884600D01*
X621601Y-884600D02*
G01*
X621601Y-866900D01*
X635300Y-884600D02*
G01*
X635302Y-873699D01*
X650300Y-884600D02*
G01*
X650300Y-866900D01*
X621601Y-857899D02*
G01*
X650300Y-857899D01*
X621601Y-857899D02*
G01*
X621601Y-848400D01*
X623000Y-844299D01*
X625700Y-841500D01*
X628501Y-840199D01*
X632501Y-838800D01*
X639400Y-838800D01*
X643501Y-840199D01*
X646201Y-841500D01*
X648901Y-844299D01*
X650300Y-848400D01*
X650300Y-857899D01*
X619699Y-801799D02*
G01*
X621100Y-804499D01*
X623800Y-807300D01*
X626500Y-808600D01*
X630599Y-810000D01*
X637500Y-810000D01*
X641500Y-808600D01*
X644299Y-807300D01*
X646999Y-804499D01*
X648400Y-801799D01*
X648400Y-796399D01*
X646999Y-793600D01*
X644299Y-790900D01*
X641500Y-789499D01*
X637500Y-788200D01*
X630599Y-788200D01*
X626500Y-789499D01*
X623800Y-790900D01*
X621100Y-793600D01*
X619699Y-796399D01*
X619699Y-801799D01*
X619699Y-779200D02*
G01*
X648400Y-779200D01*
X619699Y-779200D02*
G01*
X648400Y-760100D01*
X619699Y-760100D02*
G01*
X648400Y-760100D01*
D10*
X324800Y-1690000D02*
G01*
X343899Y-1690000D01*
X324800Y-1690000D02*
G01*
X324800Y-1681799D01*
X325700Y-1679099D01*
X326599Y-1678200D01*
X328499Y-1677300D01*
X330300Y-1677300D01*
X332100Y-1678200D01*
X333000Y-1679099D01*
X333899Y-1681799D01*
X333899Y-1690000D01*
X333899Y-1683600D02*
G01*
X343899Y-1677300D01*
X324800Y-1671300D02*
G01*
X343899Y-1671300D01*
X324800Y-1671300D02*
G01*
X324800Y-1659499D01*
X333899Y-1671300D02*
G01*
X333899Y-1664000D01*
X343899Y-1671300D02*
G01*
X343899Y-1659499D01*
X327500Y-1640700D02*
G01*
X325700Y-1642500D01*
X324800Y-1645300D01*
X324800Y-1648899D01*
X325700Y-1651599D01*
X327500Y-1653499D01*
X329400Y-1653499D01*
X331199Y-1652500D01*
X332100Y-1651599D01*
X333000Y-1649800D01*
X334800Y-1644400D01*
X335700Y-1642500D01*
X336599Y-1641599D01*
X338499Y-1640700D01*
X341199Y-1640700D01*
X343000Y-1642500D01*
X343899Y-1645300D01*
X343899Y-1648899D01*
X343000Y-1651599D01*
X341199Y-1653499D01*
X324800Y-1634699D02*
G01*
X343899Y-1634699D01*
X324800Y-1634699D02*
G01*
X324800Y-1622899D01*
X333899Y-1634699D02*
G01*
X333899Y-1627500D01*
X343899Y-1634699D02*
G01*
X343899Y-1622899D01*
X324800Y-1610500D02*
G01*
X343899Y-1610500D01*
X324800Y-1616900D02*
G01*
X324800Y-1604200D01*
X198303Y-1795109D02*
G01*
X196039Y-1794403D01*
X192928Y-1794403D01*
X190594Y-1795180D01*
X187483Y-1798292D01*
X186777Y-1800554D01*
X186777Y-1803665D01*
X187483Y-1805929D01*
X189039Y-1809040D01*
X192928Y-1812928D01*
X195969Y-1814414D01*
X198303Y-1815192D01*
X201413Y-1815192D01*
X203676Y-1814484D01*
X206788Y-1811372D01*
X207566Y-1809040D01*
X207566Y-1805929D01*
X206788Y-1803595D01*
X204524Y-1801332D01*
X200635Y-1805221D02*
G01*
X204524Y-1801332D01*
X199576Y-1786199D02*
G01*
X215767Y-1802393D01*
X199576Y-1786199D02*
G01*
X226516Y-1791644D01*
X210324Y-1775452D02*
G01*
X226516Y-1791644D01*
X215414Y-1770360D02*
G01*
X231608Y-1786554D01*
X215414Y-1770360D02*
G01*
X220859Y-1764915D01*
X223899Y-1763431D01*
X227011Y-1763431D01*
X229274Y-1764139D01*
X232384Y-1765693D01*
X236275Y-1769582D01*
X237759Y-1772624D01*
X238537Y-1774956D01*
X238537Y-1778069D01*
X237051Y-1781109D01*
X231608Y-1786554D01*
D12*
X463159Y-1492159D02*
G01*
X484798Y-1513798D01*
X463159Y-1492159D02*
G01*
X472424Y-1482896D01*
X476595Y-1480846D01*
X478575Y-1480846D01*
X481687Y-1481837D01*
X484798Y-1484947D01*
X485787Y-1488058D01*
X485859Y-1490109D01*
X483737Y-1494211D01*
X474474Y-1503474D01*
X491586Y-1478159D02*
G01*
X506010Y-1492584D01*
X497737Y-1484312D02*
G01*
X495686Y-1480281D01*
X495617Y-1476109D01*
X496676Y-1473069D01*
X499789Y-1469956D01*
X511738Y-1458006D02*
G01*
X510677Y-1461048D01*
X510749Y-1465219D01*
X512728Y-1469321D01*
X514778Y-1471372D01*
X518951Y-1473422D01*
X523051Y-1473422D01*
X526163Y-1472431D01*
X529203Y-1469391D01*
X530194Y-1466280D01*
X530264Y-1462107D01*
X528144Y-1458006D01*
X526093Y-1455956D01*
X522062Y-1453906D01*
X517820Y-1453906D01*
X514778Y-1454967D01*
X511738Y-1458006D01*
X519517Y-1435803D02*
G01*
X541154Y-1457442D01*
X519517Y-1435803D02*
G01*
X549357Y-1449238D01*
X535992Y-1419328D02*
G01*
X549357Y-1449238D01*
X535992Y-1419328D02*
G01*
X557629Y-1440965D01*
X542781Y-1412539D02*
G01*
X544830Y-1412611D01*
X544830Y-1410489D01*
X542781Y-1410560D01*
X542781Y-1412539D01*
X550983Y-1418762D02*
G01*
X565408Y-1433188D01*
X558832Y-1410913D02*
G01*
X573256Y-1425338D01*
X562932Y-1415014D02*
G01*
X562932Y-1408793D01*
X563993Y-1405752D01*
X567033Y-1402710D01*
X570075Y-1401651D01*
X574247Y-1403701D01*
X584571Y-1414025D01*
X569720Y-1385599D02*
G01*
X571772Y-1385670D01*
X571772Y-1383548D01*
X569720Y-1383620D01*
X569720Y-1385599D01*
X577923Y-1391822D02*
G01*
X592348Y-1406246D01*
X245153Y-1309697D02*
G01*
X245153Y-1305594D01*
X243103Y-1301424D01*
X239000Y-1297321D01*
X234828Y-1295272D01*
X230727Y-1295272D01*
X228677Y-1297321D01*
X227687Y-1300434D01*
X227687Y-1302413D01*
X228677Y-1305524D01*
X232779Y-1313726D01*
X233840Y-1316909D01*
X233840Y-1318888D01*
X232849Y-1321999D01*
X229738Y-1325111D01*
X225637Y-1325111D01*
X221464Y-1323060D01*
X217363Y-1318960D01*
X215313Y-1314787D01*
X215313Y-1310686D01*
X262195Y-1320515D02*
G01*
X240556Y-1342152D01*
X255052Y-1313373D02*
G01*
X269407Y-1327728D01*
X276194Y-1334515D02*
G01*
X254558Y-1356154D01*
X276194Y-1334515D02*
G01*
X262831Y-1364427D01*
X292671Y-1350992D02*
G01*
X262831Y-1364427D01*
X292671Y-1350992D02*
G01*
X271033Y-1372629D01*
X301509Y-1359830D02*
G01*
X312822Y-1371143D01*
X298469Y-1373195D01*
X301509Y-1376235D01*
X302570Y-1379416D01*
X302500Y-1381467D01*
X300520Y-1385569D01*
X298469Y-1387620D01*
X294297Y-1389670D01*
X290196Y-1389670D01*
X286024Y-1387620D01*
X282982Y-1384578D01*
X280933Y-1380407D01*
X281003Y-1378357D01*
X281993Y-1375245D01*
X316500Y-1385145D02*
G01*
X317561Y-1384083D01*
X320671Y-1383094D01*
X322651Y-1383094D01*
X325763Y-1384083D01*
X329935Y-1388256D01*
X330925Y-1391368D01*
X330925Y-1393346D01*
X329935Y-1396458D01*
X327885Y-1398508D01*
X324773Y-1399499D01*
X319612Y-1400560D01*
X299034Y-1400630D01*
X313389Y-1414985D01*
D10*
X100000Y-1788000D02*
G01*
X190000Y-1788000D01*
X291999Y-1830000D02*
G01*
X291999Y-1880000D01*
X250000Y-1788000D02*
G01*
X240000Y-1788000D01*
D13*
X215999Y-568998D02*
G01*
X685999Y-568998D01*
D14*
X309729Y-122150D02*
G01*
X309729Y-70180D01*
X228229Y-70180D01*
X228229Y-122150D01*
X309729Y-166720D02*
G01*
X309729Y-218690D01*
X228229Y-218690D01*
X228229Y-166720D01*
X310740Y-298159D02*
G01*
X310740Y-246190D01*
X229239Y-246190D01*
X229239Y-298159D01*
X310740Y-342730D02*
G01*
X310740Y-394699D01*
X229239Y-394699D01*
X229239Y-342730D01*
X675740Y-123159D02*
G01*
X675740Y-71190D01*
X594239Y-71190D01*
X594239Y-123159D01*
X675740Y-167730D02*
G01*
X675740Y-219699D01*
X594239Y-219699D01*
X594239Y-167730D01*
X675740Y-303159D02*
G01*
X675740Y-251190D01*
X594239Y-251190D01*
X594239Y-303159D01*
X675740Y-347730D02*
G01*
X675740Y-399699D01*
X594239Y-399699D01*
X594239Y-347730D01*
D11*
X613000Y-1652300D02*
G01*
X613000Y-1677300D01*
X646999Y-1677300D01*
X646999Y-1656300D01*
X646999Y-1652300D01*
X646999Y-1637300D02*
G01*
X646999Y-1613299D01*
X613000Y-1613299D01*
X613000Y-1634299D01*
X613000Y-1637300D01*
X329699Y-1496999D02*
G01*
X304699Y-1496999D01*
X304699Y-1530999D01*
X325700Y-1530999D01*
X329699Y-1530999D01*
X344699Y-1530999D02*
G01*
X368699Y-1530999D01*
X368699Y-1496999D01*
X347699Y-1496999D01*
X344699Y-1496999D01*
X407699Y-1498000D02*
G01*
X382699Y-1498000D01*
X382699Y-1531999D01*
X403699Y-1531999D01*
X407699Y-1531999D01*
X422699Y-1531999D02*
G01*
X446700Y-1531999D01*
X446700Y-1498000D01*
X425700Y-1498000D01*
X422699Y-1498000D01*
X566999Y-1032699D02*
G01*
X566999Y-1007699D01*
X533000Y-1007699D01*
X533000Y-1028699D01*
X533000Y-1032699D01*
X533000Y-1047699D02*
G01*
X533000Y-1071700D01*
X566999Y-1071700D01*
X566999Y-1050700D01*
X566999Y-1047699D01*
X623000Y-1397300D02*
G01*
X623000Y-1422300D01*
X656999Y-1422300D01*
X656999Y-1401300D01*
X656999Y-1397300D01*
X656999Y-1382300D02*
G01*
X656999Y-1358299D01*
X623000Y-1358299D01*
X623000Y-1379299D01*
X623000Y-1382300D01*
X611999Y-957699D02*
G01*
X611999Y-932699D01*
X578000Y-932699D01*
X578000Y-953699D01*
X578000Y-957699D01*
X578000Y-972699D02*
G01*
X578000Y-996700D01*
X611999Y-996700D01*
X611999Y-975700D01*
X611999Y-972699D01*
X611999Y-1032699D02*
G01*
X611999Y-1007699D01*
X578000Y-1007699D01*
X578000Y-1028699D01*
X578000Y-1032699D01*
X578000Y-1047699D02*
G01*
X578000Y-1071700D01*
X611999Y-1071700D01*
X611999Y-1050700D01*
X611999Y-1047699D01*
X656999Y-957699D02*
G01*
X656999Y-932699D01*
X623000Y-932699D01*
X623000Y-953699D01*
X623000Y-957699D01*
X623000Y-972699D02*
G01*
X623000Y-996700D01*
X656999Y-996700D01*
X656999Y-975700D01*
X656999Y-972699D01*
X457699Y-858000D02*
G01*
X432699Y-858000D01*
X432699Y-891999D01*
X453699Y-891999D01*
X457699Y-891999D01*
X472699Y-891999D02*
G01*
X496700Y-891999D01*
X496700Y-858000D01*
X475700Y-858000D01*
X472699Y-858000D01*
X434987Y-1029630D02*
G01*
X466093Y-1029630D01*
X466093Y-990369D02*
G01*
X434987Y-990369D01*
X428987Y-996370D02*
G01*
X428987Y-1023629D01*
X515012Y-1029630D02*
G01*
X483906Y-1029630D01*
X483906Y-990369D02*
G01*
X515012Y-990369D01*
X521012Y-996370D02*
G01*
X521012Y-1023629D01*
X415012Y-990369D02*
G01*
X383906Y-990369D01*
X383906Y-1029630D02*
G01*
X415012Y-1029630D01*
X421012Y-1023629D02*
G01*
X421012Y-996370D01*
X334987Y-990369D02*
G01*
X366093Y-990369D01*
X366093Y-1029630D02*
G01*
X334987Y-1029630D01*
X328987Y-1023629D02*
G01*
X328987Y-996370D01*
X329987Y-894630D02*
G01*
X361093Y-894630D01*
X361093Y-855369D02*
G01*
X329987Y-855369D01*
X323987Y-861370D02*
G01*
X323987Y-888629D01*
X410012Y-894630D02*
G01*
X378906Y-894630D01*
X378906Y-855369D02*
G01*
X410012Y-855369D01*
X416012Y-861370D02*
G01*
X416012Y-888629D01*
X305012Y-855369D02*
G01*
X273906Y-855369D01*
X273906Y-894630D02*
G01*
X305012Y-894630D01*
X311012Y-888629D02*
G01*
X311012Y-861370D01*
X224987Y-855369D02*
G01*
X256093Y-855369D01*
X256093Y-894630D02*
G01*
X224987Y-894630D01*
X218987Y-888629D02*
G01*
X218987Y-861370D01*
X284630Y-1150012D02*
G01*
X284630Y-1118906D01*
X245369Y-1118906D02*
G01*
X245369Y-1150012D01*
X251370Y-1156012D02*
G01*
X278629Y-1156012D01*
X284630Y-1069987D02*
G01*
X284630Y-1101093D01*
X245369Y-1101093D02*
G01*
X245369Y-1069987D01*
X251370Y-1063987D02*
G01*
X278629Y-1063987D01*
X293000Y-1112300D02*
G01*
X293000Y-1137300D01*
X326999Y-1137300D01*
X326999Y-1116300D01*
X326999Y-1112300D01*
X326999Y-1097300D02*
G01*
X326999Y-1073299D01*
X293000Y-1073299D01*
X293000Y-1094299D01*
X293000Y-1097300D01*
X565700Y-695999D02*
G01*
X540700Y-695999D01*
X540700Y-730000D01*
X561700Y-730000D01*
X565700Y-730000D01*
X580700Y-730000D02*
G01*
X604699Y-730000D01*
X604699Y-695999D01*
X583699Y-695999D01*
X580700Y-695999D01*
D15*
X244355Y-944933D02*
G01*
X244355Y-974933D01*
X244355Y-1044540D02*
G01*
X244355Y-1014540D01*
X296372Y-1044540D02*
G01*
X296372Y-1014540D01*
D11*
X296372Y-1044540D02*
G01*
X290371Y-1050536D01*
X250354Y-1050536D01*
X244355Y-1044540D01*
D15*
X296372Y-944933D02*
G01*
X296372Y-974933D01*
D11*
X244355Y-944933D02*
G01*
X250354Y-938933D01*
X290371Y-938933D01*
X296372Y-944933D01*
D16*
X516026Y-810435D02*
G01*
X516026Y-739567D01*
X470751Y-810435D02*
G01*
X439254Y-810435D01*
X393978Y-810435D02*
G01*
X393978Y-739567D01*
D17*
X577283Y-867127D02*
G01*
X577283Y-833661D01*
X612716Y-867127D02*
G01*
X612716Y-833661D01*
X577283Y-882874D02*
G01*
X577283Y-912402D01*
X612716Y-882874D02*
G01*
X612716Y-912402D01*
X577283Y-833659D02*
G01*
X612716Y-833661D01*
X585156Y-920275D02*
G01*
X604843Y-920275D01*
X577283Y-912402D02*
G01*
X577283Y-912402D01*
X585156Y-920275D01*
X612716Y-912402D02*
G01*
X604843Y-920275D01*
X587125Y-871457D02*
G01*
X602874Y-871457D01*
X594974Y-871457D02*
G01*
X594998Y-878775D01*
X577283Y-773191D02*
G01*
X577283Y-739724D01*
X612716Y-773191D02*
G01*
X612716Y-739724D01*
X577283Y-788937D02*
G01*
X577283Y-818465D01*
X612716Y-788937D02*
G01*
X612716Y-818465D01*
X577283Y-739724D02*
G01*
X612716Y-739724D01*
X585156Y-826340D02*
G01*
X604843Y-826340D01*
X577283Y-818465D02*
G01*
X577283Y-818467D01*
X585156Y-826340D01*
X612716Y-818465D02*
G01*
X604843Y-826340D01*
X587125Y-777521D02*
G01*
X602874Y-777521D01*
X594974Y-777521D02*
G01*
X594998Y-784839D01*
D16*
X445599Y-1573099D02*
G01*
X520399Y-1573099D01*
X555900Y-1608600D01*
X555900Y-1679400D01*
X516500Y-1718800D01*
X449600Y-1718800D01*
X414099Y-1683299D01*
X414099Y-1604600D01*
X445599Y-1573099D01*
X535199Y-1543600D02*
G01*
X570439Y-1578838D01*
X585399Y-1598000D02*
G01*
X585399Y-1690000D01*
X570439Y-1709160D02*
G01*
X535199Y-1744400D01*
X384600Y-1598000D02*
G01*
X384600Y-1690000D01*
X399560Y-1709160D02*
G01*
X434800Y-1744400D01*
X434800Y-1543600D02*
G01*
X399560Y-1578838D01*
X434800Y-1744400D02*
G01*
X535199Y-1744400D01*
X434800Y-1543600D02*
G01*
X535199Y-1543600D01*
D11*
X566999Y-957699D02*
G01*
X566999Y-932699D01*
X533000Y-932699D01*
X533000Y-953699D01*
X533000Y-957699D01*
X533000Y-972699D02*
G01*
X533000Y-996700D01*
X566999Y-996700D01*
X566999Y-975700D01*
X566999Y-972699D01*
X344299Y-1476999D02*
G01*
X369299Y-1476999D01*
X369299Y-1443000D01*
X348299Y-1443000D01*
X344299Y-1443000D01*
X329299Y-1443000D02*
G01*
X305300Y-1443000D01*
X305300Y-1476999D01*
X326300Y-1476999D01*
X329299Y-1476999D01*
X566999Y-867699D02*
G01*
X566999Y-842699D01*
X533000Y-842699D01*
X533000Y-863699D01*
X533000Y-867699D01*
X533000Y-882699D02*
G01*
X533000Y-906700D01*
X566999Y-906700D01*
X566999Y-885700D01*
X566999Y-882699D01*
X533000Y-787300D02*
G01*
X533000Y-812300D01*
X566999Y-812300D01*
X566999Y-791300D01*
X566999Y-787300D01*
X566999Y-772300D02*
G01*
X566999Y-748299D01*
X533000Y-748299D01*
X533000Y-769299D01*
X533000Y-772300D01*
D18*
X255821Y-1291830D02*
G01*
X243991Y-1280000D01*
X255821Y-1268170D01*
X438170Y-1474178D02*
G01*
X450000Y-1486008D01*
X461829Y-1474178D01*
X644178Y-1268170D02*
G01*
X656008Y-1280000D01*
X644178Y-1291830D01*
X438170Y-1085821D02*
G01*
X450000Y-1073991D01*
X461829Y-1085821D01*
D15*
X210000Y-834994D02*
G01*
X210000Y-854994D01*
X230000Y-854994D01*
D11*
X220100Y-846089D02*
G01*
X220100Y-714989D01*
X380000Y-714994D01*
X380000Y-779994D01*
X380000Y-844994D01*
X380000Y-844994D01*
X220100Y-846089D01*
D16*
X405000Y-915000D02*
G01*
X445000Y-915000D01*
X445000Y-975000D02*
G01*
X405000Y-975000D01*
D14*
X585740Y-303159D02*
G01*
X585740Y-251190D01*
X504239Y-251190D01*
X504239Y-303159D01*
X585740Y-347730D02*
G01*
X585740Y-399699D01*
X504239Y-399699D01*
X504239Y-347730D01*
X400740Y-298159D02*
G01*
X400740Y-246190D01*
X319239Y-246190D01*
X319239Y-298159D01*
X400740Y-342730D02*
G01*
X400740Y-394699D01*
X319239Y-394699D01*
X319239Y-342730D01*
X585740Y-123159D02*
G01*
X585740Y-71190D01*
X504239Y-71190D01*
X504239Y-123159D01*
X585740Y-167730D02*
G01*
X585740Y-219699D01*
X504239Y-219699D01*
X504239Y-167730D01*
X399729Y-122150D02*
G01*
X399729Y-70180D01*
X318229Y-70180D01*
X318229Y-122150D01*
X399729Y-166720D02*
G01*
X399729Y-218690D01*
X318229Y-218690D01*
X318229Y-166720D01*
D16*
X550999Y-495000D02*
G01*
X590999Y-479000D01*
X590999Y-479000D02*
G01*
X590999Y-510999D01*
X590999Y-510999D02*
G01*
X550999Y-495000D01*
X511945Y-455630D02*
G01*
X630055Y-455630D01*
X511945Y-534369D02*
G01*
X630055Y-534369D01*
X550999Y-475000D02*
G01*
X550999Y-515000D01*
X540999Y-495000D02*
G01*
X600999Y-495000D01*
D11*
X372500Y-448000D02*
G01*
X347500Y-448000D01*
X347500Y-481999D01*
X368499Y-481999D01*
X372500Y-481999D01*
X387500Y-481999D02*
G01*
X411500Y-481999D01*
X411500Y-448000D01*
X390500Y-448000D01*
X387500Y-448000D01*
D10*
G75*
G01*
X292000Y-1830000D02*
G03*
X249988Y-1787988I-42012J0D01*
D11*
G75*
G01*
X434988Y-990370D02*
G03*
X428988Y-996370I0J-6000D01*
G75*
G01*
X428988Y-1023630D02*
G03*
X434988Y-1029630I6000J0D01*
G75*
G01*
X515012Y-990370D02*
G02*
X521012Y-996370I0J-6000D01*
G75*
G01*
X521012Y-1023630D02*
G02*
X515012Y-1029630I-6000J0D01*
G75*
G01*
X415012Y-1029630D02*
G03*
X421012Y-1023630I0J6000D01*
G75*
G01*
X421012Y-996370D02*
G03*
X415012Y-990370I-6000J0D01*
G75*
G01*
X334988Y-1029630D02*
G02*
X328988Y-1023630I0J6000D01*
G75*
G01*
X328988Y-996370D02*
G02*
X334988Y-990370I6000J0D01*
G75*
G01*
X329988Y-855370D02*
G03*
X323988Y-861370I0J-6000D01*
G75*
G01*
X323988Y-888630D02*
G03*
X329988Y-894630I6000J0D01*
G75*
G01*
X410012Y-855370D02*
G02*
X416012Y-861370I0J-6000D01*
G75*
G01*
X416012Y-888630D02*
G02*
X410012Y-894630I-6000J0D01*
G75*
G01*
X305012Y-894630D02*
G03*
X311012Y-888630I0J6000D01*
G75*
G01*
X311012Y-861370D02*
G03*
X305012Y-855370I-6000J0D01*
G75*
G01*
X224988Y-894630D02*
G02*
X218988Y-888630I0J6000D01*
G75*
G01*
X218988Y-861370D02*
G02*
X224988Y-855370I6000J0D01*
G75*
G01*
X245370Y-1150012D02*
G03*
X251370Y-1156012I6000J0D01*
G75*
G01*
X278630Y-1156012D02*
G03*
X284630Y-1150012I0J6000D01*
G75*
G01*
X245370Y-1069988D02*
G02*
X251370Y-1063988I6000J0D01*
G75*
G01*
X278630Y-1063988D02*
G02*
X284630Y-1069988I0J-6000D01*
D19*
G75*
G01*
X431898Y-1064191D02*
G03*
X431827Y-1064262I-4212J4141D01*
D16*
G75*
G01
X525000Y-715010D02*
G03X525000Y-715010I-5000J0D01*
G75*
G01
X535200Y-1644000D02*
G03X535200Y-1644000I-50200J0D01*
M02*
