%FSLAX36Y36*%
%MOIN*%

%AMMACRO1*1,1,$1,$2,$3*1,1,$1,$4,$5*20,1,$1,$2,$3,$4,$5,0*%
%AMMACRO2*21,1,$1,$2,0,0,$3*%
%ADD10R,0.0700X0.0500*%
%ADD11R,0.0571X0.0457*%
%ADD12R,0.0256X0.0236*%
%ADD13R,0.0236X0.0256*%
%ADD14R,0.0236X0.0394*%
%ADD15R,0.0197X0.0236*%
%ADD16R,0.0669X0.0394*%
%ADD17MACRO1,0.011X-0.0086X0.0086X0.0086X-0.0086*%
%ADD18MACRO1,0.011X-0.0086X-0.0086X0.0086X0.0086*%
%ADD19MACRO2,0.2165X0.2165X-135.0000*%
%ADD20R,0.0551X0.0472*%
%ADD21R,0.0394X0.0709*%
%ADD22R,0.0472X0.0551*%

%LPD*%
G36*
X484840Y-999180D02*
G01*
X482080Y-1001140D01*
X482080Y-1018860D01*
X484840Y-1020819D01*
X503740Y-1020819D01*
X505700Y-1018860D01*
X505700Y-1001140D01*
X503740Y-999180D01*
G37*
G36*
X446260Y-999180D02*
G01*
X444300Y-1001140D01*
X444300Y-1018860D01*
X446260Y-1020819D01*
X465160Y-1020819D01*
X467920Y-1018860D01*
X467920Y-1001140D01*
X465160Y-999180D01*
G37*
G36*
X346260Y-999180D02*
G01*
X344300Y-1001140D01*
X344300Y-1018860D01*
X346260Y-1020819D01*
X365160Y-1020819D01*
X367920Y-1018860D01*
X367920Y-1001140D01*
X365160Y-999180D01*
G37*
G36*
X384840Y-999180D02*
G01*
X382080Y-1001140D01*
X382080Y-1018860D01*
X384840Y-1020819D01*
X403740Y-1020819D01*
X405700Y-1018860D01*
X405700Y-1001140D01*
X403740Y-999180D01*
G37*
G36*
X379840Y-864180D02*
G01*
X377080Y-866140D01*
X377080Y-883860D01*
X379840Y-885819D01*
X398740Y-885819D01*
X400700Y-883860D01*
X400700Y-866140D01*
X398740Y-864180D01*
G37*
G36*
X341260Y-864180D02*
G01*
X339300Y-866140D01*
X339300Y-883860D01*
X341260Y-885819D01*
X360160Y-885819D01*
X362920Y-883860D01*
X362920Y-866140D01*
X360160Y-864180D01*
G37*
G36*
X236260Y-864180D02*
G01*
X234300Y-866140D01*
X234300Y-883860D01*
X236260Y-885819D01*
X255159Y-885819D01*
X257920Y-883860D01*
X257920Y-866140D01*
X255159Y-864180D01*
G37*
G36*
X274840Y-864180D02*
G01*
X272080Y-866140D01*
X272080Y-883860D01*
X274840Y-885819D01*
X293740Y-885819D01*
X295700Y-883860D01*
X295700Y-866140D01*
X293740Y-864180D01*
G37*
G36*
X256140Y-1079300D02*
G01*
X254180Y-1081260D01*
X254180Y-1100160D01*
X256140Y-1102920D01*
X273860Y-1102920D01*
X275820Y-1100160D01*
X275820Y-1081260D01*
X273860Y-1079300D01*
G37*
G36*
X256140Y-1117080D02*
G01*
X254180Y-1119840D01*
X254180Y-1138740D01*
X256140Y-1140700D01*
X273860Y-1140700D01*
X275820Y-1138740D01*
X275820Y-1119840D01*
X273860Y-1117080D01*
G37*
G36*
X255700Y-951960D02*
G01*
X253180Y-954479D01*
X253180Y-974300D01*
X264740Y-985100D01*
X275620Y-985100D01*
X287200Y-974300D01*
X287200Y-954479D01*
X284680Y-951960D01*
G37*
G36*
X265180Y-1005400D02*
G01*
X253619Y-1016200D01*
X253619Y-1036000D01*
X256140Y-1038520D01*
X285120Y-1038520D01*
X287640Y-1036000D01*
X287640Y-1016200D01*
X276080Y-1005400D01*
G37*
D10*
G01*
X200000Y-605000D03*
G01*
X700000Y-605000D03*
D11*
G01*
X268989Y-183989D03*
G01*
X268989Y-103989D03*
G01*
X270000Y-360000D03*
G01*
X270000Y-280000D03*
G01*
X635000Y-185000D03*
G01*
X635000Y-105000D03*
G01*
X635000Y-365000D03*
G01*
X635000Y-285000D03*
D12*
G01*
X630000Y-1628299D03*
G01*
X630000Y-1661700D03*
D13*
G01*
X353699Y-1514000D03*
G01*
X320300Y-1514000D03*
G01*
X431700Y-1515000D03*
G01*
X398299Y-1515000D03*
D12*
G01*
X550000Y-1056700D03*
G01*
X550000Y-1023299D03*
G01*
X640000Y-1373299D03*
G01*
X640000Y-1406700D03*
G01*
X595000Y-981700D03*
G01*
X595000Y-948299D03*
G01*
X595000Y-1056700D03*
G01*
X595000Y-1023299D03*
G01*
X640000Y-981700D03*
G01*
X640000Y-948299D03*
D13*
G01*
X481700Y-875000D03*
G01*
X448299Y-875000D03*
D12*
G01*
X310000Y-1088299D03*
G01*
X310000Y-1121700D03*
D13*
G01*
X589699Y-713000D03*
G01*
X556300Y-713000D03*
D14*
G01*
X492399Y-826190D03*
G01*
X417600Y-826190D03*
G01*
X417600Y-723820D03*
G01*
X455000Y-723820D03*
G01*
X492399Y-723820D03*
D15*
G01*
X595000Y-853350D03*
G01*
X595000Y-896649D03*
G01*
X595000Y-759409D03*
G01*
X595000Y-802719D03*
D16*
G01*
X355079Y-1571159D03*
G01*
X614920Y-1571159D03*
G01*
X355079Y-1716840D03*
G01*
X614920Y-1716840D03*
D12*
G01*
X550000Y-981700D03*
G01*
X550000Y-948299D03*
D13*
G01*
X320300Y-1460000D03*
G01*
X353699Y-1460000D03*
D12*
G01*
X550000Y-891700D03*
G01*
X550000Y-858299D03*
G01*
X550000Y-763299D03*
G01*
X550000Y-796700D03*
D17*
G01*
X430550Y-1107400D03*
G01*
X416620Y-1121330D03*
G01*
X402690Y-1135260D03*
G01*
X388759Y-1149190D03*
G01*
X374829Y-1163120D03*
G01*
X360899Y-1177050D03*
G01*
X347039Y-1190910D03*
G01*
X333109Y-1204840D03*
G01*
X319179Y-1218769D03*
G01*
X305249Y-1232699D03*
G01*
X291319Y-1246630D03*
G01*
X277390Y-1260560D03*
D18*
G01*
X277390Y-1299449D03*
G01*
X291319Y-1313379D03*
G01*
X305249Y-1327310D03*
G01*
X319179Y-1341240D03*
G01*
X333109Y-1355170D03*
G01*
X347039Y-1369100D03*
G01*
X360899Y-1382960D03*
G01*
X374829Y-1396890D03*
G01*
X388759Y-1410820D03*
G01*
X402690Y-1424750D03*
G01*
X416620Y-1438680D03*
G01*
X430550Y-1452609D03*
D17*
G01*
X469439Y-1452609D03*
G01*
X483369Y-1438680D03*
G01*
X497300Y-1424750D03*
G01*
X511230Y-1410820D03*
G01*
X525159Y-1396890D03*
G01*
X539089Y-1382960D03*
G01*
X552949Y-1369100D03*
G01*
X566879Y-1355170D03*
G01*
X580809Y-1341240D03*
G01*
X594739Y-1327310D03*
G01*
X608669Y-1313379D03*
G01*
X622599Y-1299449D03*
D18*
G01*
X622599Y-1260560D03*
G01*
X608669Y-1246630D03*
G01*
X594739Y-1232699D03*
G01*
X580809Y-1218769D03*
G01*
X566879Y-1204840D03*
G01*
X552949Y-1190910D03*
G01*
X539089Y-1177050D03*
G01*
X525159Y-1163120D03*
G01*
X511230Y-1149190D03*
G01*
X497300Y-1135260D03*
G01*
X483369Y-1121330D03*
G01*
X469439Y-1107400D03*
D19*
G01*
X449995Y-1280003D03*
D20*
G01*
X256689Y-814450D03*
G01*
X343310Y-814450D03*
G01*
X343310Y-745549D03*
G01*
X256689Y-745549D03*
D21*
G01*
X375790Y-945000D03*
G01*
X474209Y-945000D03*
D11*
G01*
X545000Y-365000D03*
G01*
X545000Y-285000D03*
G01*
X360000Y-360000D03*
G01*
X360000Y-280000D03*
G01*
X545000Y-185000D03*
G01*
X545000Y-105000D03*
G01*
X358989Y-183989D03*
G01*
X358989Y-103989D03*
D22*
G01*
X504070Y-495000D03*
G01*
X637930Y-495000D03*
D13*
G01*
X396500Y-465000D03*
G01*
X363099Y-465000D03*
M02*
