%FSLAX36Y36*%
%MOIN*%

%AMMACRO1*1,1,$1,$2,$3*1,1,$1,$4,$5*1,1,$1,0-$2,0-$3*1,1,$1,0-$4,0-$5*20,1,$1,$2,$3,$4,$5,0*20,1,$1,$4,$5,0-$2,0-$3,0*20,1,$1,0-$2,0-$3,0-$4,0-$5,0*20,1,$1,0-$4,0-$5,$2,$3,0*4,1,4,$2,$3,$4,$5,0-$2,0-$3,0-$4,0-$5,$2,$3,0*%
%ADD10MACRO1,0.0079X-0.0236X0.1968X0.0236X0.1968*%
%ADD11MACRO1,0.0079X-0.0236X0.16X0.0236X0.16*%
%ADD12R,0.0780X0.0580*%
%ADD13MACRO1,0.004X0.0118X0.0128X-0.0118X0.0128*%
%ADD14MACRO1,0.004X-0.0118X-0.0128X0.0118X-0.0128*%
%ADD15C,0.0594*%
%ADD16C,0.0780*%
%ADD17MACRO1,0.008X-0.05X0.035X0.05X0.035*%
%ADD18R,0.0780X0.1080*%

%LPD*%
D10*
G01*
X589996Y-245000D03*
D11*
G01*
X490999Y-260000D03*
G01*
X410999Y-260000D03*
D10*
G01*
X311471Y-240000D03*
D12*
G01*
X200000Y-605000D03*
G01*
X700000Y-605000D03*
D13*
G01*
X408299Y-1250000D03*
G01*
X441700Y-1250000D03*
D14*
G01*
X531700Y-1250000D03*
G01*
X498299Y-1250000D03*
D13*
G01*
X408299Y-1315000D03*
G01*
X441700Y-1315000D03*
D14*
G01*
X531700Y-1315000D03*
G01*
X498299Y-1315000D03*
D15*
G01*
X488000Y-53000D03*
D16*
G01*
X350999Y-1830000D03*
G01*
X450999Y-1830000D03*
G01*
X550999Y-1830000D03*
G01*
X650999Y-1830000D03*
G01*
X750999Y-1830000D03*
G01*
X750999Y-1730000D03*
G01*
X750999Y-1630000D03*
G01*
X750999Y-1530000D03*
G01*
X750999Y-1430000D03*
G01*
X750999Y-1330000D03*
G01*
X750999Y-1230000D03*
G01*
X750999Y-1130000D03*
G01*
X750999Y-1030000D03*
G01*
X750999Y-930000D03*
G01*
X750999Y-830000D03*
G01*
X750999Y-730000D03*
G01*
X700999Y-630000D03*
G01*
X600999Y-630000D03*
G01*
X500999Y-630000D03*
G01*
X400999Y-630000D03*
G01*
X300999Y-630000D03*
G01*
X150999Y-1830000D03*
G01*
X150999Y-1730000D03*
G01*
X150999Y-1630000D03*
G01*
X150999Y-1530000D03*
G01*
X150999Y-1430000D03*
G01*
X150999Y-1330000D03*
G01*
X150999Y-1230000D03*
G01*
X150999Y-1130000D03*
G01*
X150999Y-1030000D03*
G01*
X150999Y-930000D03*
G01*
X150999Y-830000D03*
G01*
X150999Y-730000D03*
G01*
X200999Y-630000D03*
G01*
X250000Y-1830000D03*
D17*
G01*
X800000Y-730000D03*
G01*
X800000Y-830000D03*
G01*
X800000Y-930000D03*
G01*
X800000Y-1030000D03*
G01*
X800000Y-1130000D03*
G01*
X800000Y-1230000D03*
G01*
X800000Y-1330000D03*
G01*
X800000Y-1430000D03*
G01*
X800000Y-1530000D03*
G01*
X800000Y-1630000D03*
G01*
X800000Y-1730000D03*
G01*
X800000Y-1830000D03*
G01*
X100000Y-1830000D03*
G01*
X100000Y-1730000D03*
G01*
X100000Y-1630000D03*
G01*
X100000Y-1530000D03*
G01*
X100000Y-1430000D03*
D18*
G01*
X250000Y-1880000D03*
G01*
X350000Y-1880000D03*
G01*
X450000Y-1880000D03*
D17*
G01*
X100000Y-1330000D03*
G01*
X100000Y-1130000D03*
G01*
X100000Y-1030000D03*
G01*
X100000Y-1230000D03*
G01*
X100000Y-930000D03*
G01*
X100000Y-830000D03*
G01*
X100000Y-730000D03*
D18*
G01*
X550000Y-1880000D03*
G01*
X650000Y-1880000D03*
D12*
G01*
X200000Y-570000D03*
G01*
X700000Y-570000D03*
M02*
