G04 Layer: BottomSolderMaskLayer*
G04 EasyEDA v6.3.22, 2019-12-31T17:55:44+09:00*
G04 0184c6d2394b44c9a03417ace044f3ee,67344a67363949849f01d11c0c7cf016,10*
G04 Gerber Generator version 0.2*
G04 Scale: 100 percent, Rotated: No, Reflected: No *
G04 Dimensions in inches *
G04 leading zeros omitted , absolute positions ,2 integer and 4 decimal *
%FSLAX24Y24*%
%MOIN*%
G90*
G70D02*

%ADD39C,0.078000*%
%ADD40C,0.059400*%

%LPD*%
G36*
G01X1828Y14392D02*
G01X1828Y18407D01*
G01X2380Y18407D01*
G01X2380Y14392D01*
G01X1828Y14392D01*
G37*
G36*
G01X2823Y14561D02*
G01X2823Y17838D01*
G01X3376Y17838D01*
G01X3376Y14561D01*
G01X2823Y14561D01*
G37*
G36*
G01X3623Y14561D02*
G01X3623Y17838D01*
G01X4176Y17838D01*
G01X4176Y14561D01*
G01X3623Y14561D01*
G37*
G36*
G01X4632Y14392D02*
G01X4632Y18407D01*
G01X5182Y18407D01*
G01X5182Y14392D01*
G01X4632Y14392D01*
G37*
G54D39*
G01X1000Y12500D03*
G01X500Y11500D03*
G01X500Y10500D03*
G01X500Y9500D03*
G01X500Y8500D03*
G01X500Y7500D03*
G01X500Y6500D03*
G01X500Y5500D03*
G01X500Y4500D03*
G01X500Y3500D03*
G01X500Y2500D03*
G01X500Y1500D03*
G01X500Y500D03*
G01X2000Y12500D03*
G01X3000Y12500D03*
G01X4000Y12500D03*
G01X5000Y12500D03*
G01X6000Y12500D03*
G01X6500Y11500D03*
G01X6500Y10500D03*
G01X6500Y9500D03*
G01X6500Y8500D03*
G01X6500Y7500D03*
G01X6500Y6500D03*
G01X6500Y5500D03*
G01X6500Y4500D03*
G01X6500Y3500D03*
G01X6500Y2500D03*
G01X6500Y1500D03*
G01X6500Y500D03*
G01X5500Y500D03*
G01X4500Y500D03*
G01X3500Y500D03*
G01X2500Y500D03*
G54D40*
G01X3900Y18300D03*
G01X1630Y500D03*
G36*
G01X4142Y6132D02*
G01X4142Y6467D01*
G01X4459Y6467D01*
G01X4459Y6132D01*
G01X4142Y6132D01*
G37*
G36*
G01X3809Y6132D02*
G01X3809Y6467D01*
G01X4125Y6467D01*
G01X4125Y6132D01*
G01X3809Y6132D01*
G37*
G36*
G01X3259Y5532D02*
G01X3259Y5867D01*
G01X3575Y5867D01*
G01X3575Y5532D01*
G01X3259Y5532D01*
G37*
G36*
G01X2925Y5532D02*
G01X2925Y5867D01*
G01X3240Y5867D01*
G01X3240Y5532D01*
G01X2925Y5532D01*
G37*
G36*
G01X4142Y5532D02*
G01X4142Y5867D01*
G01X4459Y5867D01*
G01X4459Y5532D01*
G01X4142Y5532D01*
G37*
G36*
G01X3809Y5532D02*
G01X3809Y5867D01*
G01X4125Y5867D01*
G01X4125Y5532D01*
G01X3809Y5532D01*
G37*
G36*
G01X3259Y6132D02*
G01X3259Y6467D01*
G01X3575Y6467D01*
G01X3575Y6132D01*
G01X3259Y6132D01*
G37*
G36*
G01X2925Y6132D02*
G01X2925Y6467D01*
G01X3240Y6467D01*
G01X3240Y6132D01*
G01X2925Y6132D01*
G37*
M00*
M02*
