G04 Layer: TopSolderMaskLayer*
G04 EasyEDA v6.3.22, 2020-01-01T23:03:08+09:00*
G04 2a2561d260e348c1961537ac3ee8d2e6,67344a67363949849f01d11c0c7cf016,10*
G04 Gerber Generator version 0.2*
G04 Scale: 100 percent, Rotated: No, Reflected: No *
G04 Dimensions in inches *
G04 leading zeros omitted , absolute positions ,2 integer and 4 decimal *
%FSLAX24Y24*%
%MOIN*%
G90*
G70D02*

%ADD38C,0.078000*%
%ADD39C,0.059400*%
%ADD41R,0.033590X0.031620*%

%LPD*%
G54D38*
G01X1000Y12500D03*
G01X500Y11500D03*
G01X500Y10500D03*
G01X500Y9500D03*
G01X500Y8500D03*
G01X500Y7500D03*
G01X500Y6500D03*
G01X500Y5500D03*
G01X500Y4500D03*
G01X500Y3500D03*
G01X500Y2500D03*
G01X500Y1500D03*
G01X500Y500D03*
G01X2000Y12500D03*
G01X3000Y12500D03*
G01X4000Y12500D03*
G01X5000Y12500D03*
G01X6000Y12500D03*
G01X6500Y11500D03*
G01X6500Y10500D03*
G01X6500Y9500D03*
G01X6500Y8500D03*
G01X6500Y7500D03*
G01X6500Y6500D03*
G01X6500Y5500D03*
G01X6500Y4500D03*
G01X6500Y3500D03*
G01X6500Y2500D03*
G01X6500Y1500D03*
G01X6500Y500D03*
G01X5500Y500D03*
G01X4500Y500D03*
G01X3500Y500D03*
G01X2500Y500D03*
G54D39*
G01X3869Y18269D03*
G01X1630Y500D03*
G36*
G01X934Y209D02*
G01X934Y790D01*
G01X1265Y790D01*
G01X1265Y209D01*
G01X934Y209D01*
G37*
G36*
G01X3451Y9528D02*
G01X3451Y9844D01*
G01X3788Y9844D01*
G01X3788Y9528D01*
G01X3451Y9528D01*
G37*
G36*
G01X3451Y9194D02*
G01X3451Y9511D01*
G01X3788Y9511D01*
G01X3788Y9194D01*
G01X3451Y9194D01*
G37*
G54D41*
G01X5209Y11346D03*
G36*
G01X5042Y10855D02*
G01X5042Y11171D01*
G01X5378Y11171D01*
G01X5378Y10855D01*
G01X5042Y10855D01*
G37*
G36*
G01X5211Y3871D02*
G01X5211Y4207D01*
G01X5528Y4207D01*
G01X5528Y3871D01*
G01X5211Y3871D01*
G37*
G36*
G01X4878Y3871D02*
G01X4878Y4207D01*
G01X5194Y4207D01*
G01X5194Y3871D01*
G01X4878Y3871D01*
G37*
G36*
G01X5211Y4301D02*
G01X5211Y4638D01*
G01X5528Y4638D01*
G01X5528Y4301D01*
G01X5211Y4301D01*
G37*
G36*
G01X4878Y4301D02*
G01X4878Y4638D01*
G01X5194Y4638D01*
G01X5194Y4301D01*
G01X4878Y4301D01*
G37*
G36*
G01X4982Y2342D02*
G01X4982Y2657D01*
G01X5317Y2657D01*
G01X5317Y2342D01*
G01X4982Y2342D01*
G37*
G36*
G01X4982Y2007D02*
G01X4982Y2323D01*
G01X5317Y2323D01*
G01X5317Y2007D01*
G01X4982Y2007D01*
G37*
G36*
G01X5209Y4732D02*
G01X5209Y5067D01*
G01X5525Y5067D01*
G01X5525Y4732D01*
G01X5209Y4732D01*
G37*
G36*
G01X4875Y4732D02*
G01X4875Y5067D01*
G01X5190Y5067D01*
G01X5190Y4732D01*
G01X4875Y4732D01*
G37*
G36*
G01X2086Y10948D02*
G01X2086Y11480D01*
G01X2719Y11480D01*
G01X2719Y10948D01*
G01X2086Y10948D01*
G37*
G36*
G01X1221Y10319D02*
G01X1221Y10851D01*
G01X1686Y10851D01*
G01X1851Y10678D01*
G01X1851Y10319D01*
G01X1221Y10319D01*
G37*
G36*
G01X1221Y10948D02*
G01X1221Y11480D01*
G01X1851Y11480D01*
G01X1851Y10948D01*
G01X1221Y10948D01*
G37*
G36*
G01X2086Y10319D02*
G01X2086Y10851D01*
G01X2719Y10851D01*
G01X2719Y10319D01*
G01X2086Y10319D01*
G37*
G36*
G01X1673Y3051D02*
G01X1673Y3405D01*
G01X2265Y3405D01*
G01X2265Y3051D01*
G01X1673Y3051D01*
G37*
G36*
G01X4034Y3051D02*
G01X4034Y3405D01*
G01X4626Y3405D01*
G01X4626Y3051D01*
G01X4034Y3051D01*
G37*
G36*
G01X1673Y1594D02*
G01X1673Y1948D01*
G01X2265Y1948D01*
G01X2265Y1594D01*
G01X1673Y1594D01*
G37*
G36*
G01X4034Y1594D02*
G01X4034Y1948D01*
G01X4626Y1948D01*
G01X4626Y1594D01*
G01X4034Y1594D01*
G37*
G36*
G01X2796Y13982D02*
G01X2796Y14317D01*
G01X3113Y14317D01*
G01X3113Y13982D01*
G01X2796Y13982D01*
G37*
G36*
G01X2463Y13982D02*
G01X2463Y14317D01*
G01X2778Y14317D01*
G01X2778Y13982D01*
G01X2463Y13982D01*
G37*
G36*
G01X3753Y13534D02*
G01X3753Y14165D01*
G01X4307Y14165D01*
G01X4307Y13534D01*
G01X3753Y13534D01*
G37*
G36*
G01X5092Y13534D02*
G01X5092Y14165D01*
G01X5646Y14165D01*
G01X5646Y13534D01*
G01X5092Y13534D01*
G37*
G36*
G01X1378Y5011D02*
G01X1378Y5348D01*
G01X1694Y5348D01*
G01X1694Y5011D01*
G01X1378Y5011D01*
G37*
G36*
G01X1711Y5011D02*
G01X1711Y5348D01*
G01X2028Y5348D01*
G01X2028Y5011D01*
G01X1711Y5011D01*
G37*
G36*
G01X2025Y14632D02*
G01X2025Y15167D01*
G01X2675Y15167D01*
G01X2675Y14632D01*
G01X2025Y14632D01*
G37*
G36*
G01X2025Y15432D02*
G01X2025Y15967D01*
G01X2675Y15967D01*
G01X2675Y15432D01*
G01X2025Y15432D01*
G37*
G36*
G01X4325Y16732D02*
G01X4325Y17267D01*
G01X4975Y17267D01*
G01X4975Y16732D01*
G01X4325Y16732D01*
G37*
G36*
G01X4325Y17532D02*
G01X4325Y18067D01*
G01X4975Y18067D01*
G01X4975Y17532D01*
G01X4325Y17532D01*
G37*
G36*
G01X2025Y16732D02*
G01X2025Y17267D01*
G01X2675Y17267D01*
G01X2675Y16732D01*
G01X2025Y16732D01*
G37*
G36*
G01X2025Y17532D02*
G01X2025Y18067D01*
G01X2675Y18067D01*
G01X2675Y17532D01*
G01X2025Y17532D01*
G37*
G36*
G01X4325Y14632D02*
G01X4325Y15167D01*
G01X4975Y15167D01*
G01X4975Y14632D01*
G01X4325Y14632D01*
G37*
G36*
G01X4325Y15432D02*
G01X4325Y15967D01*
G01X4975Y15967D01*
G01X4975Y15432D01*
G01X4325Y15432D01*
G37*
G36*
G01X3886Y9953D02*
G01X3886Y10426D01*
G01X4182Y10426D01*
G01X4182Y9953D01*
G01X3886Y9953D01*
G37*
G36*
G01X3138Y9953D02*
G01X3138Y10426D01*
G01X3434Y10426D01*
G01X3434Y9953D01*
G01X3138Y9953D01*
G37*
G36*
G01X3138Y11134D02*
G01X3138Y11607D01*
G01X3434Y11607D01*
G01X3434Y11134D01*
G01X3138Y11134D01*
G37*
G36*
G01X3511Y11134D02*
G01X3511Y11607D01*
G01X3807Y11607D01*
G01X3807Y11134D01*
G01X3511Y11134D01*
G37*
G36*
G01X3886Y11134D02*
G01X3886Y11607D01*
G01X4182Y11607D01*
G01X4182Y11134D01*
G01X3886Y11134D01*
G37*
G36*
G01X5132Y9092D02*
G01X5132Y9428D01*
G01X5448Y9428D01*
G01X5448Y9092D01*
G01X5132Y9092D01*
G37*
G36*
G01X4798Y9092D02*
G01X4798Y9428D01*
G01X5113Y9428D01*
G01X5113Y9092D01*
G01X4798Y9092D01*
G37*
G36*
G01X2155Y9782D02*
G01X2155Y10117D01*
G01X2471Y10117D01*
G01X2471Y9782D01*
G01X2155Y9782D01*
G37*
G36*
G01X2488Y9782D02*
G01X2488Y10117D01*
G01X2805Y10117D01*
G01X2805Y9782D01*
G01X2488Y9782D01*
G37*
G36*
G01X1538Y9782D02*
G01X1538Y10117D01*
G01X1855Y10117D01*
G01X1855Y9782D01*
G01X1538Y9782D01*
G37*
G36*
G01X1205Y9782D02*
G01X1205Y10117D01*
G01X1521Y10117D01*
G01X1521Y9782D01*
G01X1205Y9782D01*
G37*
G36*
G01X1215Y9092D02*
G01X1215Y9367D01*
G01X1532Y9367D01*
G01X1532Y9092D01*
G01X1215Y9092D01*
G37*
G36*
G01X1648Y9092D02*
G01X1648Y9367D01*
G01X1965Y9367D01*
G01X1965Y9092D01*
G01X1648Y9092D01*
G37*
G36*
G01X4521Y10207D02*
G01X4521Y10525D01*
G01X4798Y10525D01*
G01X4798Y10207D01*
G01X4521Y10207D01*
G37*
G36*
G01X4521Y9775D02*
G01X4521Y10092D01*
G01X4798Y10092D01*
G01X4798Y9775D01*
G01X4521Y9775D01*
G37*
G36*
G01X2425Y9301D02*
G01X2425Y9638D01*
G01X2740Y9638D01*
G01X2740Y9301D01*
G01X2425Y9301D01*
G37*
G36*
G01X2759Y9301D02*
G01X2759Y9638D01*
G01X3075Y9638D01*
G01X3075Y9301D01*
G01X2759Y9301D01*
G37*
G36*
G01X5482Y10855D02*
G01X5482Y11171D01*
G01X5817Y11171D01*
G01X5817Y10855D01*
G01X5482Y10855D01*
G37*
G36*
G01X5482Y11188D02*
G01X5482Y11505D01*
G01X5817Y11505D01*
G01X5817Y11188D01*
G01X5482Y11188D01*
G37*
G36*
G01X1801Y4182D02*
G01X1801Y4498D01*
G01X2138Y4498D01*
G01X2138Y4182D01*
G01X1801Y4182D01*
G37*
G36*
G01X1801Y3848D02*
G01X1801Y4163D01*
G01X2138Y4163D01*
G01X2138Y3848D01*
G01X1801Y3848D01*
G37*
G36*
G01X2651Y3711D02*
G01X2651Y4048D01*
G01X2967Y4048D01*
G01X2967Y3711D01*
G01X2651Y3711D01*
G37*
G36*
G01X2317Y3711D02*
G01X2317Y4048D01*
G01X2634Y4048D01*
G01X2634Y3711D01*
G01X2317Y3711D01*
G37*
G36*
G01X2651Y4171D02*
G01X2651Y4507D01*
G01X2967Y4507D01*
G01X2967Y4171D01*
G01X2651Y4171D01*
G37*
G36*
G01X2317Y4171D02*
G01X2317Y4507D01*
G01X2634Y4507D01*
G01X2634Y4171D01*
G01X2317Y4171D01*
G37*
G36*
G01X3321Y3882D02*
G01X3321Y4217D01*
G01X3638Y4217D01*
G01X3638Y3882D01*
G01X3321Y3882D01*
G37*
G36*
G01X3655Y3882D02*
G01X3655Y4217D01*
G01X3971Y4217D01*
G01X3971Y3882D01*
G01X3655Y3882D01*
G37*
G36*
G01X3221Y8600D02*
G01X3011Y8809D01*
G01X3151Y8950D01*
G01X3361Y8740D01*
G01X3221Y8600D01*
G37*
G36*
G01X3082Y8461D02*
G01X2871Y8671D01*
G01X3011Y8811D01*
G01X3221Y8601D01*
G01X3082Y8461D01*
G37*
G36*
G01X2942Y8321D02*
G01X2732Y8532D01*
G01X2873Y8671D01*
G01X3082Y8461D01*
G01X2942Y8321D01*
G37*
G36*
G01X2803Y8182D02*
G01X2594Y8392D01*
G01X2734Y8532D01*
G01X2942Y8323D01*
G01X2803Y8182D01*
G37*
G36*
G01X2663Y8042D02*
G01X2453Y8253D01*
G01X2594Y8392D01*
G01X2803Y8184D01*
G01X2663Y8042D01*
G37*
G36*
G01X2525Y7903D02*
G01X2315Y8113D01*
G01X2455Y8253D01*
G01X2665Y8044D01*
G01X2525Y7903D01*
G37*
G36*
G01X2386Y7765D02*
G01X2176Y7975D01*
G01X2315Y8115D01*
G01X2526Y7905D01*
G01X2386Y7765D01*
G37*
G36*
G01X2246Y7626D02*
G01X2036Y7836D01*
G01X2176Y7976D01*
G01X2386Y7765D01*
G01X2246Y7626D01*
G37*
G36*
G01X2107Y7486D02*
G01X1898Y7696D01*
G01X2038Y7836D01*
G01X2246Y7626D01*
G01X2107Y7486D01*
G37*
G36*
G01X1967Y7346D02*
G01X1757Y7557D01*
G01X1898Y7696D01*
G01X2107Y7488D01*
G01X1967Y7346D01*
G37*
G36*
G01X1828Y7207D02*
G01X1619Y7417D01*
G01X1759Y7557D01*
G01X1969Y7348D01*
G01X1828Y7207D01*
G37*
G36*
G01X1690Y7069D02*
G01X1480Y7278D01*
G01X1619Y7419D01*
G01X1830Y7209D01*
G01X1690Y7069D01*
G37*
G36*
G01X1619Y6721D02*
G01X1480Y6861D01*
G01X1690Y7071D01*
G01X1830Y6930D01*
G01X1619Y6721D01*
G37*
G36*
G01X1759Y6582D02*
G01X1619Y6721D01*
G01X1828Y6932D01*
G01X1969Y6792D01*
G01X1759Y6582D01*
G37*
G36*
G01X1898Y6442D02*
G01X1757Y6582D01*
G01X1967Y6792D01*
G01X2107Y6651D01*
G01X1898Y6442D01*
G37*
G36*
G01X2038Y6303D02*
G01X1898Y6444D01*
G01X2107Y6653D01*
G01X2246Y6513D01*
G01X2038Y6303D01*
G37*
G36*
G01X2176Y6163D02*
G01X2036Y6303D01*
G01X2246Y6513D01*
G01X2386Y6373D01*
G01X2176Y6163D01*
G37*
G36*
G01X2315Y6025D02*
G01X2176Y6165D01*
G01X2386Y6375D01*
G01X2526Y6234D01*
G01X2315Y6025D01*
G37*
G36*
G01X2455Y5886D02*
G01X2315Y6026D01*
G01X2525Y6236D01*
G01X2665Y6096D01*
G01X2455Y5886D01*
G37*
G36*
G01X2594Y5746D02*
G01X2453Y5886D01*
G01X2663Y6096D01*
G01X2803Y5955D01*
G01X2594Y5746D01*
G37*
G36*
G01X2734Y5607D02*
G01X2594Y5748D01*
G01X2803Y5957D01*
G01X2942Y5817D01*
G01X2734Y5607D01*
G37*
G36*
G01X2873Y5467D02*
G01X2732Y5607D01*
G01X2942Y5817D01*
G01X3082Y5678D01*
G01X2873Y5467D01*
G37*
G36*
G01X3011Y5328D02*
G01X2871Y5469D01*
G01X3082Y5678D01*
G01X3221Y5538D01*
G01X3011Y5328D01*
G37*
G36*
G01X3151Y5190D02*
G01X3011Y5330D01*
G01X3221Y5540D01*
G01X3361Y5400D01*
G01X3151Y5190D01*
G37*
G36*
G01X3569Y5190D02*
G01X3359Y5400D01*
G01X3498Y5540D01*
G01X3709Y5330D01*
G01X3569Y5190D01*
G37*
G36*
G01X3707Y5328D02*
G01X3498Y5538D01*
G01X3638Y5678D01*
G01X3848Y5469D01*
G01X3707Y5328D01*
G37*
G36*
G01X3846Y5467D02*
G01X3636Y5678D01*
G01X3778Y5817D01*
G01X3986Y5607D01*
G01X3846Y5467D01*
G37*
G36*
G01X3986Y5607D02*
G01X3776Y5817D01*
G01X3917Y5957D01*
G01X4126Y5748D01*
G01X3986Y5607D01*
G37*
G36*
G01X4126Y5746D02*
G01X3915Y5955D01*
G01X4055Y6096D01*
G01X4265Y5886D01*
G01X4126Y5746D01*
G37*
G36*
G01X4265Y5886D02*
G01X4055Y6096D01*
G01X4194Y6236D01*
G01X4405Y6026D01*
G01X4265Y5886D01*
G37*
G36*
G01X4403Y6025D02*
G01X4194Y6234D01*
G01X4334Y6375D01*
G01X4544Y6165D01*
G01X4403Y6025D01*
G37*
G36*
G01X4542Y6163D02*
G01X4332Y6373D01*
G01X4473Y6513D01*
G01X4682Y6303D01*
G01X4542Y6163D01*
G37*
G36*
G01X4682Y6303D02*
G01X4473Y6513D01*
G01X4613Y6653D01*
G01X4821Y6444D01*
G01X4682Y6303D01*
G37*
G36*
G01X4821Y6442D02*
G01X4611Y6651D01*
G01X4751Y6792D01*
G01X4961Y6582D01*
G01X4821Y6442D01*
G37*
G36*
G01X4961Y6582D02*
G01X4751Y6792D01*
G01X4890Y6932D01*
G01X5101Y6721D01*
G01X4961Y6582D01*
G37*
G36*
G01X5100Y6721D02*
G01X4890Y6930D01*
G01X5030Y7071D01*
G01X5240Y6861D01*
G01X5100Y6721D01*
G37*
G36*
G01X5030Y7069D02*
G01X4890Y7209D01*
G01X5100Y7419D01*
G01X5240Y7278D01*
G01X5030Y7069D01*
G37*
G36*
G01X4890Y7207D02*
G01X4751Y7348D01*
G01X4961Y7557D01*
G01X5101Y7417D01*
G01X4890Y7207D01*
G37*
G36*
G01X4751Y7346D02*
G01X4611Y7488D01*
G01X4821Y7696D01*
G01X4961Y7557D01*
G01X4751Y7346D01*
G37*
G36*
G01X4613Y7486D02*
G01X4473Y7626D01*
G01X4682Y7836D01*
G01X4821Y7696D01*
G01X4613Y7486D01*
G37*
G36*
G01X4473Y7626D02*
G01X4332Y7765D01*
G01X4542Y7976D01*
G01X4682Y7836D01*
G01X4473Y7626D01*
G37*
G36*
G01X4334Y7765D02*
G01X4194Y7905D01*
G01X4403Y8115D01*
G01X4544Y7975D01*
G01X4334Y7765D01*
G37*
G36*
G01X4194Y7903D02*
G01X4055Y8044D01*
G01X4265Y8253D01*
G01X4405Y8113D01*
G01X4194Y7903D01*
G37*
G36*
G01X4055Y8042D02*
G01X3915Y8184D01*
G01X4126Y8392D01*
G01X4265Y8253D01*
G01X4055Y8042D01*
G37*
G36*
G01X3917Y8182D02*
G01X3776Y8323D01*
G01X3986Y8532D01*
G01X4126Y8392D01*
G01X3917Y8182D01*
G37*
G36*
G01X3778Y8321D02*
G01X3636Y8461D01*
G01X3846Y8671D01*
G01X3986Y8532D01*
G01X3778Y8321D01*
G37*
G36*
G01X3638Y8461D02*
G01X3498Y8601D01*
G01X3707Y8811D01*
G01X3848Y8671D01*
G01X3638Y8461D01*
G37*
G36*
G01X3498Y8600D02*
G01X3359Y8740D01*
G01X3569Y8950D01*
G01X3709Y8809D01*
G01X3498Y8600D01*
G37*
G36*
G01X3359Y5453D02*
G01X1744Y7069D01*
G01X3359Y8686D01*
G01X4976Y7069D01*
G01X3359Y5453D01*
G37*
M00*
M02*
