G04 Layer: BottomSilkLayer*
G04 EasyEDA v6.3.22, 2019-12-31T17:55:44+09:00*
G04 0184c6d2394b44c9a03417ace044f3ee,67344a67363949849f01d11c0c7cf016,10*
G04 Gerber Generator version 0.2*
G04 Scale: 100 percent, Rotated: No, Reflected: No *
G04 Dimensions in inches *
G04 leading zeros omitted , absolute positions ,2 integer and 4 decimal *
%FSLAX24Y24*%
%MOIN*%
G90*
G70D02*

%ADD12C,0.006000*%
%ADD37C,0.005000*%
%ADD38C,0.004000*%

%LPD*%
G54D38*
G01X950Y11650D02*
G01X1850Y11650D01*
G01X2000Y11500D01*
G01X2000Y2100D01*
G01X1850Y1950D01*
G01X750Y1950D01*
G01X8750Y1750D02*
G01X9850Y1750D01*
G01X10250Y2150D01*
G01X10250Y11469D01*
G01X9430Y12290D01*
G01X10750Y7750D02*
G01X10250Y7750D01*
G01X2000Y7350D02*
G01X2500Y7350D01*
G01X2350Y12050D02*
G01X2200Y12200D01*
G01X6090Y2069D02*
G01X6350Y1800D01*
G54D12*
G01X4061Y6130D02*
G01X3811Y6130D01*
G01X3811Y6469D01*
G01X4021Y6469D01*
G01X4061Y6469D01*
G01X4211Y6469D02*
G01X4451Y6469D01*
G01X4451Y6130D01*
G01X4240Y6130D01*
G01X4211Y6130D01*
G01X3176Y5530D02*
G01X2926Y5530D01*
G01X2926Y5869D01*
G01X3136Y5869D01*
G01X3176Y5869D01*
G01X3326Y5869D02*
G01X3567Y5869D01*
G01X3567Y5530D01*
G01X3357Y5530D01*
G01X3326Y5530D01*
G01X4061Y5530D02*
G01X3811Y5530D01*
G01X3811Y5869D01*
G01X4021Y5869D01*
G01X4061Y5869D01*
G01X4211Y5869D02*
G01X4451Y5869D01*
G01X4451Y5530D01*
G01X4240Y5530D01*
G01X4211Y5530D01*
G01X3176Y6130D02*
G01X2926Y6130D01*
G01X2926Y6469D01*
G01X3136Y6469D01*
G01X3176Y6469D01*
G01X3326Y6469D02*
G01X3567Y6469D01*
G01X3567Y6130D01*
G01X3357Y6130D01*
G01X3326Y6130D01*
G54D37*
G01X1850Y12074D02*
G01X1850Y11769D01*
G01X1850Y12074D02*
G01X1719Y12074D01*
G01X1675Y12059D01*
G01X1660Y12045D01*
G01X1646Y12016D01*
G01X1646Y11972D01*
G01X1660Y11943D01*
G01X1675Y11929D01*
G01X1719Y11914D01*
G01X1850Y11914D01*
G01X1332Y12001D02*
G01X1346Y12030D01*
G01X1375Y12059D01*
G01X1404Y12074D01*
G01X1463Y12074D01*
G01X1492Y12059D01*
G01X1521Y12030D01*
G01X1535Y12001D01*
G01X1550Y11958D01*
G01X1550Y11885D01*
G01X1535Y11841D01*
G01X1521Y11812D01*
G01X1492Y11783D01*
G01X1463Y11769D01*
G01X1404Y11769D01*
G01X1375Y11783D01*
G01X1346Y11812D01*
G01X1332Y11841D01*
G01X1236Y12016D02*
G01X1207Y12030D01*
G01X1163Y12074D01*
G01X1163Y11769D01*
G01X1038Y12074D02*
G01X878Y12074D01*
G01X965Y11958D01*
G01X921Y11958D01*
G01X892Y11943D01*
G01X878Y11929D01*
G01X863Y11885D01*
G01X863Y11856D01*
G01X878Y11812D01*
G01X907Y11783D01*
G01X951Y11769D01*
G01X994Y11769D01*
G01X1038Y11783D01*
G01X1052Y11798D01*
G01X1067Y11827D01*
G01X2398Y11731D02*
G01X2369Y11746D01*
G01X2340Y11775D01*
G01X2325Y11804D01*
G01X2325Y11862D01*
G01X2340Y11891D01*
G01X2369Y11920D01*
G01X2398Y11935D01*
G01X2441Y11950D01*
G01X2514Y11950D01*
G01X2558Y11935D01*
G01X2587Y11920D01*
G01X2616Y11891D01*
G01X2630Y11862D01*
G01X2630Y11804D01*
G01X2616Y11775D01*
G01X2587Y11746D01*
G01X2558Y11731D01*
G01X2514Y11731D01*
G01X2514Y11804D02*
G01X2514Y11731D01*
G01X2325Y11635D02*
G01X2630Y11635D01*
G01X2325Y11635D02*
G01X2630Y11432D01*
G01X2325Y11432D02*
G01X2630Y11432D01*
G01X2325Y11336D02*
G01X2630Y11336D01*
G01X2325Y11336D02*
G01X2325Y11234D01*
G01X2340Y11190D01*
G01X2369Y11161D01*
G01X2398Y11147D01*
G01X2441Y11132D01*
G01X2514Y11132D01*
G01X2558Y11147D01*
G01X2587Y11161D01*
G01X2616Y11190D01*
G01X2630Y11234D01*
G01X2630Y11336D01*
G01X2850Y11920D02*
G01X2850Y11760D01*
G01X2966Y11848D01*
G01X2966Y11804D01*
G01X2980Y11775D01*
G01X2995Y11760D01*
G01X3039Y11746D01*
G01X3068Y11746D01*
G01X3111Y11760D01*
G01X3140Y11790D01*
G01X3155Y11833D01*
G01X3155Y11877D01*
G01X3140Y11920D01*
G01X3126Y11935D01*
G01X3097Y11950D01*
G01X2850Y11650D02*
G01X3155Y11534D01*
G01X2850Y11417D02*
G01X3155Y11534D01*
G01X2850Y11292D02*
G01X2850Y11132D01*
G01X2966Y11219D01*
G01X2966Y11176D01*
G01X2980Y11147D01*
G01X2995Y11132D01*
G01X3039Y11117D01*
G01X3068Y11117D01*
G01X3111Y11132D01*
G01X3140Y11161D01*
G01X3155Y11205D01*
G01X3155Y11248D01*
G01X3140Y11292D01*
G01X3126Y11307D01*
G01X3097Y11321D01*
G01X3869Y11746D02*
G01X3839Y11775D01*
G01X3825Y11819D01*
G01X3825Y11877D01*
G01X3839Y11920D01*
G01X3869Y11950D01*
G01X3898Y11950D01*
G01X3927Y11935D01*
G01X3941Y11920D01*
G01X3956Y11891D01*
G01X3985Y11804D01*
G01X3999Y11775D01*
G01X4014Y11760D01*
G01X4043Y11746D01*
G01X4087Y11746D01*
G01X4116Y11775D01*
G01X4130Y11819D01*
G01X4130Y11877D01*
G01X4116Y11920D01*
G01X4087Y11950D01*
G01X3825Y11650D02*
G01X4130Y11577D01*
G01X3825Y11504D02*
G01X4130Y11577D01*
G01X3825Y11504D02*
G01X4130Y11432D01*
G01X3825Y11359D02*
G01X4130Y11432D01*
G01X3898Y11045D02*
G01X3869Y11059D01*
G01X3839Y11088D01*
G01X3825Y11117D01*
G01X3825Y11176D01*
G01X3839Y11205D01*
G01X3869Y11234D01*
G01X3898Y11248D01*
G01X3941Y11263D01*
G01X4014Y11263D01*
G01X4058Y11248D01*
G01X4087Y11234D01*
G01X4116Y11205D01*
G01X4130Y11176D01*
G01X4130Y11117D01*
G01X4116Y11088D01*
G01X4087Y11059D01*
G01X4058Y11045D01*
G01X3825Y10949D02*
G01X4130Y10949D01*
G01X4130Y10949D02*
G01X4130Y10774D01*
G01X3825Y10678D02*
G01X4130Y10678D01*
G01X3825Y10475D02*
G01X4029Y10678D01*
G01X3956Y10605D02*
G01X4130Y10475D01*
G01X4869Y11746D02*
G01X4839Y11775D01*
G01X4825Y11819D01*
G01X4825Y11877D01*
G01X4839Y11920D01*
G01X4869Y11950D01*
G01X4898Y11950D01*
G01X4927Y11935D01*
G01X4941Y11920D01*
G01X4956Y11891D01*
G01X4985Y11804D01*
G01X4999Y11775D01*
G01X5014Y11760D01*
G01X5043Y11746D01*
G01X5087Y11746D01*
G01X5116Y11775D01*
G01X5130Y11819D01*
G01X5130Y11877D01*
G01X5116Y11920D01*
G01X5087Y11950D01*
G01X4825Y11650D02*
G01X5130Y11577D01*
G01X4825Y11504D02*
G01X5130Y11577D01*
G01X4825Y11504D02*
G01X5130Y11432D01*
G01X4825Y11359D02*
G01X5130Y11432D01*
G01X4825Y11263D02*
G01X5130Y11263D01*
G01X4825Y11263D02*
G01X4825Y11161D01*
G01X4839Y11117D01*
G01X4869Y11088D01*
G01X4898Y11074D01*
G01X4941Y11059D01*
G01X5014Y11059D01*
G01X5058Y11074D01*
G01X5087Y11088D01*
G01X5116Y11117D01*
G01X5130Y11161D01*
G01X5130Y11263D01*
G01X4825Y10963D02*
G01X5130Y10963D01*
G01X4825Y10780D02*
G01X4839Y10809D01*
G01X4869Y10838D01*
G01X4898Y10853D01*
G01X4941Y10867D01*
G01X5014Y10867D01*
G01X5058Y10853D01*
G01X5087Y10838D01*
G01X5116Y10809D01*
G01X5130Y10780D01*
G01X5130Y10722D01*
G01X5116Y10693D01*
G01X5087Y10664D01*
G01X5058Y10649D01*
G01X5014Y10635D01*
G01X4941Y10635D01*
G01X4898Y10649D01*
G01X4869Y10664D01*
G01X4839Y10693D01*
G01X4825Y10722D01*
G01X4825Y10780D01*
G01X5725Y12000D02*
G01X6030Y11883D01*
G01X5725Y11767D02*
G01X6030Y11883D01*
G01X5725Y11671D02*
G01X6030Y11671D01*
G01X5725Y11575D02*
G01X6030Y11575D01*
G01X5725Y11575D02*
G01X6030Y11371D01*
G01X5725Y11371D02*
G01X6030Y11371D01*
G01X6000Y11274D02*
G01X6000Y10969D01*
G01X6000Y11274D02*
G01X5869Y11274D01*
G01X5825Y11259D01*
G01X5810Y11245D01*
G01X5796Y11216D01*
G01X5796Y11172D01*
G01X5810Y11143D01*
G01X5825Y11129D01*
G01X5869Y11114D01*
G01X6000Y11114D01*
G01X5700Y11274D02*
G01X5700Y10969D01*
G01X5700Y11274D02*
G01X5569Y11274D01*
G01X5525Y11259D01*
G01X5511Y11245D01*
G01X5496Y11216D01*
G01X5496Y11187D01*
G01X5511Y11158D01*
G01X5525Y11143D01*
G01X5569Y11129D01*
G01X5700Y11129D02*
G01X5569Y11129D01*
G01X5525Y11114D01*
G01X5511Y11100D01*
G01X5496Y11070D01*
G01X5496Y11027D01*
G01X5511Y10998D01*
G01X5525Y10983D01*
G01X5569Y10969D01*
G01X5700Y10969D01*
G01X5211Y11172D02*
G01X5226Y11129D01*
G01X5255Y11100D01*
G01X5298Y11085D01*
G01X5313Y11085D01*
G01X5357Y11100D01*
G01X5386Y11129D01*
G01X5400Y11172D01*
G01X5400Y11187D01*
G01X5386Y11230D01*
G01X5357Y11259D01*
G01X5313Y11274D01*
G01X5298Y11274D01*
G01X5255Y11259D01*
G01X5226Y11230D01*
G01X5211Y11172D01*
G01X5211Y11100D01*
G01X5226Y11027D01*
G01X5255Y10983D01*
G01X5298Y10969D01*
G01X5328Y10969D01*
G01X5371Y10983D01*
G01X5386Y11012D01*
G01X6002Y10649D02*
G01X6002Y10344D01*
G01X6002Y10649D02*
G01X5871Y10649D01*
G01X5828Y10635D01*
G01X5813Y10620D01*
G01X5799Y10591D01*
G01X5799Y10548D01*
G01X5813Y10519D01*
G01X5828Y10504D01*
G01X5871Y10489D01*
G01X6002Y10489D01*
G01X5703Y10649D02*
G01X5703Y10344D01*
G01X5703Y10649D02*
G01X5572Y10649D01*
G01X5528Y10635D01*
G01X5514Y10620D01*
G01X5499Y10591D01*
G01X5499Y10562D01*
G01X5514Y10533D01*
G01X5528Y10519D01*
G01X5572Y10504D01*
G01X5703Y10504D02*
G01X5572Y10504D01*
G01X5528Y10489D01*
G01X5514Y10475D01*
G01X5499Y10446D01*
G01X5499Y10402D01*
G01X5514Y10373D01*
G01X5528Y10359D01*
G01X5572Y10344D01*
G01X5703Y10344D01*
G01X5330Y10649D02*
G01X5374Y10635D01*
G01X5389Y10606D01*
G01X5389Y10577D01*
G01X5374Y10548D01*
G01X5345Y10533D01*
G01X5287Y10519D01*
G01X5243Y10504D01*
G01X5214Y10475D01*
G01X5200Y10446D01*
G01X5200Y10402D01*
G01X5214Y10373D01*
G01X5229Y10359D01*
G01X5272Y10344D01*
G01X5330Y10344D01*
G01X5374Y10359D01*
G01X5389Y10373D01*
G01X5403Y10402D01*
G01X5403Y10446D01*
G01X5389Y10475D01*
G01X5359Y10504D01*
G01X5316Y10519D01*
G01X5258Y10533D01*
G01X5229Y10548D01*
G01X5214Y10577D01*
G01X5214Y10606D01*
G01X5229Y10635D01*
G01X5272Y10649D01*
G01X5330Y10649D01*
G01X6002Y9649D02*
G01X6002Y9344D01*
G01X6002Y9649D02*
G01X5871Y9649D01*
G01X5828Y9635D01*
G01X5813Y9620D01*
G01X5799Y9591D01*
G01X5799Y9548D01*
G01X5813Y9519D01*
G01X5828Y9504D01*
G01X5871Y9489D01*
G01X6002Y9489D01*
G01X5703Y9649D02*
G01X5703Y9344D01*
G01X5703Y9649D02*
G01X5572Y9649D01*
G01X5528Y9635D01*
G01X5514Y9620D01*
G01X5499Y9591D01*
G01X5499Y9562D01*
G01X5514Y9533D01*
G01X5528Y9519D01*
G01X5572Y9504D01*
G01X5703Y9504D02*
G01X5572Y9504D01*
G01X5528Y9489D01*
G01X5514Y9475D01*
G01X5499Y9446D01*
G01X5499Y9402D01*
G01X5514Y9373D01*
G01X5528Y9359D01*
G01X5572Y9344D01*
G01X5703Y9344D01*
G01X5200Y9649D02*
G01X5345Y9344D01*
G01X5403Y9649D02*
G01X5200Y9649D01*
G01X6000Y8624D02*
G01X6000Y8319D01*
G01X6000Y8624D02*
G01X5869Y8624D01*
G01X5825Y8609D01*
G01X5810Y8595D01*
G01X5796Y8566D01*
G01X5796Y8522D01*
G01X5810Y8493D01*
G01X5825Y8479D01*
G01X5869Y8464D01*
G01X6000Y8464D01*
G01X5700Y8624D02*
G01X5700Y8319D01*
G01X5700Y8624D02*
G01X5569Y8624D01*
G01X5525Y8609D01*
G01X5511Y8595D01*
G01X5496Y8566D01*
G01X5496Y8537D01*
G01X5511Y8508D01*
G01X5525Y8493D01*
G01X5569Y8479D01*
G01X5700Y8479D02*
G01X5569Y8479D01*
G01X5525Y8464D01*
G01X5511Y8450D01*
G01X5496Y8420D01*
G01X5496Y8377D01*
G01X5511Y8348D01*
G01X5525Y8333D01*
G01X5569Y8319D01*
G01X5700Y8319D01*
G01X5226Y8580D02*
G01X5240Y8609D01*
G01X5284Y8624D01*
G01X5313Y8624D01*
G01X5357Y8609D01*
G01X5386Y8566D01*
G01X5400Y8493D01*
G01X5400Y8420D01*
G01X5386Y8362D01*
G01X5357Y8333D01*
G01X5313Y8319D01*
G01X5298Y8319D01*
G01X5255Y8333D01*
G01X5226Y8362D01*
G01X5211Y8406D01*
G01X5211Y8420D01*
G01X5226Y8464D01*
G01X5255Y8493D01*
G01X5298Y8508D01*
G01X5313Y8508D01*
G01X5357Y8493D01*
G01X5386Y8464D01*
G01X5400Y8420D01*
G01X5950Y7642D02*
G01X5950Y7337D01*
G01X5950Y7642D02*
G01X5819Y7642D01*
G01X5775Y7628D01*
G01X5760Y7613D01*
G01X5746Y7584D01*
G01X5746Y7541D01*
G01X5760Y7511D01*
G01X5775Y7497D01*
G01X5819Y7482D01*
G01X5950Y7482D01*
G01X5650Y7642D02*
G01X5650Y7337D01*
G01X5650Y7642D02*
G01X5519Y7642D01*
G01X5475Y7628D01*
G01X5461Y7613D01*
G01X5446Y7584D01*
G01X5446Y7555D01*
G01X5461Y7526D01*
G01X5475Y7511D01*
G01X5519Y7497D01*
G01X5650Y7497D02*
G01X5519Y7497D01*
G01X5475Y7482D01*
G01X5461Y7468D01*
G01X5446Y7439D01*
G01X5446Y7395D01*
G01X5461Y7366D01*
G01X5475Y7351D01*
G01X5519Y7337D01*
G01X5650Y7337D01*
G01X5176Y7642D02*
G01X5321Y7642D01*
G01X5336Y7511D01*
G01X5321Y7526D01*
G01X5278Y7541D01*
G01X5234Y7541D01*
G01X5190Y7526D01*
G01X5161Y7497D01*
G01X5147Y7453D01*
G01X5147Y7424D01*
G01X5161Y7381D01*
G01X5190Y7351D01*
G01X5234Y7337D01*
G01X5278Y7337D01*
G01X5321Y7351D01*
G01X5336Y7366D01*
G01X5350Y7395D01*
G01X6000Y6624D02*
G01X6000Y6319D01*
G01X6000Y6624D02*
G01X5869Y6624D01*
G01X5825Y6609D01*
G01X5810Y6595D01*
G01X5796Y6566D01*
G01X5796Y6522D01*
G01X5810Y6493D01*
G01X5825Y6479D01*
G01X5869Y6464D01*
G01X6000Y6464D01*
G01X5700Y6624D02*
G01X5700Y6319D01*
G01X5700Y6624D02*
G01X5569Y6624D01*
G01X5525Y6609D01*
G01X5511Y6595D01*
G01X5496Y6566D01*
G01X5496Y6537D01*
G01X5511Y6508D01*
G01X5525Y6493D01*
G01X5569Y6479D01*
G01X5700Y6479D02*
G01X5569Y6479D01*
G01X5525Y6464D01*
G01X5511Y6450D01*
G01X5496Y6420D01*
G01X5496Y6377D01*
G01X5511Y6348D01*
G01X5525Y6333D01*
G01X5569Y6319D01*
G01X5700Y6319D01*
G01X5255Y6624D02*
G01X5400Y6420D01*
G01X5182Y6420D01*
G01X5255Y6624D02*
G01X5255Y6319D01*
G01X6002Y5600D02*
G01X6002Y5294D01*
G01X6002Y5600D02*
G01X5872Y5600D01*
G01X5828Y5585D01*
G01X5813Y5570D01*
G01X5799Y5541D01*
G01X5799Y5498D01*
G01X5813Y5469D01*
G01X5828Y5454D01*
G01X5872Y5440D01*
G01X6002Y5440D01*
G01X5703Y5600D02*
G01X5703Y5294D01*
G01X5703Y5600D02*
G01X5572Y5600D01*
G01X5528Y5585D01*
G01X5514Y5570D01*
G01X5499Y5541D01*
G01X5499Y5512D01*
G01X5514Y5483D01*
G01X5528Y5469D01*
G01X5572Y5454D01*
G01X5703Y5454D02*
G01X5572Y5454D01*
G01X5528Y5440D01*
G01X5514Y5425D01*
G01X5499Y5396D01*
G01X5499Y5352D01*
G01X5514Y5323D01*
G01X5528Y5309D01*
G01X5572Y5294D01*
G01X5703Y5294D01*
G01X5374Y5600D02*
G01X5214Y5600D01*
G01X5301Y5483D01*
G01X5258Y5483D01*
G01X5229Y5469D01*
G01X5214Y5454D01*
G01X5200Y5410D01*
G01X5200Y5381D01*
G01X5214Y5338D01*
G01X5243Y5309D01*
G01X5287Y5294D01*
G01X5330Y5294D01*
G01X5374Y5309D01*
G01X5389Y5323D01*
G01X5403Y5352D01*
G01X12920Y7924D02*
G01X12760Y7924D01*
G01X12848Y7808D01*
G01X12804Y7808D01*
G01X12775Y7793D01*
G01X12760Y7779D01*
G01X12746Y7735D01*
G01X12746Y7706D01*
G01X12760Y7662D01*
G01X12789Y7633D01*
G01X12833Y7619D01*
G01X12877Y7619D01*
G01X12920Y7633D01*
G01X12935Y7648D01*
G01X12950Y7677D01*
G01X12635Y7691D02*
G01X12650Y7677D01*
G01X12635Y7662D01*
G01X12621Y7677D01*
G01X12635Y7691D01*
G01X12496Y7924D02*
G01X12336Y7924D01*
G01X12423Y7808D01*
G01X12379Y7808D01*
G01X12350Y7793D01*
G01X12336Y7779D01*
G01X12321Y7735D01*
G01X12321Y7706D01*
G01X12336Y7662D01*
G01X12365Y7633D01*
G01X12408Y7619D01*
G01X12452Y7619D01*
G01X12496Y7633D01*
G01X12510Y7648D01*
G01X12525Y7677D01*
G01X11914Y7924D02*
G01X11943Y7909D01*
G01X11972Y7880D01*
G01X11987Y7851D01*
G01X12001Y7808D01*
G01X12001Y7735D01*
G01X11987Y7691D01*
G01X11972Y7662D01*
G01X11943Y7633D01*
G01X11914Y7619D01*
G01X11856Y7619D01*
G01X11827Y7633D01*
G01X11797Y7662D01*
G01X11783Y7691D01*
G01X11768Y7735D01*
G01X11768Y7808D01*
G01X11783Y7851D01*
G01X11797Y7880D01*
G01X11827Y7909D01*
G01X11856Y7924D01*
G01X11914Y7924D01*
G01X11672Y7924D02*
G01X11672Y7619D01*
G01X11672Y7924D02*
G01X11469Y7619D01*
G01X11469Y7924D02*
G01X11469Y7619D01*
G01X11373Y7924D02*
G01X11373Y7619D01*
G01X11373Y7619D02*
G01X11198Y7619D01*
G01X11102Y7924D02*
G01X10986Y7779D01*
G01X10986Y7619D01*
G01X10869Y7924D02*
G01X10986Y7779D01*
G01X6000Y4650D02*
G01X6000Y4344D01*
G01X6000Y4650D02*
G01X5869Y4650D01*
G01X5826Y4635D01*
G01X5811Y4620D01*
G01X5797Y4591D01*
G01X5797Y4548D01*
G01X5811Y4519D01*
G01X5826Y4504D01*
G01X5869Y4490D01*
G01X6000Y4490D01*
G01X5584Y4650D02*
G01X5701Y4344D01*
G01X5584Y4650D02*
G01X5468Y4344D01*
G01X5657Y4446D02*
G01X5511Y4446D01*
G01X5372Y4591D02*
G01X5343Y4606D01*
G01X5299Y4650D01*
G01X5299Y4344D01*
G01X5189Y4577D02*
G01X5189Y4591D01*
G01X5174Y4620D01*
G01X5159Y4635D01*
G01X5130Y4650D01*
G01X5072Y4650D01*
G01X5043Y4635D01*
G01X5029Y4620D01*
G01X5014Y4591D01*
G01X5014Y4562D01*
G01X5029Y4533D01*
G01X5058Y4490D01*
G01X5203Y4344D01*
G01X5000Y4344D01*
G01X6000Y3674D02*
G01X6000Y3369D01*
G01X6000Y3674D02*
G01X5869Y3674D01*
G01X5825Y3659D01*
G01X5810Y3645D01*
G01X5796Y3616D01*
G01X5796Y3572D01*
G01X5810Y3543D01*
G01X5825Y3529D01*
G01X5869Y3514D01*
G01X6000Y3514D01*
G01X5584Y3674D02*
G01X5700Y3369D01*
G01X5584Y3674D02*
G01X5467Y3369D01*
G01X5656Y3470D02*
G01X5511Y3470D01*
G01X5371Y3616D02*
G01X5342Y3630D01*
G01X5298Y3674D01*
G01X5298Y3369D01*
G01X5202Y3616D02*
G01X5173Y3630D01*
G01X5130Y3674D01*
G01X5130Y3369D01*
G01X6000Y2874D02*
G01X6000Y2569D01*
G01X6000Y2874D02*
G01X5869Y2874D01*
G01X5825Y2859D01*
G01X5810Y2845D01*
G01X5796Y2816D01*
G01X5796Y2772D01*
G01X5810Y2743D01*
G01X5825Y2729D01*
G01X5869Y2714D01*
G01X6000Y2714D01*
G01X5584Y2874D02*
G01X5700Y2569D01*
G01X5584Y2874D02*
G01X5467Y2569D01*
G01X5656Y2670D02*
G01X5511Y2670D01*
G01X5371Y2816D02*
G01X5342Y2830D01*
G01X5298Y2874D01*
G01X5298Y2569D01*
G01X5115Y2874D02*
G01X5159Y2859D01*
G01X5188Y2816D01*
G01X5202Y2743D01*
G01X5202Y2700D01*
G01X5188Y2627D01*
G01X5159Y2583D01*
G01X5115Y2569D01*
G01X5086Y2569D01*
G01X5042Y2583D01*
G01X5013Y2627D01*
G01X4999Y2700D01*
G01X4999Y2743D01*
G01X5013Y2816D01*
G01X5042Y2859D01*
G01X5086Y2874D01*
G01X5115Y2874D01*
G01X4903Y2700D02*
G01X4641Y2700D01*
G01X4545Y2874D02*
G01X4545Y2569D01*
G01X4545Y2874D02*
G01X4414Y2874D01*
G01X4370Y2859D01*
G01X4356Y2845D01*
G01X4341Y2816D01*
G01X4341Y2787D01*
G01X4356Y2758D01*
G01X4370Y2743D01*
G01X4414Y2729D01*
G01X4545Y2729D01*
G01X4443Y2729D02*
G01X4341Y2569D01*
G01X4245Y2874D02*
G01X4042Y2569D01*
G01X4042Y2874D02*
G01X4245Y2569D01*
G01X6000Y2424D02*
G01X6000Y2119D01*
G01X6000Y2424D02*
G01X5869Y2424D01*
G01X5825Y2409D01*
G01X5810Y2395D01*
G01X5796Y2366D01*
G01X5796Y2322D01*
G01X5810Y2293D01*
G01X5825Y2279D01*
G01X5869Y2264D01*
G01X6000Y2264D01*
G01X5584Y2424D02*
G01X5700Y2119D01*
G01X5584Y2424D02*
G01X5467Y2119D01*
G01X5656Y2220D02*
G01X5511Y2220D01*
G01X5182Y2322D02*
G01X5197Y2279D01*
G01X5226Y2250D01*
G01X5269Y2235D01*
G01X5284Y2235D01*
G01X5328Y2250D01*
G01X5357Y2279D01*
G01X5371Y2322D01*
G01X5371Y2337D01*
G01X5357Y2380D01*
G01X5328Y2409D01*
G01X5284Y2424D01*
G01X5269Y2424D01*
G01X5226Y2409D01*
G01X5197Y2380D01*
G01X5182Y2322D01*
G01X5182Y2250D01*
G01X5197Y2177D01*
G01X5226Y2133D01*
G01X5269Y2119D01*
G01X5298Y2119D01*
G01X5342Y2133D01*
G01X5357Y2162D01*
G01X5086Y2250D02*
G01X4824Y2250D01*
G01X4626Y2424D02*
G01X4626Y2119D01*
G01X4728Y2424D02*
G01X4525Y2424D01*
G01X4429Y2424D02*
G01X4225Y2119D01*
G01X4225Y2424D02*
G01X4429Y2119D01*
G01X6074Y1000D02*
G01X5769Y1000D01*
G01X6074Y1000D02*
G01X6074Y1130D01*
G01X6059Y1174D01*
G01X6045Y1189D01*
G01X6016Y1203D01*
G01X5972Y1203D01*
G01X5943Y1189D01*
G01X5929Y1174D01*
G01X5914Y1130D01*
G01X5914Y1000D01*
G01X6074Y1415D02*
G01X5769Y1299D01*
G01X6074Y1415D02*
G01X5769Y1532D01*
G01X5870Y1343D02*
G01X5870Y1488D01*
G01X6074Y1701D02*
G01X6059Y1657D01*
G01X6030Y1642D01*
G01X6001Y1642D01*
G01X5972Y1657D01*
G01X5958Y1686D01*
G01X5943Y1744D01*
G01X5929Y1788D01*
G01X5900Y1817D01*
G01X5870Y1832D01*
G01X5827Y1832D01*
G01X5798Y1817D01*
G01X5783Y1802D01*
G01X5769Y1759D01*
G01X5769Y1701D01*
G01X5783Y1657D01*
G01X5798Y1642D01*
G01X5827Y1628D01*
G01X5870Y1628D01*
G01X5900Y1642D01*
G01X5929Y1671D01*
G01X5943Y1715D01*
G01X5958Y1773D01*
G01X5972Y1802D01*
G01X6001Y1817D01*
G01X6030Y1817D01*
G01X6059Y1802D01*
G01X6074Y1759D01*
G01X6074Y1701D01*
G01X5624Y1000D02*
G01X5319Y1000D01*
G01X5624Y1000D02*
G01X5624Y1130D01*
G01X5609Y1174D01*
G01X5595Y1189D01*
G01X5566Y1203D01*
G01X5522Y1203D01*
G01X5493Y1189D01*
G01X5479Y1174D01*
G01X5464Y1130D01*
G01X5464Y1000D01*
G01X5624Y1299D02*
G01X5319Y1299D01*
G01X5624Y1299D02*
G01X5624Y1430D01*
G01X5609Y1474D01*
G01X5595Y1488D01*
G01X5566Y1503D01*
G01X5537Y1503D01*
G01X5508Y1488D01*
G01X5493Y1474D01*
G01X5479Y1430D01*
G01X5479Y1299D02*
G01X5479Y1430D01*
G01X5464Y1474D01*
G01X5450Y1488D01*
G01X5420Y1503D01*
G01X5377Y1503D01*
G01X5348Y1488D01*
G01X5333Y1474D01*
G01X5319Y1430D01*
G01X5319Y1299D01*
G01X5566Y1599D02*
G01X5580Y1628D01*
G01X5624Y1671D01*
G01X5319Y1671D01*
G01X5624Y1942D02*
G01X5624Y1797D01*
G01X5493Y1782D01*
G01X5508Y1797D01*
G01X5522Y1840D01*
G01X5522Y1884D01*
G01X5508Y1928D01*
G01X5479Y1957D01*
G01X5435Y1971D01*
G01X5406Y1971D01*
G01X5362Y1957D01*
G01X5333Y1928D01*
G01X5319Y1884D01*
G01X5319Y1840D01*
G01X5333Y1797D01*
G01X5348Y1782D01*
G01X5377Y1767D01*
G01X4624Y1000D02*
G01X4319Y1000D01*
G01X4624Y1000D02*
G01X4624Y1130D01*
G01X4609Y1174D01*
G01X4595Y1189D01*
G01X4566Y1203D01*
G01X4522Y1203D01*
G01X4493Y1189D01*
G01X4479Y1174D01*
G01X4464Y1130D01*
G01X4464Y1000D01*
G01X4624Y1299D02*
G01X4319Y1299D01*
G01X4624Y1299D02*
G01X4624Y1430D01*
G01X4609Y1474D01*
G01X4595Y1488D01*
G01X4566Y1503D01*
G01X4537Y1503D01*
G01X4508Y1488D01*
G01X4493Y1474D01*
G01X4479Y1430D01*
G01X4479Y1299D02*
G01X4479Y1430D01*
G01X4464Y1474D01*
G01X4450Y1488D01*
G01X4420Y1503D01*
G01X4377Y1503D01*
G01X4348Y1488D01*
G01X4333Y1474D01*
G01X4319Y1430D01*
G01X4319Y1299D01*
G01X4566Y1599D02*
G01X4580Y1628D01*
G01X4624Y1671D01*
G01X4319Y1671D01*
G01X4624Y1913D02*
G01X4420Y1767D01*
G01X4420Y1986D01*
G01X4624Y1913D02*
G01X4319Y1913D01*
G01X3624Y1000D02*
G01X3319Y1000D01*
G01X3624Y1000D02*
G01X3624Y1130D01*
G01X3609Y1174D01*
G01X3595Y1189D01*
G01X3566Y1203D01*
G01X3522Y1203D01*
G01X3493Y1189D01*
G01X3479Y1174D01*
G01X3464Y1130D01*
G01X3464Y1000D01*
G01X3624Y1299D02*
G01X3319Y1299D01*
G01X3624Y1299D02*
G01X3624Y1430D01*
G01X3609Y1474D01*
G01X3595Y1488D01*
G01X3566Y1503D01*
G01X3537Y1503D01*
G01X3508Y1488D01*
G01X3493Y1474D01*
G01X3479Y1430D01*
G01X3479Y1299D02*
G01X3479Y1430D01*
G01X3464Y1474D01*
G01X3450Y1488D01*
G01X3420Y1503D01*
G01X3377Y1503D01*
G01X3348Y1488D01*
G01X3333Y1474D01*
G01X3319Y1430D01*
G01X3319Y1299D01*
G01X3566Y1599D02*
G01X3580Y1628D01*
G01X3624Y1671D01*
G01X3319Y1671D01*
G01X3624Y1797D02*
G01X3624Y1957D01*
G01X3508Y1869D01*
G01X3508Y1913D01*
G01X3493Y1942D01*
G01X3479Y1957D01*
G01X3435Y1971D01*
G01X3406Y1971D01*
G01X3362Y1957D01*
G01X3333Y1928D01*
G01X3319Y1884D01*
G01X3319Y1840D01*
G01X3333Y1797D01*
G01X3348Y1782D01*
G01X3377Y1767D01*
G01X2624Y1000D02*
G01X2319Y1000D01*
G01X2624Y1000D02*
G01X2624Y1130D01*
G01X2609Y1174D01*
G01X2595Y1189D01*
G01X2566Y1203D01*
G01X2522Y1203D01*
G01X2493Y1189D01*
G01X2479Y1174D01*
G01X2464Y1130D01*
G01X2464Y1000D01*
G01X2624Y1299D02*
G01X2319Y1299D01*
G01X2624Y1299D02*
G01X2624Y1430D01*
G01X2609Y1474D01*
G01X2595Y1488D01*
G01X2566Y1503D01*
G01X2537Y1503D01*
G01X2508Y1488D01*
G01X2493Y1474D01*
G01X2479Y1430D01*
G01X2479Y1299D02*
G01X2479Y1430D01*
G01X2464Y1474D01*
G01X2450Y1488D01*
G01X2420Y1503D01*
G01X2377Y1503D01*
G01X2348Y1488D01*
G01X2333Y1474D01*
G01X2319Y1430D01*
G01X2319Y1299D01*
G01X2566Y1599D02*
G01X2580Y1628D01*
G01X2624Y1671D01*
G01X2319Y1671D01*
G01X2551Y1782D02*
G01X2566Y1782D01*
G01X2595Y1797D01*
G01X2609Y1811D01*
G01X2624Y1840D01*
G01X2624Y1898D01*
G01X2609Y1928D01*
G01X2595Y1942D01*
G01X2566Y1957D01*
G01X2537Y1957D01*
G01X2508Y1942D01*
G01X2464Y1913D01*
G01X2319Y1767D01*
G01X2319Y1971D01*
G01X-1850Y624D02*
G01X-1850Y319D01*
G01X-1850Y624D02*
G01X-1980Y624D01*
G01X-2024Y609D01*
G01X-2039Y595D01*
G01X-2053Y566D01*
G01X-2053Y522D01*
G01X-2039Y493D01*
G01X-2024Y479D01*
G01X-1980Y464D01*
G01X-1850Y464D01*
G01X-2149Y624D02*
G01X-2149Y319D01*
G01X-2149Y624D02*
G01X-2280Y624D01*
G01X-2324Y609D01*
G01X-2338Y595D01*
G01X-2353Y566D01*
G01X-2353Y537D01*
G01X-2338Y508D01*
G01X-2324Y493D01*
G01X-2280Y479D01*
G01X-2149Y479D02*
G01X-2280Y479D01*
G01X-2324Y464D01*
G01X-2338Y450D01*
G01X-2353Y420D01*
G01X-2353Y377D01*
G01X-2338Y348D01*
G01X-2324Y333D01*
G01X-2280Y319D01*
G01X-2149Y319D01*
G01X-2449Y566D02*
G01X-2478Y580D01*
G01X-2521Y624D01*
G01X-2521Y319D01*
G01X-2617Y566D02*
G01X-2647Y580D01*
G01X-2690Y624D01*
G01X-2690Y319D01*
G01X2000Y1624D02*
G01X2000Y1319D01*
G01X2000Y1624D02*
G01X1869Y1624D01*
G01X1825Y1609D01*
G01X1810Y1595D01*
G01X1796Y1566D01*
G01X1796Y1522D01*
G01X1810Y1493D01*
G01X1825Y1479D01*
G01X1869Y1464D01*
G01X2000Y1464D01*
G01X1700Y1624D02*
G01X1700Y1319D01*
G01X1700Y1624D02*
G01X1569Y1624D01*
G01X1525Y1609D01*
G01X1511Y1595D01*
G01X1496Y1566D01*
G01X1496Y1537D01*
G01X1511Y1508D01*
G01X1525Y1493D01*
G01X1569Y1479D01*
G01X1700Y1479D02*
G01X1569Y1479D01*
G01X1525Y1464D01*
G01X1511Y1450D01*
G01X1496Y1420D01*
G01X1496Y1377D01*
G01X1511Y1348D01*
G01X1525Y1333D01*
G01X1569Y1319D01*
G01X1700Y1319D01*
G01X1400Y1566D02*
G01X1371Y1580D01*
G01X1328Y1624D01*
G01X1328Y1319D01*
G01X1144Y1624D02*
G01X1188Y1609D01*
G01X1217Y1566D01*
G01X1232Y1493D01*
G01X1232Y1450D01*
G01X1217Y1377D01*
G01X1188Y1333D01*
G01X1144Y1319D01*
G01X1115Y1319D01*
G01X1071Y1333D01*
G01X1042Y1377D01*
G01X1028Y1450D01*
G01X1028Y1493D01*
G01X1042Y1566D01*
G01X1071Y1609D01*
G01X1115Y1624D01*
G01X1144Y1624D01*
G01X1800Y2624D02*
G01X1800Y2319D01*
G01X1800Y2624D02*
G01X1669Y2624D01*
G01X1625Y2609D01*
G01X1610Y2595D01*
G01X1596Y2566D01*
G01X1596Y2522D01*
G01X1610Y2493D01*
G01X1625Y2479D01*
G01X1669Y2464D01*
G01X1800Y2464D01*
G01X1500Y2624D02*
G01X1500Y2319D01*
G01X1500Y2624D02*
G01X1369Y2624D01*
G01X1325Y2609D01*
G01X1311Y2595D01*
G01X1296Y2566D01*
G01X1296Y2537D01*
G01X1311Y2508D01*
G01X1325Y2493D01*
G01X1369Y2479D01*
G01X1500Y2479D02*
G01X1369Y2479D01*
G01X1325Y2464D01*
G01X1311Y2450D01*
G01X1296Y2420D01*
G01X1296Y2377D01*
G01X1311Y2348D01*
G01X1325Y2333D01*
G01X1369Y2319D01*
G01X1500Y2319D01*
G01X1200Y2566D02*
G01X1171Y2580D01*
G01X1128Y2624D01*
G01X1128Y2319D01*
G01X1802Y3650D02*
G01X1802Y3344D01*
G01X1802Y3650D02*
G01X1672Y3650D01*
G01X1628Y3635D01*
G01X1613Y3620D01*
G01X1599Y3591D01*
G01X1599Y3548D01*
G01X1613Y3519D01*
G01X1628Y3504D01*
G01X1672Y3490D01*
G01X1802Y3490D01*
G01X1503Y3650D02*
G01X1503Y3344D01*
G01X1503Y3650D02*
G01X1372Y3650D01*
G01X1328Y3635D01*
G01X1314Y3620D01*
G01X1299Y3591D01*
G01X1299Y3562D01*
G01X1314Y3533D01*
G01X1328Y3519D01*
G01X1372Y3504D01*
G01X1503Y3504D02*
G01X1372Y3504D01*
G01X1328Y3490D01*
G01X1314Y3475D01*
G01X1299Y3446D01*
G01X1299Y3402D01*
G01X1314Y3373D01*
G01X1328Y3359D01*
G01X1372Y3344D01*
G01X1503Y3344D01*
G01X1116Y3650D02*
G01X1160Y3635D01*
G01X1189Y3591D01*
G01X1203Y3519D01*
G01X1203Y3475D01*
G01X1189Y3402D01*
G01X1160Y3359D01*
G01X1116Y3344D01*
G01X1087Y3344D01*
G01X1043Y3359D01*
G01X1014Y3402D01*
G01X1000Y3475D01*
G01X1000Y3519D01*
G01X1014Y3591D01*
G01X1043Y3635D01*
G01X1087Y3650D01*
G01X1116Y3650D01*
G01X1800Y4674D02*
G01X1800Y4369D01*
G01X1800Y4674D02*
G01X1669Y4674D01*
G01X1625Y4659D01*
G01X1610Y4645D01*
G01X1596Y4616D01*
G01X1596Y4572D01*
G01X1610Y4543D01*
G01X1625Y4529D01*
G01X1669Y4514D01*
G01X1800Y4514D01*
G01X1384Y4674D02*
G01X1500Y4369D01*
G01X1384Y4674D02*
G01X1267Y4369D01*
G01X1456Y4470D02*
G01X1311Y4470D01*
G01X967Y4674D02*
G01X1113Y4369D01*
G01X1171Y4674D02*
G01X967Y4674D01*
G01X1817Y5650D02*
G01X1817Y5344D01*
G01X1817Y5650D02*
G01X1686Y5650D01*
G01X1642Y5635D01*
G01X1628Y5620D01*
G01X1613Y5591D01*
G01X1613Y5548D01*
G01X1628Y5519D01*
G01X1642Y5504D01*
G01X1686Y5490D01*
G01X1817Y5490D01*
G01X1401Y5650D02*
G01X1517Y5344D01*
G01X1401Y5650D02*
G01X1285Y5344D01*
G01X1474Y5446D02*
G01X1328Y5446D01*
G01X1014Y5606D02*
G01X1029Y5635D01*
G01X1072Y5650D01*
G01X1101Y5650D01*
G01X1145Y5635D01*
G01X1174Y5591D01*
G01X1189Y5519D01*
G01X1189Y5446D01*
G01X1174Y5388D01*
G01X1145Y5359D01*
G01X1101Y5344D01*
G01X1087Y5344D01*
G01X1043Y5359D01*
G01X1014Y5388D01*
G01X999Y5431D01*
G01X999Y5446D01*
G01X1014Y5490D01*
G01X1043Y5519D01*
G01X1087Y5533D01*
G01X1101Y5533D01*
G01X1145Y5519D01*
G01X1174Y5490D01*
G01X1189Y5446D01*
G01X1800Y6674D02*
G01X1800Y6369D01*
G01X1800Y6674D02*
G01X1669Y6674D01*
G01X1625Y6659D01*
G01X1610Y6645D01*
G01X1596Y6616D01*
G01X1596Y6572D01*
G01X1610Y6543D01*
G01X1625Y6529D01*
G01X1669Y6514D01*
G01X1800Y6514D01*
G01X1384Y6674D02*
G01X1500Y6369D01*
G01X1384Y6674D02*
G01X1267Y6369D01*
G01X1456Y6470D02*
G01X1311Y6470D01*
G01X997Y6674D02*
G01X1142Y6674D01*
G01X1157Y6543D01*
G01X1142Y6558D01*
G01X1098Y6572D01*
G01X1055Y6572D01*
G01X1011Y6558D01*
G01X982Y6529D01*
G01X967Y6485D01*
G01X967Y6456D01*
G01X982Y6412D01*
G01X1011Y6383D01*
G01X1055Y6369D01*
G01X1098Y6369D01*
G01X1142Y6383D01*
G01X1157Y6398D01*
G01X1171Y6427D01*
G01X1796Y7650D02*
G01X1796Y7344D01*
G01X1796Y7650D02*
G01X1665Y7650D01*
G01X1622Y7635D01*
G01X1607Y7620D01*
G01X1592Y7591D01*
G01X1592Y7548D01*
G01X1607Y7519D01*
G01X1622Y7504D01*
G01X1665Y7490D01*
G01X1796Y7490D01*
G01X1380Y7650D02*
G01X1496Y7344D01*
G01X1380Y7650D02*
G01X1264Y7344D01*
G01X1453Y7446D02*
G01X1307Y7446D01*
G01X1022Y7650D02*
G01X1168Y7446D01*
G01X950Y7446D01*
G01X1022Y7650D02*
G01X1022Y7344D01*
G01X1800Y8624D02*
G01X1800Y8319D01*
G01X1800Y8624D02*
G01X1669Y8624D01*
G01X1625Y8609D01*
G01X1610Y8595D01*
G01X1596Y8566D01*
G01X1596Y8522D01*
G01X1610Y8493D01*
G01X1625Y8479D01*
G01X1669Y8464D01*
G01X1800Y8464D01*
G01X1384Y8624D02*
G01X1500Y8319D01*
G01X1384Y8624D02*
G01X1267Y8319D01*
G01X1456Y8420D02*
G01X1311Y8420D01*
G01X1142Y8624D02*
G01X982Y8624D01*
G01X1069Y8508D01*
G01X1026Y8508D01*
G01X997Y8493D01*
G01X982Y8479D01*
G01X967Y8435D01*
G01X967Y8406D01*
G01X982Y8362D01*
G01X1011Y8333D01*
G01X1055Y8319D01*
G01X1098Y8319D01*
G01X1142Y8333D01*
G01X1157Y8348D01*
G01X1171Y8377D01*
G01X1800Y9674D02*
G01X1800Y9369D01*
G01X1800Y9674D02*
G01X1669Y9674D01*
G01X1625Y9659D01*
G01X1610Y9645D01*
G01X1596Y9616D01*
G01X1596Y9572D01*
G01X1610Y9543D01*
G01X1625Y9529D01*
G01X1669Y9514D01*
G01X1800Y9514D01*
G01X1384Y9674D02*
G01X1500Y9369D01*
G01X1384Y9674D02*
G01X1267Y9369D01*
G01X1456Y9470D02*
G01X1311Y9470D01*
G01X1157Y9601D02*
G01X1157Y9616D01*
G01X1142Y9645D01*
G01X1128Y9659D01*
G01X1098Y9674D01*
G01X1040Y9674D01*
G01X1011Y9659D01*
G01X997Y9645D01*
G01X982Y9616D01*
G01X982Y9587D01*
G01X997Y9558D01*
G01X1026Y9514D01*
G01X1171Y9369D01*
G01X967Y9369D01*
G01X1801Y10649D02*
G01X1801Y10344D01*
G01X1801Y10649D02*
G01X1670Y10649D01*
G01X1626Y10635D01*
G01X1612Y10620D01*
G01X1597Y10591D01*
G01X1597Y10548D01*
G01X1612Y10519D01*
G01X1626Y10504D01*
G01X1670Y10489D01*
G01X1801Y10489D01*
G01X1385Y10649D02*
G01X1501Y10344D01*
G01X1385Y10649D02*
G01X1268Y10344D01*
G01X1457Y10446D02*
G01X1312Y10446D01*
G01X1172Y10591D02*
G01X1143Y10606D01*
G01X1100Y10649D01*
G01X1100Y10344D01*
G01X1832Y11499D02*
G01X1832Y11194D01*
G01X1832Y11499D02*
G01X1701Y11499D01*
G01X1657Y11485D01*
G01X1642Y11470D01*
G01X1628Y11441D01*
G01X1628Y11398D01*
G01X1642Y11369D01*
G01X1657Y11354D01*
G01X1701Y11339D01*
G01X1832Y11339D01*
G01X1416Y11499D02*
G01X1532Y11194D01*
G01X1416Y11499D02*
G01X1299Y11194D01*
G01X1488Y11296D02*
G01X1343Y11296D01*
G01X1116Y11499D02*
G01X1160Y11485D01*
G01X1189Y11441D01*
G01X1203Y11369D01*
G01X1203Y11325D01*
G01X1189Y11252D01*
G01X1160Y11209D01*
G01X1116Y11194D01*
G01X1087Y11194D01*
G01X1043Y11209D01*
G01X1014Y11252D01*
G01X1000Y11325D01*
G01X1000Y11369D01*
G01X1014Y11441D01*
G01X1043Y11485D01*
G01X1087Y11499D01*
G01X1116Y11499D01*
G01X3113Y7524D02*
G01X3230Y7219D01*
G01X3113Y7524D02*
G01X2997Y7219D01*
G01X3186Y7320D02*
G01X3040Y7320D01*
G01X2901Y7524D02*
G01X2901Y7219D01*
G01X2805Y7524D02*
G01X2805Y7219D01*
G01X2805Y7524D02*
G01X2601Y7219D01*
G01X2601Y7524D02*
G01X2601Y7219D01*

%LPD*%
G36*
G01X2642Y4492D02*
G01X2607Y4492D01*
G01X2696Y4315D01*
G01X2696Y4200D01*
G01X2728Y4200D01*
G01X2728Y4315D01*
G01X2815Y4492D01*
G01X2780Y4492D01*
G01X2742Y4407D01*
G01X2734Y4391D01*
G01X2727Y4376D01*
G01X2711Y4344D01*
G01X2695Y4376D01*
G01X2688Y4391D01*
G01X2680Y4407D01*
G01X2642Y4492D01*
G37*

%LPD*%
G36*
G01X3017Y4492D02*
G01X2984Y4492D01*
G01X3071Y4315D01*
G01X3071Y4200D01*
G01X3105Y4200D01*
G01X3105Y4315D01*
G01X3192Y4492D01*
G01X3157Y4492D01*
G01X3119Y4407D01*
G01X3111Y4391D01*
G01X3104Y4376D01*
G01X3088Y4344D01*
G01X3072Y4376D01*
G01X3065Y4391D01*
G01X3057Y4407D01*
G01X3017Y4492D01*
G37*

%LPD*%
G36*
G01X3392Y4492D02*
G01X3367Y4492D01*
G01X3367Y4226D01*
G01X3309Y4226D01*
G01X3309Y4200D01*
G01X3465Y4200D01*
G01X3465Y4226D01*
G01X3401Y4226D01*
G01X3401Y4451D01*
G01X3451Y4451D01*
G01X3451Y4473D01*
G01X3434Y4476D01*
G01X3418Y4481D01*
G01X3405Y4486D01*
G01X3392Y4492D01*
G37*

%LPD*%
G36*
G01X3865Y4494D02*
G01X3840Y4498D01*
G01X3821Y4496D01*
G01X3805Y4491D01*
G01X3790Y4484D01*
G01X3778Y4474D01*
G01X3768Y4461D01*
G01X3761Y4447D01*
G01X3757Y4430D01*
G01X3755Y4411D01*
G01X3758Y4389D01*
G01X3764Y4367D01*
G01X3774Y4344D01*
G01X3788Y4321D01*
G01X3805Y4298D01*
G01X3825Y4275D01*
G01X3848Y4250D01*
G01X3873Y4226D01*
G01X3861Y4226D01*
G01X3849Y4227D01*
G01X3837Y4227D01*
G01X3826Y4228D01*
G01X3742Y4228D01*
G01X3742Y4200D01*
G01X3923Y4200D01*
G01X3923Y4219D01*
G01X3890Y4249D01*
G01X3862Y4276D01*
G01X3839Y4302D01*
G01X3820Y4326D01*
G01X3806Y4349D01*
G01X3796Y4371D01*
G01X3790Y4391D01*
G01X3788Y4411D01*
G01X3791Y4435D01*
G01X3801Y4454D01*
G01X3819Y4467D01*
G01X3844Y4471D01*
G01X3861Y4469D01*
G01X3877Y4461D01*
G01X3892Y4450D01*
G01X3905Y4436D01*
G01X3925Y4455D01*
G01X3907Y4472D01*
G01X3887Y4486D01*
G01X3865Y4494D01*
G37*

%LPD*%
G36*
G01X4051Y4492D02*
G01X4026Y4492D01*
G01X4026Y4226D01*
G01X3967Y4226D01*
G01X3967Y4200D01*
G01X4125Y4200D01*
G01X4125Y4226D01*
G01X4059Y4226D01*
G01X4059Y4451D01*
G01X4111Y4451D01*
G01X4111Y4473D01*
G01X4093Y4476D01*
G01X4077Y4481D01*
G01X4063Y4486D01*
G01X4051Y4492D01*
G37*

%LPD*%
G36*
G01X4490Y4492D02*
G01X4465Y4492D01*
G01X4465Y4226D01*
G01X4407Y4226D01*
G01X4407Y4200D01*
G01X4563Y4200D01*
G01X4563Y4226D01*
G01X4498Y4226D01*
G01X4498Y4451D01*
G01X4550Y4451D01*
G01X4550Y4473D01*
G01X4532Y4476D01*
G01X4516Y4481D01*
G01X4503Y4486D01*
G01X4490Y4492D01*
G37*

%LPD*%
G36*
G01X2888Y4492D02*
G01X2855Y4492D01*
G01X2855Y4284D01*
G01X2857Y4266D01*
G01X2860Y4249D01*
G01X2865Y4234D01*
G01X2874Y4221D01*
G01X2884Y4210D01*
G01X2898Y4201D01*
G01X2915Y4196D01*
G01X2934Y4194D01*
G01X2960Y4197D01*
G01X2981Y4206D01*
G01X2999Y4220D01*
G01X3013Y4240D01*
G01X2990Y4257D01*
G01X2978Y4241D01*
G01X2967Y4231D01*
G01X2953Y4225D01*
G01X2938Y4223D01*
G01X2916Y4227D01*
G01X2901Y4238D01*
G01X2892Y4258D01*
G01X2888Y4288D01*
G01X2888Y4492D01*
G37*

%LPD*%
G36*
G01X3642Y4495D02*
G01X3617Y4498D01*
G01X3584Y4493D01*
G01X3558Y4479D01*
G01X3541Y4456D01*
G01X3534Y4426D01*
G01X3538Y4400D01*
G01X3549Y4380D01*
G01X3565Y4365D01*
G01X3586Y4353D01*
G01X3563Y4343D01*
G01X3543Y4327D01*
G01X3530Y4305D01*
G01X3525Y4278D01*
G01X3526Y4259D01*
G01X3532Y4242D01*
G01X3540Y4228D01*
G01X3551Y4217D01*
G01X3565Y4207D01*
G01X3581Y4200D01*
G01X3598Y4196D01*
G01X3617Y4194D01*
G01X3647Y4198D01*
G01X3673Y4207D01*
G01X3693Y4219D01*
G01X3709Y4234D01*
G01X3692Y4255D01*
G01X3679Y4242D01*
G01X3662Y4232D01*
G01X3642Y4224D01*
G01X3619Y4221D01*
G01X3594Y4226D01*
G01X3575Y4237D01*
G01X3562Y4255D01*
G01X3557Y4278D01*
G01X3562Y4303D01*
G01X3578Y4323D01*
G01X3607Y4335D01*
G01X3650Y4340D01*
G01X3650Y4365D01*
G01X3611Y4369D01*
G01X3586Y4381D01*
G01X3572Y4400D01*
G01X3567Y4423D01*
G01X3571Y4442D01*
G01X3581Y4457D01*
G01X3598Y4467D01*
G01X3619Y4471D01*
G01X3636Y4469D01*
G01X3652Y4463D01*
G01X3667Y4453D01*
G01X3680Y4442D01*
G01X3698Y4463D01*
G01X3681Y4477D01*
G01X3663Y4488D01*
G01X3642Y4495D01*
G37*

%LPD*%
G36*
G01X4296Y4496D02*
G01X4280Y4498D01*
G01X4259Y4495D01*
G01X4241Y4489D01*
G01X4224Y4478D01*
G01X4210Y4463D01*
G01X4198Y4444D01*
G01X4190Y4420D01*
G01X4184Y4392D01*
G01X4182Y4359D01*
G01X4185Y4318D01*
G01X4191Y4283D01*
G01X4201Y4255D01*
G01X4215Y4232D01*
G01X4230Y4215D01*
G01X4248Y4203D01*
G01X4267Y4197D01*
G01X4288Y4194D01*
G01X4309Y4197D01*
G01X4328Y4203D01*
G01X4343Y4212D01*
G01X4357Y4223D01*
G01X4338Y4244D01*
G01X4328Y4234D01*
G01X4316Y4227D01*
G01X4303Y4223D01*
G01X4288Y4221D01*
G01X4274Y4223D01*
G01X4261Y4228D01*
G01X4248Y4237D01*
G01X4237Y4249D01*
G01X4228Y4267D01*
G01X4221Y4288D01*
G01X4216Y4316D01*
G01X4213Y4348D01*
G01X4228Y4333D01*
G01X4245Y4321D01*
G01X4263Y4314D01*
G01X4282Y4311D01*
G01X4299Y4313D01*
G01X4315Y4317D01*
G01X4328Y4325D01*
G01X4340Y4335D01*
G01X4349Y4348D01*
G01X4356Y4363D01*
G01X4360Y4382D01*
G01X4361Y4403D01*
G01X4360Y4424D01*
G01X4355Y4442D01*
G01X4348Y4458D01*
G01X4337Y4471D01*
G01X4325Y4482D01*
G01X4311Y4491D01*
G01X4296Y4496D01*
G37*

%LPC*%
G36*
G01X4300Y4467D02*
G01X4280Y4471D01*
G01X4253Y4465D01*
G01X4233Y4447D01*
G01X4220Y4417D01*
G01X4213Y4376D01*
G01X4229Y4357D01*
G01X4245Y4345D01*
G01X4261Y4338D01*
G01X4276Y4336D01*
G01X4301Y4340D01*
G01X4317Y4354D01*
G01X4327Y4376D01*
G01X4330Y4403D01*
G01X4327Y4431D01*
G01X4316Y4453D01*
G01X4300Y4467D01*
G37*

%LPD*%

%LPD*%
G36*
G01X2972Y10097D02*
G01X2946Y10098D01*
G01X2920Y10097D01*
G01X2897Y10093D01*
G01X2875Y10086D01*
G01X2856Y10077D01*
G01X2838Y10066D01*
G01X2823Y10052D01*
G01X2809Y10036D01*
G01X2798Y10018D01*
G01X2789Y9998D01*
G01X2783Y9976D01*
G01X2779Y9953D01*
G01X2778Y9928D01*
G01X2778Y9910D01*
G01X2780Y9892D01*
G01X2788Y9856D01*
G01X2794Y9838D01*
G01X2801Y9820D01*
G01X2810Y9801D01*
G01X2819Y9783D01*
G01X2830Y9765D01*
G01X2842Y9746D01*
G01X2855Y9728D01*
G01X2869Y9709D01*
G01X2884Y9690D01*
G01X2916Y9652D01*
G01X2934Y9633D01*
G01X2953Y9613D01*
G01X3013Y9553D01*
G01X2990Y9555D01*
G01X2965Y9557D01*
G01X2917Y9559D01*
G01X2750Y9559D01*
G01X2750Y9503D01*
G01X3111Y9503D01*
G01X3111Y9542D01*
G01X3084Y9566D01*
G01X3034Y9612D01*
G01X2990Y9656D01*
G01X2971Y9677D01*
G01X2953Y9698D01*
G01X2936Y9718D01*
G01X2920Y9737D01*
G01X2906Y9756D01*
G01X2894Y9775D01*
G01X2883Y9793D01*
G01X2873Y9811D01*
G01X2857Y9845D01*
G01X2852Y9861D01*
G01X2847Y9878D01*
G01X2844Y9894D01*
G01X2842Y9909D01*
G01X2842Y9925D01*
G01X2843Y9950D01*
G01X2848Y9973D01*
G01X2857Y9993D01*
G01X2869Y10011D01*
G01X2884Y10025D01*
G01X2903Y10036D01*
G01X2926Y10043D01*
G01X2953Y10046D01*
G01X2971Y10044D01*
G01X2988Y10040D01*
G01X3005Y10034D01*
G01X3021Y10026D01*
G01X3051Y10004D01*
G01X3064Y9991D01*
G01X3078Y9976D01*
G01X3115Y10013D01*
G01X3098Y10031D01*
G01X3079Y10048D01*
G01X3060Y10063D01*
G01X3040Y10075D01*
G01X3019Y10085D01*
G01X2996Y10092D01*
G01X2972Y10097D01*
G37*

%LPD*%
G36*
G01X3751Y10088D02*
G01X3669Y10088D01*
G01X3669Y9503D01*
G01X3730Y9503D01*
G01X3730Y9881D01*
G01X3728Y9925D01*
G01X3726Y9948D01*
G01X3723Y10011D01*
G01X3726Y10011D01*
G01X3771Y9878D01*
G01X3886Y9563D01*
G01X3932Y9563D01*
G01X4048Y9878D01*
G01X4094Y10011D01*
G01X4096Y10011D01*
G01X4093Y9948D01*
G01X4091Y9925D01*
G01X4089Y9881D01*
G01X4089Y9860D01*
G01X4088Y9840D01*
G01X4088Y9503D01*
G01X4148Y9503D01*
G01X4148Y10088D01*
G01X4067Y10088D01*
G01X3951Y9769D01*
G01X3941Y9737D01*
G01X3930Y9706D01*
G01X3920Y9675D01*
G01X3909Y9644D01*
G01X3905Y9644D01*
G01X3875Y9737D01*
G01X3865Y9769D01*
G01X3751Y10088D01*
G37*

%LPD*%
G36*
G01X4680Y10088D02*
G01X4255Y10088D01*
G01X4255Y10032D01*
G01X4434Y10032D01*
G01X4434Y9503D01*
G01X4501Y9503D01*
G01X4501Y10032D01*
G01X4680Y10032D01*
G01X4680Y10088D01*
G37*

%LPD*%
G36*
G01X3404Y10098D02*
G01X3380Y10100D01*
G01X3356Y10098D01*
G01X3334Y10095D01*
G01X3313Y10089D01*
G01X3294Y10082D01*
G01X3276Y10073D01*
G01X3261Y10061D01*
G01X3247Y10048D01*
G01X3235Y10032D01*
G01X3226Y10015D01*
G01X3219Y9996D01*
G01X3215Y9976D01*
G01X3213Y9953D01*
G01X3215Y9927D01*
G01X3221Y9903D01*
G01X3230Y9882D01*
G01X3242Y9863D01*
G01X3258Y9847D01*
G01X3276Y9833D01*
G01X3296Y9821D01*
G01X3319Y9811D01*
G01X3319Y9809D01*
G01X3293Y9801D01*
G01X3270Y9790D01*
G01X3249Y9775D01*
G01X3230Y9758D01*
G01X3215Y9737D01*
G01X3203Y9714D01*
G01X3196Y9688D01*
G01X3194Y9659D01*
G01X3195Y9633D01*
G01X3200Y9610D01*
G01X3208Y9589D01*
G01X3219Y9569D01*
G01X3232Y9552D01*
G01X3247Y9536D01*
G01X3265Y9523D01*
G01X3284Y9513D01*
G01X3306Y9504D01*
G01X3328Y9498D01*
G01X3353Y9494D01*
G01X3378Y9492D01*
G01X3410Y9494D01*
G01X3440Y9499D01*
G01X3466Y9507D01*
G01X3490Y9517D01*
G01X3512Y9529D01*
G01X3531Y9543D01*
G01X3548Y9557D01*
G01X3563Y9573D01*
G01X3530Y9615D01*
G01X3516Y9601D01*
G01X3502Y9589D01*
G01X3486Y9578D01*
G01X3469Y9567D01*
G01X3450Y9559D01*
G01X3429Y9552D01*
G01X3407Y9548D01*
G01X3382Y9546D01*
G01X3356Y9548D01*
G01X3332Y9555D01*
G01X3312Y9564D01*
G01X3294Y9577D01*
G01X3279Y9594D01*
G01X3269Y9613D01*
G01X3262Y9636D01*
G01X3259Y9661D01*
G01X3261Y9678D01*
G01X3264Y9694D01*
G01X3269Y9710D01*
G01X3277Y9724D01*
G01X3288Y9737D01*
G01X3301Y9748D01*
G01X3317Y9758D01*
G01X3336Y9766D01*
G01X3358Y9773D01*
G01X3384Y9778D01*
G01X3412Y9780D01*
G01X3444Y9782D01*
G01X3444Y9832D01*
G01X3416Y9834D01*
G01X3390Y9836D01*
G01X3367Y9842D01*
G01X3348Y9848D01*
G01X3330Y9856D01*
G01X3316Y9866D01*
G01X3305Y9877D01*
G01X3295Y9890D01*
G01X3288Y9903D01*
G01X3283Y9917D01*
G01X3280Y9932D01*
G01X3280Y9948D01*
G01X3281Y9969D01*
G01X3287Y9988D01*
G01X3296Y10005D01*
G01X3307Y10019D01*
G01X3322Y10030D01*
G01X3340Y10039D01*
G01X3360Y10044D01*
G01X3382Y10046D01*
G01X3417Y10042D01*
G01X3450Y10029D01*
G01X3479Y10011D01*
G01X3505Y9988D01*
G01X3542Y10030D01*
G01X3525Y10044D01*
G01X3508Y10057D01*
G01X3489Y10069D01*
G01X3470Y10079D01*
G01X3449Y10087D01*
G01X3428Y10094D01*
G01X3404Y10098D01*
G37*

%LPD*%
G36*
G01X4939Y10097D02*
G01X4913Y10098D01*
G01X4888Y10097D01*
G01X4863Y10093D01*
G01X4840Y10087D01*
G01X4817Y10078D01*
G01X4796Y10068D01*
G01X4777Y10055D01*
G01X4759Y10042D01*
G01X4744Y10026D01*
G01X4778Y9984D01*
G01X4792Y9997D01*
G01X4822Y10017D01*
G01X4838Y10025D01*
G01X4856Y10032D01*
G01X4874Y10036D01*
G01X4893Y10040D01*
G01X4913Y10040D01*
G01X4938Y10039D01*
G01X4960Y10034D01*
G01X4980Y10026D01*
G01X4996Y10016D01*
G01X5009Y10003D01*
G01X5019Y9988D01*
G01X5026Y9970D01*
G01X5028Y9951D01*
G01X5025Y9930D01*
G01X5019Y9912D01*
G01X5008Y9897D01*
G01X4995Y9884D01*
G01X4980Y9874D01*
G01X4964Y9865D01*
G01X4947Y9856D01*
G01X4930Y9848D01*
G01X4844Y9813D01*
G01X4820Y9801D01*
G01X4797Y9788D01*
G01X4777Y9773D01*
G01X4759Y9756D01*
G01X4744Y9736D01*
G01X4733Y9713D01*
G01X4726Y9687D01*
G01X4723Y9657D01*
G01X4725Y9634D01*
G01X4730Y9612D01*
G01X4737Y9592D01*
G01X4748Y9573D01*
G01X4761Y9556D01*
G01X4776Y9540D01*
G01X4795Y9526D01*
G01X4815Y9515D01*
G01X4838Y9505D01*
G01X4863Y9498D01*
G01X4890Y9494D01*
G01X4919Y9492D01*
G01X4950Y9494D01*
G01X4980Y9498D01*
G01X5007Y9506D01*
G01X5034Y9516D01*
G01X5059Y9528D01*
G01X5082Y9543D01*
G01X5103Y9560D01*
G01X5123Y9580D01*
G01X5084Y9625D01*
G01X5067Y9608D01*
G01X5048Y9594D01*
G01X5029Y9581D01*
G01X5009Y9571D01*
G01X4987Y9562D01*
G01X4965Y9556D01*
G01X4942Y9552D01*
G01X4919Y9551D01*
G01X4891Y9552D01*
G01X4866Y9558D01*
G01X4844Y9567D01*
G01X4825Y9578D01*
G01X4810Y9593D01*
G01X4800Y9610D01*
G01X4793Y9630D01*
G01X4790Y9651D01*
G01X4792Y9673D01*
G01X4798Y9692D01*
G01X4807Y9707D01*
G01X4819Y9720D01*
G01X4834Y9731D01*
G01X4851Y9741D01*
G01X4870Y9750D01*
G01X4890Y9759D01*
G01X4976Y9796D01*
G01X4996Y9806D01*
G01X5017Y9818D01*
G01X5037Y9832D01*
G01X5055Y9848D01*
G01X5071Y9867D01*
G01X5084Y9890D01*
G01X5092Y9916D01*
G01X5094Y9946D01*
G01X5093Y9967D01*
G01X5088Y9988D01*
G01X5081Y10007D01*
G01X5071Y10025D01*
G01X5058Y10041D01*
G01X5043Y10055D01*
G01X5026Y10068D01*
G01X5007Y10079D01*
G01X4986Y10087D01*
G01X4963Y10093D01*
G01X4939Y10097D01*
G37*

%LPD*%

%LPD*%
G36*
G01X2465Y9346D02*
G01X2446Y9350D01*
G01X2428Y9346D01*
G01X2413Y9338D01*
G01X2403Y9323D01*
G01X2400Y9305D01*
G01X2403Y9287D01*
G01X2413Y9273D01*
G01X2428Y9264D01*
G01X2446Y9261D01*
G01X2465Y9264D01*
G01X2480Y9273D01*
G01X2490Y9287D01*
G01X2494Y9305D01*
G01X2490Y9323D01*
G01X2480Y9338D01*
G01X2465Y9346D01*
G37*

%LPD*%
G36*
G01X3164Y9346D02*
G01X3146Y9350D01*
G01X3128Y9346D01*
G01X3113Y9338D01*
G01X3102Y9323D01*
G01X3098Y9305D01*
G01X3102Y9287D01*
G01X3113Y9273D01*
G01X3128Y9264D01*
G01X3146Y9261D01*
G01X3164Y9264D01*
G01X3179Y9273D01*
G01X3189Y9287D01*
G01X3192Y9305D01*
G01X3189Y9323D01*
G01X3179Y9338D01*
G01X3164Y9346D01*
G37*

%LPD*%
G36*
G01X2480Y9167D02*
G01X2415Y9167D01*
G01X2415Y8736D01*
G01X2480Y8736D01*
G01X2480Y9167D01*
G37*

%LPD*%
G36*
G01X2778Y9177D02*
G01X2757Y9178D01*
G01X2735Y9177D01*
G01X2715Y9174D01*
G01X2698Y9168D01*
G01X2682Y9159D01*
G01X2668Y9149D01*
G01X2656Y9136D01*
G01X2646Y9120D01*
G01X2638Y9103D01*
G01X2632Y9083D01*
G01X2628Y9061D01*
G01X2625Y9036D01*
G01X2625Y8736D01*
G01X2690Y8736D01*
G01X2690Y9001D01*
G01X2691Y9031D01*
G01X2694Y9056D01*
G01X2701Y9076D01*
G01X2710Y9093D01*
G01X2722Y9106D01*
G01X2737Y9115D01*
G01X2755Y9120D01*
G01X2776Y9121D01*
G01X2792Y9120D01*
G01X2807Y9117D01*
G01X2822Y9111D01*
G01X2837Y9104D01*
G01X2852Y9094D01*
G01X2867Y9082D01*
G01X2882Y9068D01*
G01X2898Y9051D01*
G01X2898Y8736D01*
G01X2963Y8736D01*
G01X2963Y9167D01*
G01X2911Y9167D01*
G01X2905Y9105D01*
G01X2901Y9105D01*
G01X2886Y9119D01*
G01X2870Y9133D01*
G01X2853Y9146D01*
G01X2836Y9157D01*
G01X2817Y9166D01*
G01X2798Y9173D01*
G01X2778Y9177D01*
G37*

%LPD*%
G36*
G01X3178Y9167D02*
G01X3113Y9167D01*
G01X3113Y8736D01*
G01X3178Y8736D01*
G01X3178Y9167D01*
G37*

%LPD*%
G36*
G01X3417Y9321D02*
G01X3336Y9321D01*
G01X3336Y8736D01*
G01X3398Y8736D01*
G01X3398Y9073D01*
G01X3397Y9093D01*
G01X3397Y9114D01*
G01X3395Y9158D01*
G01X3393Y9180D01*
G01X3392Y9203D01*
G01X3391Y9224D01*
G01X3390Y9244D01*
G01X3392Y9244D01*
G01X3440Y9111D01*
G01X3553Y8796D01*
G01X3600Y8796D01*
G01X3715Y9111D01*
G01X3761Y9244D01*
G01X3765Y9244D01*
G01X3763Y9224D01*
G01X3761Y9203D01*
G01X3760Y9180D01*
G01X3757Y9114D01*
G01X3757Y8736D01*
G01X3817Y8736D01*
G01X3817Y9321D01*
G01X3734Y9321D01*
G01X3619Y9001D01*
G01X3609Y8970D01*
G01X3598Y8939D01*
G01X3588Y8907D01*
G01X3576Y8876D01*
G01X3573Y8876D01*
G01X3562Y8907D01*
G01X3552Y8939D01*
G01X3532Y9001D01*
G01X3417Y9321D01*
G37*

%LPD*%
G36*
G01X4413Y9178D02*
G01X4401Y9178D01*
G01X4390Y9177D01*
G01X4379Y9174D01*
G01X4369Y9169D01*
G01X4380Y9113D01*
G01X4391Y9116D01*
G01X4400Y9118D01*
G01X4410Y9119D01*
G01X4421Y9119D01*
G01X4436Y9118D01*
G01X4450Y9114D01*
G01X4465Y9107D01*
G01X4480Y9097D01*
G01X4494Y9083D01*
G01X4508Y9065D01*
G01X4521Y9044D01*
G01X4532Y9017D01*
G01X4532Y8736D01*
G01X4598Y8736D01*
G01X4598Y9167D01*
G01X4544Y9167D01*
G01X4538Y9088D01*
G01X4536Y9088D01*
G01X4525Y9108D01*
G01X4511Y9125D01*
G01X4497Y9141D01*
G01X4482Y9154D01*
G01X4466Y9164D01*
G01X4449Y9172D01*
G01X4432Y9177D01*
G01X4413Y9178D01*
G37*

%LPD*%
G36*
G01X5092Y9321D02*
G01X4906Y9321D01*
G01X4883Y9319D01*
G01X4861Y9317D01*
G01X4841Y9313D01*
G01X4821Y9307D01*
G01X4803Y9301D01*
G01X4787Y9293D01*
G01X4772Y9284D01*
G01X4759Y9273D01*
G01X4747Y9261D01*
G01X4736Y9247D01*
G01X4728Y9231D01*
G01X4721Y9214D01*
G01X4717Y9195D01*
G01X4713Y9174D01*
G01X4713Y9129D01*
G01X4717Y9109D01*
G01X4721Y9090D01*
G01X4728Y9072D01*
G01X4736Y9056D01*
G01X4746Y9041D01*
G01X4758Y9028D01*
G01X4772Y9016D01*
G01X4786Y9006D01*
G01X4803Y8997D01*
G01X4821Y8990D01*
G01X4840Y8983D01*
G01X4860Y8978D01*
G01X4881Y8975D01*
G01X4904Y8973D01*
G01X5026Y8973D01*
G01X5026Y8736D01*
G01X5092Y8736D01*
G01X5092Y9321D01*
G37*

%LPC*%
G36*
G01X5026Y9267D02*
G01X4915Y9267D01*
G01X4891Y9265D01*
G01X4870Y9262D01*
G01X4851Y9257D01*
G01X4834Y9251D01*
G01X4819Y9242D01*
G01X4807Y9232D01*
G01X4796Y9221D01*
G01X4789Y9207D01*
G01X4783Y9191D01*
G01X4780Y9172D01*
G01X4778Y9151D01*
G01X4780Y9131D01*
G01X4783Y9112D01*
G01X4788Y9095D01*
G01X4796Y9080D01*
G01X4805Y9067D01*
G01X4817Y9056D01*
G01X4832Y9047D01*
G01X4848Y9040D01*
G01X4867Y9034D01*
G01X4888Y9030D01*
G01X4911Y9027D01*
G01X4936Y9026D01*
G01X5026Y9026D01*
G01X5026Y9267D01*
G37*

%LPD*%
G36*
G01X4158Y9178D02*
G01X4119Y9178D01*
G01X4100Y9175D01*
G01X4081Y9170D01*
G01X4063Y9163D01*
G01X4045Y9155D01*
G01X4029Y9145D01*
G01X4013Y9133D01*
G01X3999Y9119D01*
G01X3986Y9103D01*
G01X3975Y9086D01*
G01X3964Y9068D01*
G01X3956Y9047D01*
G01X3949Y9025D01*
G01X3944Y9002D01*
G01X3940Y8977D01*
G01X3940Y8925D01*
G01X3944Y8900D01*
G01X3949Y8877D01*
G01X3956Y8855D01*
G01X3964Y8836D01*
G01X3975Y8817D01*
G01X3986Y8800D01*
G01X3999Y8785D01*
G01X4013Y8771D01*
G01X4029Y8759D01*
G01X4045Y8749D01*
G01X4063Y8741D01*
G01X4081Y8734D01*
G01X4100Y8729D01*
G01X4119Y8726D01*
G01X4158Y8726D01*
G01X4178Y8729D01*
G01X4196Y8734D01*
G01X4214Y8741D01*
G01X4231Y8749D01*
G01X4248Y8759D01*
G01X4263Y8771D01*
G01X4277Y8785D01*
G01X4290Y8800D01*
G01X4302Y8817D01*
G01X4312Y8836D01*
G01X4321Y8855D01*
G01X4327Y8877D01*
G01X4332Y8900D01*
G01X4336Y8925D01*
G01X4336Y8977D01*
G01X4332Y9002D01*
G01X4327Y9025D01*
G01X4321Y9047D01*
G01X4312Y9068D01*
G01X4302Y9086D01*
G01X4290Y9103D01*
G01X4277Y9119D01*
G01X4263Y9133D01*
G01X4248Y9145D01*
G01X4231Y9155D01*
G01X4214Y9163D01*
G01X4196Y9170D01*
G01X4178Y9175D01*
G01X4158Y9178D01*
G37*

%LPC*%
G36*
G01X4157Y9122D02*
G01X4138Y9123D01*
G01X4119Y9122D01*
G01X4102Y9118D01*
G01X4085Y9111D01*
G01X4070Y9101D01*
G01X4056Y9090D01*
G01X4043Y9076D01*
G01X4032Y9059D01*
G01X4023Y9041D01*
G01X4016Y9021D01*
G01X4011Y8999D01*
G01X4008Y8976D01*
G01X4007Y8951D01*
G01X4008Y8926D01*
G01X4011Y8903D01*
G01X4016Y8881D01*
G01X4023Y8861D01*
G01X4032Y8843D01*
G01X4043Y8827D01*
G01X4056Y8813D01*
G01X4070Y8801D01*
G01X4085Y8792D01*
G01X4102Y8785D01*
G01X4119Y8781D01*
G01X4138Y8780D01*
G01X4157Y8781D01*
G01X4175Y8785D01*
G01X4192Y8792D01*
G01X4207Y8801D01*
G01X4221Y8813D01*
G01X4233Y8827D01*
G01X4244Y8843D01*
G01X4253Y8861D01*
G01X4260Y8881D01*
G01X4265Y8903D01*
G01X4269Y8926D01*
G01X4269Y8976D01*
G01X4265Y8999D01*
G01X4260Y9021D01*
G01X4253Y9041D01*
G01X4244Y9059D01*
G01X4233Y9076D01*
G01X4221Y9090D01*
G01X4207Y9101D01*
G01X4192Y9111D01*
G01X4175Y9118D01*
G01X4157Y9122D01*
G37*

%LPD*%

%LPD*%
G36*
G01X2553Y8646D02*
G01X2521Y8650D01*
G01X2498Y8648D01*
G01X2478Y8642D01*
G01X2460Y8633D01*
G01X2445Y8621D01*
G01X2432Y8605D01*
G01X2424Y8587D01*
G01X2418Y8567D01*
G01X2417Y8544D01*
G01X2418Y8525D01*
G01X2421Y8506D01*
G01X2427Y8487D01*
G01X2435Y8468D01*
G01X2445Y8449D01*
G01X2457Y8430D01*
G01X2470Y8411D01*
G01X2486Y8391D01*
G01X2503Y8371D01*
G01X2522Y8351D01*
G01X2542Y8330D01*
G01X2563Y8309D01*
G01X2549Y8311D01*
G01X2534Y8312D01*
G01X2518Y8312D01*
G01X2503Y8313D01*
G01X2400Y8313D01*
G01X2400Y8278D01*
G01X2626Y8278D01*
G01X2626Y8301D01*
G01X2598Y8326D01*
G01X2572Y8350D01*
G01X2550Y8373D01*
G01X2530Y8395D01*
G01X2512Y8416D01*
G01X2497Y8436D01*
G01X2484Y8455D01*
G01X2474Y8474D01*
G01X2467Y8492D01*
G01X2461Y8509D01*
G01X2458Y8526D01*
G01X2457Y8542D01*
G01X2461Y8571D01*
G01X2473Y8595D01*
G01X2495Y8611D01*
G01X2526Y8617D01*
G01X2548Y8613D01*
G01X2568Y8604D01*
G01X2587Y8590D01*
G01X2603Y8573D01*
G01X2628Y8596D01*
G01X2606Y8618D01*
G01X2581Y8635D01*
G01X2553Y8646D01*
G37*

%LPD*%
G36*
G01X2690Y8644D02*
G01X2648Y8644D01*
G01X2765Y8278D01*
G01X2813Y8278D01*
G01X2930Y8644D01*
G01X2886Y8644D01*
G01X2826Y8442D01*
G01X2816Y8410D01*
G01X2808Y8381D01*
G01X2790Y8321D01*
G01X2788Y8321D01*
G01X2778Y8351D01*
G01X2769Y8381D01*
G01X2761Y8410D01*
G01X2751Y8442D01*
G01X2690Y8644D01*
G37*

%LPD*%
G01X4920Y7642D02*
G01X4760Y7642D01*
G01X4848Y7526D01*
G01X4804Y7526D01*
G01X4775Y7511D01*
G01X4760Y7497D01*
G01X4746Y7453D01*
G01X4746Y7424D01*
G01X4760Y7381D01*
G01X4790Y7351D01*
G01X4833Y7337D01*
G01X4877Y7337D01*
G01X4920Y7351D01*
G01X4935Y7366D01*
G01X4950Y7395D01*
G01X4635Y7410D02*
G01X4650Y7395D01*
G01X4635Y7381D01*
G01X4621Y7395D01*
G01X4635Y7410D01*
G01X4496Y7642D02*
G01X4336Y7642D01*
G01X4423Y7526D01*
G01X4379Y7526D01*
G01X4350Y7511D01*
G01X4336Y7497D01*
G01X4321Y7453D01*
G01X4321Y7424D01*
G01X4336Y7381D01*
G01X4365Y7351D01*
G01X4408Y7337D01*
G01X4452Y7337D01*
G01X4496Y7351D01*
G01X4510Y7366D01*
G01X4525Y7395D01*
G01X1820Y11072D02*
G01X1660Y11072D01*
G01X1748Y10956D01*
G01X1704Y10956D01*
G01X1675Y10942D01*
G01X1660Y10927D01*
G01X1646Y10883D01*
G01X1646Y10854D01*
G01X1660Y10811D01*
G01X1690Y10782D01*
G01X1733Y10767D01*
G01X1777Y10767D01*
G01X1820Y10782D01*
G01X1835Y10796D01*
G01X1850Y10825D01*
G01X1535Y10840D02*
G01X1550Y10825D01*
G01X1535Y10811D01*
G01X1521Y10825D01*
G01X1535Y10840D01*
G01X1396Y11072D02*
G01X1236Y11072D01*
G01X1323Y10956D01*
G01X1279Y10956D01*
G01X1250Y10942D01*
G01X1236Y10927D01*
G01X1221Y10883D01*
G01X1221Y10854D01*
G01X1236Y10811D01*
G01X1265Y10782D01*
G01X1308Y10767D01*
G01X1352Y10767D01*
G01X1396Y10782D01*
G01X1410Y10796D01*
G01X1425Y10825D01*
G01X4938Y6900D02*
G01X4938Y6661D01*
G01X4938Y6900D02*
G01X4836Y6900D01*
G01X4802Y6888D01*
G01X4790Y6877D01*
G01X4779Y6854D01*
G01X4779Y6831D01*
G01X4790Y6809D01*
G01X4802Y6797D01*
G01X4836Y6786D01*
G01X4938Y6786D02*
G01X4836Y6786D01*
G01X4802Y6775D01*
G01X4790Y6763D01*
G01X4779Y6740D01*
G01X4779Y6706D01*
G01X4790Y6684D01*
G01X4802Y6672D01*
G01X4836Y6661D01*
G01X4938Y6661D01*
G01X4625Y6900D02*
G01X4625Y6661D01*
G01X4704Y6900D02*
G01X4545Y6900D01*
G01X4402Y6900D02*
G01X4436Y6888D01*
G01X4459Y6854D01*
G01X4470Y6797D01*
G01X4470Y6763D01*
G01X4459Y6706D01*
G01X4436Y6672D01*
G01X4402Y6661D01*
G01X4379Y6661D01*
G01X4345Y6672D01*
G01X4322Y6706D01*
G01X4311Y6763D01*
G01X4311Y6797D01*
G01X4322Y6854D01*
G01X4345Y6888D01*
G01X4379Y6900D01*
G01X4402Y6900D01*
G01X4236Y6581D02*
G01X4031Y6581D01*
G01X3956Y6854D02*
G01X3934Y6865D01*
G01X3900Y6900D01*
G01X3900Y6661D01*
G01X3550Y5386D02*
G01X3550Y5147D01*
G01X3550Y5386D02*
G01X3447Y5386D01*
G01X3413Y5375D01*
G01X3402Y5363D01*
G01X3390Y5340D01*
G01X3390Y5318D01*
G01X3402Y5295D01*
G01X3413Y5284D01*
G01X3447Y5272D01*
G01X3550Y5272D02*
G01X3447Y5272D01*
G01X3413Y5261D01*
G01X3402Y5250D01*
G01X3390Y5227D01*
G01X3390Y5193D01*
G01X3402Y5170D01*
G01X3413Y5159D01*
G01X3447Y5147D01*
G01X3550Y5147D01*
G01X3236Y5386D02*
G01X3236Y5147D01*
G01X3315Y5386D02*
G01X3156Y5386D01*
G01X3081Y5340D02*
G01X3059Y5352D01*
G01X3025Y5386D01*
G01X3025Y5147D01*
G01X2950Y5068D02*
G01X2745Y5068D01*
G01X2602Y5386D02*
G01X2636Y5375D01*
G01X2659Y5340D01*
G01X2670Y5284D01*
G01X2670Y5250D01*
G01X2659Y5193D01*
G01X2636Y5159D01*
G01X2602Y5147D01*
G01X2579Y5147D01*
G01X2545Y5159D01*
G01X2522Y5193D01*
G01X2511Y5250D01*
G01X2511Y5284D01*
G01X2522Y5340D01*
G01X2545Y5375D01*
G01X2579Y5386D01*
G01X2602Y5386D01*
G01X4836Y5400D02*
G01X4836Y5161D01*
G01X4836Y5400D02*
G01X4734Y5400D01*
G01X4700Y5388D01*
G01X4688Y5377D01*
G01X4677Y5354D01*
G01X4677Y5331D01*
G01X4688Y5309D01*
G01X4700Y5297D01*
G01X4734Y5286D01*
G01X4836Y5286D02*
G01X4734Y5286D01*
G01X4700Y5275D01*
G01X4688Y5263D01*
G01X4677Y5240D01*
G01X4677Y5206D01*
G01X4688Y5184D01*
G01X4700Y5172D01*
G01X4734Y5161D01*
G01X4836Y5161D01*
G01X4522Y5400D02*
G01X4522Y5161D01*
G01X4602Y5400D02*
G01X4443Y5400D01*
G01X4368Y5354D02*
G01X4345Y5365D01*
G01X4311Y5400D01*
G01X4311Y5161D01*
G01X4236Y5081D02*
G01X4031Y5081D01*
G01X3956Y5354D02*
G01X3934Y5365D01*
G01X3900Y5400D01*
G01X3900Y5161D01*
G01X3550Y6886D02*
G01X3550Y6647D01*
G01X3550Y6886D02*
G01X3447Y6886D01*
G01X3413Y6875D01*
G01X3402Y6863D01*
G01X3390Y6840D01*
G01X3390Y6818D01*
G01X3402Y6795D01*
G01X3413Y6784D01*
G01X3447Y6772D01*
G01X3550Y6772D02*
G01X3447Y6772D01*
G01X3413Y6761D01*
G01X3402Y6750D01*
G01X3390Y6727D01*
G01X3390Y6693D01*
G01X3402Y6670D01*
G01X3413Y6659D01*
G01X3447Y6647D01*
G01X3550Y6647D01*
G01X3236Y6886D02*
G01X3236Y6647D01*
G01X3315Y6886D02*
G01X3156Y6886D01*
G01X3013Y6886D02*
G01X3047Y6875D01*
G01X3070Y6840D01*
G01X3081Y6784D01*
G01X3081Y6750D01*
G01X3070Y6693D01*
G01X3047Y6659D01*
G01X3013Y6647D01*
G01X2990Y6647D01*
G01X2956Y6659D01*
G01X2934Y6693D01*
G01X2922Y6750D01*
G01X2922Y6784D01*
G01X2934Y6840D01*
G01X2956Y6875D01*
G01X2990Y6886D01*
G01X3013Y6886D01*
G01X2847Y6568D02*
G01X2643Y6568D01*
G01X2500Y6886D02*
G01X2534Y6875D01*
G01X2556Y6840D01*
G01X2568Y6784D01*
G01X2568Y6750D01*
G01X2556Y6693D01*
G01X2534Y6659D01*
G01X2500Y6647D01*
G01X2477Y6647D01*
G01X2443Y6659D01*
G01X2420Y6693D01*
G01X2409Y6750D01*
G01X2409Y6784D01*
G01X2420Y6840D01*
G01X2443Y6875D01*
G01X2477Y6886D01*
G01X2500Y6886D01*
G54D38*
G75*
G01X6930Y7500D02*
G03X6930Y7500I-430J0D01*
G01*
G75*
G01X930Y11500D02*
G03X930Y11500I-430J0D01*
G01*
M00*
M02*
