G04 Layer: TopPasteMaskLayer*
G04 EasyEDA v6.3.22, 2020-01-01T23:03:08+09:00*
G04 2a2561d260e348c1961537ac3ee8d2e6,67344a67363949849f01d11c0c7cf016,10*
G04 Gerber Generator version 0.2*
G04 Scale: 100 percent, Rotated: No, Reflected: No *
G04 Dimensions in inches *
G04 leading zeros omitted , absolute positions ,2 integer and 4 decimal *
%FSLAX24Y24*%
%MOIN*%
G90*
G70D02*

%ADD15R,0.025000X0.050000*%
%ADD16R,0.025590X0.023620*%
%ADD17R,0.023620X0.025590*%
%ADD18R,0.055118X0.045276*%
%ADD19R,0.051181X0.027559*%
%ADD20R,0.047244X0.055118*%
%ADD21R,0.057087X0.045670*%
%ADD22R,0.021654X0.039370*%
%ADD23R,0.023622X0.019685*%
%ADD24R,0.019685X0.023622*%

%LPD*%
G54D15*
G01X1100Y500D03*
G54D16*
G01X3619Y9686D03*
G01X3619Y9353D03*
G01X5209Y11346D03*
G01X5209Y11013D03*
G54D17*
G01X5369Y4040D03*
G01X5036Y4040D03*
G01X5369Y4469D03*
G01X5036Y4469D03*
G54D16*
G01X5150Y2500D03*
G01X5150Y2165D03*
G54D17*
G01X5367Y4900D03*
G01X5032Y4900D03*
G54D18*
G01X2403Y11215D03*
G36*
G01X1261Y10811D02*
G01X1669Y10811D01*
G01X1812Y10662D01*
G01X1812Y10358D01*
G01X1261Y10358D01*
G01X1261Y10811D01*
G37*
G01X1536Y11215D03*
G01X2403Y10584D03*
G54D19*
G01X1968Y3228D03*
G01X4331Y3228D03*
G01X1968Y1771D03*
G01X4331Y1771D03*
G54D17*
G01X2954Y14150D03*
G01X2620Y14150D03*
G54D20*
G01X4030Y13850D03*
G01X5369Y13850D03*
G54D17*
G01X1536Y5180D03*
G01X1869Y5180D03*
G54D21*
G01X2350Y14900D03*
G01X2350Y15700D03*
G01X4650Y17000D03*
G01X4650Y17800D03*
G01X2350Y17000D03*
G01X2350Y17800D03*
G01X4650Y14900D03*
G01X4650Y15700D03*
G54D22*
G01X4034Y10189D03*
G01X3286Y10189D03*
G01X3286Y11370D03*
G01X3659Y11370D03*
G01X4034Y11370D03*
G54D17*
G01X5290Y9259D03*
G01X4955Y9259D03*
G01X2313Y9950D03*
G01X2646Y9950D03*
G01X1696Y9950D03*
G01X1363Y9950D03*
G54D23*
G01X1373Y9230D03*
G01X1806Y9230D03*
G54D24*
G01X4659Y10366D03*
G01X4659Y9933D03*
G54D17*
G01X2582Y9469D03*
G01X2917Y9469D03*
G54D16*
G01X5650Y11013D03*
G01X5650Y11346D03*
G01X1969Y4340D03*
G01X1969Y4005D03*
G54D17*
G01X2809Y3880D03*
G01X2476Y3880D03*
G01X2809Y4340D03*
G01X2476Y4340D03*
G01X3480Y4050D03*
G01X3813Y4050D03*
G36*
G01X3067Y8809D02*
G01X3151Y8893D01*
G01X3304Y8740D01*
G01X3220Y8656D01*
G01X3067Y8809D01*
G37*
G36*
G01X2928Y8670D02*
G01X3012Y8754D01*
G01X3165Y8601D01*
G01X3081Y8517D01*
G01X2928Y8670D01*
G37*
G36*
G01X2789Y8531D02*
G01X2872Y8615D01*
G01X3025Y8461D01*
G01X2942Y8378D01*
G01X2789Y8531D01*
G37*
G36*
G01X2650Y8392D02*
G01X2733Y8475D01*
G01X2886Y8322D01*
G01X2803Y8239D01*
G01X2650Y8392D01*
G37*
G36*
G01X2510Y8253D02*
G01X2594Y8336D01*
G01X2747Y8183D01*
G01X2664Y8100D01*
G01X2510Y8253D01*
G37*
G36*
G01X2371Y8113D02*
G01X2455Y8197D01*
G01X2608Y8044D01*
G01X2524Y7960D01*
G01X2371Y8113D01*
G37*
G36*
G01X2232Y7974D02*
G01X2316Y8058D01*
G01X2469Y7905D01*
G01X2385Y7821D01*
G01X2232Y7974D01*
G37*
G36*
G01X2093Y7835D02*
G01X2176Y7919D01*
G01X2329Y7765D01*
G01X2246Y7682D01*
G01X2093Y7835D01*
G37*
G36*
G01X1954Y7696D02*
G01X2037Y7779D01*
G01X2190Y7626D01*
G01X2107Y7543D01*
G01X1954Y7696D01*
G37*
G36*
G01X1814Y7557D02*
G01X1898Y7640D01*
G01X2051Y7487D01*
G01X1968Y7404D01*
G01X1814Y7557D01*
G37*
G36*
G01X1675Y7417D02*
G01X1759Y7501D01*
G01X1912Y7348D01*
G01X1828Y7264D01*
G01X1675Y7417D01*
G37*
G36*
G01X1536Y7278D02*
G01X1620Y7362D01*
G01X1773Y7209D01*
G01X1689Y7125D01*
G01X1536Y7278D01*
G37*
G36*
G01X1689Y7014D02*
G01X1773Y6930D01*
G01X1620Y6777D01*
G01X1536Y6861D01*
G01X1689Y7014D01*
G37*
G36*
G01X1828Y6875D02*
G01X1912Y6791D01*
G01X1759Y6638D01*
G01X1675Y6722D01*
G01X1828Y6875D01*
G37*
G36*
G01X1968Y6735D02*
G01X2051Y6652D01*
G01X1898Y6499D01*
G01X1814Y6582D01*
G01X1968Y6735D01*
G37*
G36*
G01X2107Y6596D02*
G01X2190Y6513D01*
G01X2037Y6360D01*
G01X1954Y6443D01*
G01X2107Y6596D01*
G37*
G36*
G01X2246Y6457D02*
G01X2329Y6374D01*
G01X2176Y6220D01*
G01X2093Y6304D01*
G01X2246Y6457D01*
G37*
G36*
G01X2385Y6318D02*
G01X2469Y6234D01*
G01X2316Y6081D01*
G01X2232Y6165D01*
G01X2385Y6318D01*
G37*
G36*
G01X2524Y6179D02*
G01X2608Y6095D01*
G01X2455Y5942D01*
G01X2371Y6026D01*
G01X2524Y6179D01*
G37*
G36*
G01X2664Y6039D02*
G01X2747Y5956D01*
G01X2594Y5803D01*
G01X2510Y5886D01*
G01X2664Y6039D01*
G37*
G36*
G01X2803Y5900D02*
G01X2886Y5817D01*
G01X2733Y5664D01*
G01X2650Y5747D01*
G01X2803Y5900D01*
G37*
G36*
G01X2942Y5761D02*
G01X3025Y5678D01*
G01X2872Y5524D01*
G01X2789Y5608D01*
G01X2942Y5761D01*
G37*
G36*
G01X3081Y5622D02*
G01X3165Y5538D01*
G01X3012Y5385D01*
G01X2928Y5469D01*
G01X3081Y5622D01*
G37*
G36*
G01X3220Y5483D02*
G01X3304Y5399D01*
G01X3151Y5246D01*
G01X3067Y5330D01*
G01X3220Y5483D01*
G37*
G36*
G01X3415Y5399D02*
G01X3499Y5483D01*
G01X3652Y5330D01*
G01X3568Y5246D01*
G01X3415Y5399D01*
G37*
G36*
G01X3554Y5538D02*
G01X3638Y5622D01*
G01X3791Y5469D01*
G01X3707Y5385D01*
G01X3554Y5538D01*
G37*
G36*
G01X3694Y5678D02*
G01X3777Y5761D01*
G01X3930Y5608D01*
G01X3847Y5524D01*
G01X3694Y5678D01*
G37*
G36*
G01X3833Y5817D02*
G01X3916Y5900D01*
G01X4069Y5747D01*
G01X3986Y5664D01*
G01X3833Y5817D01*
G37*
G36*
G01X3972Y5956D02*
G01X4055Y6039D01*
G01X4209Y5886D01*
G01X4125Y5803D01*
G01X3972Y5956D01*
G37*
G36*
G01X4111Y6095D02*
G01X4195Y6179D01*
G01X4348Y6026D01*
G01X4264Y5942D01*
G01X4111Y6095D01*
G37*
G36*
G01X4250Y6234D02*
G01X4334Y6318D01*
G01X4487Y6165D01*
G01X4403Y6081D01*
G01X4250Y6234D01*
G37*
G36*
G01X4390Y6374D02*
G01X4473Y6457D01*
G01X4626Y6304D01*
G01X4543Y6220D01*
G01X4390Y6374D01*
G37*
G36*
G01X4529Y6513D02*
G01X4612Y6596D01*
G01X4765Y6443D01*
G01X4682Y6360D01*
G01X4529Y6513D01*
G37*
G36*
G01X4668Y6652D02*
G01X4751Y6735D01*
G01X4905Y6582D01*
G01X4821Y6499D01*
G01X4668Y6652D01*
G37*
G36*
G01X4807Y6791D02*
G01X4891Y6875D01*
G01X5044Y6722D01*
G01X4960Y6638D01*
G01X4807Y6791D01*
G37*
G36*
G01X4946Y6930D02*
G01X5030Y7014D01*
G01X5183Y6861D01*
G01X5099Y6777D01*
G01X4946Y6930D01*
G37*
G36*
G01X5099Y7362D02*
G01X5183Y7278D01*
G01X5030Y7125D01*
G01X4946Y7209D01*
G01X5099Y7362D01*
G37*
G36*
G01X4960Y7501D02*
G01X5044Y7417D01*
G01X4891Y7264D01*
G01X4807Y7348D01*
G01X4960Y7501D01*
G37*
G36*
G01X4821Y7640D02*
G01X4905Y7557D01*
G01X4751Y7404D01*
G01X4668Y7487D01*
G01X4821Y7640D01*
G37*
G36*
G01X4682Y7779D02*
G01X4765Y7696D01*
G01X4612Y7543D01*
G01X4529Y7626D01*
G01X4682Y7779D01*
G37*
G36*
G01X4543Y7919D02*
G01X4626Y7835D01*
G01X4473Y7682D01*
G01X4390Y7765D01*
G01X4543Y7919D01*
G37*
G36*
G01X4403Y8058D02*
G01X4487Y7974D01*
G01X4334Y7821D01*
G01X4250Y7905D01*
G01X4403Y8058D01*
G37*
G36*
G01X4264Y8197D02*
G01X4348Y8113D01*
G01X4195Y7960D01*
G01X4111Y8044D01*
G01X4264Y8197D01*
G37*
G36*
G01X4125Y8336D02*
G01X4209Y8253D01*
G01X4055Y8100D01*
G01X3972Y8183D01*
G01X4125Y8336D01*
G37*
G36*
G01X3986Y8475D02*
G01X4069Y8392D01*
G01X3916Y8239D01*
G01X3833Y8322D01*
G01X3986Y8475D01*
G37*
G36*
G01X3847Y8615D02*
G01X3930Y8531D01*
G01X3777Y8378D01*
G01X3694Y8461D01*
G01X3847Y8615D01*
G37*
G36*
G01X3707Y8754D02*
G01X3791Y8670D01*
G01X3638Y8517D01*
G01X3554Y8601D01*
G01X3707Y8754D01*
G37*
G36*
G01X3568Y8893D02*
G01X3652Y8809D01*
G01X3499Y8656D01*
G01X3415Y8740D01*
G01X3568Y8893D01*
G37*
G36*
G01X3359Y8628D02*
G01X4918Y7069D01*
G01X3359Y5511D01*
G01X1801Y7069D01*
G01X3359Y8628D01*
G37*
M00*
M02*
