G04 Layer: BottomPasteMaskLayer*
G04 EasyEDA v6.3.22, 2019-12-31T17:55:44+09:00*
G04 0184c6d2394b44c9a03417ace044f3ee,67344a67363949849f01d11c0c7cf016,10*
G04 Gerber Generator version 0.2*
G04 Scale: 100 percent, Rotated: No, Reflected: No *
G04 Dimensions in inches *
G04 leading zeros omitted , absolute positions ,2 integer and 4 decimal *
%FSLAX24Y24*%
%MOIN*%
G90*
G70D02*

%ADD31R,0.047244X0.393701*%
%ADD32R,0.047244X0.320000*%

%LPD*%
G54D31*
G01X2104Y16400D03*
G54D32*
G01X3100Y16200D03*
G01X3900Y16200D03*
G54D31*
G01X4907Y16400D03*
G36*
G01X4182Y6172D02*
G01X4419Y6172D01*
G01X4419Y6427D01*
G01X4182Y6427D01*
G01X4182Y6172D01*
G37*
G36*
G01X3848Y6172D02*
G01X4085Y6172D01*
G01X4085Y6427D01*
G01X3848Y6427D01*
G01X3848Y6172D01*
G37*
G36*
G01X3298Y5572D02*
G01X3535Y5572D01*
G01X3535Y5827D01*
G01X3298Y5827D01*
G01X3298Y5572D01*
G37*
G36*
G01X2964Y5572D02*
G01X3201Y5572D01*
G01X3201Y5827D01*
G01X2964Y5827D01*
G01X2964Y5572D01*
G37*
G36*
G01X4182Y5572D02*
G01X4419Y5572D01*
G01X4419Y5827D01*
G01X4182Y5827D01*
G01X4182Y5572D01*
G37*
G36*
G01X3848Y5572D02*
G01X4085Y5572D01*
G01X4085Y5827D01*
G01X3848Y5827D01*
G01X3848Y5572D01*
G37*
G36*
G01X3298Y6172D02*
G01X3535Y6172D01*
G01X3535Y6427D01*
G01X3298Y6427D01*
G01X3298Y6172D01*
G37*
G36*
G01X2964Y6172D02*
G01X3201Y6172D01*
G01X3201Y6427D01*
G01X2964Y6427D01*
G01X2964Y6172D01*
G37*
M00*
M02*
