;Layer: Drill NPTH
;EasyEDA v6.3.22, 2020-01-01T23:03:08+09:00
;2a2561d260e348c1961537ac3ee8d2e6,67344a67363949849f01d11c0c7cf016,10
;Gerber Generator version 0.2
M48
INCH,LZ,00.0000
;Holesize 1 = 0.012 INCH
T01C0.012
;Holesize 2 = 0.045 INCH
T02C0.045
%
G05
G90
T01
X+003509Y+013109
X+003980Y+013109
X+003080Y+013109
X+003930Y+013109
X+005319Y+013109
X+005159Y+013109
X+005000Y+013109
X+004840Y+013109
X+004680Y+013109
X+004519Y+013109
X+004359Y+013109
X+004200Y+013109
X+004040Y+013109
X+003109Y+013109
X+003009Y+013109
X+002369Y+013109
X+002530Y+013109
X+002690Y+013109
X+002850Y+013109
X+002209Y+013109
X+002050Y+013109
X+003450Y+013109
X+003550Y+013109
X+001730Y+013109
X+001890Y+013109
T02
X+003869Y+018269
X+001630Y+000500
M30
