G04 Layer: BoardOutline*
G04 EasyEDA v6.3.22, 2020-01-01T23:03:08+09:00*
G04 2a2561d260e348c1961537ac3ee8d2e6,67344a67363949849f01d11c0c7cf016,10*
G04 Gerber Generator version 0.2*
G04 Scale: 100 percent, Rotated: No, Reflected: No *
G04 Dimensions in inches *
G04 leading zeros omitted , absolute positions ,2 integer and 4 decimal *
%FSLAX24Y24*%
%MOIN*%
G90*
G70D02*

%ADD10C,0.002000*%
G54D10*
G01X1350Y13400D02*
G01X1450Y13300D01*
G01X1650Y13100D01*
G01X350Y13100D01*
G01X100Y12850D01*
G01X5650Y13350D02*
G01X5600Y13300D01*
G01X5400Y13100D01*
G01X6650Y13100D01*
G01X6950Y12800D01*
G01X1150Y14300D02*
G01X1150Y13600D01*
G01X1350Y13400D01*
G01X5855Y14300D02*
G01X5855Y13555D01*
G01X5650Y13350D01*
G01X5500Y13200D01*
G01X1154Y18369D02*
G01X1538Y18762D01*
G01X1538Y18761D02*
G01X5457Y18761D01*
G01X5855Y18365D01*
G01X5855Y14300D01*
G01X0Y12750D02*
G01X250Y13000D01*
G01X1150Y14300D02*
G01X1150Y18369D01*
G01X6750Y13000D02*
G01X7000Y12750D01*
G01X7000Y12750D01*
G01X7000Y12750D01*
G01X7940Y12750D01*
G01X7940Y12590D01*
G01X7940Y12590D02*
G01X7000Y12590D01*
G01X7000Y250D01*
G01X6750Y0D01*
G01X250Y0D01*
G01X0Y250D01*
G01X0Y12750D01*

%LPD*%
M00*
M02*
