G04 Layer: TopPasteMaskLayer*
G04 EasyEDA v6.3.22, 2020-03-24T16:00:13+09:00*
G04 d7f5250073f14fcc9ce3ff4b1d3fcb3e,67344a67363949849f01d11c0c7cf016,10*
G04 Gerber Generator version 0.2*
G04 Scale: 100 percent, Rotated: No, Reflected: No *
G04 Dimensions in inches *
G04 leading zeros omitted , absolute positions ,2 integer and 4 decimal *
%FSLAX24Y24*%
%MOIN*%
G90*
G70D02*

%ADD15C,0.011024*%
%ADD17R,0.025590X0.023620*%
%ADD18R,0.023620X0.025590*%
%ADD19R,0.055118X0.045276*%
%ADD20R,0.047244X0.055118*%
%ADD21R,0.057087X0.045670*%
%ADD22R,0.021654X0.039370*%
%ADD23R,0.023622X0.019685*%
%ADD24R,0.019685X0.023622*%
%ADD25R,0.051181X0.027559*%

%LPD*%
G54D15*
G01X3079Y8882D02*
G01X3251Y8709D01*
G01X2939Y8743D02*
G01X3112Y8570D01*
G01X2800Y8603D02*
G01X2973Y8431D01*
G01X2661Y8464D02*
G01X2833Y8291D01*
G01X2521Y8325D02*
G01X2694Y8152D01*
G01X2382Y8185D02*
G01X2555Y8013D01*
G01X2244Y8047D02*
G01X2416Y7874D01*
G01X2104Y7907D02*
G01X2277Y7735D01*
G01X1965Y7768D02*
G01X2138Y7596D01*
G01X1826Y7629D02*
G01X1998Y7456D01*
G01X1686Y7490D02*
G01X1859Y7317D01*
G01X1547Y7350D02*
G01X1720Y7178D01*
G01X1720Y6961D02*
G01X1547Y6789D01*
G01X1859Y6822D02*
G01X1686Y6649D01*
G01X1998Y6683D02*
G01X1826Y6510D01*
G01X2138Y6543D02*
G01X1965Y6371D01*
G01X2277Y6404D02*
G01X2104Y6232D01*
G01X2416Y6265D02*
G01X2244Y6092D01*
G01X2555Y6126D02*
G01X2382Y5954D01*
G01X2694Y5987D02*
G01X2521Y5814D01*
G01X2833Y5848D02*
G01X2661Y5675D01*
G01X2973Y5708D02*
G01X2800Y5536D01*
G01X3112Y5569D02*
G01X2939Y5396D01*
G01X3251Y5430D02*
G01X3079Y5257D01*
G01X3468Y5430D02*
G01X3640Y5257D01*
G01X3607Y5569D02*
G01X3779Y5396D01*
G01X3746Y5708D02*
G01X3919Y5536D01*
G01X3885Y5848D02*
G01X4058Y5675D01*
G01X4025Y5987D02*
G01X4197Y5814D01*
G01X4164Y6126D02*
G01X4337Y5954D01*
G01X4303Y6265D02*
G01X4475Y6092D01*
G01X4442Y6404D02*
G01X4615Y6232D01*
G01X4581Y6543D02*
G01X4754Y6371D01*
G01X4721Y6683D02*
G01X4893Y6510D01*
G01X4860Y6822D02*
G01X5032Y6649D01*
G01X4999Y6961D02*
G01X5172Y6789D01*
G01X5172Y7350D02*
G01X4999Y7178D01*
G01X5032Y7490D02*
G01X4860Y7317D01*
G01X4893Y7629D02*
G01X4721Y7456D01*
G01X4754Y7768D02*
G01X4581Y7596D01*
G01X4615Y7907D02*
G01X4442Y7735D01*
G01X4475Y8047D02*
G01X4303Y7874D01*
G01X4337Y8185D02*
G01X4164Y8013D01*
G01X4197Y8325D02*
G01X4025Y8152D01*
G01X4058Y8464D02*
G01X3885Y8291D01*
G01X3919Y8603D02*
G01X3746Y8431D01*
G01X3779Y8743D02*
G01X3607Y8570D01*
G01X3640Y8882D02*
G01X3468Y8709D01*
G54D17*
G01X3619Y9686D03*
G01X3619Y9353D03*
G01X5209Y11346D03*
G01X5209Y11013D03*
G54D18*
G01X5369Y4040D03*
G01X5035Y4040D03*
G01X5369Y4469D03*
G01X5035Y4469D03*
G54D17*
G01X5149Y2500D03*
G01X5149Y2165D03*
G54D18*
G01X5366Y4900D03*
G01X5032Y4900D03*
G54D19*
G01X2403Y11215D03*
G36*
G01X1261Y10811D02*
G01X1669Y10811D01*
G01X1812Y10662D01*
G01X1812Y10358D01*
G01X1261Y10358D01*
G01X1261Y10811D01*
G37*
G01X1536Y11215D03*
G01X2403Y10584D03*
G54D18*
G01X2954Y14150D03*
G01X2620Y14150D03*
G54D20*
G01X4030Y13850D03*
G01X5369Y13850D03*
G54D18*
G01X1535Y5180D03*
G01X1869Y5180D03*
G54D21*
G01X2349Y15250D03*
G01X2349Y16050D03*
G01X4649Y17140D03*
G01X4649Y17940D03*
G01X2349Y17140D03*
G01X2349Y17940D03*
G01X4649Y15250D03*
G01X4649Y16050D03*
G54D22*
G01X4033Y10189D03*
G01X3285Y10189D03*
G01X3285Y11370D03*
G01X3659Y11370D03*
G01X4033Y11370D03*
G54D18*
G01X5289Y9259D03*
G01X4955Y9259D03*
G01X2312Y9950D03*
G01X2646Y9950D03*
G01X1696Y9950D03*
G01X1362Y9950D03*
G54D23*
G01X1373Y9230D03*
G01X1806Y9230D03*
G54D24*
G01X4659Y10366D03*
G01X4659Y9933D03*
G54D18*
G01X2562Y9490D03*
G01X2896Y9490D03*
G54D17*
G01X5649Y11013D03*
G01X5649Y11346D03*
G01X1969Y4340D03*
G01X1969Y4005D03*
G54D18*
G01X2809Y3880D03*
G01X2475Y3880D03*
G01X2809Y4340D03*
G01X2475Y4340D03*
G01X3479Y4050D03*
G01X3813Y4050D03*
G54D25*
G01X1968Y3218D03*
G01X4331Y3218D03*
G01X1968Y1761D03*
G01X4331Y1761D03*
G36*
G01X3359Y8601D02*
G01X4891Y7069D01*
G01X3359Y5538D01*
G01X1828Y7069D01*
G01X3359Y8601D01*
G37*
M00*
M02*
