G04 Layer: TopSolderMaskLayer*
G04 EasyEDA v6.3.22, 2020-03-24T16:00:13+09:00*
G04 d7f5250073f14fcc9ce3ff4b1d3fcb3e,67344a67363949849f01d11c0c7cf016,10*
G04 Gerber Generator version 0.2*
G04 Scale: 100 percent, Rotated: No, Reflected: No *
G04 Dimensions in inches *
G04 leading zeros omitted , absolute positions ,2 integer and 4 decimal *
%FSLAX24Y24*%
%MOIN*%
G90*
G70D02*

%ADD39C,0.019024*%
%ADD40C,0.078000*%
%ADD41C,0.059400*%
%ADD42R,0.033590X0.031620*%

%LPD*%
G54D39*
G01X3079Y8882D02*
G01X3251Y8709D01*
G01X2939Y8743D02*
G01X3112Y8570D01*
G01X2800Y8603D02*
G01X2973Y8431D01*
G01X2661Y8464D02*
G01X2833Y8291D01*
G01X2521Y8325D02*
G01X2694Y8152D01*
G01X2382Y8185D02*
G01X2555Y8013D01*
G01X2244Y8047D02*
G01X2416Y7874D01*
G01X2104Y7907D02*
G01X2277Y7735D01*
G01X1965Y7768D02*
G01X2138Y7596D01*
G01X1826Y7629D02*
G01X1998Y7456D01*
G01X1686Y7490D02*
G01X1859Y7317D01*
G01X1547Y7350D02*
G01X1720Y7178D01*
G01X1720Y6961D02*
G01X1547Y6789D01*
G01X1859Y6822D02*
G01X1686Y6649D01*
G01X1998Y6683D02*
G01X1826Y6510D01*
G01X2138Y6543D02*
G01X1965Y6371D01*
G01X2277Y6404D02*
G01X2104Y6232D01*
G01X2416Y6265D02*
G01X2244Y6092D01*
G01X2555Y6126D02*
G01X2382Y5954D01*
G01X2694Y5987D02*
G01X2521Y5814D01*
G01X2833Y5848D02*
G01X2661Y5675D01*
G01X2973Y5708D02*
G01X2800Y5536D01*
G01X3112Y5569D02*
G01X2939Y5396D01*
G01X3251Y5430D02*
G01X3079Y5257D01*
G01X3468Y5430D02*
G01X3640Y5257D01*
G01X3607Y5569D02*
G01X3779Y5396D01*
G01X3746Y5708D02*
G01X3919Y5536D01*
G01X3885Y5848D02*
G01X4058Y5675D01*
G01X4025Y5987D02*
G01X4197Y5814D01*
G01X4164Y6126D02*
G01X4337Y5954D01*
G01X4303Y6265D02*
G01X4475Y6092D01*
G01X4442Y6404D02*
G01X4615Y6232D01*
G01X4581Y6543D02*
G01X4754Y6371D01*
G01X4721Y6683D02*
G01X4893Y6510D01*
G01X4860Y6822D02*
G01X5032Y6649D01*
G01X4999Y6961D02*
G01X5172Y6789D01*
G01X5172Y7350D02*
G01X4999Y7178D01*
G01X5032Y7490D02*
G01X4860Y7317D01*
G01X4893Y7629D02*
G01X4721Y7456D01*
G01X4754Y7768D02*
G01X4581Y7596D01*
G01X4615Y7907D02*
G01X4442Y7735D01*
G01X4475Y8047D02*
G01X4303Y7874D01*
G01X4337Y8185D02*
G01X4164Y8013D01*
G01X4197Y8325D02*
G01X4025Y8152D01*
G01X4058Y8464D02*
G01X3885Y8291D01*
G01X3919Y8603D02*
G01X3746Y8431D01*
G01X3779Y8743D02*
G01X3607Y8570D01*
G01X3640Y8882D02*
G01X3468Y8709D01*
G54D40*
G01X999Y12500D03*
G01X499Y11500D03*
G01X499Y10500D03*
G01X499Y9500D03*
G01X499Y8500D03*
G01X499Y7500D03*
G01X499Y6500D03*
G01X499Y5500D03*
G01X499Y4500D03*
G01X499Y3500D03*
G01X499Y2500D03*
G01X499Y1500D03*
G01X499Y500D03*
G01X1999Y12500D03*
G01X2999Y12500D03*
G01X3999Y12500D03*
G01X4999Y12500D03*
G01X5999Y12500D03*
G01X6499Y11500D03*
G01X6499Y10500D03*
G01X6499Y9500D03*
G01X6499Y8500D03*
G01X6499Y7500D03*
G01X6499Y6500D03*
G01X6499Y5500D03*
G01X6499Y4500D03*
G01X6499Y3500D03*
G01X6499Y2500D03*
G01X6499Y1500D03*
G01X6499Y500D03*
G01X5499Y500D03*
G01X4499Y500D03*
G01X3499Y500D03*
G01X2499Y500D03*
G54D41*
G01X3869Y18269D03*
G01X1489Y500D03*
G36*
G01X3451Y9528D02*
G01X3451Y9844D01*
G01X3787Y9844D01*
G01X3787Y9528D01*
G01X3451Y9528D01*
G37*
G36*
G01X3451Y9194D02*
G01X3451Y9511D01*
G01X3787Y9511D01*
G01X3787Y9194D01*
G01X3451Y9194D01*
G37*
G54D42*
G01X5209Y11346D03*
G36*
G01X5041Y10855D02*
G01X5041Y11171D01*
G01X5377Y11171D01*
G01X5377Y10855D01*
G01X5041Y10855D01*
G37*
G36*
G01X5211Y3871D02*
G01X5211Y4207D01*
G01X5527Y4207D01*
G01X5527Y3871D01*
G01X5211Y3871D01*
G37*
G36*
G01X4877Y3871D02*
G01X4877Y4207D01*
G01X5193Y4207D01*
G01X5193Y3871D01*
G01X4877Y3871D01*
G37*
G36*
G01X5211Y4301D02*
G01X5211Y4638D01*
G01X5527Y4638D01*
G01X5527Y4301D01*
G01X5211Y4301D01*
G37*
G36*
G01X4877Y4301D02*
G01X4877Y4638D01*
G01X5193Y4638D01*
G01X5193Y4301D01*
G01X4877Y4301D01*
G37*
G36*
G01X4981Y2342D02*
G01X4981Y2657D01*
G01X5317Y2657D01*
G01X5317Y2342D01*
G01X4981Y2342D01*
G37*
G36*
G01X4981Y2007D02*
G01X4981Y2323D01*
G01X5317Y2323D01*
G01X5317Y2007D01*
G01X4981Y2007D01*
G37*
G36*
G01X5208Y4732D02*
G01X5208Y5067D01*
G01X5524Y5067D01*
G01X5524Y4732D01*
G01X5208Y4732D01*
G37*
G36*
G01X4874Y4732D02*
G01X4874Y5067D01*
G01X5190Y5067D01*
G01X5190Y4732D01*
G01X4874Y4732D01*
G37*
G36*
G01X2086Y10948D02*
G01X2086Y11480D01*
G01X2718Y11480D01*
G01X2718Y10948D01*
G01X2086Y10948D01*
G37*
G36*
G01X1220Y10319D02*
G01X1220Y10851D01*
G01X1686Y10851D01*
G01X1851Y10678D01*
G01X1851Y10319D01*
G01X1220Y10319D01*
G37*
G36*
G01X1220Y10948D02*
G01X1220Y11480D01*
G01X1851Y11480D01*
G01X1851Y10948D01*
G01X1220Y10948D01*
G37*
G36*
G01X2086Y10319D02*
G01X2086Y10851D01*
G01X2718Y10851D01*
G01X2718Y10319D01*
G01X2086Y10319D01*
G37*
G36*
G01X2796Y13982D02*
G01X2796Y14317D01*
G01X3112Y14317D01*
G01X3112Y13982D01*
G01X2796Y13982D01*
G37*
G36*
G01X2462Y13982D02*
G01X2462Y14317D01*
G01X2778Y14317D01*
G01X2778Y13982D01*
G01X2462Y13982D01*
G37*
G36*
G01X3753Y13534D02*
G01X3753Y14165D01*
G01X4306Y14165D01*
G01X4306Y13534D01*
G01X3753Y13534D01*
G37*
G36*
G01X5092Y13534D02*
G01X5092Y14165D01*
G01X5645Y14165D01*
G01X5645Y13534D01*
G01X5092Y13534D01*
G37*
G36*
G01X1377Y5011D02*
G01X1377Y5348D01*
G01X1693Y5348D01*
G01X1693Y5011D01*
G01X1377Y5011D01*
G37*
G36*
G01X1711Y5011D02*
G01X1711Y5348D01*
G01X2027Y5348D01*
G01X2027Y5011D01*
G01X1711Y5011D01*
G37*
G36*
G01X2024Y14982D02*
G01X2024Y15517D01*
G01X2674Y15517D01*
G01X2674Y14982D01*
G01X2024Y14982D01*
G37*
G36*
G01X2024Y15782D02*
G01X2024Y16317D01*
G01X2674Y16317D01*
G01X2674Y15782D01*
G01X2024Y15782D01*
G37*
G36*
G01X4324Y16871D02*
G01X4324Y17407D01*
G01X4974Y17407D01*
G01X4974Y16871D01*
G01X4324Y16871D01*
G37*
G36*
G01X4324Y17671D02*
G01X4324Y18207D01*
G01X4974Y18207D01*
G01X4974Y17671D01*
G01X4324Y17671D01*
G37*
G36*
G01X2024Y16871D02*
G01X2024Y17407D01*
G01X2674Y17407D01*
G01X2674Y16871D01*
G01X2024Y16871D01*
G37*
G36*
G01X2024Y17671D02*
G01X2024Y18207D01*
G01X2674Y18207D01*
G01X2674Y17671D01*
G01X2024Y17671D01*
G37*
G36*
G01X4324Y14982D02*
G01X4324Y15517D01*
G01X4974Y15517D01*
G01X4974Y14982D01*
G01X4324Y14982D01*
G37*
G36*
G01X4324Y15782D02*
G01X4324Y16317D01*
G01X4974Y16317D01*
G01X4974Y15782D01*
G01X4324Y15782D01*
G37*
G36*
G01X3885Y9953D02*
G01X3885Y10426D01*
G01X4181Y10426D01*
G01X4181Y9953D01*
G01X3885Y9953D01*
G37*
G36*
G01X3137Y9953D02*
G01X3137Y10426D01*
G01X3433Y10426D01*
G01X3433Y9953D01*
G01X3137Y9953D01*
G37*
G36*
G01X3137Y11134D02*
G01X3137Y11607D01*
G01X3433Y11607D01*
G01X3433Y11134D01*
G01X3137Y11134D01*
G37*
G36*
G01X3511Y11134D02*
G01X3511Y11607D01*
G01X3807Y11607D01*
G01X3807Y11134D01*
G01X3511Y11134D01*
G37*
G36*
G01X3885Y11134D02*
G01X3885Y11607D01*
G01X4181Y11607D01*
G01X4181Y11134D01*
G01X3885Y11134D01*
G37*
G36*
G01X5131Y9092D02*
G01X5131Y9428D01*
G01X5447Y9428D01*
G01X5447Y9092D01*
G01X5131Y9092D01*
G37*
G36*
G01X4797Y9092D02*
G01X4797Y9428D01*
G01X5113Y9428D01*
G01X5113Y9092D01*
G01X4797Y9092D01*
G37*
G36*
G01X2154Y9782D02*
G01X2154Y10117D01*
G01X2470Y10117D01*
G01X2470Y9782D01*
G01X2154Y9782D01*
G37*
G36*
G01X2488Y9782D02*
G01X2488Y10117D01*
G01X2804Y10117D01*
G01X2804Y9782D01*
G01X2488Y9782D01*
G37*
G36*
G01X1538Y9782D02*
G01X1538Y10117D01*
G01X1854Y10117D01*
G01X1854Y9782D01*
G01X1538Y9782D01*
G37*
G36*
G01X1204Y9782D02*
G01X1204Y10117D01*
G01X1520Y10117D01*
G01X1520Y9782D01*
G01X1204Y9782D01*
G37*
G36*
G01X1214Y9092D02*
G01X1214Y9367D01*
G01X1531Y9367D01*
G01X1531Y9092D01*
G01X1214Y9092D01*
G37*
G36*
G01X1647Y9092D02*
G01X1647Y9367D01*
G01X1964Y9367D01*
G01X1964Y9092D01*
G01X1647Y9092D01*
G37*
G36*
G01X4521Y10207D02*
G01X4521Y10525D01*
G01X4797Y10525D01*
G01X4797Y10207D01*
G01X4521Y10207D01*
G37*
G36*
G01X4521Y9775D02*
G01X4521Y10092D01*
G01X4797Y10092D01*
G01X4797Y9775D01*
G01X4521Y9775D01*
G37*
G36*
G01X2404Y9321D02*
G01X2404Y9657D01*
G01X2720Y9657D01*
G01X2720Y9321D01*
G01X2404Y9321D01*
G37*
G36*
G01X2738Y9321D02*
G01X2738Y9657D01*
G01X3054Y9657D01*
G01X3054Y9321D01*
G01X2738Y9321D01*
G37*
G36*
G01X5481Y10855D02*
G01X5481Y11171D01*
G01X5817Y11171D01*
G01X5817Y10855D01*
G01X5481Y10855D01*
G37*
G36*
G01X5481Y11188D02*
G01X5481Y11505D01*
G01X5817Y11505D01*
G01X5817Y11188D01*
G01X5481Y11188D01*
G37*
G36*
G01X1801Y4182D02*
G01X1801Y4498D01*
G01X2137Y4498D01*
G01X2137Y4182D01*
G01X1801Y4182D01*
G37*
G36*
G01X1801Y3848D02*
G01X1801Y4163D01*
G01X2137Y4163D01*
G01X2137Y3848D01*
G01X1801Y3848D01*
G37*
G36*
G01X2651Y3711D02*
G01X2651Y4048D01*
G01X2967Y4048D01*
G01X2967Y3711D01*
G01X2651Y3711D01*
G37*
G36*
G01X2317Y3711D02*
G01X2317Y4048D01*
G01X2633Y4048D01*
G01X2633Y3711D01*
G01X2317Y3711D01*
G37*
G36*
G01X2651Y4171D02*
G01X2651Y4507D01*
G01X2967Y4507D01*
G01X2967Y4171D01*
G01X2651Y4171D01*
G37*
G36*
G01X2317Y4171D02*
G01X2317Y4507D01*
G01X2633Y4507D01*
G01X2633Y4171D01*
G01X2317Y4171D01*
G37*
G36*
G01X3321Y3882D02*
G01X3321Y4217D01*
G01X3637Y4217D01*
G01X3637Y3882D01*
G01X3321Y3882D01*
G37*
G36*
G01X3655Y3882D02*
G01X3655Y4217D01*
G01X3971Y4217D01*
G01X3971Y3882D01*
G01X3655Y3882D01*
G37*
G36*
G01X1672Y3040D02*
G01X1672Y3396D01*
G01X2264Y3396D01*
G01X2264Y3040D01*
G01X1672Y3040D01*
G37*
G36*
G01X4034Y3040D02*
G01X4034Y3396D01*
G01X4626Y3396D01*
G01X4626Y3040D01*
G01X4034Y3040D01*
G37*
G36*
G01X1672Y1584D02*
G01X1672Y1938D01*
G01X2264Y1938D01*
G01X2264Y1584D01*
G01X1672Y1584D01*
G37*
G36*
G01X4034Y1584D02*
G01X4034Y1938D01*
G01X4626Y1938D01*
G01X4626Y1584D01*
G01X4034Y1584D01*
G37*
G36*
G01X3359Y5482D02*
G01X1771Y7069D01*
G01X3359Y8657D01*
G01X4947Y7069D01*
G01X3359Y5482D01*
G37*
M00*
M02*
