G04 Layer: BottomPasteMaskLayer*
G04 EasyEDA v6.3.22, 2020-03-24T16:00:13+09:00*
G04 d7f5250073f14fcc9ce3ff4b1d3fcb3e,67344a67363949849f01d11c0c7cf016,10*
G04 Gerber Generator version 0.2*
G04 Scale: 100 percent, Rotated: No, Reflected: No *
G04 Dimensions in inches *
G04 leading zeros omitted , absolute positions ,2 integer and 4 decimal *
%FSLAX24Y24*%
%MOIN*%
G90*
G70D02*

%ADD30R,0.047244X0.393701*%
%ADD31R,0.047244X0.320000*%

%LPD*%
G54D30*
G01X2104Y16400D03*
G54D31*
G01X3099Y16200D03*
G01X3899Y16200D03*
G54D30*
G01X4907Y16400D03*
G36*
G01X4182Y6172D02*
G01X4419Y6172D01*
G01X4419Y6427D01*
G01X4182Y6427D01*
G01X4182Y6172D01*
G37*
G36*
G01X3848Y6172D02*
G01X4085Y6172D01*
G01X4085Y6427D01*
G01X3848Y6427D01*
G01X3848Y6172D01*
G37*
G36*
G01X3298Y5572D02*
G01X3535Y5572D01*
G01X3535Y5827D01*
G01X3298Y5827D01*
G01X3298Y5572D01*
G37*
G36*
G01X2964Y5572D02*
G01X3201Y5572D01*
G01X3201Y5827D01*
G01X2964Y5827D01*
G01X2964Y5572D01*
G37*
G36*
G01X4182Y5572D02*
G01X4419Y5572D01*
G01X4419Y5827D01*
G01X4182Y5827D01*
G01X4182Y5572D01*
G37*
G36*
G01X3848Y5572D02*
G01X4085Y5572D01*
G01X4085Y5827D01*
G01X3848Y5827D01*
G01X3848Y5572D01*
G37*
G36*
G01X3298Y6172D02*
G01X3535Y6172D01*
G01X3535Y6427D01*
G01X3298Y6427D01*
G01X3298Y6172D01*
G37*
G36*
G01X2964Y6172D02*
G01X3201Y6172D01*
G01X3201Y6427D01*
G01X2964Y6427D01*
G01X2964Y6172D01*
G37*
M00*
M02*
