G04 Layer: BottomLayer*
G04 EasyEDA v6.5.22, 2022-11-29 03:43:51*
G04 8ec36cdae1d24b8a87879ab1f9b651ff,67344a67363949849f01d11c0c7cf016,10*
G04 Gerber Generator version 0.2*
G04 Scale: 100 percent, Rotated: No, Reflected: No *
G04 Dimensions in inches *
G04 leading zeros omitted , absolute positions ,3 integer and 6 decimal *
%FSLAX36Y36*%
%MOIN*%

%AMMACRO1*21,1,$1,$2,0,0,$3*%
%ADD10C,0.0150*%
%ADD11C,0.0200*%
%ADD12C,0.0060*%
%ADD13C,0.0050*%
%ADD14C,0.0100*%
%ADD15C,0.0070*%
%ADD16R,0.0472X0.3937*%
%ADD17R,0.0472X0.3200*%
%ADD18MACRO1,0.0236X0.0256X0.0000*%
%ADD19C,0.0514*%
%ADD20C,0.0700*%
%ADD21C,0.0240*%
%ADD22C,0.0280*%
%ADD23C,0.0172*%

%LPD*%
G36*
X644640Y-1214080D02*
G01*
X643160Y-1213760D01*
X641919Y-1212900D01*
X626380Y-1197360D01*
X625500Y-1196060D01*
X625200Y-1194540D01*
X625200Y-843060D01*
X624760Y-840280D01*
X623840Y-838259D01*
X622340Y-836320D01*
X499820Y-713800D01*
X498940Y-712500D01*
X498640Y-710980D01*
X498940Y-709440D01*
X499799Y-708139D01*
X503960Y-705520D01*
X506440Y-703240D01*
X508459Y-700580D01*
X508740Y-700000D01*
X509820Y-698660D01*
X511019Y-697700D01*
X536160Y-672560D01*
X537400Y-671720D01*
X538880Y-671400D01*
X540360Y-671640D01*
X541640Y-672420D01*
X542560Y-673600D01*
X543540Y-675580D01*
X545560Y-678240D01*
X548040Y-680520D01*
X550900Y-682280D01*
X554020Y-683480D01*
X557320Y-684100D01*
X560680Y-684100D01*
X562780Y-683920D01*
X564000Y-684300D01*
X565040Y-685060D01*
X664620Y-784640D01*
X665500Y-785939D01*
X665800Y-787460D01*
X665800Y-1197120D01*
X665560Y-1198460D01*
X664880Y-1199660D01*
X663820Y-1200560D01*
X662540Y-1201040D01*
X660020Y-1201520D01*
X656900Y-1202720D01*
X654040Y-1204480D01*
X651560Y-1206760D01*
X649539Y-1209420D01*
X648319Y-1211860D01*
X647420Y-1213060D01*
X646120Y-1213840D01*
G37*

%LPD*%
G36*
X127739Y-1879800D02*
G01*
X126199Y-1879500D01*
X124920Y-1878620D01*
X102380Y-1856080D01*
X101500Y-1854800D01*
X101199Y-1853260D01*
X101199Y-606740D01*
X101500Y-605200D01*
X102380Y-603920D01*
X134920Y-571380D01*
X136200Y-570500D01*
X137740Y-570200D01*
X262660Y-570200D01*
X264140Y-570480D01*
X265420Y-571300D01*
X266300Y-572520D01*
X267560Y-575280D01*
X269160Y-577380D01*
X271160Y-579080D01*
X273500Y-580320D01*
X276040Y-581020D01*
X278660Y-581160D01*
X281260Y-580740D01*
X283700Y-579760D01*
X287340Y-577160D01*
X288800Y-576800D01*
X290280Y-577000D01*
X291600Y-577740D01*
X293160Y-579080D01*
X295500Y-580320D01*
X298040Y-581020D01*
X300660Y-581160D01*
X303260Y-580740D01*
X305700Y-579760D01*
X309340Y-577160D01*
X310800Y-576800D01*
X312280Y-577000D01*
X313600Y-577740D01*
X315160Y-579080D01*
X317500Y-580320D01*
X320040Y-581020D01*
X322660Y-581160D01*
X325260Y-580740D01*
X327700Y-579760D01*
X331340Y-577160D01*
X332800Y-576800D01*
X334280Y-577000D01*
X335600Y-577740D01*
X337160Y-579080D01*
X339500Y-580320D01*
X342040Y-581020D01*
X344660Y-581160D01*
X347260Y-580740D01*
X349700Y-579760D01*
X353340Y-577160D01*
X354799Y-576800D01*
X356280Y-577000D01*
X357600Y-577740D01*
X359159Y-579080D01*
X361500Y-580320D01*
X364040Y-581020D01*
X366659Y-581160D01*
X369260Y-580740D01*
X371700Y-579760D01*
X375340Y-577160D01*
X376800Y-576800D01*
X378280Y-577000D01*
X379600Y-577740D01*
X381160Y-579080D01*
X383500Y-580320D01*
X386040Y-581020D01*
X388660Y-581160D01*
X391260Y-580740D01*
X393700Y-579760D01*
X396300Y-577980D01*
X397900Y-577320D01*
X399620Y-577400D01*
X401160Y-578220D01*
X402160Y-579080D01*
X404500Y-580320D01*
X407040Y-581020D01*
X409660Y-581160D01*
X412260Y-580740D01*
X414700Y-579760D01*
X416880Y-578280D01*
X418700Y-576360D01*
X420060Y-574120D01*
X420900Y-571620D01*
X421180Y-569000D01*
X420900Y-566380D01*
X420520Y-565280D01*
X420319Y-563780D01*
X420680Y-562320D01*
X421560Y-561100D01*
X422819Y-560280D01*
X424320Y-560000D01*
X437620Y-560000D01*
X439340Y-560400D01*
X440720Y-561500D01*
X441500Y-563080D01*
X441520Y-564860D01*
X440900Y-567680D01*
X440940Y-572000D01*
X440340Y-573460D01*
X439219Y-574600D01*
X437740Y-575200D01*
X436019Y-575520D01*
X432900Y-576720D01*
X430040Y-578480D01*
X427560Y-580760D01*
X425540Y-583420D01*
X424040Y-586440D01*
X423080Y-589800D01*
X422260Y-591320D01*
X420860Y-592360D01*
X419159Y-592700D01*
X417480Y-592300D01*
X416760Y-591940D01*
X411659Y-590220D01*
X406380Y-589160D01*
X401000Y-588800D01*
X395620Y-589160D01*
X390340Y-590220D01*
X385240Y-591940D01*
X380400Y-594320D01*
X375920Y-597320D01*
X371880Y-600880D01*
X368320Y-604920D01*
X365319Y-609400D01*
X362939Y-614240D01*
X361220Y-619340D01*
X360160Y-624620D01*
X359799Y-630000D01*
X360160Y-635380D01*
X361220Y-640660D01*
X362939Y-645759D01*
X365319Y-650600D01*
X368320Y-655080D01*
X371880Y-659120D01*
X375920Y-662680D01*
X380400Y-665660D01*
X385580Y-668199D01*
X386960Y-669320D01*
X387720Y-670920D01*
X387720Y-672700D01*
X386940Y-674300D01*
X385560Y-675400D01*
X383820Y-675800D01*
X261460Y-675800D01*
X259940Y-675500D01*
X258640Y-674620D01*
X238020Y-654000D01*
X237120Y-652620D01*
X236840Y-651000D01*
X237260Y-649400D01*
X239060Y-645759D01*
X240780Y-640660D01*
X241840Y-635380D01*
X242200Y-630000D01*
X241840Y-624620D01*
X240780Y-619340D01*
X239060Y-614240D01*
X236680Y-609400D01*
X233680Y-604920D01*
X230120Y-600880D01*
X226080Y-597320D01*
X221600Y-594320D01*
X216759Y-591940D01*
X211660Y-590220D01*
X206380Y-589160D01*
X201000Y-588800D01*
X195620Y-589160D01*
X190340Y-590220D01*
X185240Y-591940D01*
X180400Y-594320D01*
X175920Y-597320D01*
X171880Y-600880D01*
X168320Y-604920D01*
X165320Y-609400D01*
X162940Y-614240D01*
X161220Y-619340D01*
X160159Y-624620D01*
X159800Y-630000D01*
X160159Y-635380D01*
X161220Y-640660D01*
X162940Y-645759D01*
X165320Y-650600D01*
X168320Y-655080D01*
X171880Y-659120D01*
X175920Y-662680D01*
X180400Y-665680D01*
X185240Y-668060D01*
X190340Y-669780D01*
X195620Y-670840D01*
X201000Y-671200D01*
X206380Y-670840D01*
X211660Y-669780D01*
X216759Y-668060D01*
X220400Y-666260D01*
X222000Y-665840D01*
X223619Y-666120D01*
X225000Y-667020D01*
X249460Y-691460D01*
X251740Y-693120D01*
X253800Y-693900D01*
X256240Y-694200D01*
X419540Y-694200D01*
X421060Y-694500D01*
X422360Y-695380D01*
X506620Y-779640D01*
X507500Y-780939D01*
X507800Y-782460D01*
X507800Y-859180D01*
X507460Y-860800D01*
X506460Y-862159D01*
X503560Y-864760D01*
X501540Y-867420D01*
X500040Y-870440D01*
X499120Y-873660D01*
X498820Y-877000D01*
X499159Y-880720D01*
X498940Y-882440D01*
X498100Y-884780D01*
X497800Y-887240D01*
X497800Y-986540D01*
X497500Y-988060D01*
X496620Y-989360D01*
X459360Y-1026620D01*
X458060Y-1027500D01*
X456540Y-1027800D01*
X422060Y-1027800D01*
X419280Y-1028240D01*
X417260Y-1029160D01*
X415319Y-1030660D01*
X403720Y-1042260D01*
X402340Y-1043160D01*
X400900Y-1043720D01*
X398040Y-1045480D01*
X395560Y-1047760D01*
X393540Y-1050420D01*
X392040Y-1053440D01*
X391120Y-1056660D01*
X390820Y-1060000D01*
X391120Y-1063340D01*
X392040Y-1066560D01*
X393540Y-1069580D01*
X395560Y-1072240D01*
X398040Y-1074520D01*
X400900Y-1076280D01*
X404020Y-1077480D01*
X407320Y-1078100D01*
X410680Y-1078100D01*
X413980Y-1077480D01*
X417100Y-1076280D01*
X419960Y-1074520D01*
X422440Y-1072240D01*
X424460Y-1069580D01*
X425959Y-1066560D01*
X426880Y-1063340D01*
X427180Y-1060000D01*
X426880Y-1056660D01*
X425959Y-1053440D01*
X425240Y-1051980D01*
X424820Y-1050420D01*
X425060Y-1048820D01*
X425900Y-1047460D01*
X427239Y-1046520D01*
X428820Y-1046200D01*
X461940Y-1046200D01*
X464720Y-1045759D01*
X466740Y-1044840D01*
X468680Y-1043340D01*
X513459Y-998540D01*
X515120Y-996260D01*
X515900Y-994200D01*
X516200Y-991760D01*
X516200Y-944900D01*
X516500Y-943400D01*
X517340Y-942099D01*
X518620Y-941240D01*
X520120Y-940920D01*
X521640Y-941180D01*
X525020Y-942480D01*
X528320Y-943100D01*
X531680Y-943100D01*
X533080Y-942840D01*
X534360Y-942820D01*
X535600Y-943199D01*
X536640Y-943940D01*
X550120Y-957440D01*
X551000Y-958720D01*
X551300Y-960260D01*
X551300Y-1101860D01*
X551080Y-1103200D01*
X550420Y-1104380D01*
X547820Y-1106600D01*
X546540Y-1107380D01*
X545040Y-1107640D01*
X543560Y-1107320D01*
X542300Y-1106460D01*
X521140Y-1085300D01*
X520220Y-1083840D01*
X520000Y-1082120D01*
X520180Y-1080000D01*
X519860Y-1076400D01*
X518900Y-1072900D01*
X517320Y-1069640D01*
X515200Y-1066720D01*
X512580Y-1064220D01*
X509560Y-1062220D01*
X506240Y-1060800D01*
X502700Y-1060000D01*
X499099Y-1059840D01*
X495500Y-1060320D01*
X492060Y-1061440D01*
X488880Y-1063160D01*
X486060Y-1065420D01*
X483680Y-1068140D01*
X481820Y-1071240D01*
X480540Y-1074640D01*
X479900Y-1078200D01*
X479900Y-1081800D01*
X480540Y-1085360D01*
X481820Y-1088760D01*
X483680Y-1091860D01*
X486060Y-1094580D01*
X488880Y-1096840D01*
X492060Y-1098560D01*
X495500Y-1099680D01*
X499099Y-1100160D01*
X502340Y-1100020D01*
X503960Y-1100280D01*
X505340Y-1101180D01*
X522620Y-1118460D01*
X523500Y-1119760D01*
X523800Y-1121300D01*
X523800Y-1164880D01*
X524080Y-1167500D01*
X524920Y-1169860D01*
X526240Y-1171980D01*
X527160Y-1173000D01*
X618640Y-1264480D01*
X619500Y-1265760D01*
X619800Y-1267300D01*
X619500Y-1268840D01*
X618640Y-1270120D01*
X617340Y-1271000D01*
X615800Y-1271300D01*
X603260Y-1271300D01*
X601720Y-1271000D01*
X600440Y-1270120D01*
X574200Y-1243900D01*
X572020Y-1242320D01*
X570080Y-1241580D01*
X567760Y-1241300D01*
X559000Y-1241300D01*
X557460Y-1241000D01*
X556180Y-1240120D01*
X555300Y-1238840D01*
X555000Y-1237300D01*
X555000Y-1225400D01*
X554600Y-1225000D01*
X386400Y-1225000D01*
X386000Y-1225400D01*
X386000Y-1340000D01*
X559800Y-1340000D01*
X561340Y-1340300D01*
X562620Y-1341180D01*
X563500Y-1342460D01*
X563800Y-1344000D01*
X563800Y-1393700D01*
X563500Y-1395240D01*
X562620Y-1396540D01*
X470340Y-1488820D01*
X468960Y-1489720D01*
X467340Y-1489980D01*
X464099Y-1489840D01*
X460500Y-1490320D01*
X457060Y-1491440D01*
X453880Y-1493160D01*
X451060Y-1495420D01*
X448680Y-1498140D01*
X446820Y-1501240D01*
X445540Y-1504640D01*
X444900Y-1508200D01*
X444900Y-1511800D01*
X445540Y-1515360D01*
X446820Y-1518760D01*
X448680Y-1521860D01*
X451060Y-1524580D01*
X453880Y-1526840D01*
X457060Y-1528560D01*
X460500Y-1529680D01*
X464099Y-1530160D01*
X467700Y-1530000D01*
X471240Y-1529199D01*
X474560Y-1527780D01*
X477580Y-1525780D01*
X480200Y-1523280D01*
X482320Y-1520360D01*
X483900Y-1517100D01*
X484860Y-1513600D01*
X485180Y-1510000D01*
X485000Y-1507880D01*
X485220Y-1506160D01*
X486140Y-1504700D01*
X582840Y-1408000D01*
X583820Y-1406900D01*
X585100Y-1405960D01*
X586640Y-1405580D01*
X588220Y-1405820D01*
X589560Y-1406680D01*
X590480Y-1407980D01*
X590800Y-1409540D01*
X590820Y-1413420D01*
X591240Y-1415720D01*
X592160Y-1417740D01*
X593660Y-1419680D01*
X639920Y-1465940D01*
X640860Y-1467400D01*
X641080Y-1469139D01*
X640819Y-1472000D01*
X641120Y-1475340D01*
X642039Y-1478560D01*
X643540Y-1481579D01*
X645560Y-1484240D01*
X648040Y-1486519D01*
X650900Y-1488280D01*
X654020Y-1489480D01*
X657320Y-1490100D01*
X660680Y-1490100D01*
X663980Y-1489480D01*
X667099Y-1488280D01*
X669960Y-1486519D01*
X672440Y-1484240D01*
X674460Y-1481579D01*
X675960Y-1478560D01*
X676880Y-1475340D01*
X677180Y-1472000D01*
X676880Y-1468660D01*
X675960Y-1465440D01*
X674460Y-1462440D01*
X672159Y-1459400D01*
X671440Y-1457900D01*
X671400Y-1456260D01*
X672039Y-1454720D01*
X673240Y-1453580D01*
X674960Y-1452520D01*
X677440Y-1450240D01*
X679460Y-1447580D01*
X680960Y-1444560D01*
X681880Y-1441339D01*
X682180Y-1438000D01*
X681880Y-1434660D01*
X680960Y-1431440D01*
X679460Y-1428420D01*
X677440Y-1425760D01*
X674539Y-1423160D01*
X673540Y-1421800D01*
X673199Y-1420180D01*
X673199Y-1404060D01*
X672760Y-1401279D01*
X671840Y-1399259D01*
X670340Y-1397320D01*
X637820Y-1364800D01*
X636940Y-1363500D01*
X636640Y-1361980D01*
X636940Y-1360440D01*
X637800Y-1359139D01*
X641960Y-1356519D01*
X644440Y-1354240D01*
X647760Y-1349840D01*
X649680Y-1348340D01*
X656840Y-1341180D01*
X658139Y-1340300D01*
X659659Y-1340000D01*
X708120Y-1340000D01*
X709740Y-1340340D01*
X711080Y-1341300D01*
X711900Y-1342720D01*
X712940Y-1345760D01*
X715320Y-1350600D01*
X718319Y-1355080D01*
X721880Y-1359120D01*
X725920Y-1362680D01*
X730400Y-1365680D01*
X735240Y-1368060D01*
X740340Y-1369780D01*
X745620Y-1370840D01*
X751000Y-1371200D01*
X756380Y-1370840D01*
X761660Y-1369780D01*
X766760Y-1368060D01*
X771600Y-1365680D01*
X776080Y-1362680D01*
X780120Y-1359120D01*
X783680Y-1355080D01*
X786680Y-1350600D01*
X789060Y-1345760D01*
X790100Y-1342720D01*
X790920Y-1341300D01*
X792260Y-1340340D01*
X793880Y-1340000D01*
X796800Y-1340000D01*
X798340Y-1340300D01*
X799620Y-1341180D01*
X800500Y-1342460D01*
X800800Y-1344000D01*
X800800Y-1853260D01*
X800500Y-1854800D01*
X799620Y-1856080D01*
X777080Y-1878620D01*
X775800Y-1879500D01*
X774260Y-1879800D01*
G37*

%LPC*%
G36*
X551000Y-1871200D02*
G01*
X556380Y-1870840D01*
X561660Y-1869780D01*
X566760Y-1868060D01*
X571600Y-1865680D01*
X576080Y-1862680D01*
X580120Y-1859120D01*
X583680Y-1855080D01*
X586680Y-1850600D01*
X589060Y-1845760D01*
X590780Y-1840660D01*
X591840Y-1835380D01*
X592200Y-1830000D01*
X591840Y-1824620D01*
X590780Y-1819340D01*
X589060Y-1814240D01*
X586680Y-1809400D01*
X583680Y-1804920D01*
X580120Y-1800880D01*
X576080Y-1797320D01*
X571600Y-1794319D01*
X566760Y-1791940D01*
X561660Y-1790220D01*
X556380Y-1789160D01*
X551000Y-1788800D01*
X545620Y-1789160D01*
X540340Y-1790220D01*
X535240Y-1791940D01*
X530400Y-1794319D01*
X525920Y-1797320D01*
X521880Y-1800880D01*
X518320Y-1804920D01*
X515319Y-1809400D01*
X512939Y-1814240D01*
X511220Y-1819340D01*
X510160Y-1824620D01*
X509799Y-1830000D01*
X510160Y-1835380D01*
X511220Y-1840660D01*
X512939Y-1845760D01*
X515319Y-1850600D01*
X518320Y-1855080D01*
X521880Y-1859120D01*
X525920Y-1862680D01*
X530400Y-1865680D01*
X535240Y-1868060D01*
X540340Y-1869780D01*
X545620Y-1870840D01*
G37*
G36*
X651000Y-1871200D02*
G01*
X656380Y-1870840D01*
X661660Y-1869780D01*
X666760Y-1868060D01*
X671600Y-1865680D01*
X676080Y-1862680D01*
X680120Y-1859120D01*
X683680Y-1855080D01*
X686680Y-1850600D01*
X689060Y-1845760D01*
X690780Y-1840660D01*
X691840Y-1835380D01*
X692200Y-1830000D01*
X691840Y-1824620D01*
X690780Y-1819340D01*
X689060Y-1814240D01*
X686680Y-1809400D01*
X683680Y-1804920D01*
X680120Y-1800880D01*
X676080Y-1797320D01*
X671600Y-1794319D01*
X666760Y-1791940D01*
X661660Y-1790220D01*
X656380Y-1789160D01*
X651000Y-1788800D01*
X645620Y-1789160D01*
X640340Y-1790220D01*
X635240Y-1791940D01*
X630400Y-1794319D01*
X625920Y-1797320D01*
X621880Y-1800880D01*
X618320Y-1804920D01*
X615320Y-1809400D01*
X612940Y-1814240D01*
X611220Y-1819340D01*
X610160Y-1824620D01*
X609800Y-1830000D01*
X610160Y-1835380D01*
X611220Y-1840660D01*
X612940Y-1845760D01*
X615320Y-1850600D01*
X618320Y-1855080D01*
X621880Y-1859120D01*
X625920Y-1862680D01*
X630400Y-1865680D01*
X635240Y-1868060D01*
X640340Y-1869780D01*
X645620Y-1870840D01*
G37*
G36*
X451000Y-1871200D02*
G01*
X456380Y-1870840D01*
X461659Y-1869780D01*
X466760Y-1868060D01*
X471599Y-1865680D01*
X476079Y-1862680D01*
X480120Y-1859120D01*
X483680Y-1855080D01*
X486680Y-1850600D01*
X489060Y-1845760D01*
X490780Y-1840660D01*
X491840Y-1835380D01*
X492200Y-1830000D01*
X491840Y-1824620D01*
X490780Y-1819340D01*
X489060Y-1814240D01*
X486680Y-1809400D01*
X483680Y-1804920D01*
X480120Y-1800880D01*
X476079Y-1797320D01*
X471599Y-1794319D01*
X466760Y-1791940D01*
X461659Y-1790220D01*
X456380Y-1789160D01*
X451000Y-1788800D01*
X445620Y-1789160D01*
X440340Y-1790220D01*
X435240Y-1791940D01*
X430400Y-1794319D01*
X425920Y-1797320D01*
X421880Y-1800880D01*
X418320Y-1804920D01*
X415319Y-1809400D01*
X412939Y-1814240D01*
X411220Y-1819340D01*
X410160Y-1824620D01*
X409799Y-1830000D01*
X410160Y-1835380D01*
X411220Y-1840660D01*
X412939Y-1845760D01*
X415319Y-1850600D01*
X418320Y-1855080D01*
X421880Y-1859120D01*
X425920Y-1862680D01*
X430400Y-1865680D01*
X435240Y-1868060D01*
X440340Y-1869780D01*
X445620Y-1870840D01*
G37*
G36*
X751000Y-1871200D02*
G01*
X756380Y-1870840D01*
X761660Y-1869780D01*
X766760Y-1868060D01*
X771600Y-1865680D01*
X776080Y-1862680D01*
X780120Y-1859120D01*
X783680Y-1855080D01*
X786680Y-1850600D01*
X789060Y-1845760D01*
X790780Y-1840660D01*
X791840Y-1835380D01*
X792200Y-1830000D01*
X791840Y-1824620D01*
X790780Y-1819340D01*
X789060Y-1814240D01*
X786680Y-1809400D01*
X783680Y-1804920D01*
X780120Y-1800880D01*
X776080Y-1797320D01*
X771600Y-1794319D01*
X766760Y-1791940D01*
X761660Y-1790220D01*
X756380Y-1789160D01*
X751000Y-1788800D01*
X745620Y-1789160D01*
X740340Y-1790220D01*
X735240Y-1791940D01*
X730400Y-1794319D01*
X725920Y-1797320D01*
X721880Y-1800880D01*
X718319Y-1804920D01*
X715320Y-1809400D01*
X712940Y-1814240D01*
X711220Y-1819340D01*
X710160Y-1824620D01*
X709800Y-1830000D01*
X710160Y-1835380D01*
X711220Y-1840660D01*
X712940Y-1845760D01*
X715320Y-1850600D01*
X718319Y-1855080D01*
X721880Y-1859120D01*
X725920Y-1862680D01*
X730400Y-1865680D01*
X735240Y-1868060D01*
X740340Y-1869780D01*
X745620Y-1870840D01*
G37*
G36*
X351000Y-1871200D02*
G01*
X356380Y-1870840D01*
X361659Y-1869780D01*
X366760Y-1868060D01*
X371599Y-1865680D01*
X376079Y-1862680D01*
X380120Y-1859120D01*
X383680Y-1855080D01*
X386680Y-1850600D01*
X389060Y-1845760D01*
X390780Y-1840660D01*
X391840Y-1835380D01*
X392200Y-1830000D01*
X391840Y-1824620D01*
X390780Y-1819340D01*
X389060Y-1814240D01*
X386680Y-1809400D01*
X383680Y-1804920D01*
X380120Y-1800880D01*
X376079Y-1797320D01*
X371599Y-1794319D01*
X366760Y-1791940D01*
X361659Y-1790220D01*
X356380Y-1789160D01*
X351000Y-1788800D01*
X345620Y-1789160D01*
X340340Y-1790220D01*
X335240Y-1791940D01*
X330400Y-1794319D01*
X325920Y-1797320D01*
X321880Y-1800880D01*
X318320Y-1804920D01*
X315320Y-1809400D01*
X312940Y-1814240D01*
X311220Y-1819340D01*
X310160Y-1824620D01*
X309800Y-1830000D01*
X310160Y-1835380D01*
X311220Y-1840660D01*
X312940Y-1845760D01*
X315320Y-1850600D01*
X318320Y-1855080D01*
X321880Y-1859120D01*
X325920Y-1862680D01*
X330400Y-1865680D01*
X335240Y-1868060D01*
X340340Y-1869780D01*
X345620Y-1870840D01*
G37*
G36*
X751000Y-1771200D02*
G01*
X756380Y-1770840D01*
X761660Y-1769780D01*
X766760Y-1768060D01*
X771600Y-1765680D01*
X776080Y-1762680D01*
X780120Y-1759120D01*
X783680Y-1755080D01*
X786680Y-1750600D01*
X789060Y-1745760D01*
X790780Y-1740660D01*
X791840Y-1735380D01*
X792200Y-1730000D01*
X791840Y-1724620D01*
X790780Y-1719340D01*
X789060Y-1714240D01*
X786680Y-1709400D01*
X783680Y-1704920D01*
X780120Y-1700880D01*
X776080Y-1697320D01*
X771600Y-1694319D01*
X766760Y-1691940D01*
X761660Y-1690220D01*
X756380Y-1689160D01*
X751000Y-1688800D01*
X745620Y-1689160D01*
X740340Y-1690220D01*
X735240Y-1691940D01*
X730400Y-1694319D01*
X725920Y-1697320D01*
X721880Y-1700880D01*
X718319Y-1704920D01*
X715320Y-1709400D01*
X712940Y-1714240D01*
X711220Y-1719340D01*
X710160Y-1724620D01*
X709800Y-1730000D01*
X710160Y-1735380D01*
X711220Y-1740660D01*
X712940Y-1745760D01*
X715320Y-1750600D01*
X718319Y-1755080D01*
X721880Y-1759120D01*
X725920Y-1762680D01*
X730400Y-1765680D01*
X735240Y-1768060D01*
X740340Y-1769780D01*
X745620Y-1770840D01*
G37*
G36*
X151000Y-1771200D02*
G01*
X156380Y-1770840D01*
X161660Y-1769780D01*
X166759Y-1768060D01*
X171600Y-1765680D01*
X176080Y-1762680D01*
X180120Y-1759120D01*
X183680Y-1755080D01*
X186680Y-1750600D01*
X189060Y-1745760D01*
X190780Y-1740660D01*
X191840Y-1735380D01*
X192200Y-1730000D01*
X191840Y-1724620D01*
X190780Y-1719340D01*
X189060Y-1714240D01*
X186680Y-1709400D01*
X183680Y-1704920D01*
X180120Y-1700880D01*
X176080Y-1697320D01*
X171600Y-1694319D01*
X166759Y-1691940D01*
X161660Y-1690220D01*
X156380Y-1689160D01*
X151000Y-1688800D01*
X145620Y-1689160D01*
X140340Y-1690220D01*
X135240Y-1691940D01*
X130399Y-1694319D01*
X125920Y-1697320D01*
X121880Y-1700880D01*
X118320Y-1704920D01*
X115320Y-1709400D01*
X112940Y-1714240D01*
X111220Y-1719340D01*
X110160Y-1724620D01*
X109800Y-1730000D01*
X110160Y-1735380D01*
X111220Y-1740660D01*
X112940Y-1745760D01*
X115320Y-1750600D01*
X118320Y-1755080D01*
X121880Y-1759120D01*
X125920Y-1762680D01*
X130399Y-1765680D01*
X135240Y-1768060D01*
X140340Y-1769780D01*
X145620Y-1770840D01*
G37*
G36*
X751000Y-1671200D02*
G01*
X756380Y-1670840D01*
X761660Y-1669780D01*
X766760Y-1668060D01*
X771600Y-1665680D01*
X776080Y-1662680D01*
X780120Y-1659120D01*
X783680Y-1655080D01*
X786680Y-1650600D01*
X789060Y-1645760D01*
X790780Y-1640660D01*
X791840Y-1635380D01*
X792200Y-1630000D01*
X791840Y-1624620D01*
X790780Y-1619340D01*
X789060Y-1614240D01*
X786680Y-1609400D01*
X783680Y-1604920D01*
X780120Y-1600880D01*
X776080Y-1597320D01*
X771600Y-1594319D01*
X766760Y-1591940D01*
X761660Y-1590220D01*
X756380Y-1589160D01*
X751000Y-1588800D01*
X745620Y-1589160D01*
X740340Y-1590220D01*
X735240Y-1591940D01*
X730400Y-1594319D01*
X725920Y-1597320D01*
X721880Y-1600880D01*
X718319Y-1604920D01*
X715320Y-1609400D01*
X712940Y-1614240D01*
X711220Y-1619340D01*
X710160Y-1624620D01*
X709800Y-1630000D01*
X710160Y-1635380D01*
X711220Y-1640660D01*
X712940Y-1645760D01*
X715320Y-1650600D01*
X718319Y-1655080D01*
X721880Y-1659120D01*
X725920Y-1662680D01*
X730400Y-1665680D01*
X735240Y-1668060D01*
X740340Y-1669780D01*
X745620Y-1670840D01*
G37*
G36*
X151000Y-1671200D02*
G01*
X156380Y-1670840D01*
X161660Y-1669780D01*
X166759Y-1668060D01*
X171600Y-1665680D01*
X176080Y-1662680D01*
X180120Y-1659120D01*
X183680Y-1655080D01*
X186680Y-1650600D01*
X189060Y-1645760D01*
X190780Y-1640660D01*
X191840Y-1635380D01*
X192200Y-1630000D01*
X191840Y-1624620D01*
X190780Y-1619340D01*
X189060Y-1614240D01*
X186680Y-1609400D01*
X183680Y-1604920D01*
X180120Y-1600880D01*
X176080Y-1597320D01*
X171600Y-1594319D01*
X166759Y-1591940D01*
X161660Y-1590220D01*
X156380Y-1589160D01*
X151000Y-1588800D01*
X145620Y-1589160D01*
X140340Y-1590220D01*
X135240Y-1591940D01*
X130399Y-1594319D01*
X125920Y-1597320D01*
X121880Y-1600880D01*
X118320Y-1604920D01*
X115320Y-1609400D01*
X112940Y-1614240D01*
X111220Y-1619340D01*
X110160Y-1624620D01*
X109800Y-1630000D01*
X110160Y-1635380D01*
X111220Y-1640660D01*
X112940Y-1645760D01*
X115320Y-1650600D01*
X118320Y-1655080D01*
X121880Y-1659120D01*
X125920Y-1662680D01*
X130399Y-1665680D01*
X135240Y-1668060D01*
X140340Y-1669780D01*
X145620Y-1670840D01*
G37*
G36*
X308320Y-1598100D02*
G01*
X311680Y-1598100D01*
X314980Y-1597480D01*
X318100Y-1596279D01*
X320959Y-1594520D01*
X323440Y-1592240D01*
X324920Y-1590280D01*
X325800Y-1589440D01*
X326900Y-1588880D01*
X328100Y-1588700D01*
X551900Y-1588700D01*
X553100Y-1588880D01*
X554200Y-1589440D01*
X555080Y-1590280D01*
X556560Y-1592240D01*
X559040Y-1594520D01*
X561900Y-1596279D01*
X565020Y-1597480D01*
X568320Y-1598100D01*
X571680Y-1598100D01*
X574980Y-1597480D01*
X578100Y-1596279D01*
X580960Y-1594520D01*
X583440Y-1592240D01*
X585460Y-1589580D01*
X586960Y-1586560D01*
X587880Y-1583340D01*
X588180Y-1580000D01*
X587880Y-1576660D01*
X586960Y-1573440D01*
X585460Y-1570420D01*
X583440Y-1567760D01*
X580960Y-1565480D01*
X578100Y-1563720D01*
X574980Y-1562520D01*
X571680Y-1561900D01*
X568320Y-1561900D01*
X565020Y-1562520D01*
X561900Y-1563720D01*
X559040Y-1565480D01*
X556560Y-1567760D01*
X555080Y-1569720D01*
X554200Y-1570560D01*
X553100Y-1571120D01*
X551900Y-1571300D01*
X328100Y-1571300D01*
X326900Y-1571120D01*
X325800Y-1570560D01*
X324920Y-1569720D01*
X323440Y-1567760D01*
X320959Y-1565480D01*
X318100Y-1563720D01*
X314980Y-1562520D01*
X311680Y-1561900D01*
X308320Y-1561900D01*
X305020Y-1562520D01*
X301900Y-1563720D01*
X299040Y-1565480D01*
X296560Y-1567760D01*
X295080Y-1569720D01*
X294200Y-1570560D01*
X293100Y-1571120D01*
X291900Y-1571300D01*
X290260Y-1571300D01*
X288720Y-1571000D01*
X287440Y-1570120D01*
X269880Y-1552560D01*
X269000Y-1551279D01*
X268700Y-1549740D01*
X268700Y-1455260D01*
X269000Y-1453720D01*
X269880Y-1452440D01*
X336100Y-1386200D01*
X337680Y-1384019D01*
X338420Y-1382080D01*
X338700Y-1379760D01*
X338700Y-1182420D01*
X339040Y-1180800D01*
X340000Y-1179460D01*
X342440Y-1177240D01*
X344460Y-1174580D01*
X345959Y-1171560D01*
X346880Y-1168340D01*
X347180Y-1165000D01*
X346880Y-1161660D01*
X345959Y-1158440D01*
X344460Y-1155420D01*
X342440Y-1152760D01*
X339960Y-1150480D01*
X337100Y-1148720D01*
X333980Y-1147520D01*
X330680Y-1146900D01*
X327320Y-1146900D01*
X324020Y-1147520D01*
X320900Y-1148720D01*
X318040Y-1150480D01*
X315560Y-1152760D01*
X313540Y-1155420D01*
X312040Y-1158440D01*
X311120Y-1161660D01*
X310820Y-1165000D01*
X311120Y-1168340D01*
X312040Y-1171560D01*
X313540Y-1174580D01*
X315560Y-1177240D01*
X318040Y-1179520D01*
X319400Y-1180360D01*
X320420Y-1181240D01*
X321079Y-1182420D01*
X321300Y-1183760D01*
X321300Y-1374740D01*
X321000Y-1376279D01*
X320120Y-1377560D01*
X253900Y-1443800D01*
X252320Y-1445980D01*
X251580Y-1447920D01*
X251300Y-1450240D01*
X251300Y-1554940D01*
X251720Y-1557580D01*
X252580Y-1559480D01*
X254020Y-1561320D01*
X278800Y-1586100D01*
X280980Y-1587680D01*
X282920Y-1588420D01*
X285240Y-1588700D01*
X291900Y-1588700D01*
X293100Y-1588880D01*
X294200Y-1589440D01*
X295080Y-1590280D01*
X296560Y-1592240D01*
X299040Y-1594520D01*
X301900Y-1596279D01*
X305020Y-1597480D01*
G37*
G36*
X151000Y-1571200D02*
G01*
X156380Y-1570840D01*
X161660Y-1569780D01*
X166759Y-1568060D01*
X171600Y-1565680D01*
X176080Y-1562680D01*
X180120Y-1559120D01*
X183680Y-1555080D01*
X186680Y-1550600D01*
X189060Y-1545760D01*
X190780Y-1540660D01*
X191840Y-1535380D01*
X192200Y-1530000D01*
X191840Y-1524620D01*
X190780Y-1519340D01*
X189060Y-1514240D01*
X186680Y-1509400D01*
X183680Y-1504920D01*
X180120Y-1500880D01*
X176080Y-1497320D01*
X171600Y-1494319D01*
X166759Y-1491940D01*
X161660Y-1490220D01*
X156380Y-1489160D01*
X151000Y-1488800D01*
X145620Y-1489160D01*
X140340Y-1490220D01*
X135240Y-1491940D01*
X130399Y-1494319D01*
X125920Y-1497320D01*
X121880Y-1500880D01*
X118320Y-1504920D01*
X115320Y-1509400D01*
X112940Y-1514240D01*
X111220Y-1519340D01*
X110160Y-1524620D01*
X109800Y-1530000D01*
X110160Y-1535380D01*
X111220Y-1540660D01*
X112940Y-1545760D01*
X115320Y-1550600D01*
X118320Y-1555080D01*
X121880Y-1559120D01*
X125920Y-1562680D01*
X130399Y-1565680D01*
X135240Y-1568060D01*
X140340Y-1569780D01*
X145620Y-1570840D01*
G37*
G36*
X751000Y-1571200D02*
G01*
X756380Y-1570840D01*
X761660Y-1569780D01*
X766760Y-1568060D01*
X771600Y-1565680D01*
X776080Y-1562680D01*
X780120Y-1559120D01*
X783680Y-1555080D01*
X786680Y-1550600D01*
X789060Y-1545760D01*
X790780Y-1540660D01*
X791840Y-1535380D01*
X792200Y-1530000D01*
X791840Y-1524620D01*
X790780Y-1519340D01*
X789060Y-1514240D01*
X786680Y-1509400D01*
X783680Y-1504920D01*
X780120Y-1500880D01*
X776080Y-1497320D01*
X771600Y-1494319D01*
X766760Y-1491940D01*
X761660Y-1490220D01*
X756380Y-1489160D01*
X751000Y-1488800D01*
X745620Y-1489160D01*
X740340Y-1490220D01*
X735240Y-1491940D01*
X730400Y-1494319D01*
X725920Y-1497320D01*
X721880Y-1500880D01*
X718319Y-1504920D01*
X715320Y-1509400D01*
X712940Y-1514240D01*
X711220Y-1519340D01*
X710160Y-1524620D01*
X709800Y-1530000D01*
X710160Y-1535380D01*
X711220Y-1540660D01*
X712940Y-1545760D01*
X715320Y-1550600D01*
X718319Y-1555080D01*
X721880Y-1559120D01*
X725920Y-1562680D01*
X730400Y-1565680D01*
X735240Y-1568060D01*
X740340Y-1569780D01*
X745620Y-1570840D01*
G37*
G36*
X151000Y-1471200D02*
G01*
X156380Y-1470840D01*
X161660Y-1469780D01*
X166759Y-1468060D01*
X171600Y-1465680D01*
X176080Y-1462680D01*
X180120Y-1459120D01*
X183680Y-1455080D01*
X186680Y-1450600D01*
X189060Y-1445760D01*
X190780Y-1440660D01*
X191840Y-1435380D01*
X192200Y-1430000D01*
X191840Y-1424620D01*
X190780Y-1419340D01*
X189060Y-1414240D01*
X186680Y-1409400D01*
X183680Y-1404920D01*
X180120Y-1400880D01*
X176080Y-1397320D01*
X171600Y-1394319D01*
X166759Y-1391940D01*
X161660Y-1390220D01*
X156380Y-1389160D01*
X151000Y-1388800D01*
X145620Y-1389160D01*
X140340Y-1390220D01*
X135240Y-1391940D01*
X130399Y-1394319D01*
X125920Y-1397320D01*
X121880Y-1400880D01*
X118320Y-1404920D01*
X115320Y-1409400D01*
X112940Y-1414240D01*
X111220Y-1419340D01*
X110160Y-1424620D01*
X109800Y-1430000D01*
X110160Y-1435380D01*
X111220Y-1440660D01*
X112940Y-1445760D01*
X115320Y-1450600D01*
X118320Y-1455080D01*
X121880Y-1459120D01*
X125920Y-1462680D01*
X130399Y-1465680D01*
X135240Y-1468060D01*
X140340Y-1469780D01*
X145620Y-1470840D01*
G37*
G36*
X751000Y-1471200D02*
G01*
X756380Y-1470840D01*
X761660Y-1469780D01*
X766760Y-1468060D01*
X771600Y-1465680D01*
X776080Y-1462680D01*
X780120Y-1459120D01*
X783680Y-1455080D01*
X786680Y-1450600D01*
X789060Y-1445760D01*
X790780Y-1440660D01*
X791840Y-1435380D01*
X792200Y-1430000D01*
X791840Y-1424620D01*
X790780Y-1419340D01*
X789060Y-1414240D01*
X786680Y-1409400D01*
X783680Y-1404920D01*
X780120Y-1400880D01*
X776080Y-1397320D01*
X771600Y-1394319D01*
X766760Y-1391940D01*
X761660Y-1390220D01*
X756380Y-1389160D01*
X751000Y-1388800D01*
X745620Y-1389160D01*
X740340Y-1390220D01*
X735240Y-1391940D01*
X730400Y-1394319D01*
X725920Y-1397320D01*
X721880Y-1400880D01*
X718319Y-1404920D01*
X715320Y-1409400D01*
X712940Y-1414240D01*
X711220Y-1419340D01*
X710160Y-1424620D01*
X709800Y-1430000D01*
X710160Y-1435380D01*
X711220Y-1440660D01*
X712940Y-1445760D01*
X715320Y-1450600D01*
X718319Y-1455080D01*
X721880Y-1459120D01*
X725920Y-1462680D01*
X730400Y-1465680D01*
X735240Y-1468060D01*
X740340Y-1469780D01*
X745620Y-1470840D01*
G37*
G36*
X151000Y-1371200D02*
G01*
X156380Y-1370840D01*
X161660Y-1369780D01*
X166759Y-1368060D01*
X171600Y-1365680D01*
X176080Y-1362680D01*
X180120Y-1359120D01*
X183680Y-1355080D01*
X186680Y-1350600D01*
X189060Y-1345760D01*
X190780Y-1340660D01*
X191840Y-1335380D01*
X192200Y-1330000D01*
X191840Y-1324620D01*
X190780Y-1319340D01*
X189060Y-1314240D01*
X186680Y-1309400D01*
X183680Y-1304920D01*
X180120Y-1300880D01*
X176080Y-1297320D01*
X171600Y-1294319D01*
X166759Y-1291940D01*
X161660Y-1290220D01*
X156380Y-1289160D01*
X151000Y-1288800D01*
X145620Y-1289160D01*
X140340Y-1290220D01*
X135240Y-1291940D01*
X130399Y-1294319D01*
X125920Y-1297320D01*
X121880Y-1300880D01*
X118320Y-1304920D01*
X115320Y-1309400D01*
X112940Y-1314240D01*
X111220Y-1319340D01*
X110160Y-1324620D01*
X109800Y-1330000D01*
X110160Y-1335380D01*
X111220Y-1340660D01*
X112940Y-1345760D01*
X115320Y-1350600D01*
X118320Y-1355080D01*
X121880Y-1359120D01*
X125920Y-1362680D01*
X130399Y-1365680D01*
X135240Y-1368060D01*
X140340Y-1369780D01*
X145620Y-1370840D01*
G37*
G36*
X151000Y-1271200D02*
G01*
X156380Y-1270840D01*
X161660Y-1269780D01*
X166759Y-1268060D01*
X171600Y-1265680D01*
X176080Y-1262680D01*
X180120Y-1259120D01*
X183680Y-1255080D01*
X186680Y-1250600D01*
X189060Y-1245760D01*
X190780Y-1240660D01*
X191840Y-1235380D01*
X192200Y-1230000D01*
X191840Y-1224620D01*
X190780Y-1219340D01*
X189060Y-1214240D01*
X186680Y-1209400D01*
X183680Y-1204920D01*
X180120Y-1200880D01*
X176080Y-1197320D01*
X171600Y-1194320D01*
X166759Y-1191940D01*
X161660Y-1190220D01*
X156380Y-1189160D01*
X151000Y-1188800D01*
X145620Y-1189160D01*
X140340Y-1190220D01*
X135240Y-1191940D01*
X130399Y-1194320D01*
X125920Y-1197320D01*
X121880Y-1200880D01*
X118320Y-1204920D01*
X115320Y-1209400D01*
X112940Y-1214240D01*
X111220Y-1219340D01*
X110160Y-1224620D01*
X109800Y-1230000D01*
X110160Y-1235380D01*
X111220Y-1240660D01*
X112940Y-1245760D01*
X115320Y-1250600D01*
X118320Y-1255080D01*
X121880Y-1259120D01*
X125920Y-1262680D01*
X130399Y-1265680D01*
X135240Y-1268060D01*
X140340Y-1269780D01*
X145620Y-1270840D01*
G37*
G36*
X151000Y-1171200D02*
G01*
X156380Y-1170840D01*
X161660Y-1169780D01*
X166759Y-1168060D01*
X171600Y-1165680D01*
X176080Y-1162680D01*
X180120Y-1159120D01*
X183680Y-1155080D01*
X186680Y-1150600D01*
X189060Y-1145760D01*
X190780Y-1140660D01*
X191840Y-1135380D01*
X192200Y-1130000D01*
X191840Y-1124620D01*
X190780Y-1119340D01*
X189060Y-1114240D01*
X186680Y-1109400D01*
X183680Y-1104920D01*
X180120Y-1100880D01*
X176080Y-1097320D01*
X171600Y-1094320D01*
X166759Y-1091940D01*
X161660Y-1090220D01*
X156380Y-1089160D01*
X151000Y-1088800D01*
X145620Y-1089160D01*
X140340Y-1090220D01*
X135240Y-1091940D01*
X130399Y-1094320D01*
X125920Y-1097320D01*
X121880Y-1100880D01*
X118320Y-1104920D01*
X115320Y-1109400D01*
X112940Y-1114240D01*
X111220Y-1119340D01*
X110160Y-1124620D01*
X109800Y-1130000D01*
X110160Y-1135380D01*
X111220Y-1140660D01*
X112940Y-1145760D01*
X115320Y-1150600D01*
X118320Y-1155080D01*
X121880Y-1159120D01*
X125920Y-1162680D01*
X130399Y-1165680D01*
X135240Y-1168060D01*
X140340Y-1169780D01*
X145620Y-1170840D01*
G37*
G36*
X151000Y-1071200D02*
G01*
X156380Y-1070840D01*
X161660Y-1069780D01*
X166759Y-1068060D01*
X171600Y-1065680D01*
X176080Y-1062680D01*
X180120Y-1059120D01*
X183680Y-1055080D01*
X186680Y-1050600D01*
X189060Y-1045759D01*
X190780Y-1040660D01*
X191840Y-1035380D01*
X192200Y-1030000D01*
X191840Y-1024620D01*
X190780Y-1019340D01*
X189060Y-1014240D01*
X186680Y-1009400D01*
X183680Y-1004920D01*
X180120Y-1000879D01*
X176080Y-997320D01*
X171600Y-994320D01*
X166759Y-991940D01*
X161660Y-990220D01*
X156380Y-989160D01*
X151000Y-988800D01*
X145620Y-989160D01*
X140340Y-990220D01*
X135240Y-991940D01*
X130399Y-994320D01*
X125920Y-997320D01*
X121880Y-1000879D01*
X118320Y-1004920D01*
X115320Y-1009400D01*
X112940Y-1014240D01*
X111220Y-1019340D01*
X110160Y-1024620D01*
X109800Y-1030000D01*
X110160Y-1035380D01*
X111220Y-1040660D01*
X112940Y-1045759D01*
X115320Y-1050600D01*
X118320Y-1055080D01*
X121880Y-1059120D01*
X125920Y-1062680D01*
X130399Y-1065680D01*
X135240Y-1068060D01*
X140340Y-1069780D01*
X145620Y-1070840D01*
G37*
G36*
X151000Y-971200D02*
G01*
X156380Y-970840D01*
X161660Y-969780D01*
X166759Y-968060D01*
X171600Y-965680D01*
X176080Y-962680D01*
X180120Y-959120D01*
X183680Y-955080D01*
X186680Y-950600D01*
X189060Y-945759D01*
X190780Y-940660D01*
X191840Y-935380D01*
X192200Y-930000D01*
X191840Y-924620D01*
X190780Y-919340D01*
X189060Y-914240D01*
X186680Y-909400D01*
X183680Y-904920D01*
X180120Y-900879D01*
X176080Y-897320D01*
X171600Y-894320D01*
X166759Y-891940D01*
X161660Y-890220D01*
X156380Y-889160D01*
X151000Y-888800D01*
X145620Y-889160D01*
X140340Y-890220D01*
X135240Y-891940D01*
X130399Y-894320D01*
X125920Y-897320D01*
X121880Y-900879D01*
X118320Y-904920D01*
X115320Y-909400D01*
X112940Y-914240D01*
X111220Y-919340D01*
X110160Y-924620D01*
X109800Y-930000D01*
X110160Y-935380D01*
X111220Y-940660D01*
X112940Y-945759D01*
X115320Y-950600D01*
X118320Y-955080D01*
X121880Y-959120D01*
X125920Y-962680D01*
X130399Y-965680D01*
X135240Y-968060D01*
X140340Y-969780D01*
X145620Y-970840D01*
G37*
G36*
X268100Y-958160D02*
G01*
X271700Y-958000D01*
X275240Y-957200D01*
X278560Y-955780D01*
X281580Y-953780D01*
X284200Y-951280D01*
X285400Y-949960D01*
X286520Y-949400D01*
X287740Y-949200D01*
X296880Y-949200D01*
X299500Y-948920D01*
X301860Y-948080D01*
X303980Y-946760D01*
X305000Y-945840D01*
X332840Y-918000D01*
X334480Y-915960D01*
X335560Y-913700D01*
X336120Y-911260D01*
X336200Y-909880D01*
X336200Y-906300D01*
X336500Y-904760D01*
X337380Y-903460D01*
X353459Y-887380D01*
X354760Y-886500D01*
X356300Y-886200D01*
X394880Y-886200D01*
X397500Y-885920D01*
X399860Y-885080D01*
X401980Y-883760D01*
X403000Y-882840D01*
X440500Y-845340D01*
X441700Y-844520D01*
X443120Y-844180D01*
X444560Y-844360D01*
X445500Y-844680D01*
X449099Y-845160D01*
X452700Y-845000D01*
X456240Y-844200D01*
X459560Y-842780D01*
X462580Y-840780D01*
X465200Y-838280D01*
X467320Y-835360D01*
X468900Y-832099D01*
X469860Y-828600D01*
X470180Y-825000D01*
X469860Y-821400D01*
X468900Y-817900D01*
X467320Y-814640D01*
X465200Y-811720D01*
X462580Y-809220D01*
X459560Y-807220D01*
X456240Y-805800D01*
X452700Y-805000D01*
X449099Y-804840D01*
X445500Y-805320D01*
X442060Y-806440D01*
X438880Y-808160D01*
X436060Y-810420D01*
X433680Y-813139D01*
X431820Y-816240D01*
X430540Y-819640D01*
X429880Y-823280D01*
X429500Y-824419D01*
X428780Y-825380D01*
X391540Y-862620D01*
X390240Y-863500D01*
X388700Y-863800D01*
X350120Y-863800D01*
X347500Y-864080D01*
X345140Y-864920D01*
X343020Y-866240D01*
X342000Y-867159D01*
X317160Y-892000D01*
X315520Y-894040D01*
X314440Y-896300D01*
X313880Y-898740D01*
X313800Y-900120D01*
X313800Y-903700D01*
X313500Y-905240D01*
X312620Y-906540D01*
X293540Y-925620D01*
X292240Y-926500D01*
X290700Y-926800D01*
X287740Y-926800D01*
X286520Y-926600D01*
X285400Y-926040D01*
X284200Y-924720D01*
X281580Y-922220D01*
X278560Y-920220D01*
X275240Y-918800D01*
X271700Y-918000D01*
X268100Y-917840D01*
X264500Y-918319D01*
X261060Y-919440D01*
X257880Y-921160D01*
X255060Y-923420D01*
X252680Y-926140D01*
X250820Y-929240D01*
X249540Y-932640D01*
X248900Y-936200D01*
X248900Y-939800D01*
X249540Y-943360D01*
X250820Y-946760D01*
X252680Y-949860D01*
X255060Y-952580D01*
X257880Y-954840D01*
X261060Y-956560D01*
X264500Y-957680D01*
G37*
G36*
X151000Y-871200D02*
G01*
X156380Y-870840D01*
X161660Y-869780D01*
X166759Y-868060D01*
X171600Y-865680D01*
X176080Y-862680D01*
X180120Y-859120D01*
X183680Y-855080D01*
X186680Y-850600D01*
X189060Y-845759D01*
X190780Y-840660D01*
X191840Y-835380D01*
X192200Y-830000D01*
X191840Y-824620D01*
X190780Y-819340D01*
X189060Y-814240D01*
X186680Y-809400D01*
X183680Y-804920D01*
X180120Y-800879D01*
X176080Y-797320D01*
X171600Y-794320D01*
X166759Y-791940D01*
X161660Y-790220D01*
X156380Y-789160D01*
X151000Y-788800D01*
X145620Y-789160D01*
X140340Y-790220D01*
X135240Y-791940D01*
X130399Y-794320D01*
X125920Y-797320D01*
X121880Y-800879D01*
X118320Y-804920D01*
X115320Y-809400D01*
X112940Y-814240D01*
X111220Y-819340D01*
X110160Y-824620D01*
X109800Y-830000D01*
X110160Y-835380D01*
X111220Y-840660D01*
X112940Y-845759D01*
X115320Y-850600D01*
X118320Y-855080D01*
X121880Y-859120D01*
X125920Y-862680D01*
X130399Y-865680D01*
X135240Y-868060D01*
X140340Y-869780D01*
X145620Y-870840D01*
G37*
G36*
X151000Y-771200D02*
G01*
X156380Y-770840D01*
X161660Y-769780D01*
X166759Y-768060D01*
X171600Y-765680D01*
X176080Y-762680D01*
X180120Y-759120D01*
X183680Y-755080D01*
X186680Y-750600D01*
X189060Y-745759D01*
X190780Y-740660D01*
X191840Y-735380D01*
X192200Y-730000D01*
X191840Y-724620D01*
X190780Y-719340D01*
X189060Y-714240D01*
X186680Y-709400D01*
X183680Y-704920D01*
X180120Y-700879D01*
X176080Y-697320D01*
X171600Y-694320D01*
X166759Y-691940D01*
X161660Y-690220D01*
X156380Y-689160D01*
X151000Y-688800D01*
X145620Y-689160D01*
X140340Y-690220D01*
X135240Y-691940D01*
X130399Y-694320D01*
X125920Y-697320D01*
X121880Y-700879D01*
X118320Y-704920D01*
X115320Y-709400D01*
X112940Y-714240D01*
X111220Y-719340D01*
X110160Y-724620D01*
X109800Y-730000D01*
X110160Y-735380D01*
X111220Y-740660D01*
X112940Y-745759D01*
X115320Y-750600D01*
X118320Y-755080D01*
X121880Y-759120D01*
X125920Y-762680D01*
X130399Y-765680D01*
X135240Y-768060D01*
X140340Y-769780D01*
X145620Y-770840D01*
G37*

%LPD*%
G36*
X213000Y-710000D02*
G01*
X213000Y-860000D01*
X383000Y-861000D01*
X383000Y-710000D01*
G37*
D10*
X490999Y-240000D02*
G01*
X490999Y-460000D01*
X455999Y-495000D01*
X455999Y-530000D01*
X611001Y-495000D02*
G01*
X590000Y-473998D01*
X590000Y-245000D01*
X390999Y-520000D02*
G01*
X335999Y-520000D01*
X311500Y-495500D01*
X311500Y-240000D01*
X412262Y-240000D02*
G01*
X412262Y-496262D01*
X425999Y-510000D01*
D11*
X695000Y-1410000D02*
G01*
X695000Y-1496489D01*
X628245Y-1563245D01*
D12*
X409000Y-1060000D02*
G01*
X409000Y-1050000D01*
X421999Y-1036999D01*
X461999Y-1036999D01*
X506999Y-991999D01*
X506999Y-886999D01*
X516999Y-876999D01*
D11*
X260000Y-1060000D02*
G01*
X230000Y-1030000D01*
X230000Y-930000D01*
X250999Y-909000D01*
X289000Y-909000D01*
D12*
X414000Y-584000D02*
G01*
X416999Y-584000D01*
X429000Y-571999D01*
X429000Y-551999D01*
X396999Y-520000D01*
X390999Y-520000D01*
X300999Y-630000D02*
G01*
X330000Y-600999D01*
X360000Y-600999D01*
X376999Y-584000D01*
X420000Y-584000D01*
D13*
X310000Y-1580000D02*
G01*
X570000Y-1580000D01*
D11*
X285000Y-1545000D02*
G01*
X610000Y-1545000D01*
X670000Y-1605000D01*
X670000Y-1715000D01*
D13*
X310000Y-1580000D02*
G01*
X285000Y-1580000D01*
X260000Y-1555000D01*
X260000Y-1450000D01*
X330000Y-1380000D01*
X330000Y-1166001D01*
X328998Y-1165000D01*
D14*
X640000Y-1280000D02*
G01*
X640000Y-1270000D01*
X535000Y-1165000D01*
X535000Y-1115000D01*
X500000Y-1080000D01*
X465000Y-1510000D02*
G01*
X575000Y-1400000D01*
X575000Y-1330000D01*
X625000Y-1280000D01*
X640000Y-1280000D01*
D12*
X516999Y-876999D02*
G01*
X516999Y-776999D01*
X425000Y-685000D01*
X255999Y-685000D01*
X200999Y-630000D01*
D11*
X451999Y-775000D02*
G01*
X480000Y-803000D01*
X480000Y-915000D01*
X370000Y-1025000D01*
X366999Y-1025000D01*
X358000Y-1033998D01*
D14*
X269000Y-938000D02*
G01*
X296999Y-938000D01*
X325000Y-910000D01*
X325000Y-900000D01*
X350000Y-875000D01*
X395000Y-875000D01*
X445000Y-825000D01*
X450000Y-825000D01*
D11*
X220000Y-690000D02*
G01*
X288998Y-758998D01*
X288998Y-908998D01*
X285000Y-1460000D02*
G01*
X365000Y-1380000D01*
X365000Y-1220000D01*
X440000Y-1145000D01*
X440000Y-1060999D01*
X440999Y-1060000D01*
X285000Y-1460000D02*
G01*
X285000Y-1515000D01*
X358000Y-1034000D02*
G01*
X378000Y-1054000D01*
X378000Y-1073000D01*
X395000Y-1090000D01*
X430000Y-1090000D01*
X440999Y-1079000D01*
X440999Y-1060000D01*
X260000Y-1060000D02*
G01*
X301999Y-1060000D01*
X306999Y-1055000D01*
X470000Y-1060000D02*
G01*
X500000Y-1030000D01*
X510000Y-1030000D01*
X515000Y-1025000D01*
X440999Y-1060000D02*
G01*
X470000Y-1060000D01*
X306999Y-1055000D02*
G01*
X326999Y-1035000D01*
X356999Y-1035000D01*
X358000Y-1034000D01*
X285000Y-1545000D02*
G01*
X285000Y-1515000D01*
D12*
X441001Y-593000D02*
G01*
X441001Y-596001D01*
X451999Y-606999D01*
X451999Y-646999D01*
X471999Y-666999D01*
X471999Y-698998D01*
X616001Y-843000D01*
X616001Y-1200000D01*
X676999Y-1260999D01*
X676999Y-1291999D01*
X646999Y-1321999D01*
X621999Y-1321999D01*
X611001Y-1332997D01*
X611001Y-1351001D01*
X664000Y-1404000D01*
X664000Y-1438000D01*
X450000Y-675000D02*
G01*
X450000Y-693000D01*
X605000Y-848000D01*
X605000Y-1205000D01*
X666001Y-1266001D01*
X666001Y-1286999D01*
X641999Y-1311001D01*
X616999Y-1311001D01*
X600000Y-1328000D01*
X600000Y-1413000D01*
X658998Y-1471999D01*
D13*
X560000Y-1120000D02*
G01*
X560000Y-955000D01*
X530000Y-925000D01*
X640000Y-1280000D02*
G01*
X598000Y-1280000D01*
X568000Y-1250000D01*
X531698Y-1250000D01*
X640000Y-1280000D02*
G01*
X601999Y-1280000D01*
X566999Y-1315000D01*
X531698Y-1315000D01*
D12*
X665000Y-1219000D02*
G01*
X675000Y-1209000D01*
X675000Y-781999D01*
X558998Y-666001D01*
X630999Y-1341999D02*
G01*
X643000Y-1341999D01*
X688000Y-1296999D01*
X688000Y-716999D01*
X600999Y-630000D01*
D15*
X493000Y-690999D02*
G01*
X504000Y-690999D01*
X545000Y-650000D01*
X545000Y-610000D01*
X520999Y-585999D01*
X489000Y-585999D01*
X479000Y-575999D01*
X479000Y-541999D01*
X490999Y-530000D01*
D13*
X441700Y-1250000D02*
G01*
X408299Y-1250000D01*
X441700Y-1315000D02*
G01*
X408299Y-1315000D01*
X408299Y-1250000D02*
G01*
X365000Y-1250000D01*
X365000Y-1315000D01*
X408299Y-1315000D01*
X441700Y-1250000D02*
G01*
X498299Y-1250000D01*
X441700Y-1315000D02*
G01*
X498299Y-1315000D01*
D16*
G01*
X590000Y-245000D03*
D17*
G01*
X490999Y-260000D03*
G01*
X410999Y-260000D03*
D16*
G01*
X311469Y-240000D03*
D18*
G01*
X408299Y-1250000D03*
G01*
X441700Y-1250000D03*
G01*
X531700Y-1250000D03*
G01*
X498299Y-1250000D03*
G01*
X408299Y-1315000D03*
G01*
X441700Y-1315000D03*
G01*
X531700Y-1315000D03*
G01*
X498299Y-1315000D03*
D19*
G01*
X488000Y-53000D03*
D20*
G01*
X350999Y-1830000D03*
G01*
X450999Y-1830000D03*
G01*
X550999Y-1830000D03*
G01*
X650999Y-1830000D03*
G01*
X750999Y-1830000D03*
G01*
X750999Y-1730000D03*
G01*
X750999Y-1630000D03*
G01*
X750999Y-1530000D03*
G01*
X750999Y-1430000D03*
G01*
X750999Y-1330000D03*
G01*
X750999Y-1230000D03*
G01*
X750999Y-1130000D03*
G01*
X750999Y-1030000D03*
G01*
X750999Y-930000D03*
G01*
X750999Y-830000D03*
G01*
X750999Y-730000D03*
G01*
X700999Y-630000D03*
G01*
X600999Y-630000D03*
G01*
X500999Y-630000D03*
G01*
X400999Y-630000D03*
G01*
X300999Y-630000D03*
G01*
X150999Y-1830000D03*
G01*
X150999Y-1730000D03*
G01*
X150999Y-1630000D03*
G01*
X150999Y-1530000D03*
G01*
X150999Y-1430000D03*
G01*
X150999Y-1330000D03*
G01*
X150999Y-1230000D03*
G01*
X150999Y-1130000D03*
G01*
X150999Y-1030000D03*
G01*
X150999Y-930000D03*
G01*
X150999Y-830000D03*
G01*
X150999Y-730000D03*
G01*
X200999Y-630000D03*
G01*
X250000Y-1830000D03*
D21*
G01*
X425999Y-510000D03*
G01*
X455999Y-530000D03*
G01*
X440999Y-593000D03*
G01*
X490999Y-530000D03*
G01*
X610999Y-495000D03*
G01*
X329000Y-1165000D03*
D22*
G01*
X289000Y-909000D03*
G01*
X260000Y-1060000D03*
D21*
G01*
X306999Y-1055000D03*
G01*
X358000Y-1034000D03*
D22*
G01*
X440999Y-1060000D03*
G01*
X269000Y-938000D03*
D21*
G01*
X516999Y-876999D03*
D22*
G01*
X285000Y-1460000D03*
G01*
X285000Y-1515000D03*
G01*
X285000Y-1545000D03*
D21*
G01*
X493000Y-690999D03*
G01*
X560000Y-1120000D03*
G01*
X665000Y-1219000D03*
D22*
G01*
X640000Y-1280000D03*
D21*
G01*
X630999Y-1341999D03*
G01*
X409000Y-1060000D03*
D22*
G01*
X470000Y-1060000D03*
G01*
X515000Y-1025000D03*
D21*
G01*
X450000Y-675000D03*
G01*
X559000Y-665999D03*
G01*
X664000Y-1438000D03*
G01*
X659000Y-1471999D03*
G01*
X530000Y-925000D03*
D22*
G01*
X640000Y-915000D03*
G01*
X220000Y-690000D03*
G01*
X483000Y-775000D03*
G01*
X451999Y-775000D03*
G01*
X450000Y-825000D03*
G01*
X465000Y-1510000D03*
G01*
X500000Y-1080000D03*
G01*
X670000Y-1715000D03*
D21*
G01*
X310000Y-1580000D03*
G01*
X570000Y-1580000D03*
G01*
X695000Y-1410000D03*
M02*
