G04 Layer: BottomSilkscreenLayer*
G04 EasyEDA v6.5.22, 2022-11-29 03:43:51*
G04 8ec36cdae1d24b8a87879ab1f9b651ff,67344a67363949849f01d11c0c7cf016,10*
G04 Gerber Generator version 0.2*
G04 Scale: 100 percent, Rotated: No, Reflected: No *
G04 Dimensions in inches *
G04 leading zeros omitted , absolute positions ,3 integer and 6 decimal *
%FSLAX36Y36*%
%MOIN*%

%ADD10C,0.0050*%
%ADD11C,0.0040*%
%ADD12C,0.0060*%

%LPD*%
G36*
X551900Y-1430200D02*
G01*
X550040Y-1430360D01*
X548400Y-1430820D01*
X546960Y-1431560D01*
X545740Y-1432540D01*
X544780Y-1433800D01*
X544080Y-1435260D01*
X543640Y-1436940D01*
X543500Y-1438800D01*
X543720Y-1441020D01*
X544340Y-1443260D01*
X545340Y-1445520D01*
X546700Y-1447800D01*
X548400Y-1450120D01*
X550420Y-1452500D01*
X552720Y-1454920D01*
X555300Y-1457400D01*
X550500Y-1457200D01*
X542100Y-1457200D01*
X542100Y-1460000D01*
X560200Y-1460000D01*
X560200Y-1458000D01*
X556920Y-1455060D01*
X554120Y-1452320D01*
X551800Y-1449740D01*
X549920Y-1447320D01*
X548500Y-1445040D01*
X547480Y-1442900D01*
X546900Y-1440860D01*
X546700Y-1438899D01*
X547020Y-1436480D01*
X548020Y-1434540D01*
X549740Y-1433260D01*
X552200Y-1432800D01*
X554000Y-1433080D01*
X555660Y-1433839D01*
X557140Y-1434960D01*
X558500Y-1436300D01*
X560400Y-1434500D01*
X558560Y-1432740D01*
X556600Y-1431380D01*
X554400Y-1430500D01*
G37*
G36*
X529900Y-1430200D02*
G01*
X528040Y-1430360D01*
X526400Y-1430820D01*
X524960Y-1431560D01*
X523760Y-1432540D01*
X522780Y-1433800D01*
X522080Y-1435260D01*
X521640Y-1436940D01*
X521500Y-1438800D01*
X521719Y-1441020D01*
X522340Y-1443260D01*
X523360Y-1445520D01*
X524740Y-1447800D01*
X526440Y-1450120D01*
X528460Y-1452500D01*
X530760Y-1454920D01*
X533300Y-1457400D01*
X528500Y-1457200D01*
X520100Y-1457200D01*
X520100Y-1460000D01*
X538200Y-1460000D01*
X538200Y-1458000D01*
X534940Y-1455060D01*
X532160Y-1452320D01*
X529840Y-1449740D01*
X527960Y-1447320D01*
X526520Y-1445040D01*
X525500Y-1442900D01*
X524900Y-1440860D01*
X524700Y-1438899D01*
X525040Y-1436480D01*
X526080Y-1434540D01*
X527820Y-1433260D01*
X530300Y-1432800D01*
X532040Y-1433080D01*
X533660Y-1433839D01*
X535160Y-1434960D01*
X536500Y-1436300D01*
X538400Y-1434500D01*
X536620Y-1432740D01*
X534680Y-1431380D01*
X532460Y-1430500D01*
G37*
G36*
X504700Y-1430700D02*
G01*
X504700Y-1457300D01*
X498800Y-1457300D01*
X498800Y-1460000D01*
X514500Y-1460000D01*
X514500Y-1457300D01*
X508000Y-1457300D01*
X508000Y-1434800D01*
X513100Y-1434800D01*
X513100Y-1432700D01*
X511340Y-1432340D01*
X509780Y-1431879D01*
X508400Y-1431339D01*
X507200Y-1430700D01*
G37*
G36*
X482800Y-1430700D02*
G01*
X482800Y-1457300D01*
X476800Y-1457300D01*
X476800Y-1460000D01*
X492600Y-1460000D01*
X492600Y-1457300D01*
X486000Y-1457300D01*
X486000Y-1434800D01*
X491200Y-1434800D01*
X491200Y-1432700D01*
X489400Y-1432340D01*
X487819Y-1431879D01*
X486440Y-1431339D01*
X485200Y-1430700D01*
G37*
G36*
X460800Y-1430700D02*
G01*
X460800Y-1457300D01*
X454799Y-1457300D01*
X454799Y-1460000D01*
X470600Y-1460000D01*
X470600Y-1457300D01*
X464000Y-1457300D01*
X464000Y-1434800D01*
X469200Y-1434800D01*
X469200Y-1432700D01*
X467440Y-1432340D01*
X465880Y-1431879D01*
X464500Y-1431339D01*
X463300Y-1430700D01*
G37*
G36*
X435500Y-1430700D02*
G01*
X435500Y-1434500D01*
X438600Y-1434500D01*
X440900Y-1438800D01*
X448000Y-1449199D01*
X438600Y-1449199D01*
X438579Y-1438500D01*
X438400Y-1434500D01*
X435500Y-1434500D01*
X435500Y-1449199D01*
X431500Y-1449199D01*
X431500Y-1451800D01*
X435500Y-1451800D01*
X435500Y-1460000D01*
X438600Y-1460000D01*
X438600Y-1451800D01*
X451400Y-1451800D01*
X451400Y-1449700D01*
X439000Y-1430700D01*
G37*
G36*
X400400Y-1430700D02*
G01*
X409200Y-1448500D01*
X409200Y-1460000D01*
X412500Y-1460000D01*
X412500Y-1448500D01*
X421300Y-1430700D01*
X417800Y-1430700D01*
X410900Y-1445600D01*
X410800Y-1445600D01*
X409219Y-1442400D01*
X407800Y-1439199D01*
X403800Y-1430700D01*
G37*
G36*
X387600Y-1430700D02*
G01*
X387600Y-1451600D01*
X387700Y-1453380D01*
X388040Y-1455060D01*
X388600Y-1456560D01*
X389420Y-1457880D01*
X390500Y-1458980D01*
X391860Y-1459800D01*
X393519Y-1460320D01*
X395500Y-1460500D01*
X398020Y-1460220D01*
X400160Y-1459379D01*
X401960Y-1457960D01*
X403400Y-1456000D01*
X401000Y-1454300D01*
X399900Y-1455820D01*
X398700Y-1456860D01*
X397340Y-1457420D01*
X395800Y-1457600D01*
X393640Y-1457240D01*
X392120Y-1456120D01*
X391200Y-1454139D01*
X390900Y-1451200D01*
X390900Y-1430700D01*
G37*
G36*
X362800Y-1430700D02*
G01*
X371599Y-1448500D01*
X371599Y-1460000D01*
X374799Y-1460000D01*
X374799Y-1448500D01*
X383600Y-1430700D01*
X380100Y-1430700D01*
X373200Y-1445600D01*
X373100Y-1445600D01*
X371520Y-1442400D01*
X366200Y-1430700D01*
G37*
G36*
X439000Y-870000D02*
G01*
X436659Y-870140D01*
X434440Y-870480D01*
X432360Y-871020D01*
X430439Y-871760D01*
X428680Y-872700D01*
X427100Y-873860D01*
X425720Y-875180D01*
X424580Y-876700D01*
X423640Y-878420D01*
X422960Y-880300D01*
X422540Y-882360D01*
X422400Y-884599D01*
X422600Y-887220D01*
X423160Y-889599D01*
X424060Y-891720D01*
X425280Y-893620D01*
X426820Y-895260D01*
X428600Y-896680D01*
X430640Y-897860D01*
X432900Y-898800D01*
X432900Y-899100D01*
X430379Y-899880D01*
X428040Y-900980D01*
X425920Y-902420D01*
X424060Y-904160D01*
X422540Y-906220D01*
X421380Y-908560D01*
X420660Y-911200D01*
X420400Y-914100D01*
X420560Y-916620D01*
X421060Y-918940D01*
X421840Y-921080D01*
X422900Y-923020D01*
X424219Y-924760D01*
X425780Y-926300D01*
X427540Y-927620D01*
X429500Y-928700D01*
X431620Y-929560D01*
X433900Y-930200D01*
X436300Y-930580D01*
X438800Y-930699D01*
X442060Y-930520D01*
X445020Y-930020D01*
X447680Y-929260D01*
X450080Y-928240D01*
X452239Y-927039D01*
X454180Y-925680D01*
X455880Y-924220D01*
X457400Y-922700D01*
X454000Y-918500D01*
X452680Y-919800D01*
X451240Y-921040D01*
X449660Y-922200D01*
X447960Y-923220D01*
X446060Y-924080D01*
X443980Y-924740D01*
X441700Y-925160D01*
X439200Y-925300D01*
X436640Y-925100D01*
X434300Y-924500D01*
X432220Y-923540D01*
X430439Y-922220D01*
X428980Y-920580D01*
X427900Y-918640D01*
X427239Y-916400D01*
X427000Y-913900D01*
X427100Y-912159D01*
X427420Y-910500D01*
X427980Y-908980D01*
X428780Y-907560D01*
X429820Y-906280D01*
X431160Y-905160D01*
X432760Y-904160D01*
X434660Y-903340D01*
X436880Y-902680D01*
X439400Y-902200D01*
X442280Y-901900D01*
X445500Y-901800D01*
X445500Y-896700D01*
X442620Y-896600D01*
X440040Y-896300D01*
X437780Y-895800D01*
X435800Y-895140D01*
X434099Y-894320D01*
X432680Y-893340D01*
X431500Y-892220D01*
X430560Y-891000D01*
X429860Y-889659D01*
X429380Y-888220D01*
X429099Y-886700D01*
X429000Y-885100D01*
X429180Y-883000D01*
X429720Y-881100D01*
X430600Y-879440D01*
X431780Y-878020D01*
X433280Y-876900D01*
X435040Y-876040D01*
X437040Y-875500D01*
X439300Y-875300D01*
X442780Y-875800D01*
X446019Y-877060D01*
X448960Y-878900D01*
X451599Y-881200D01*
X455200Y-877000D01*
X453540Y-875580D01*
X451820Y-874280D01*
X449980Y-873100D01*
X448040Y-872080D01*
X445980Y-871240D01*
X443800Y-870580D01*
X441480Y-870180D01*
G37*
G36*
X592400Y-870100D02*
G01*
X589820Y-870240D01*
X587360Y-870639D01*
X585000Y-871280D01*
X582780Y-872120D01*
X580700Y-873180D01*
X578760Y-874400D01*
X577000Y-875780D01*
X575400Y-877300D01*
X578900Y-881500D01*
X580280Y-880280D01*
X581740Y-879200D01*
X583280Y-878240D01*
X584900Y-877420D01*
X586620Y-876780D01*
X588440Y-876300D01*
X590360Y-876000D01*
X592400Y-875900D01*
X594840Y-876060D01*
X597060Y-876540D01*
X599000Y-877300D01*
X600660Y-878340D01*
X601980Y-879640D01*
X602980Y-881180D01*
X603600Y-882940D01*
X603800Y-884900D01*
X603560Y-886979D01*
X602900Y-888740D01*
X601880Y-890240D01*
X600580Y-891500D01*
X599080Y-892580D01*
X597440Y-893500D01*
X594000Y-895100D01*
X585500Y-898700D01*
X583060Y-899840D01*
X580780Y-901140D01*
X578720Y-902620D01*
X576940Y-904320D01*
X575460Y-906300D01*
X574340Y-908600D01*
X573640Y-911260D01*
X573400Y-914300D01*
X573560Y-916560D01*
X574020Y-918720D01*
X574780Y-920740D01*
X575820Y-922640D01*
X577120Y-924380D01*
X578700Y-925960D01*
X580520Y-927320D01*
X582580Y-928500D01*
X584880Y-929440D01*
X587380Y-930120D01*
X590100Y-930560D01*
X593000Y-930699D01*
X596080Y-930540D01*
X599020Y-930100D01*
X601800Y-929380D01*
X604440Y-928379D01*
X606920Y-927120D01*
X609240Y-925639D01*
X611400Y-923920D01*
X613400Y-922000D01*
X609400Y-917500D01*
X607720Y-919120D01*
X605900Y-920560D01*
X603960Y-921820D01*
X601920Y-922880D01*
X599780Y-923740D01*
X597580Y-924380D01*
X595300Y-924760D01*
X593000Y-924900D01*
X590140Y-924720D01*
X587620Y-924160D01*
X585400Y-923280D01*
X583560Y-922099D01*
X582080Y-920639D01*
X581000Y-918920D01*
X580320Y-916960D01*
X580100Y-914800D01*
X580300Y-912640D01*
X580880Y-910800D01*
X581780Y-909280D01*
X583000Y-907980D01*
X584480Y-906860D01*
X586180Y-905860D01*
X590100Y-904000D01*
X598600Y-900300D01*
X600660Y-899320D01*
X602740Y-898160D01*
X604740Y-896780D01*
X606580Y-895140D01*
X608160Y-893220D01*
X609400Y-890980D01*
X610220Y-888379D01*
X610500Y-885400D01*
X610340Y-883240D01*
X609880Y-881180D01*
X609140Y-879260D01*
X608120Y-877480D01*
X606860Y-875860D01*
X605360Y-874419D01*
X603640Y-873160D01*
X601720Y-872080D01*
X599620Y-871240D01*
X597360Y-870620D01*
X594940Y-870240D01*
G37*
G36*
X395600Y-870100D02*
G01*
X393080Y-870240D01*
X390740Y-870639D01*
X388579Y-871320D01*
X386620Y-872220D01*
X384860Y-873379D01*
X383300Y-874760D01*
X381960Y-876340D01*
X380840Y-878139D01*
X379960Y-880140D01*
X379320Y-882320D01*
X378940Y-884680D01*
X378800Y-887200D01*
X378880Y-888980D01*
X379080Y-890780D01*
X379420Y-892560D01*
X379880Y-894360D01*
X380480Y-896160D01*
X381200Y-897980D01*
X382980Y-901620D01*
X385240Y-905300D01*
X387920Y-909040D01*
X391000Y-912820D01*
X394460Y-916660D01*
X398260Y-920600D01*
X402400Y-924599D01*
X397560Y-924240D01*
X392800Y-924100D01*
X376000Y-924100D01*
X376000Y-929700D01*
X412200Y-929700D01*
X412200Y-925800D01*
X406900Y-921040D01*
X402220Y-916520D01*
X398120Y-912240D01*
X394620Y-908180D01*
X391680Y-904320D01*
X389320Y-900660D01*
X388340Y-898880D01*
X387500Y-897140D01*
X386800Y-895460D01*
X386220Y-893800D01*
X385760Y-892180D01*
X385260Y-889020D01*
X385200Y-887500D01*
X385379Y-885000D01*
X385880Y-882700D01*
X386740Y-880639D01*
X387939Y-878860D01*
X389500Y-877420D01*
X391400Y-876320D01*
X393680Y-875639D01*
X396300Y-875400D01*
X398100Y-875540D01*
X399840Y-875939D01*
X401520Y-876560D01*
X403120Y-877380D01*
X404640Y-878400D01*
X406100Y-879580D01*
X407480Y-880879D01*
X408800Y-882300D01*
X412600Y-878700D01*
X410820Y-876840D01*
X408980Y-875160D01*
X407080Y-873700D01*
X405080Y-872460D01*
X402939Y-871460D01*
X400680Y-870720D01*
X398240Y-870260D01*
G37*
G36*
X526600Y-871100D02*
G01*
X526600Y-876700D01*
X544500Y-876700D01*
X544500Y-929700D01*
X551200Y-929700D01*
X551200Y-876700D01*
X569000Y-876700D01*
X569000Y-871100D01*
G37*
G36*
X467900Y-871100D02*
G01*
X467900Y-929700D01*
X474099Y-929700D01*
X474080Y-893940D01*
X473680Y-885200D01*
X473300Y-878900D01*
X473600Y-878900D01*
X478200Y-892200D01*
X489700Y-923700D01*
X494200Y-923700D01*
X505800Y-892200D01*
X510400Y-878900D01*
X510700Y-878900D01*
X509980Y-891860D01*
X509900Y-895900D01*
X509900Y-929700D01*
X515900Y-929700D01*
X515900Y-871100D01*
X507800Y-871100D01*
X496200Y-903100D01*
X492000Y-915600D01*
X491599Y-915600D01*
X487500Y-903100D01*
X476100Y-871100D01*
G37*
G36*
X415600Y-945000D02*
G01*
X413820Y-945300D01*
X412320Y-946200D01*
X411280Y-947620D01*
X410900Y-949500D01*
X411280Y-951280D01*
X412320Y-952680D01*
X413820Y-953580D01*
X415600Y-953900D01*
X417480Y-953580D01*
X418960Y-952680D01*
X419940Y-951280D01*
X420300Y-949500D01*
X419940Y-947620D01*
X418960Y-946200D01*
X417480Y-945300D01*
G37*
G36*
X345700Y-945000D02*
G01*
X343860Y-945300D01*
X342380Y-946200D01*
X341360Y-947620D01*
X341000Y-949500D01*
X341360Y-951280D01*
X342380Y-952680D01*
X343860Y-953580D01*
X345700Y-953900D01*
X347580Y-953580D01*
X349060Y-952680D01*
X350040Y-951280D01*
X350400Y-949500D01*
X350040Y-947620D01*
X349060Y-946200D01*
X347580Y-945300D01*
G37*
G36*
X594100Y-947800D02*
G01*
X591680Y-947860D01*
X589380Y-948020D01*
X587180Y-948280D01*
X585120Y-948680D01*
X583200Y-949200D01*
X581400Y-949860D01*
X579760Y-950639D01*
X578260Y-951580D01*
X576900Y-952660D01*
X575720Y-953880D01*
X574700Y-955280D01*
X573860Y-956820D01*
X573180Y-958560D01*
X572700Y-960460D01*
X572400Y-962540D01*
X572300Y-964800D01*
X578900Y-964800D01*
X579020Y-962720D01*
X579360Y-960879D01*
X579920Y-959280D01*
X580700Y-957880D01*
X581720Y-956700D01*
X582960Y-955699D01*
X584420Y-954880D01*
X586100Y-954260D01*
X588020Y-953780D01*
X590160Y-953439D01*
X592520Y-953259D01*
X603700Y-953199D01*
X603700Y-977300D01*
X594700Y-977300D01*
X592140Y-977220D01*
X589820Y-976979D01*
X587720Y-976560D01*
X585840Y-976000D01*
X584200Y-975240D01*
X582780Y-974320D01*
X581600Y-973199D01*
X580620Y-971900D01*
X579860Y-970420D01*
X579320Y-968740D01*
X579000Y-966880D01*
X578900Y-964800D01*
X572300Y-964800D01*
X572400Y-967020D01*
X572700Y-969080D01*
X573180Y-970980D01*
X573840Y-972740D01*
X574680Y-974360D01*
X575700Y-975819D01*
X576880Y-977140D01*
X578220Y-978319D01*
X579700Y-979360D01*
X581320Y-980260D01*
X583100Y-981000D01*
X585000Y-981620D01*
X587020Y-982099D01*
X589180Y-982440D01*
X591440Y-982640D01*
X603700Y-982700D01*
X603700Y-1006400D01*
X610300Y-1006400D01*
X610300Y-947800D01*
G37*
G36*
X434700Y-947800D02*
G01*
X434700Y-1006400D01*
X440800Y-1006400D01*
X440780Y-970639D01*
X440379Y-961900D01*
X440000Y-955600D01*
X440300Y-955600D01*
X445000Y-968900D01*
X456400Y-1000400D01*
X461000Y-1000400D01*
X472500Y-968900D01*
X477100Y-955600D01*
X477500Y-955600D01*
X476960Y-964140D01*
X476760Y-968560D01*
X476700Y-972600D01*
X476700Y-1006400D01*
X482700Y-1006400D01*
X482700Y-947800D01*
X474500Y-947800D01*
X461900Y-982940D01*
X458700Y-992300D01*
X458300Y-992300D01*
X454300Y-979800D01*
X442800Y-947800D01*
G37*
G36*
X542400Y-962099D02*
G01*
X541140Y-962140D01*
X540000Y-962280D01*
X538940Y-962560D01*
X537900Y-963000D01*
X539100Y-968700D01*
X541080Y-968160D01*
X543200Y-968000D01*
X544620Y-968120D01*
X546080Y-968540D01*
X547580Y-969240D01*
X549040Y-970280D01*
X550480Y-971680D01*
X551860Y-973439D01*
X553140Y-975600D01*
X554300Y-978199D01*
X554300Y-1006400D01*
X560800Y-1006400D01*
X560800Y-963199D01*
X555500Y-963199D01*
X554900Y-971100D01*
X554700Y-971100D01*
X553520Y-969160D01*
X552200Y-967420D01*
X550780Y-965879D01*
X549260Y-964580D01*
X547660Y-963520D01*
X545960Y-962740D01*
X544220Y-962260D01*
G37*
G36*
X514900Y-962099D02*
G01*
X512920Y-962200D01*
X511000Y-962480D01*
X509120Y-962960D01*
X507320Y-963620D01*
X505580Y-964460D01*
X503940Y-965480D01*
X502400Y-966680D01*
X500980Y-968060D01*
X499680Y-969599D01*
X498500Y-971320D01*
X497480Y-973180D01*
X496620Y-975220D01*
X495920Y-977420D01*
X495420Y-979760D01*
X495100Y-982260D01*
X495000Y-984900D01*
X501700Y-984900D01*
X501820Y-982400D01*
X502140Y-980040D01*
X502660Y-977860D01*
X503380Y-975840D01*
X504300Y-974020D01*
X505379Y-972380D01*
X506620Y-970980D01*
X508020Y-969800D01*
X509540Y-968860D01*
X511220Y-968160D01*
X513000Y-967740D01*
X514900Y-967600D01*
X516800Y-967740D01*
X518579Y-968160D01*
X520240Y-968860D01*
X521760Y-969800D01*
X523140Y-970980D01*
X524380Y-972380D01*
X525440Y-974020D01*
X526340Y-975840D01*
X527040Y-977860D01*
X527580Y-980040D01*
X527900Y-982400D01*
X528000Y-984900D01*
X527900Y-987380D01*
X527580Y-989700D01*
X527060Y-991880D01*
X526340Y-993860D01*
X525440Y-995660D01*
X524380Y-997280D01*
X523140Y-998660D01*
X521760Y-999840D01*
X520240Y-1000759D01*
X518579Y-1001440D01*
X516800Y-1001860D01*
X514900Y-1002000D01*
X513000Y-1001860D01*
X511220Y-1001440D01*
X509540Y-1000759D01*
X508020Y-999840D01*
X506620Y-998660D01*
X505379Y-997280D01*
X504300Y-995660D01*
X503380Y-993860D01*
X502660Y-991880D01*
X502140Y-989700D01*
X501820Y-987380D01*
X501700Y-984900D01*
X495000Y-984900D01*
X495100Y-987500D01*
X495420Y-989940D01*
X495920Y-992240D01*
X496620Y-994400D01*
X497480Y-996400D01*
X498500Y-998259D01*
X499680Y-999940D01*
X500980Y-1001480D01*
X502400Y-1002840D01*
X503940Y-1004020D01*
X505580Y-1005040D01*
X507320Y-1005879D01*
X509120Y-1006540D01*
X511000Y-1007020D01*
X512920Y-1007300D01*
X514900Y-1007400D01*
X516860Y-1007300D01*
X518800Y-1007020D01*
X520660Y-1006540D01*
X522460Y-1005879D01*
X524180Y-1005040D01*
X525820Y-1004020D01*
X527360Y-1002840D01*
X528780Y-1001480D01*
X530080Y-999940D01*
X531240Y-998259D01*
X532240Y-996400D01*
X533100Y-994400D01*
X533780Y-992240D01*
X534280Y-989940D01*
X534600Y-987500D01*
X534700Y-984900D01*
X534600Y-982260D01*
X534280Y-979760D01*
X533780Y-977420D01*
X533100Y-975220D01*
X532240Y-973180D01*
X531240Y-971320D01*
X530080Y-969599D01*
X528780Y-968060D01*
X527360Y-966680D01*
X525820Y-965480D01*
X524180Y-964460D01*
X522460Y-963620D01*
X520660Y-962960D01*
X518800Y-962480D01*
X516860Y-962200D01*
G37*
G36*
X376700Y-962099D02*
G01*
X374520Y-962220D01*
X372560Y-962580D01*
X370800Y-963180D01*
X369240Y-964020D01*
X367860Y-965080D01*
X366680Y-966380D01*
X365700Y-967920D01*
X364900Y-969680D01*
X364280Y-971680D01*
X363840Y-973900D01*
X363579Y-976340D01*
X363500Y-979000D01*
X363500Y-1006400D01*
X370000Y-1006400D01*
X370000Y-979800D01*
X370120Y-976880D01*
X370500Y-974380D01*
X371140Y-972320D01*
X372040Y-970639D01*
X373240Y-969380D01*
X374720Y-968500D01*
X376500Y-967980D01*
X378600Y-967800D01*
X380240Y-967920D01*
X381780Y-968240D01*
X383280Y-968800D01*
X384760Y-969580D01*
X386220Y-970560D01*
X387720Y-971760D01*
X390900Y-974800D01*
X390900Y-1006400D01*
X397400Y-1006400D01*
X397400Y-963199D01*
X392100Y-963199D01*
X391500Y-969500D01*
X391200Y-969500D01*
X389640Y-968000D01*
X388040Y-966620D01*
X386360Y-965360D01*
X384620Y-964260D01*
X382800Y-963360D01*
X380880Y-962680D01*
X378840Y-962240D01*
G37*
G36*
X412400Y-963199D02*
G01*
X412400Y-1006400D01*
X418900Y-1006400D01*
X418900Y-963199D01*
G37*
G36*
X342500Y-963199D02*
G01*
X342500Y-1006400D01*
X349000Y-1006400D01*
X349000Y-963199D01*
G37*
G36*
X486700Y-1018400D02*
G01*
X498400Y-1055000D01*
X503200Y-1055000D01*
X514900Y-1018400D01*
X510500Y-1018400D01*
X503480Y-1041740D01*
X501780Y-1047620D01*
X500800Y-1050700D01*
X500600Y-1050700D01*
X490900Y-1018400D01*
G37*
G36*
X463600Y-1018400D02*
G01*
X463600Y-1021900D01*
X477600Y-1021900D01*
X478600Y-1033000D01*
X477260Y-1032320D01*
X475880Y-1031820D01*
X474420Y-1031500D01*
X472800Y-1031400D01*
X470600Y-1031580D01*
X468560Y-1032099D01*
X466719Y-1033000D01*
X465100Y-1034260D01*
X463760Y-1035900D01*
X462760Y-1037940D01*
X462120Y-1040360D01*
X461900Y-1043199D01*
X462160Y-1046000D01*
X462879Y-1048480D01*
X464020Y-1050620D01*
X465520Y-1052420D01*
X467280Y-1053820D01*
X469280Y-1054860D01*
X471440Y-1055480D01*
X473700Y-1055700D01*
X477560Y-1055280D01*
X480700Y-1054140D01*
X483240Y-1052580D01*
X485300Y-1050800D01*
X483200Y-1048100D01*
X481500Y-1049660D01*
X479460Y-1050980D01*
X477000Y-1051860D01*
X474000Y-1052200D01*
X470940Y-1051580D01*
X468380Y-1049800D01*
X466640Y-1046960D01*
X466000Y-1043199D01*
X466560Y-1039580D01*
X468140Y-1036880D01*
X470600Y-1035180D01*
X473800Y-1034599D01*
X475540Y-1034740D01*
X477100Y-1035180D01*
X478579Y-1035860D01*
X480100Y-1036800D01*
X482299Y-1035400D01*
X481100Y-1018400D01*
G37*
G36*
X422200Y-1018400D02*
G01*
X422200Y-1021900D01*
X438800Y-1021900D01*
X438800Y-1034800D01*
X424700Y-1034800D01*
X424700Y-1038300D01*
X438800Y-1038300D01*
X438800Y-1055000D01*
X443000Y-1055000D01*
X443000Y-1018400D01*
G37*
G36*
X399900Y-1018400D02*
G01*
X399900Y-1023199D01*
X403700Y-1023199D01*
X406599Y-1028400D01*
X415500Y-1041600D01*
X403800Y-1041600D01*
X403760Y-1028120D01*
X403500Y-1023199D01*
X399900Y-1023199D01*
X399900Y-1041600D01*
X394900Y-1041600D01*
X394900Y-1044800D01*
X399900Y-1044800D01*
X399900Y-1055000D01*
X403800Y-1055000D01*
X403800Y-1044800D01*
X419799Y-1044800D01*
X419799Y-1042200D01*
X404300Y-1018400D01*
G37*
G36*
X376599Y-1018400D02*
G01*
X376599Y-1051600D01*
X369200Y-1051600D01*
X369200Y-1055000D01*
X388900Y-1055000D01*
X388900Y-1051600D01*
X380700Y-1051600D01*
X380700Y-1023600D01*
X387100Y-1023600D01*
X387100Y-1020900D01*
X384900Y-1020420D01*
X382960Y-1019840D01*
X381220Y-1019180D01*
X379700Y-1018400D01*
G37*
G36*
X349200Y-1018400D02*
G01*
X349200Y-1051600D01*
X341700Y-1051600D01*
X341700Y-1055000D01*
X361400Y-1055000D01*
X361400Y-1051600D01*
X353200Y-1051600D01*
X353200Y-1023600D01*
X359700Y-1023600D01*
X359700Y-1020900D01*
X357460Y-1020420D01*
X355520Y-1019840D01*
X353800Y-1019180D01*
X352299Y-1018400D01*
G37*
D10*
X285999Y-672545D02*
G01*
X285999Y-703090D01*
X285999Y-672545D02*
G01*
X272908Y-672545D01*
X268546Y-674000D01*
X267091Y-675453D01*
X265635Y-678362D01*
X265635Y-682726D01*
X267091Y-685635D01*
X268546Y-687091D01*
X272908Y-688544D01*
X285999Y-688544D01*
X234218Y-679818D02*
G01*
X235673Y-676909D01*
X238582Y-674000D01*
X241491Y-672545D01*
X247309Y-672545D01*
X250217Y-674000D01*
X253126Y-676909D01*
X254582Y-679818D01*
X256035Y-684182D01*
X256035Y-691453D01*
X254582Y-695817D01*
X253126Y-698726D01*
X250217Y-701635D01*
X247309Y-703090D01*
X241491Y-703090D01*
X238582Y-701635D01*
X235673Y-698726D01*
X234218Y-695817D01*
X224618Y-678362D02*
G01*
X221709Y-676909D01*
X217345Y-672545D01*
X217345Y-703090D01*
X204836Y-672545D02*
G01*
X188836Y-672545D01*
X197564Y-684182D01*
X193200Y-684182D01*
X190291Y-685635D01*
X188836Y-687091D01*
X187381Y-691453D01*
X187381Y-694362D01*
X188836Y-698726D01*
X191745Y-701635D01*
X196109Y-703090D01*
X200473Y-703090D01*
X204836Y-701635D01*
X206291Y-700181D01*
X207746Y-697271D01*
X321817Y-707818D02*
G01*
X318908Y-706363D01*
X315999Y-703454D01*
X314544Y-700545D01*
X314544Y-694726D01*
X315999Y-691817D01*
X318908Y-688908D01*
X321817Y-687454D01*
X326181Y-685999D01*
X333454Y-685999D01*
X337818Y-687454D01*
X340727Y-688908D01*
X343636Y-691817D01*
X345091Y-694726D01*
X345091Y-700545D01*
X343636Y-703454D01*
X340727Y-706363D01*
X337818Y-707818D01*
X333454Y-707818D01*
X333454Y-700545D02*
G01*
X333454Y-707818D01*
X314544Y-717417D02*
G01*
X345091Y-717417D01*
X314544Y-717417D02*
G01*
X345091Y-737782D01*
X314544Y-737782D02*
G01*
X345091Y-737782D01*
X314544Y-747381D02*
G01*
X345091Y-747381D01*
X314544Y-747381D02*
G01*
X314544Y-757564D01*
X315999Y-761927D01*
X318908Y-764836D01*
X321817Y-766291D01*
X326181Y-767744D01*
X333454Y-767744D01*
X337818Y-766291D01*
X340727Y-764836D01*
X343636Y-761927D01*
X345091Y-757564D01*
X345091Y-747381D01*
X385999Y-687908D02*
G01*
X385999Y-703908D01*
X397636Y-695181D01*
X397636Y-699544D01*
X399090Y-702454D01*
X400545Y-703908D01*
X404908Y-705363D01*
X407818Y-705363D01*
X412181Y-703908D01*
X415091Y-700999D01*
X416545Y-696635D01*
X416545Y-692273D01*
X415091Y-687908D01*
X413636Y-686455D01*
X410727Y-685000D01*
X385999Y-714964D02*
G01*
X416545Y-726599D01*
X385999Y-738236D02*
G01*
X416545Y-726599D01*
X385999Y-750745D02*
G01*
X385999Y-766745D01*
X397636Y-758018D01*
X397636Y-762381D01*
X399090Y-765291D01*
X400545Y-766745D01*
X404908Y-768200D01*
X407818Y-768200D01*
X412181Y-766745D01*
X415091Y-763836D01*
X416545Y-759472D01*
X416545Y-755109D01*
X415091Y-750745D01*
X413636Y-749290D01*
X410727Y-747836D01*
X487903Y-705363D02*
G01*
X484994Y-702454D01*
X483539Y-698090D01*
X483539Y-692273D01*
X484994Y-687908D01*
X487903Y-685000D01*
X490812Y-685000D01*
X493721Y-686455D01*
X495176Y-687908D01*
X496631Y-690817D01*
X499540Y-699544D01*
X500994Y-702454D01*
X502449Y-703908D01*
X505358Y-705363D01*
X509722Y-705363D01*
X512631Y-702454D01*
X514086Y-698090D01*
X514086Y-692273D01*
X512631Y-687908D01*
X509722Y-685000D01*
X483539Y-714964D02*
G01*
X514086Y-722235D01*
X483539Y-729508D02*
G01*
X514086Y-722235D01*
X483539Y-729508D02*
G01*
X514086Y-736781D01*
X483539Y-744054D02*
G01*
X514086Y-736781D01*
X490812Y-775473D02*
G01*
X487903Y-774018D01*
X484994Y-771109D01*
X483539Y-768200D01*
X483539Y-762381D01*
X484994Y-759472D01*
X487903Y-756563D01*
X490812Y-755109D01*
X495176Y-753654D01*
X502449Y-753654D01*
X506813Y-755109D01*
X509722Y-756563D01*
X512631Y-759472D01*
X514086Y-762381D01*
X514086Y-768200D01*
X512631Y-771109D01*
X509722Y-774018D01*
X506813Y-775473D01*
X483539Y-785073D02*
G01*
X514086Y-785073D01*
X514086Y-785073D02*
G01*
X514086Y-802527D01*
X483539Y-812127D02*
G01*
X514086Y-812127D01*
X483539Y-832491D02*
G01*
X503904Y-812127D01*
X496631Y-819400D02*
G01*
X514086Y-832491D01*
X587903Y-705363D02*
G01*
X584994Y-702454D01*
X583539Y-698090D01*
X583539Y-692273D01*
X584994Y-687908D01*
X587903Y-685000D01*
X590812Y-685000D01*
X593721Y-686455D01*
X595176Y-687908D01*
X596631Y-690817D01*
X599540Y-699544D01*
X600994Y-702454D01*
X602449Y-703908D01*
X605358Y-705363D01*
X609722Y-705363D01*
X612631Y-702454D01*
X614086Y-698090D01*
X614086Y-692273D01*
X612631Y-687908D01*
X609722Y-685000D01*
X583539Y-714964D02*
G01*
X614086Y-722235D01*
X583539Y-729508D02*
G01*
X614086Y-722235D01*
X583539Y-729508D02*
G01*
X614086Y-736781D01*
X583539Y-744054D02*
G01*
X614086Y-736781D01*
X583539Y-753654D02*
G01*
X614086Y-753654D01*
X583539Y-753654D02*
G01*
X583539Y-763836D01*
X584994Y-768200D01*
X587903Y-771109D01*
X590812Y-772564D01*
X595176Y-774018D01*
X602449Y-774018D01*
X606813Y-772564D01*
X609722Y-771109D01*
X612631Y-768200D01*
X614086Y-763836D01*
X614086Y-753654D01*
X583539Y-783618D02*
G01*
X614086Y-783618D01*
X583539Y-801945D02*
G01*
X584994Y-799036D01*
X587903Y-796127D01*
X590812Y-794672D01*
X595176Y-793218D01*
X602449Y-793218D01*
X606813Y-794672D01*
X609722Y-796127D01*
X612631Y-799036D01*
X614086Y-801945D01*
X614086Y-807764D01*
X612631Y-810673D01*
X609722Y-813582D01*
X606813Y-815036D01*
X602449Y-816491D01*
X595176Y-816491D01*
X590812Y-815036D01*
X587903Y-813582D01*
X584994Y-810673D01*
X583539Y-807764D01*
X583539Y-801945D01*
X673544Y-680000D02*
G01*
X704090Y-691637D01*
X673544Y-703272D02*
G01*
X704090Y-691637D01*
X673544Y-712872D02*
G01*
X704090Y-712872D01*
X673544Y-722473D02*
G01*
X704090Y-722473D01*
X673544Y-722473D02*
G01*
X704090Y-742836D01*
X673544Y-742836D02*
G01*
X704090Y-742836D01*
X700999Y-752545D02*
G01*
X700999Y-783090D01*
X700999Y-752545D02*
G01*
X687908Y-752545D01*
X683544Y-754000D01*
X682091Y-755453D01*
X680635Y-758362D01*
X680635Y-762726D01*
X682091Y-765635D01*
X683544Y-767091D01*
X687908Y-768544D01*
X700999Y-768544D01*
X671035Y-752545D02*
G01*
X671035Y-783090D01*
X671035Y-752545D02*
G01*
X657944Y-752545D01*
X653580Y-754000D01*
X652127Y-755453D01*
X650671Y-758362D01*
X650671Y-761271D01*
X652127Y-764182D01*
X653580Y-765635D01*
X657944Y-767091D01*
X671035Y-767091D02*
G01*
X657944Y-767091D01*
X653580Y-768544D01*
X652127Y-770000D01*
X650671Y-772908D01*
X650671Y-777271D01*
X652127Y-780181D01*
X653580Y-781635D01*
X657944Y-783090D01*
X671035Y-783090D01*
X622163Y-762726D02*
G01*
X623618Y-767091D01*
X626527Y-770000D01*
X630891Y-771453D01*
X632345Y-771453D01*
X636709Y-770000D01*
X639618Y-767091D01*
X641071Y-762726D01*
X641071Y-761271D01*
X639618Y-756909D01*
X636709Y-754000D01*
X632345Y-752545D01*
X630891Y-752545D01*
X626527Y-754000D01*
X623618Y-756909D01*
X622163Y-762726D01*
X622163Y-770000D01*
X623618Y-777271D01*
X626527Y-781635D01*
X630891Y-783090D01*
X633800Y-783090D01*
X638162Y-781635D01*
X639618Y-778726D01*
X701291Y-815001D02*
G01*
X701291Y-845545D01*
X701291Y-815001D02*
G01*
X688200Y-815001D01*
X683836Y-816455D01*
X682381Y-817910D01*
X680927Y-820819D01*
X680927Y-825183D01*
X682381Y-828092D01*
X683836Y-829546D01*
X688200Y-831001D01*
X701291Y-831001D01*
X671327Y-815001D02*
G01*
X671327Y-845545D01*
X671327Y-815001D02*
G01*
X658236Y-815001D01*
X653872Y-816455D01*
X652417Y-817910D01*
X650963Y-820819D01*
X650963Y-823728D01*
X652417Y-826637D01*
X653872Y-828092D01*
X658236Y-829546D01*
X671327Y-829546D02*
G01*
X658236Y-829546D01*
X653872Y-831001D01*
X652417Y-832454D01*
X650963Y-835363D01*
X650963Y-839728D01*
X652417Y-842636D01*
X653872Y-844092D01*
X658236Y-845545D01*
X671327Y-845545D01*
X634090Y-815001D02*
G01*
X638454Y-816455D01*
X639908Y-819364D01*
X639908Y-822273D01*
X638454Y-825183D01*
X635545Y-826637D01*
X629728Y-828092D01*
X625363Y-829546D01*
X622454Y-832454D01*
X620999Y-835363D01*
X620999Y-839728D01*
X622454Y-842636D01*
X623908Y-844092D01*
X628272Y-845545D01*
X634090Y-845545D01*
X638454Y-844092D01*
X639908Y-842636D01*
X641363Y-839728D01*
X641363Y-835363D01*
X639908Y-832454D01*
X636999Y-829546D01*
X632636Y-828092D01*
X626817Y-826637D01*
X623908Y-825183D01*
X622454Y-822273D01*
X622454Y-819364D01*
X623908Y-816455D01*
X628272Y-815001D01*
X634090Y-815001D01*
X701291Y-915001D02*
G01*
X701291Y-945547D01*
X701291Y-915001D02*
G01*
X688200Y-915001D01*
X683836Y-916455D01*
X682381Y-917910D01*
X680927Y-920819D01*
X680927Y-925183D01*
X682381Y-928092D01*
X683836Y-929546D01*
X688200Y-931001D01*
X701291Y-931001D01*
X671327Y-915001D02*
G01*
X671327Y-945547D01*
X671327Y-915001D02*
G01*
X658236Y-915001D01*
X653872Y-916455D01*
X652417Y-917910D01*
X650963Y-920819D01*
X650963Y-923728D01*
X652417Y-926637D01*
X653872Y-928092D01*
X658236Y-929546D01*
X671327Y-929546D02*
G01*
X658236Y-929546D01*
X653872Y-931001D01*
X652417Y-932456D01*
X650963Y-935365D01*
X650963Y-939728D01*
X652417Y-942638D01*
X653872Y-944092D01*
X658236Y-945547D01*
X671327Y-945547D01*
X620999Y-915001D02*
G01*
X635545Y-945547D01*
X641363Y-915001D02*
G01*
X620999Y-915001D01*
X700999Y-1017545D02*
G01*
X700999Y-1048090D01*
X700999Y-1017545D02*
G01*
X687908Y-1017545D01*
X683544Y-1019000D01*
X682091Y-1020453D01*
X680635Y-1023362D01*
X680635Y-1027726D01*
X682091Y-1030635D01*
X683544Y-1032091D01*
X687908Y-1033544D01*
X700999Y-1033544D01*
X671035Y-1017545D02*
G01*
X671035Y-1048090D01*
X671035Y-1017545D02*
G01*
X657944Y-1017545D01*
X653580Y-1019000D01*
X652127Y-1020453D01*
X650671Y-1023362D01*
X650671Y-1026271D01*
X652127Y-1029182D01*
X653580Y-1030635D01*
X657944Y-1032091D01*
X671035Y-1032091D02*
G01*
X657944Y-1032091D01*
X653580Y-1033544D01*
X652127Y-1035000D01*
X650671Y-1037908D01*
X650671Y-1042271D01*
X652127Y-1045181D01*
X653580Y-1046635D01*
X657944Y-1048090D01*
X671035Y-1048090D01*
X623618Y-1021909D02*
G01*
X625072Y-1019000D01*
X629436Y-1017545D01*
X632345Y-1017545D01*
X636709Y-1019000D01*
X639618Y-1023362D01*
X641071Y-1030635D01*
X641071Y-1037908D01*
X639618Y-1043726D01*
X636709Y-1046635D01*
X632345Y-1048090D01*
X630891Y-1048090D01*
X626527Y-1046635D01*
X623618Y-1043726D01*
X622163Y-1039362D01*
X622163Y-1037908D01*
X623618Y-1033544D01*
X626527Y-1030635D01*
X630891Y-1029182D01*
X632345Y-1029182D01*
X636709Y-1030635D01*
X639618Y-1033544D01*
X641071Y-1037908D01*
X695999Y-1115709D02*
G01*
X695999Y-1146255D01*
X695999Y-1115709D02*
G01*
X682908Y-1115709D01*
X678544Y-1117163D01*
X677091Y-1118618D01*
X675635Y-1121527D01*
X675635Y-1125891D01*
X677091Y-1128800D01*
X678544Y-1130255D01*
X682908Y-1131709D01*
X695999Y-1131709D01*
X666035Y-1115709D02*
G01*
X666035Y-1146255D01*
X666035Y-1115709D02*
G01*
X652944Y-1115709D01*
X648582Y-1117163D01*
X647127Y-1118618D01*
X645673Y-1121527D01*
X645673Y-1124436D01*
X647127Y-1127345D01*
X648582Y-1128800D01*
X652944Y-1130255D01*
X666035Y-1130255D02*
G01*
X652944Y-1130255D01*
X648582Y-1131709D01*
X647127Y-1133164D01*
X645673Y-1136073D01*
X645673Y-1140435D01*
X647127Y-1143344D01*
X648582Y-1144800D01*
X652944Y-1146255D01*
X666035Y-1146255D01*
X618618Y-1115709D02*
G01*
X633164Y-1115709D01*
X634618Y-1128800D01*
X633164Y-1127345D01*
X628800Y-1125891D01*
X624436Y-1125891D01*
X620073Y-1127345D01*
X617163Y-1130255D01*
X615709Y-1134618D01*
X615709Y-1137527D01*
X617163Y-1141891D01*
X620073Y-1144800D01*
X624436Y-1146255D01*
X628800Y-1146255D01*
X633164Y-1144800D01*
X634618Y-1143344D01*
X636073Y-1140435D01*
X700999Y-1217545D02*
G01*
X700999Y-1248090D01*
X700999Y-1217545D02*
G01*
X687910Y-1217545D01*
X683546Y-1219000D01*
X682091Y-1220453D01*
X680637Y-1223362D01*
X680637Y-1227726D01*
X682091Y-1230635D01*
X683546Y-1232091D01*
X687910Y-1233544D01*
X700999Y-1233544D01*
X671037Y-1217545D02*
G01*
X671037Y-1248090D01*
X671037Y-1217545D02*
G01*
X657946Y-1217545D01*
X653582Y-1219000D01*
X652127Y-1220453D01*
X650673Y-1223362D01*
X650673Y-1226271D01*
X652127Y-1229182D01*
X653582Y-1230635D01*
X657946Y-1232091D01*
X671037Y-1232091D02*
G01*
X657946Y-1232091D01*
X653582Y-1233544D01*
X652127Y-1235000D01*
X650673Y-1237908D01*
X650673Y-1242271D01*
X652127Y-1245181D01*
X653582Y-1246635D01*
X657946Y-1248090D01*
X671037Y-1248090D01*
X626527Y-1217545D02*
G01*
X641073Y-1237908D01*
X619254Y-1237908D01*
X626527Y-1217545D02*
G01*
X626527Y-1248090D01*
X701291Y-1320000D02*
G01*
X701291Y-1350545D01*
X701291Y-1320000D02*
G01*
X688200Y-1320000D01*
X683836Y-1321455D01*
X682382Y-1322908D01*
X680927Y-1325817D01*
X680927Y-1330181D01*
X682382Y-1333090D01*
X683836Y-1334546D01*
X688200Y-1335999D01*
X701291Y-1335999D01*
X671327Y-1320000D02*
G01*
X671327Y-1350545D01*
X671327Y-1320000D02*
G01*
X658236Y-1320000D01*
X653872Y-1321455D01*
X652418Y-1322908D01*
X650963Y-1325817D01*
X650963Y-1328726D01*
X652418Y-1331637D01*
X653872Y-1333090D01*
X658236Y-1334546D01*
X671327Y-1334546D02*
G01*
X658236Y-1334546D01*
X653872Y-1335999D01*
X652418Y-1337455D01*
X650963Y-1340363D01*
X650963Y-1344726D01*
X652418Y-1347636D01*
X653872Y-1349090D01*
X658236Y-1350545D01*
X671327Y-1350545D01*
X638454Y-1320000D02*
G01*
X622454Y-1320000D01*
X631183Y-1331637D01*
X626819Y-1331637D01*
X623910Y-1333090D01*
X622454Y-1334546D01*
X621001Y-1338908D01*
X621001Y-1341817D01*
X622454Y-1346181D01*
X625363Y-1349090D01*
X629728Y-1350545D01*
X634092Y-1350545D01*
X638454Y-1349090D01*
X639909Y-1347636D01*
X641363Y-1344726D01*
X701073Y-1415000D02*
G01*
X701073Y-1445545D01*
X701073Y-1415000D02*
G01*
X687982Y-1415000D01*
X683618Y-1416455D01*
X682163Y-1417908D01*
X680709Y-1420817D01*
X680709Y-1425181D01*
X682163Y-1428090D01*
X683618Y-1429546D01*
X687982Y-1430999D01*
X701073Y-1430999D01*
X659472Y-1415000D02*
G01*
X671109Y-1445545D01*
X659472Y-1415000D02*
G01*
X647836Y-1445545D01*
X666745Y-1435363D02*
G01*
X652199Y-1435363D01*
X638236Y-1420817D02*
G01*
X635327Y-1419364D01*
X630963Y-1415000D01*
X630963Y-1445545D01*
X619908Y-1422273D02*
G01*
X619908Y-1420817D01*
X618454Y-1417908D01*
X616999Y-1416455D01*
X614090Y-1415000D01*
X608272Y-1415000D01*
X605363Y-1416455D01*
X603908Y-1417908D01*
X602454Y-1420817D01*
X602454Y-1423726D01*
X603908Y-1426637D01*
X606817Y-1430999D01*
X621363Y-1445545D01*
X600999Y-1445545D01*
X700999Y-1512545D02*
G01*
X700999Y-1543090D01*
X700999Y-1512545D02*
G01*
X687910Y-1512545D01*
X683546Y-1514000D01*
X682091Y-1515453D01*
X680637Y-1518362D01*
X680637Y-1522726D01*
X682091Y-1525635D01*
X683546Y-1527089D01*
X687910Y-1528544D01*
X700999Y-1528544D01*
X659400Y-1512545D02*
G01*
X671037Y-1543090D01*
X659400Y-1512545D02*
G01*
X647764Y-1543090D01*
X666673Y-1532908D02*
G01*
X652127Y-1532908D01*
X638164Y-1518362D02*
G01*
X635255Y-1516909D01*
X630891Y-1512545D01*
X630891Y-1543090D01*
X621291Y-1518362D02*
G01*
X618382Y-1516909D01*
X614018Y-1512545D01*
X614018Y-1543090D01*
X700999Y-1592545D02*
G01*
X700999Y-1623090D01*
X700999Y-1592545D02*
G01*
X687908Y-1592545D01*
X683546Y-1594000D01*
X682091Y-1595453D01*
X680637Y-1598362D01*
X680637Y-1602726D01*
X682091Y-1605635D01*
X683546Y-1607091D01*
X687908Y-1608544D01*
X700999Y-1608544D01*
X659400Y-1592545D02*
G01*
X671037Y-1623090D01*
X659400Y-1592545D02*
G01*
X647764Y-1623090D01*
X666673Y-1612908D02*
G01*
X652127Y-1612908D01*
X638164Y-1598362D02*
G01*
X635255Y-1596909D01*
X630891Y-1592545D01*
X630891Y-1623090D01*
X612564Y-1592545D02*
G01*
X616927Y-1594000D01*
X619837Y-1598362D01*
X621291Y-1605635D01*
X621291Y-1610000D01*
X619837Y-1617271D01*
X616927Y-1621635D01*
X612564Y-1623090D01*
X609654Y-1623090D01*
X605291Y-1621635D01*
X602381Y-1617271D01*
X600927Y-1610000D01*
X600927Y-1605635D01*
X602381Y-1598362D01*
X605291Y-1594000D01*
X609654Y-1592545D01*
X612564Y-1592545D01*
X591327Y-1610000D02*
G01*
X565145Y-1610000D01*
X555545Y-1592545D02*
G01*
X555545Y-1623090D01*
X555545Y-1592545D02*
G01*
X542454Y-1592545D01*
X538090Y-1594000D01*
X536637Y-1595453D01*
X535181Y-1598362D01*
X535181Y-1601271D01*
X536637Y-1604180D01*
X538090Y-1605635D01*
X542454Y-1607091D01*
X555545Y-1607091D01*
X545363Y-1607091D02*
G01*
X535181Y-1623090D01*
X525581Y-1592545D02*
G01*
X505217Y-1623090D01*
X505217Y-1592545D02*
G01*
X525581Y-1623090D01*
X700999Y-1637545D02*
G01*
X700999Y-1668090D01*
X700999Y-1637545D02*
G01*
X687908Y-1637545D01*
X683544Y-1639000D01*
X682091Y-1640453D01*
X680635Y-1643362D01*
X680635Y-1647726D01*
X682091Y-1650635D01*
X683544Y-1652091D01*
X687908Y-1653544D01*
X700999Y-1653544D01*
X659400Y-1637545D02*
G01*
X671035Y-1668090D01*
X659400Y-1637545D02*
G01*
X647762Y-1668090D01*
X666671Y-1657908D02*
G01*
X652127Y-1657908D01*
X619254Y-1647726D02*
G01*
X620709Y-1652091D01*
X623618Y-1655000D01*
X627980Y-1656453D01*
X629436Y-1656453D01*
X633800Y-1655000D01*
X636709Y-1652091D01*
X638162Y-1647726D01*
X638162Y-1646271D01*
X636709Y-1641909D01*
X633800Y-1639000D01*
X629436Y-1637545D01*
X627980Y-1637545D01*
X623618Y-1639000D01*
X620709Y-1641909D01*
X619254Y-1647726D01*
X619254Y-1655000D01*
X620709Y-1662271D01*
X623618Y-1666635D01*
X627980Y-1668090D01*
X630891Y-1668090D01*
X635253Y-1666635D01*
X636709Y-1663726D01*
X609654Y-1655000D02*
G01*
X583472Y-1655000D01*
X563690Y-1637545D02*
G01*
X563690Y-1668090D01*
X573872Y-1637545D02*
G01*
X553508Y-1637545D01*
X543908Y-1637545D02*
G01*
X523544Y-1668090D01*
X523544Y-1637545D02*
G01*
X543908Y-1668090D01*
X708454Y-1780000D02*
G01*
X677910Y-1780000D01*
X708454Y-1780000D02*
G01*
X708454Y-1766909D01*
X706999Y-1762546D01*
X705545Y-1761091D01*
X702636Y-1759636D01*
X698272Y-1759636D01*
X695363Y-1761091D01*
X693910Y-1762546D01*
X692454Y-1766909D01*
X692454Y-1780000D01*
X708454Y-1738400D02*
G01*
X677910Y-1750037D01*
X708454Y-1738400D02*
G01*
X677910Y-1726763D01*
X688090Y-1745673D02*
G01*
X688090Y-1731127D01*
X708454Y-1709890D02*
G01*
X706999Y-1714254D01*
X704090Y-1715709D01*
X701181Y-1715709D01*
X698272Y-1714254D01*
X696819Y-1711345D01*
X695363Y-1705527D01*
X693910Y-1701163D01*
X690999Y-1698254D01*
X688090Y-1696799D01*
X683728Y-1696799D01*
X680819Y-1698254D01*
X679364Y-1699708D01*
X677910Y-1704072D01*
X677910Y-1709890D01*
X679364Y-1714254D01*
X680819Y-1715709D01*
X683728Y-1717163D01*
X688090Y-1717163D01*
X690999Y-1715709D01*
X693910Y-1712800D01*
X695363Y-1708436D01*
X696819Y-1702618D01*
X698272Y-1699708D01*
X701181Y-1698254D01*
X704090Y-1698254D01*
X706999Y-1699708D01*
X708454Y-1704072D01*
X708454Y-1709890D01*
X663454Y-1780000D02*
G01*
X632908Y-1780000D01*
X663454Y-1780000D02*
G01*
X663454Y-1766909D01*
X661999Y-1762546D01*
X660545Y-1761091D01*
X657636Y-1759636D01*
X653272Y-1759636D01*
X650363Y-1761091D01*
X648908Y-1762546D01*
X647454Y-1766909D01*
X647454Y-1780000D01*
X663454Y-1750036D02*
G01*
X632908Y-1750036D01*
X663454Y-1750036D02*
G01*
X663454Y-1736945D01*
X661999Y-1732582D01*
X660545Y-1731127D01*
X657636Y-1729672D01*
X654726Y-1729672D01*
X651817Y-1731127D01*
X650363Y-1732582D01*
X648908Y-1736945D01*
X648908Y-1750036D02*
G01*
X648908Y-1736945D01*
X647454Y-1732582D01*
X645999Y-1731127D01*
X643090Y-1729672D01*
X638726Y-1729672D01*
X635817Y-1731127D01*
X634364Y-1732582D01*
X632908Y-1736945D01*
X632908Y-1750036D01*
X657636Y-1720073D02*
G01*
X659090Y-1717163D01*
X663454Y-1712800D01*
X632908Y-1712800D01*
X663454Y-1685745D02*
G01*
X663454Y-1700291D01*
X650363Y-1701745D01*
X651817Y-1700291D01*
X653272Y-1695927D01*
X653272Y-1691563D01*
X651817Y-1687199D01*
X648908Y-1684290D01*
X644546Y-1682836D01*
X641637Y-1682836D01*
X637273Y-1684290D01*
X634364Y-1687199D01*
X632908Y-1691563D01*
X632908Y-1695927D01*
X634364Y-1700291D01*
X635817Y-1701745D01*
X638726Y-1703200D01*
X563454Y-1780000D02*
G01*
X532908Y-1780000D01*
X563454Y-1780000D02*
G01*
X563454Y-1766909D01*
X561999Y-1762545D01*
X560545Y-1761091D01*
X557636Y-1759636D01*
X553272Y-1759636D01*
X550363Y-1761091D01*
X548908Y-1762545D01*
X547454Y-1766909D01*
X547454Y-1780000D01*
X563454Y-1750036D02*
G01*
X532908Y-1750036D01*
X563454Y-1750036D02*
G01*
X563454Y-1736945D01*
X561999Y-1732581D01*
X560545Y-1731127D01*
X557636Y-1729672D01*
X554726Y-1729672D01*
X551817Y-1731127D01*
X550363Y-1732581D01*
X548908Y-1736945D01*
X548908Y-1750036D02*
G01*
X548908Y-1736945D01*
X547454Y-1732581D01*
X545999Y-1731127D01*
X543090Y-1729672D01*
X538726Y-1729672D01*
X535817Y-1731127D01*
X534364Y-1732581D01*
X532908Y-1736945D01*
X532908Y-1750036D01*
X557636Y-1720072D02*
G01*
X559090Y-1717163D01*
X563454Y-1712800D01*
X532908Y-1712800D01*
X563454Y-1688654D02*
G01*
X543090Y-1703200D01*
X543090Y-1681381D01*
X563454Y-1688654D02*
G01*
X532908Y-1688654D01*
X463454Y-1780000D02*
G01*
X432908Y-1780000D01*
X463454Y-1780000D02*
G01*
X463454Y-1766909D01*
X461999Y-1762546D01*
X460545Y-1761091D01*
X457636Y-1759636D01*
X453272Y-1759636D01*
X450363Y-1761091D01*
X448908Y-1762546D01*
X447454Y-1766909D01*
X447454Y-1780000D01*
X463454Y-1750036D02*
G01*
X432908Y-1750036D01*
X463454Y-1750036D02*
G01*
X463454Y-1736945D01*
X461999Y-1732582D01*
X460545Y-1731127D01*
X457636Y-1729672D01*
X454726Y-1729672D01*
X451817Y-1731127D01*
X450363Y-1732582D01*
X448908Y-1736945D01*
X448908Y-1750036D02*
G01*
X448908Y-1736945D01*
X447454Y-1732582D01*
X445999Y-1731127D01*
X443090Y-1729672D01*
X438726Y-1729672D01*
X435817Y-1731127D01*
X434364Y-1732582D01*
X432908Y-1736945D01*
X432908Y-1750036D01*
X457636Y-1720073D02*
G01*
X459090Y-1717163D01*
X463454Y-1712800D01*
X432908Y-1712800D01*
X463454Y-1700291D02*
G01*
X463454Y-1684290D01*
X451817Y-1693018D01*
X451817Y-1688654D01*
X450363Y-1685745D01*
X448908Y-1684290D01*
X444546Y-1682836D01*
X441637Y-1682836D01*
X437273Y-1684290D01*
X434364Y-1687199D01*
X432908Y-1691563D01*
X432908Y-1695927D01*
X434364Y-1700291D01*
X435817Y-1701745D01*
X438726Y-1703200D01*
X363454Y-1780000D02*
G01*
X332908Y-1780000D01*
X363454Y-1780000D02*
G01*
X363454Y-1766909D01*
X361999Y-1762546D01*
X360545Y-1761091D01*
X357636Y-1759636D01*
X353272Y-1759636D01*
X350363Y-1761091D01*
X348908Y-1762546D01*
X347453Y-1766909D01*
X347453Y-1780000D01*
X363454Y-1750037D02*
G01*
X332908Y-1750037D01*
X363454Y-1750037D02*
G01*
X363454Y-1736945D01*
X361999Y-1732582D01*
X360545Y-1731127D01*
X357636Y-1729672D01*
X354726Y-1729672D01*
X351817Y-1731127D01*
X350363Y-1732582D01*
X348908Y-1736945D01*
X348908Y-1750037D02*
G01*
X348908Y-1736945D01*
X347453Y-1732582D01*
X345999Y-1731127D01*
X343090Y-1729672D01*
X338726Y-1729672D01*
X335817Y-1731127D01*
X334362Y-1732582D01*
X332908Y-1736945D01*
X332908Y-1750037D01*
X357636Y-1720073D02*
G01*
X359090Y-1717163D01*
X363454Y-1712800D01*
X332908Y-1712800D01*
X356181Y-1701745D02*
G01*
X357636Y-1701745D01*
X360545Y-1700291D01*
X361999Y-1698836D01*
X363454Y-1695927D01*
X363454Y-1690109D01*
X361999Y-1687199D01*
X360545Y-1685745D01*
X357636Y-1684290D01*
X354726Y-1684290D01*
X351817Y-1685745D01*
X347453Y-1688654D01*
X332908Y-1703200D01*
X332908Y-1682836D01*
X300000Y-1717546D02*
G01*
X300000Y-1748090D01*
X300000Y-1717546D02*
G01*
X286909Y-1717546D01*
X282546Y-1719000D01*
X281091Y-1720455D01*
X279636Y-1723364D01*
X279636Y-1727728D01*
X281091Y-1730637D01*
X282546Y-1732091D01*
X286909Y-1733546D01*
X300000Y-1733546D01*
X270036Y-1717546D02*
G01*
X270036Y-1748090D01*
X270036Y-1717546D02*
G01*
X256945Y-1717546D01*
X252582Y-1719000D01*
X251127Y-1720455D01*
X249672Y-1723364D01*
X249672Y-1726273D01*
X251127Y-1729182D01*
X252582Y-1730637D01*
X256945Y-1732091D01*
X270036Y-1732091D02*
G01*
X256945Y-1732091D01*
X252582Y-1733546D01*
X251127Y-1735000D01*
X249672Y-1737908D01*
X249672Y-1742273D01*
X251127Y-1745181D01*
X252582Y-1746637D01*
X256945Y-1748090D01*
X270036Y-1748090D01*
X240073Y-1723364D02*
G01*
X237163Y-1721909D01*
X232800Y-1717546D01*
X232800Y-1748090D01*
X214472Y-1717546D02*
G01*
X218836Y-1719000D01*
X221745Y-1723364D01*
X223200Y-1730637D01*
X223200Y-1735000D01*
X221745Y-1742273D01*
X218836Y-1746637D01*
X214472Y-1748090D01*
X211563Y-1748090D01*
X207199Y-1746637D01*
X204290Y-1742273D01*
X202836Y-1735000D01*
X202836Y-1730637D01*
X204290Y-1723364D01*
X207199Y-1719000D01*
X211563Y-1717546D01*
X214472Y-1717546D01*
X280000Y-1617546D02*
G01*
X280000Y-1648090D01*
X280000Y-1617546D02*
G01*
X266909Y-1617546D01*
X262545Y-1619000D01*
X261091Y-1620455D01*
X259636Y-1623364D01*
X259636Y-1627728D01*
X261091Y-1630637D01*
X262545Y-1632091D01*
X266909Y-1633546D01*
X280000Y-1633546D01*
X250036Y-1617546D02*
G01*
X250036Y-1648090D01*
X250036Y-1617546D02*
G01*
X236945Y-1617546D01*
X232582Y-1619000D01*
X231127Y-1620455D01*
X229672Y-1623364D01*
X229672Y-1626273D01*
X231127Y-1629182D01*
X232582Y-1630637D01*
X236945Y-1632091D01*
X250036Y-1632091D02*
G01*
X236945Y-1632091D01*
X232582Y-1633546D01*
X231127Y-1635000D01*
X229672Y-1637908D01*
X229672Y-1642273D01*
X231127Y-1645181D01*
X232582Y-1646637D01*
X236945Y-1648090D01*
X250036Y-1648090D01*
X220072Y-1623364D02*
G01*
X217163Y-1621909D01*
X212800Y-1617546D01*
X212800Y-1648090D01*
X281291Y-1515000D02*
G01*
X281291Y-1545545D01*
X281291Y-1515000D02*
G01*
X268200Y-1515000D01*
X263836Y-1516455D01*
X262382Y-1517908D01*
X260927Y-1520817D01*
X260927Y-1525181D01*
X262382Y-1528090D01*
X263836Y-1529546D01*
X268200Y-1530999D01*
X281291Y-1530999D01*
X251327Y-1515000D02*
G01*
X251327Y-1545545D01*
X251327Y-1515000D02*
G01*
X238236Y-1515000D01*
X233872Y-1516455D01*
X232418Y-1517908D01*
X230963Y-1520817D01*
X230963Y-1523726D01*
X232418Y-1526637D01*
X233872Y-1528090D01*
X238236Y-1529546D01*
X251327Y-1529546D02*
G01*
X238236Y-1529546D01*
X233872Y-1530999D01*
X232418Y-1532455D01*
X230963Y-1535363D01*
X230963Y-1539726D01*
X232418Y-1542636D01*
X233872Y-1544090D01*
X238236Y-1545545D01*
X251327Y-1545545D01*
X212636Y-1515000D02*
G01*
X217001Y-1516455D01*
X219909Y-1520817D01*
X221363Y-1528090D01*
X221363Y-1532455D01*
X219909Y-1539726D01*
X217001Y-1544090D01*
X212636Y-1545545D01*
X209728Y-1545545D01*
X205363Y-1544090D01*
X202454Y-1539726D01*
X201001Y-1532455D01*
X201001Y-1528090D01*
X202454Y-1520817D01*
X205363Y-1516455D01*
X209728Y-1515000D01*
X212636Y-1515000D01*
X280999Y-1412545D02*
G01*
X280999Y-1443090D01*
X280999Y-1412545D02*
G01*
X267908Y-1412545D01*
X263544Y-1414000D01*
X262091Y-1415453D01*
X260635Y-1418362D01*
X260635Y-1422726D01*
X262091Y-1425635D01*
X263544Y-1427091D01*
X267908Y-1428544D01*
X280999Y-1428544D01*
X239400Y-1412545D02*
G01*
X251035Y-1443090D01*
X239400Y-1412545D02*
G01*
X227762Y-1443090D01*
X246671Y-1432908D02*
G01*
X232127Y-1432908D01*
X197800Y-1412545D02*
G01*
X212345Y-1443090D01*
X218162Y-1412545D02*
G01*
X197800Y-1412545D01*
X282744Y-1314998D02*
G01*
X282744Y-1345545D01*
X282744Y-1314998D02*
G01*
X269654Y-1314998D01*
X265289Y-1316453D01*
X263836Y-1317908D01*
X262381Y-1320817D01*
X262381Y-1325180D01*
X263836Y-1328090D01*
X265289Y-1329544D01*
X269654Y-1330999D01*
X282744Y-1330999D01*
X241145Y-1314998D02*
G01*
X252780Y-1345545D01*
X241145Y-1314998D02*
G01*
X229508Y-1345545D01*
X248418Y-1335363D02*
G01*
X233872Y-1335363D01*
X202453Y-1319362D02*
G01*
X203908Y-1316453D01*
X208272Y-1314998D01*
X211181Y-1314998D01*
X215545Y-1316453D01*
X218454Y-1320817D01*
X219908Y-1328090D01*
X219908Y-1335363D01*
X218454Y-1341181D01*
X215545Y-1344090D01*
X211181Y-1345545D01*
X209726Y-1345545D01*
X205363Y-1344090D01*
X202453Y-1341181D01*
X200999Y-1336817D01*
X200999Y-1335363D01*
X202453Y-1330999D01*
X205363Y-1328090D01*
X209726Y-1326635D01*
X211181Y-1326635D01*
X215545Y-1328090D01*
X218454Y-1330999D01*
X219908Y-1335363D01*
X280999Y-1212546D02*
G01*
X280999Y-1243090D01*
X280999Y-1212546D02*
G01*
X267908Y-1212546D01*
X263544Y-1214000D01*
X262091Y-1215455D01*
X260635Y-1218364D01*
X260635Y-1222726D01*
X262091Y-1225635D01*
X263544Y-1227091D01*
X267908Y-1228546D01*
X280999Y-1228546D01*
X239400Y-1212546D02*
G01*
X251035Y-1243090D01*
X239400Y-1212546D02*
G01*
X227762Y-1243090D01*
X246671Y-1232908D02*
G01*
X232127Y-1232908D01*
X200709Y-1212546D02*
G01*
X215253Y-1212546D01*
X216709Y-1225635D01*
X215253Y-1224182D01*
X210891Y-1222726D01*
X206527Y-1222726D01*
X202163Y-1224182D01*
X199254Y-1227091D01*
X197800Y-1231455D01*
X197800Y-1234364D01*
X199254Y-1238726D01*
X202163Y-1241635D01*
X206527Y-1243090D01*
X210891Y-1243090D01*
X215253Y-1241635D01*
X216709Y-1240181D01*
X218162Y-1237273D01*
X280655Y-1114998D02*
G01*
X280655Y-1145545D01*
X280655Y-1114998D02*
G01*
X267564Y-1114998D01*
X263200Y-1116453D01*
X261747Y-1117908D01*
X260291Y-1120817D01*
X260291Y-1125180D01*
X261747Y-1128090D01*
X263200Y-1129544D01*
X267564Y-1130999D01*
X280655Y-1130999D01*
X239056Y-1114998D02*
G01*
X250691Y-1145545D01*
X239056Y-1114998D02*
G01*
X227418Y-1145545D01*
X246327Y-1135363D02*
G01*
X231783Y-1135363D01*
X203274Y-1114998D02*
G01*
X217818Y-1135363D01*
X196001Y-1135363D01*
X203274Y-1114998D02*
G01*
X203274Y-1145545D01*
X280999Y-1017545D02*
G01*
X280999Y-1048090D01*
X280999Y-1017545D02*
G01*
X267908Y-1017545D01*
X263544Y-1019000D01*
X262091Y-1020453D01*
X260635Y-1023362D01*
X260635Y-1027726D01*
X262091Y-1030635D01*
X263544Y-1032091D01*
X267908Y-1033544D01*
X280999Y-1033544D01*
X239400Y-1017545D02*
G01*
X251035Y-1048090D01*
X239400Y-1017545D02*
G01*
X227762Y-1048090D01*
X246671Y-1037908D02*
G01*
X232127Y-1037908D01*
X215253Y-1017545D02*
G01*
X199254Y-1017545D01*
X207982Y-1029180D01*
X203618Y-1029180D01*
X200709Y-1030635D01*
X199254Y-1032091D01*
X197800Y-1036453D01*
X197800Y-1039362D01*
X199254Y-1043726D01*
X202163Y-1046635D01*
X206527Y-1048090D01*
X210891Y-1048090D01*
X215253Y-1046635D01*
X216709Y-1045180D01*
X218162Y-1042271D01*
X280999Y-912545D02*
G01*
X280999Y-943090D01*
X280999Y-912545D02*
G01*
X267908Y-912545D01*
X263546Y-914000D01*
X262091Y-915453D01*
X260637Y-918362D01*
X260637Y-922726D01*
X262091Y-925635D01*
X263546Y-927091D01*
X267908Y-928544D01*
X280999Y-928544D01*
X239400Y-912545D02*
G01*
X251037Y-943090D01*
X239400Y-912545D02*
G01*
X227764Y-943090D01*
X246673Y-932908D02*
G01*
X232127Y-932908D01*
X216709Y-919818D02*
G01*
X216709Y-918362D01*
X215255Y-915453D01*
X213800Y-914000D01*
X210891Y-912545D01*
X205073Y-912545D01*
X202163Y-914000D01*
X200709Y-915453D01*
X199254Y-918362D01*
X199254Y-921271D01*
X200709Y-924182D01*
X203618Y-928544D01*
X218164Y-943090D01*
X197800Y-943090D01*
X281109Y-815001D02*
G01*
X281109Y-845547D01*
X281109Y-815001D02*
G01*
X268018Y-815001D01*
X263654Y-816455D01*
X262201Y-817910D01*
X260745Y-820819D01*
X260745Y-825183D01*
X262201Y-828092D01*
X263654Y-829546D01*
X268018Y-831001D01*
X281109Y-831001D01*
X239510Y-815001D02*
G01*
X251145Y-845547D01*
X239510Y-815001D02*
G01*
X227872Y-845547D01*
X246783Y-835365D02*
G01*
X232237Y-835365D01*
X218272Y-820819D02*
G01*
X215363Y-819364D01*
X211001Y-815001D01*
X211001Y-845547D01*
X284200Y-730001D02*
G01*
X284200Y-760547D01*
X284200Y-730001D02*
G01*
X271109Y-730001D01*
X266747Y-731455D01*
X265291Y-732910D01*
X263838Y-735819D01*
X263838Y-740183D01*
X265291Y-743092D01*
X266747Y-744546D01*
X271109Y-746001D01*
X284200Y-746001D01*
X242600Y-730001D02*
G01*
X254238Y-760547D01*
X242600Y-730001D02*
G01*
X230965Y-760547D01*
X249873Y-750365D02*
G01*
X235327Y-750365D01*
X212638Y-730001D02*
G01*
X217001Y-731455D01*
X219909Y-735819D01*
X221365Y-743092D01*
X221365Y-747456D01*
X219909Y-754728D01*
X217001Y-759092D01*
X212638Y-760547D01*
X209728Y-760547D01*
X205365Y-759092D01*
X202456Y-754728D01*
X201001Y-747456D01*
X201001Y-743092D01*
X202456Y-735819D01*
X205365Y-731455D01*
X209728Y-730001D01*
X212638Y-730001D01*
X412363Y-1127545D02*
G01*
X424000Y-1158090D01*
X412363Y-1127545D02*
G01*
X400727Y-1158090D01*
X419636Y-1147908D02*
G01*
X405091Y-1147908D01*
X391127Y-1127545D02*
G01*
X391127Y-1158090D01*
X381527Y-1127545D02*
G01*
X381527Y-1158090D01*
X381527Y-1127545D02*
G01*
X361163Y-1158090D01*
X361163Y-1127545D02*
G01*
X361163Y-1158090D01*
X593090Y-1115709D02*
G01*
X577091Y-1115709D01*
X585817Y-1127345D01*
X581455Y-1127345D01*
X578544Y-1128800D01*
X577091Y-1130255D01*
X575635Y-1134618D01*
X575635Y-1137527D01*
X577091Y-1141891D01*
X580000Y-1144800D01*
X584364Y-1146255D01*
X588726Y-1146255D01*
X593090Y-1144800D01*
X594544Y-1143344D01*
X595999Y-1140435D01*
X564582Y-1138982D02*
G01*
X566035Y-1140435D01*
X564582Y-1141891D01*
X563126Y-1140435D01*
X564582Y-1138982D01*
X550617Y-1115709D02*
G01*
X534618Y-1115709D01*
X543344Y-1127345D01*
X538982Y-1127345D01*
X536073Y-1128800D01*
X534618Y-1130255D01*
X533164Y-1134618D01*
X533164Y-1137527D01*
X534618Y-1141891D01*
X537527Y-1144800D01*
X541891Y-1146255D01*
X546255Y-1146255D01*
X550617Y-1144800D01*
X552073Y-1143344D01*
X553526Y-1140435D01*
X283090Y-772708D02*
G01*
X267091Y-772708D01*
X275817Y-784344D01*
X271455Y-784344D01*
X268544Y-785799D01*
X267091Y-787255D01*
X265635Y-791617D01*
X265635Y-794526D01*
X267091Y-798890D01*
X270000Y-801799D01*
X274364Y-803254D01*
X278726Y-803254D01*
X283090Y-801799D01*
X284544Y-800345D01*
X285999Y-797435D01*
X254582Y-795981D02*
G01*
X256035Y-797435D01*
X254582Y-798890D01*
X253126Y-797435D01*
X254582Y-795981D01*
X240617Y-772708D02*
G01*
X224618Y-772708D01*
X233344Y-784344D01*
X228982Y-784344D01*
X226073Y-785799D01*
X224618Y-787255D01*
X223164Y-791617D01*
X223164Y-794526D01*
X224618Y-798890D01*
X227527Y-801799D01*
X231891Y-803254D01*
X236255Y-803254D01*
X240617Y-801799D01*
X242073Y-800345D01*
X243526Y-797435D01*
X590000Y-1189773D02*
G01*
X590000Y-1213636D01*
X590000Y-1189773D02*
G01*
X579773Y-1189773D01*
X576363Y-1190909D01*
X575226Y-1192044D01*
X574090Y-1194317D01*
X574090Y-1196590D01*
X575226Y-1198863D01*
X576363Y-1200000D01*
X579773Y-1201136D01*
X590000Y-1201136D02*
G01*
X579773Y-1201136D01*
X576363Y-1202273D01*
X575226Y-1203409D01*
X574090Y-1205682D01*
X574090Y-1209090D01*
X575226Y-1211363D01*
X576363Y-1212500D01*
X579773Y-1213636D01*
X590000Y-1213636D01*
X558636Y-1189773D02*
G01*
X558636Y-1213636D01*
X566590Y-1189773D02*
G01*
X550682Y-1189773D01*
X536363Y-1189773D02*
G01*
X539773Y-1190909D01*
X542044Y-1194317D01*
X543182Y-1200000D01*
X543182Y-1203409D01*
X542044Y-1209090D01*
X539773Y-1212500D01*
X536363Y-1213636D01*
X534090Y-1213636D01*
X530682Y-1212500D01*
X528409Y-1209090D01*
X527273Y-1203409D01*
X527273Y-1200000D01*
X528409Y-1194317D01*
X530682Y-1190909D01*
X534090Y-1189773D01*
X536363Y-1189773D01*
X519773Y-1221590D02*
G01*
X499317Y-1221590D01*
X491817Y-1194317D02*
G01*
X489544Y-1193182D01*
X486136Y-1189773D01*
X486136Y-1213636D01*
X455000Y-1189773D02*
G01*
X455000Y-1213636D01*
X455000Y-1189773D02*
G01*
X444773Y-1189773D01*
X441363Y-1190909D01*
X440226Y-1192044D01*
X439090Y-1194317D01*
X439090Y-1196590D01*
X440226Y-1198863D01*
X441363Y-1200000D01*
X444773Y-1201136D01*
X455000Y-1201136D02*
G01*
X444773Y-1201136D01*
X441363Y-1202273D01*
X440226Y-1203409D01*
X439090Y-1205682D01*
X439090Y-1209090D01*
X440226Y-1211363D01*
X441363Y-1212500D01*
X444773Y-1213636D01*
X455000Y-1213636D01*
X423636Y-1189773D02*
G01*
X423636Y-1213636D01*
X431590Y-1189773D02*
G01*
X415682Y-1189773D01*
X401363Y-1189773D02*
G01*
X404773Y-1190909D01*
X407044Y-1194317D01*
X408182Y-1200000D01*
X408182Y-1203409D01*
X407044Y-1209090D01*
X404773Y-1212500D01*
X401363Y-1213636D01*
X399090Y-1213636D01*
X395682Y-1212500D01*
X393409Y-1209090D01*
X392273Y-1203409D01*
X392273Y-1200000D01*
X393409Y-1194317D01*
X395682Y-1190909D01*
X399090Y-1189773D01*
X401363Y-1189773D01*
X384773Y-1221590D02*
G01*
X364317Y-1221590D01*
X350000Y-1189773D02*
G01*
X353409Y-1190909D01*
X355682Y-1194317D01*
X356817Y-1200000D01*
X356817Y-1203409D01*
X355682Y-1209090D01*
X353409Y-1212500D01*
X350000Y-1213636D01*
X347726Y-1213636D01*
X344317Y-1212500D01*
X342044Y-1209090D01*
X340909Y-1203409D01*
X340909Y-1200000D01*
X342044Y-1194317D01*
X344317Y-1190909D01*
X347726Y-1189773D01*
X350000Y-1189773D01*
X580000Y-1339773D02*
G01*
X580000Y-1363636D01*
X580000Y-1339773D02*
G01*
X569773Y-1339773D01*
X566363Y-1340909D01*
X565226Y-1342044D01*
X564090Y-1344317D01*
X564090Y-1346590D01*
X565226Y-1348863D01*
X566363Y-1350000D01*
X569773Y-1351136D01*
X580000Y-1351136D02*
G01*
X569773Y-1351136D01*
X566363Y-1352273D01*
X565226Y-1353409D01*
X564090Y-1355682D01*
X564090Y-1359090D01*
X565226Y-1361363D01*
X566363Y-1362500D01*
X569773Y-1363636D01*
X580000Y-1363636D01*
X548636Y-1339773D02*
G01*
X548636Y-1363636D01*
X556590Y-1339773D02*
G01*
X540682Y-1339773D01*
X533182Y-1344317D02*
G01*
X530909Y-1343182D01*
X527500Y-1339773D01*
X527500Y-1363636D01*
X520000Y-1371590D02*
G01*
X499544Y-1371590D01*
X492044Y-1344317D02*
G01*
X489773Y-1343182D01*
X486363Y-1339773D01*
X486363Y-1363636D01*
X455000Y-1339773D02*
G01*
X455000Y-1363636D01*
X455000Y-1339773D02*
G01*
X444773Y-1339773D01*
X441363Y-1340909D01*
X440226Y-1342044D01*
X439090Y-1344317D01*
X439090Y-1346590D01*
X440226Y-1348863D01*
X441363Y-1350000D01*
X444773Y-1351136D01*
X455000Y-1351136D02*
G01*
X444773Y-1351136D01*
X441363Y-1352273D01*
X440226Y-1353409D01*
X439090Y-1355682D01*
X439090Y-1359090D01*
X440226Y-1361363D01*
X441363Y-1362500D01*
X444773Y-1363636D01*
X455000Y-1363636D01*
X423636Y-1339773D02*
G01*
X423636Y-1363636D01*
X431590Y-1339773D02*
G01*
X415682Y-1339773D01*
X408182Y-1344317D02*
G01*
X405909Y-1343182D01*
X402500Y-1339773D01*
X402500Y-1363636D01*
X395000Y-1371590D02*
G01*
X374544Y-1371590D01*
X360226Y-1339773D02*
G01*
X363636Y-1340909D01*
X365909Y-1344317D01*
X367044Y-1350000D01*
X367044Y-1353409D01*
X365909Y-1359090D01*
X363636Y-1362500D01*
X360226Y-1363636D01*
X357955Y-1363636D01*
X354544Y-1362500D01*
X352273Y-1359090D01*
X351136Y-1353409D01*
X351136Y-1350000D01*
X352273Y-1344317D01*
X354544Y-1340909D01*
X357955Y-1339773D01*
X360226Y-1339773D01*
X220181Y-1771981D02*
G01*
X221635Y-1769072D01*
X224544Y-1766163D01*
X227454Y-1764708D01*
X233272Y-1764708D01*
X236181Y-1766163D01*
X239090Y-1769072D01*
X240545Y-1771981D01*
X241999Y-1776345D01*
X241999Y-1783618D01*
X240545Y-1787982D01*
X239090Y-1790891D01*
X236181Y-1793800D01*
X233272Y-1795255D01*
X227454Y-1795255D01*
X224544Y-1793800D01*
X221635Y-1790891D01*
X220181Y-1787982D01*
X220181Y-1783618D01*
X227454Y-1783618D02*
G01*
X220181Y-1783618D01*
X210581Y-1764708D02*
G01*
X210581Y-1795255D01*
X210581Y-1764708D02*
G01*
X190217Y-1795255D01*
X190217Y-1764708D02*
G01*
X190217Y-1795255D01*
X180617Y-1764708D02*
G01*
X180617Y-1795255D01*
X180617Y-1764708D02*
G01*
X170435Y-1764708D01*
X166073Y-1766163D01*
X163164Y-1769072D01*
X161709Y-1771981D01*
X160255Y-1776345D01*
X160255Y-1783618D01*
X161709Y-1787982D01*
X163164Y-1790891D01*
X166073Y-1793800D01*
X170435Y-1795255D01*
X180617Y-1795255D01*
D11*
X327500Y-677500D02*
G01*
X312500Y-662500D01*
X196001Y-715000D02*
G01*
X286001Y-715000D01*
X301001Y-730000D01*
X301001Y-1670000D01*
X286001Y-1685000D01*
X176001Y-1685000D01*
X301001Y-1145000D02*
G01*
X351001Y-1145000D01*
X710000Y-1673000D02*
G01*
X736001Y-1700000D01*
X150999Y-1871999D02*
G01*
X249000Y-1871999D01*
D12*
X432300Y-1233000D02*
G01*
X457300Y-1233000D01*
X457300Y-1266999D01*
X436300Y-1266999D01*
X432300Y-1266999D01*
X417300Y-1266999D02*
G01*
X393299Y-1266999D01*
X393299Y-1233000D01*
X414299Y-1233000D01*
X417300Y-1233000D01*
X507699Y-1266999D02*
G01*
X482699Y-1266999D01*
X482699Y-1233000D01*
X503699Y-1233000D01*
X507699Y-1233000D01*
X522699Y-1233000D02*
G01*
X546700Y-1233000D01*
X546700Y-1266999D01*
X525700Y-1266999D01*
X522699Y-1266999D01*
X432300Y-1298000D02*
G01*
X457300Y-1298000D01*
X457300Y-1331999D01*
X436300Y-1331999D01*
X432300Y-1331999D01*
X417300Y-1331999D02*
G01*
X393299Y-1331999D01*
X393299Y-1298000D01*
X414299Y-1298000D01*
X417300Y-1298000D01*
X507699Y-1331999D02*
G01*
X482699Y-1331999D01*
X482699Y-1298000D01*
X503699Y-1298000D01*
X507699Y-1298000D01*
X522699Y-1298000D02*
G01*
X546700Y-1298000D01*
X546700Y-1331999D01*
X525700Y-1331999D01*
X522699Y-1331999D01*
D11*
G75*
G01*
X151000Y-1788000D02*
G03*
X151000Y-1872000I0J-42000D01*
G75*
G01*
X249000Y-1872000D02*
G03*
X249000Y-1788000I1004J42000D01*
G75*
G01
X794000Y-1130000D02*
G03X794000Y-1130000I-43000J0D01*
G75*
G01
X194000Y-730000D02*
G03X194000Y-730000I-43000J0D01*
G75*
G01
X194000Y-830000D02*
G03X194000Y-830000I-43000J0D01*
G75*
G01
X194000Y-930000D02*
G03X194000Y-930000I-43000J0D01*
G75*
G01
X194000Y-1030000D02*
G03X194000Y-1030000I-43000J0D01*
G75*
G01
X194000Y-1130000D02*
G03X194000Y-1130000I-43000J0D01*
G75*
G01
X194000Y-1230000D02*
G03X194000Y-1230000I-43000J0D01*
G75*
G01
X194000Y-1330000D02*
G03X194000Y-1330000I-43000J0D01*
G75*
G01
X194000Y-1630000D02*
G03X194000Y-1630000I-43000J0D01*
G75*
G01
X194000Y-1530000D02*
G03X194000Y-1530000I-43000J0D01*
G75*
G01
X194000Y-1430000D02*
G03X194000Y-1430000I-43000J0D01*
G75*
G01
X244000Y-630000D02*
G03X244000Y-630000I-43000J0D01*
M02*
