G04 Layer: TopSilkLayer*
G04 EasyEDA v6.3.22, 2020-03-24T16:00:13+09:00*
G04 d7f5250073f14fcc9ce3ff4b1d3fcb3e,67344a67363949849f01d11c0c7cf016,10*
G04 Gerber Generator version 0.2*
G04 Scale: 100 percent, Rotated: No, Reflected: No *
G04 Dimensions in inches *
G04 leading zeros omitted , absolute positions ,2 integer and 4 decimal *
%FSLAX24Y24*%
%MOIN*%
G90*
G70D02*

%ADD10C,0.002000*%
%ADD12C,0.006000*%
%ADD13C,0.010000*%
%ADD32C,0.008000*%
%ADD33C,0.007870*%
%ADD34C,0.003937*%
%ADD35C,0.007874*%
%ADD36C,0.011811*%
%ADD37C,0.005000*%

%LPD*%
G54D10*
G01X1150Y13110D02*
G01X5850Y13110D01*
G54D12*
G01X3449Y9446D02*
G01X3449Y9196D01*
G01X3789Y9196D01*
G01X3789Y9407D01*
G01X3789Y9446D01*
G01X3789Y9596D02*
G01X3789Y9836D01*
G01X3449Y9836D01*
G01X3449Y9626D01*
G01X3449Y9596D01*
G01X5039Y11107D02*
G01X5039Y10857D01*
G01X5379Y10857D01*
G01X5379Y11067D01*
G01X5379Y11107D01*
G01X5379Y11257D02*
G01X5379Y11496D01*
G01X5039Y11496D01*
G01X5039Y11286D01*
G01X5039Y11257D01*
G01X5129Y4209D02*
G01X4879Y4209D01*
G01X4879Y3869D01*
G01X5089Y3869D01*
G01X5129Y3869D01*
G01X5279Y3869D02*
G01X5519Y3869D01*
G01X5519Y4209D01*
G01X5309Y4209D01*
G01X5279Y4209D01*
G01X5129Y4640D02*
G01X4879Y4640D01*
G01X4879Y4300D01*
G01X5089Y4300D01*
G01X5129Y4300D01*
G01X5279Y4300D02*
G01X5519Y4300D01*
G01X5519Y4640D01*
G01X5309Y4640D01*
G01X5279Y4640D01*
G01X4979Y2259D02*
G01X4979Y2009D01*
G01X5319Y2009D01*
G01X5319Y2219D01*
G01X5319Y2259D01*
G01X5319Y2409D02*
G01X5319Y2650D01*
G01X4979Y2650D01*
G01X4979Y2440D01*
G01X4979Y2409D01*
G01X5126Y5069D02*
G01X4876Y5069D01*
G01X4876Y4730D01*
G01X5086Y4730D01*
G01X5126Y4730D01*
G01X5276Y4730D02*
G01X5516Y4730D01*
G01X5516Y5069D01*
G01X5306Y5069D01*
G01X5276Y5069D01*
G54D32*
G01X1143Y10230D02*
G01X2796Y10230D01*
G01X2796Y11569D01*
G01X1143Y11569D01*
G01X1143Y10230D01*
G54D12*
G01X2714Y14319D02*
G01X2464Y14319D01*
G01X2464Y13980D01*
G01X2674Y13980D01*
G01X2714Y13980D01*
G01X2864Y13980D02*
G01X3104Y13980D01*
G01X3104Y14319D01*
G01X2894Y14319D01*
G01X2864Y14319D01*
G54D13*
G01X4499Y13850D02*
G01X4899Y14009D01*
G01X4899Y14009D02*
G01X4899Y13690D01*
G01X4899Y13690D02*
G01X4499Y13850D01*
G01X4109Y14243D02*
G01X5290Y14243D01*
G01X4109Y13456D02*
G01X5290Y13456D01*
G01X4499Y14050D02*
G01X4499Y13650D01*
G01X4399Y13850D02*
G01X4999Y13850D01*
G54D12*
G01X1775Y5009D02*
G01X2025Y5009D01*
G01X2025Y5350D01*
G01X1815Y5350D01*
G01X1775Y5350D01*
G01X1625Y5350D02*
G01X1385Y5350D01*
G01X1385Y5009D01*
G01X1595Y5009D01*
G01X1625Y5009D01*
G54D33*
G01X2757Y15868D02*
G01X2757Y16388D01*
G01X1942Y16388D01*
G01X1942Y15868D01*
G01X2757Y15422D02*
G01X2757Y14903D01*
G01X1942Y14903D01*
G01X1942Y15422D01*
G01X5057Y17758D02*
G01X5057Y18278D01*
G01X4242Y18278D01*
G01X4242Y17758D01*
G01X5057Y17312D02*
G01X5057Y16792D01*
G01X4242Y16792D01*
G01X4242Y17312D01*
G01X2757Y17758D02*
G01X2757Y18278D01*
G01X1942Y18278D01*
G01X1942Y17758D01*
G01X2757Y17312D02*
G01X2757Y16792D01*
G01X1942Y16792D01*
G01X1942Y17312D01*
G01X5057Y15868D02*
G01X5057Y16388D01*
G01X4242Y16388D01*
G01X4242Y15868D01*
G01X5057Y15422D02*
G01X5057Y14903D01*
G01X4242Y14903D01*
G01X4242Y15422D01*
G54D13*
G01X3049Y10425D02*
G01X3049Y11134D01*
G01X3817Y10425D02*
G01X3502Y10425D01*
G01X4270Y10425D02*
G01X4270Y11134D01*
G54D12*
G01X5049Y9430D02*
G01X4799Y9430D01*
G01X4799Y9090D01*
G01X5009Y9090D01*
G01X5049Y9090D01*
G01X5199Y9090D02*
G01X5439Y9090D01*
G01X5439Y9430D01*
G01X5229Y9430D01*
G01X5199Y9430D01*
G01X2552Y9780D02*
G01X2802Y9780D01*
G01X2802Y10119D01*
G01X2592Y10119D01*
G01X2552Y10119D01*
G01X2402Y10119D02*
G01X2162Y10119D01*
G01X2162Y9780D01*
G01X2372Y9780D01*
G01X2402Y9780D01*
G01X1456Y10119D02*
G01X1206Y10119D01*
G01X1206Y9780D01*
G01X1416Y9780D01*
G01X1456Y9780D01*
G01X1606Y9780D02*
G01X1846Y9780D01*
G01X1846Y10119D01*
G01X1636Y10119D01*
G01X1606Y10119D01*
G54D34*
G01X1511Y9052D02*
G01X1176Y9052D01*
G01X1511Y9407D02*
G01X1176Y9407D01*
G01X1668Y9052D02*
G01X1964Y9052D01*
G01X1668Y9407D02*
G01X1964Y9407D01*
G01X1176Y9052D02*
G01X1176Y9407D01*
G01X2042Y9131D02*
G01X2042Y9328D01*
G01X1964Y9052D02*
G01X1964Y9052D01*
G01X2042Y9131D01*
G01X1964Y9407D02*
G01X2042Y9328D01*
G01X1554Y9151D02*
G01X1554Y9308D01*
G01X1554Y9229D02*
G01X1627Y9229D01*
G01X4482Y10228D02*
G01X4482Y10563D01*
G01X4837Y10228D02*
G01X4837Y10563D01*
G01X4482Y10071D02*
G01X4482Y9775D01*
G01X4837Y10071D02*
G01X4837Y9775D01*
G01X4482Y10563D02*
G01X4837Y10563D01*
G01X4561Y9697D02*
G01X4758Y9697D01*
G01X4482Y9775D02*
G01X4482Y9775D01*
G01X4561Y9697D01*
G01X4837Y9775D02*
G01X4758Y9697D01*
G01X4581Y10185D02*
G01X4738Y10185D01*
G01X4659Y10185D02*
G01X4659Y10112D01*
G54D12*
G01X2802Y9319D02*
G01X3052Y9319D01*
G01X3052Y9659D01*
G01X2842Y9659D01*
G01X2802Y9659D01*
G01X2652Y9659D02*
G01X2412Y9659D01*
G01X2412Y9319D01*
G01X2622Y9319D01*
G01X2652Y9319D01*
G01X5819Y11253D02*
G01X5819Y11503D01*
G01X5479Y11503D01*
G01X5479Y11292D01*
G01X5479Y11253D01*
G01X5479Y11103D02*
G01X5479Y10863D01*
G01X5819Y10863D01*
G01X5819Y11073D01*
G01X5819Y11103D01*
G01X1799Y4100D02*
G01X1799Y3850D01*
G01X2139Y3850D01*
G01X2139Y4059D01*
G01X2139Y4100D01*
G01X2139Y4250D02*
G01X2139Y4490D01*
G01X1799Y4490D01*
G01X1799Y4280D01*
G01X1799Y4250D01*
G01X2569Y4050D02*
G01X2319Y4050D01*
G01X2319Y3709D01*
G01X2529Y3709D01*
G01X2569Y3709D01*
G01X2719Y3709D02*
G01X2959Y3709D01*
G01X2959Y4050D01*
G01X2749Y4050D01*
G01X2719Y4050D01*
G01X2569Y4509D02*
G01X2319Y4509D01*
G01X2319Y4169D01*
G01X2529Y4169D01*
G01X2569Y4169D01*
G01X2719Y4169D02*
G01X2959Y4169D01*
G01X2959Y4509D01*
G01X2749Y4509D01*
G01X2719Y4509D01*
G01X3719Y3880D02*
G01X3969Y3880D01*
G01X3969Y4219D01*
G01X3759Y4219D01*
G01X3719Y4219D01*
G01X3569Y4219D02*
G01X3329Y4219D01*
G01X3329Y3880D01*
G01X3539Y3880D01*
G01X3569Y3880D01*
G54D13*
G01X2146Y3493D02*
G01X4153Y3493D01*
G01X4153Y1486D02*
G01X2146Y1486D01*
G01X2146Y3493D02*
G01X2146Y3447D01*
G01X2146Y2989D02*
G01X2146Y1990D01*
G01X2146Y1532D02*
G01X2146Y1486D01*
G01X4153Y3493D02*
G01X4153Y3447D01*
G01X4153Y2989D02*
G01X4153Y1990D01*
G01X4153Y1532D02*
G01X4153Y1486D01*
G01X2756Y3277D02*
G01X3543Y3277D01*
G01X3543Y3277D01*
G01X3937Y2883D01*
G01X3937Y2096D01*
G01X3543Y1702D01*
G01X2756Y1702D01*
G01X2362Y2096D01*
G01X2362Y2883D01*
G01X2362Y2883D01*
G01X2756Y3277D01*
G54D35*
G01X1418Y6951D02*
G01X1299Y7069D01*
G01X1418Y7188D01*
G01X3241Y5128D02*
G01X3359Y5009D01*
G01X3478Y5128D01*
G01X5301Y7188D02*
G01X5420Y7069D01*
G01X5301Y6951D01*
G01X3241Y9011D02*
G01X3359Y9130D01*
G01X3478Y9011D01*
G54D37*
G01X1787Y1950D02*
G01X2025Y1950D01*
G01X1787Y1950D02*
G01X1787Y2051D01*
G01X1798Y2086D01*
G01X1809Y2098D01*
G01X1832Y2109D01*
G01X1855Y2109D01*
G01X1878Y2098D01*
G01X1889Y2086D01*
G01X1900Y2051D01*
G01X1900Y1950D01*
G01X1900Y2030D02*
G01X2025Y2109D01*
G01X1787Y2184D02*
G01X2025Y2184D01*
G01X1787Y2184D02*
G01X1787Y2332D01*
G01X1900Y2184D02*
G01X1900Y2275D01*
G01X2025Y2184D02*
G01X2025Y2332D01*
G01X1821Y2565D02*
G01X1798Y2542D01*
G01X1787Y2509D01*
G01X1787Y2463D01*
G01X1798Y2430D01*
G01X1821Y2407D01*
G01X1844Y2407D01*
G01X1866Y2417D01*
G01X1878Y2430D01*
G01X1889Y2451D01*
G01X1912Y2519D01*
G01X1923Y2542D01*
G01X1934Y2555D01*
G01X1957Y2565D01*
G01X1991Y2565D01*
G01X2014Y2542D01*
G01X2025Y2509D01*
G01X2025Y2463D01*
G01X2014Y2430D01*
G01X1991Y2407D01*
G01X1787Y2640D02*
G01X2025Y2640D01*
G01X1787Y2640D02*
G01X1787Y2788D01*
G01X1900Y2640D02*
G01X1900Y2732D01*
G01X2025Y2640D02*
G01X2025Y2788D01*
G01X1787Y2942D02*
G01X2025Y2942D01*
G01X1787Y2863D02*
G01X1787Y3023D01*
G54D12*
G01X5001Y10253D02*
G01X4974Y10240D01*
G01X4946Y10213D01*
G01X4933Y10184D01*
G01X4919Y10144D01*
G01X4919Y10076D01*
G01X4933Y10034D01*
G01X4946Y10007D01*
G01X4974Y9980D01*
G01X5001Y9967D01*
G01X5055Y9967D01*
G01X5083Y9980D01*
G01X5110Y10007D01*
G01X5124Y10034D01*
G01X5137Y10076D01*
G01X5137Y10144D01*
G01X5124Y10184D01*
G01X5110Y10213D01*
G01X5083Y10240D01*
G01X5055Y10253D01*
G01X5001Y10253D01*
G01X5227Y10253D02*
G01X5227Y9967D01*
G01X5227Y10253D02*
G01X5418Y9967D01*
G01X5418Y10253D02*
G01X5418Y9967D01*
G01X1249Y8983D02*
G01X1249Y8696D01*
G01X1249Y8696D02*
G01X1413Y8696D01*
G01X1503Y8983D02*
G01X1503Y8696D01*
G01X1503Y8983D02*
G01X1680Y8983D01*
G01X1503Y8846D02*
G01X1612Y8846D01*
G01X1503Y8696D02*
G01X1680Y8696D01*
G01X1770Y8983D02*
G01X1770Y8696D01*
G01X1770Y8983D02*
G01X1865Y8983D01*
G01X1906Y8969D01*
G01X1934Y8942D01*
G01X1947Y8914D01*
G01X1961Y8874D01*
G01X1961Y8805D01*
G01X1947Y8764D01*
G01X1934Y8737D01*
G01X1906Y8710D01*
G01X1865Y8696D01*
G01X1770Y8696D01*
G01X515Y12465D02*
G01X312Y12263D01*
G01X515Y12465D02*
G01X602Y12378D01*
G01X621Y12340D01*
G01X621Y12320D01*
G01X611Y12292D01*
G01X583Y12263D01*
G01X554Y12253D01*
G01X534Y12253D01*
G01X496Y12272D01*
G01X409Y12359D01*
G01X810Y12074D02*
G01X820Y12103D01*
G01X820Y12141D01*
G01X810Y12170D01*
G01X771Y12209D01*
G01X743Y12219D01*
G01X705Y12219D01*
G01X675Y12209D01*
G01X636Y12190D01*
G01X588Y12141D01*
G01X569Y12103D01*
G01X560Y12074D01*
G01X560Y12035D01*
G01X569Y12006D01*
G01X608Y11967D01*
G01X637Y11958D01*
G01X675Y11958D01*
G01X704Y11967D01*
G01X884Y12020D02*
G01X913Y12011D01*
G01X970Y12010D01*
G01X768Y11808D01*
G01X1053Y11927D02*
G01X1159Y11821D01*
G01X1024Y11801D01*
G01X1053Y11773D01*
G01X1063Y11744D01*
G01X1063Y11725D01*
G01X1044Y11686D01*
G01X1024Y11667D01*
G01X986Y11648D01*
G01X947Y11648D01*
G01X908Y11667D01*
G01X879Y11696D01*
G01X860Y11735D01*
G01X860Y11753D01*
G01X870Y11783D01*
G01X1612Y12252D02*
G01X1621Y12281D01*
G01X1622Y12320D01*
G01X1611Y12349D01*
G01X1573Y12387D01*
G01X1545Y12397D01*
G01X1505Y12397D01*
G01X1477Y12387D01*
G01X1438Y12368D01*
G01X1390Y12320D01*
G01X1371Y12281D01*
G01X1361Y12253D01*
G01X1361Y12213D01*
G01X1371Y12185D01*
G01X1409Y12147D01*
G01X1438Y12136D01*
G01X1477Y12137D01*
G01X1506Y12146D01*
G01X1535Y12175D01*
G01X1486Y12224D02*
G01X1535Y12175D01*
G01X1724Y12236D02*
G01X1521Y12034D01*
G01X1724Y12236D02*
G01X1656Y11900D01*
G01X1858Y12102D02*
G01X1656Y11900D01*
G01X1922Y12038D02*
G01X1719Y11836D01*
G01X1922Y12038D02*
G01X1990Y11971D01*
G01X2009Y11932D01*
G01X2009Y11894D01*
G01X1999Y11865D01*
G01X1980Y11826D01*
G01X1932Y11778D01*
G01X1893Y11758D01*
G01X1864Y11749D01*
G01X1825Y11749D01*
G01X1787Y11768D01*
G01X1719Y11836D01*
G01X5515Y12415D02*
G01X5390Y12135D01*
G01X5670Y12261D02*
G01X5390Y12135D01*
G01X5733Y12198D02*
G01X5530Y11995D01*
G01X5797Y12134D02*
G01X5594Y11931D01*
G01X5797Y12134D02*
G01X5729Y11796D01*
G01X5932Y11999D02*
G01X5729Y11796D01*
G01X4621Y12341D02*
G01X4621Y12380D01*
G01X4602Y12419D01*
G01X4564Y12457D01*
G01X4525Y12476D01*
G01X4486Y12476D01*
G01X4467Y12457D01*
G01X4457Y12428D01*
G01X4457Y12409D01*
G01X4467Y12380D01*
G01X4506Y12303D01*
G01X4515Y12274D01*
G01X4515Y12254D01*
G01X4506Y12225D01*
G01X4477Y12196D01*
G01X4438Y12196D01*
G01X4399Y12216D01*
G01X4361Y12254D01*
G01X4341Y12293D01*
G01X4341Y12332D01*
G01X4714Y12307D02*
G01X4559Y12056D01*
G01X4810Y12211D02*
G01X4559Y12056D01*
G01X4810Y12211D02*
G01X4655Y11960D01*
G01X4907Y12114D02*
G01X4655Y11960D01*
G01X4971Y12050D02*
G01X4768Y11847D01*
G01X4971Y12050D02*
G01X5038Y11983D01*
G01X5057Y11944D01*
G01X5057Y11906D01*
G01X5047Y11876D01*
G01X5029Y11838D01*
G01X4980Y11789D01*
G01X4941Y11770D01*
G01X4912Y11761D01*
G01X4874Y11761D01*
G01X4835Y11780D01*
G01X4768Y11847D01*
G01X5169Y11851D02*
G01X4967Y11648D01*
G01X5290Y11730D02*
G01X5261Y11740D01*
G01X5223Y11740D01*
G01X5194Y11730D01*
G01X5156Y11711D01*
G01X5107Y11662D01*
G01X5087Y11624D01*
G01X5078Y11595D01*
G01X5078Y11557D01*
G01X5087Y11528D01*
G01X5126Y11489D01*
G01X5155Y11479D01*
G01X5194Y11479D01*
G01X5223Y11489D01*
G01X5261Y11508D01*
G01X5310Y11557D01*
G01X5329Y11595D01*
G01X5338Y11624D01*
G01X5338Y11663D01*
G01X5329Y11692D01*
G01X5290Y11730D01*
G01X3621Y12361D02*
G01X3621Y12400D01*
G01X3601Y12438D01*
G01X3563Y12477D01*
G01X3525Y12496D01*
G01X3486Y12496D01*
G01X3467Y12477D01*
G01X3457Y12448D01*
G01X3457Y12429D01*
G01X3467Y12400D01*
G01X3505Y12322D01*
G01X3515Y12294D01*
G01X3515Y12274D01*
G01X3505Y12246D01*
G01X3476Y12217D01*
G01X3438Y12217D01*
G01X3399Y12236D01*
G01X3361Y12274D01*
G01X3342Y12313D01*
G01X3342Y12351D01*
G01X3713Y12327D02*
G01X3560Y12076D01*
G01X3810Y12230D02*
G01X3560Y12076D01*
G01X3810Y12230D02*
G01X3656Y11980D01*
G01X3906Y12134D02*
G01X3656Y11980D01*
G01X4067Y11877D02*
G01X4076Y11906D01*
G01X4077Y11945D01*
G01X4067Y11973D01*
G01X4028Y12012D01*
G01X4000Y12022D01*
G01X3960Y12022D01*
G01X3932Y12012D01*
G01X3893Y11993D01*
G01X3845Y11945D01*
G01X3826Y11906D01*
G01X3816Y11878D01*
G01X3816Y11839D01*
G01X3826Y11810D01*
G01X3865Y11771D01*
G01X3894Y11762D01*
G01X3932Y11762D01*
G01X3961Y11771D01*
G01X4178Y11861D02*
G01X3976Y11659D01*
G01X3976Y11659D02*
G01X4092Y11544D01*
G01X4357Y11683D02*
G01X4155Y11480D01*
G01X4492Y11547D02*
G01X4222Y11547D01*
G01X4320Y11547D02*
G01X4290Y11345D01*
G01X2515Y12426D02*
G01X2621Y12320D01*
G01X2485Y12300D01*
G01X2514Y12271D01*
G01X2524Y12243D01*
G01X2524Y12223D01*
G01X2505Y12184D01*
G01X2486Y12165D01*
G01X2447Y12146D01*
G01X2409Y12146D01*
G01X2370Y12165D01*
G01X2341Y12194D01*
G01X2322Y12233D01*
G01X2321Y12252D01*
G01X2332Y12281D01*
G01X2694Y12247D02*
G01X2569Y11967D01*
G01X2849Y12092D02*
G01X2569Y11967D01*
G01X2931Y12010D02*
G01X3037Y11904D01*
G01X2902Y11884D01*
G01X2931Y11855D01*
G01X2941Y11827D01*
G01X2941Y11807D01*
G01X2921Y11768D01*
G01X2902Y11749D01*
G01X2863Y11730D01*
G01X2825Y11730D01*
G01X2786Y11749D01*
G01X2757Y11778D01*
G01X2738Y11817D01*
G01X2738Y11836D01*
G01X2748Y11865D01*
G01X5892Y11519D02*
G01X5689Y11317D01*
G01X5892Y11519D02*
G01X5979Y11432D01*
G01X5998Y11394D01*
G01X5998Y11375D01*
G01X5989Y11346D01*
G01X5960Y11317D01*
G01X5931Y11307D01*
G01X5912Y11307D01*
G01X5873Y11326D01*
G01X5786Y11413D01*
G01X6091Y11321D02*
G01X5888Y11118D01*
G01X6091Y11321D02*
G01X6178Y11234D01*
G01X6197Y11195D01*
G01X6196Y11176D01*
G01X6187Y11147D01*
G01X6168Y11128D01*
G01X6139Y11119D01*
G01X6120Y11118D01*
G01X6081Y11137D01*
G01X5994Y11224D02*
G01X6081Y11137D01*
G01X6101Y11099D01*
G01X6100Y11080D01*
G01X6091Y11051D01*
G01X6062Y11022D01*
G01X6033Y11012D01*
G01X6014Y11012D01*
G01X5975Y11031D01*
G01X5888Y11118D01*
G01X6347Y10929D02*
G01X6308Y10910D01*
G01X6270Y10910D01*
G01X6231Y10929D01*
G01X6222Y10938D01*
G01X6203Y10977D01*
G01X6202Y11016D01*
G01X6222Y11054D01*
G01X6232Y11064D01*
G01X6270Y11084D01*
G01X6309Y11083D01*
G01X6348Y11064D01*
G01X6357Y11055D01*
G01X6376Y11016D01*
G01X6376Y10978D01*
G01X6347Y10929D01*
G01X6299Y10881D01*
G01X6241Y10843D01*
G01X6193Y10833D01*
G01X6154Y10852D01*
G01X6135Y10871D01*
G01X6116Y10910D01*
G01X6125Y10939D01*
G01X5882Y10519D02*
G01X5679Y10317D01*
G01X5882Y10519D02*
G01X5969Y10433D01*
G01X5988Y10394D01*
G01X5988Y10375D01*
G01X5979Y10346D01*
G01X5950Y10317D01*
G01X5921Y10307D01*
G01X5902Y10307D01*
G01X5863Y10326D01*
G01X5776Y10413D01*
G01X6081Y10321D02*
G01X5878Y10118D01*
G01X6081Y10321D02*
G01X6168Y10234D01*
G01X6187Y10195D01*
G01X6186Y10176D01*
G01X6177Y10147D01*
G01X6158Y10128D01*
G01X6129Y10119D01*
G01X6110Y10118D01*
G01X6071Y10137D01*
G01X5984Y10224D02*
G01X6071Y10137D01*
G01X6091Y10099D01*
G01X6090Y10080D01*
G01X6081Y10051D01*
G01X6052Y10022D01*
G01X6023Y10013D01*
G01X6004Y10012D01*
G01X5965Y10031D01*
G01X5878Y10118D01*
G01X6328Y10074D02*
G01X6289Y10093D01*
G01X6260Y10084D01*
G01X6240Y10064D01*
G01X6231Y10035D01*
G01X6241Y10007D01*
G01X6270Y9958D01*
G01X6289Y9919D01*
G01X6289Y9881D01*
G01X6280Y9852D01*
G01X6251Y9823D01*
G01X6222Y9814D01*
G01X6202Y9814D01*
G01X6164Y9832D01*
G01X6125Y9871D01*
G01X6106Y9910D01*
G01X6106Y9930D01*
G01X6116Y9958D01*
G01X6145Y9987D01*
G01X6173Y9997D01*
G01X6212Y9996D01*
G01X6251Y9977D01*
G01X6299Y9949D01*
G01X6327Y9939D01*
G01X6356Y9948D01*
G01X6376Y9968D01*
G01X6385Y9997D01*
G01X6367Y10035D01*
G01X6328Y10074D01*
G01X5862Y9550D02*
G01X5659Y9347D01*
G01X5862Y9550D02*
G01X5949Y9463D01*
G01X5968Y9424D01*
G01X5968Y9405D01*
G01X5959Y9376D01*
G01X5930Y9347D01*
G01X5901Y9337D01*
G01X5882Y9337D01*
G01X5843Y9356D01*
G01X5756Y9443D01*
G01X6061Y9351D02*
G01X5858Y9148D01*
G01X6061Y9351D02*
G01X6148Y9264D01*
G01X6166Y9226D01*
G01X6166Y9206D01*
G01X6157Y9177D01*
G01X6138Y9158D01*
G01X6109Y9149D01*
G01X6089Y9149D01*
G01X6051Y9167D01*
G01X5964Y9254D02*
G01X6051Y9167D01*
G01X6070Y9129D01*
G01X6070Y9110D01*
G01X6061Y9081D01*
G01X6032Y9052D01*
G01X6003Y9043D01*
G01X5983Y9043D01*
G01X5945Y9061D01*
G01X5858Y9148D01*
G01X6395Y9017D02*
G01X6095Y8911D01*
G01X6260Y9152D02*
G01X6395Y9017D01*
G01X5852Y8550D02*
G01X5649Y8347D01*
G01X5852Y8550D02*
G01X5939Y8463D01*
G01X5958Y8424D01*
G01X5958Y8405D01*
G01X5949Y8376D01*
G01X5920Y8347D01*
G01X5891Y8337D01*
G01X5872Y8337D01*
G01X5833Y8356D01*
G01X5746Y8443D01*
G01X6051Y8351D02*
G01X5848Y8148D01*
G01X6051Y8351D02*
G01X6138Y8264D01*
G01X6157Y8225D01*
G01X6156Y8206D01*
G01X6147Y8177D01*
G01X6128Y8158D01*
G01X6099Y8149D01*
G01X6080Y8148D01*
G01X6041Y8167D01*
G01X5954Y8254D02*
G01X6041Y8167D01*
G01X6061Y8129D01*
G01X6060Y8110D01*
G01X6051Y8081D01*
G01X6022Y8052D01*
G01X5993Y8043D01*
G01X5974Y8042D01*
G01X5935Y8061D01*
G01X5848Y8148D01*
G01X6336Y8008D02*
G01X6346Y8036D01*
G01X6327Y8075D01*
G01X6308Y8094D01*
G01X6269Y8113D01*
G01X6220Y8104D01*
G01X6163Y8065D01*
G01X6115Y8017D01*
G01X6085Y7969D01*
G01X6086Y7930D01*
G01X6105Y7891D01*
G01X6114Y7882D01*
G01X6153Y7863D01*
G01X6191Y7863D01*
G01X6230Y7882D01*
G01X6240Y7892D01*
G01X6259Y7931D01*
G01X6259Y7969D01*
G01X6240Y8008D01*
G01X6231Y8017D01*
G01X6192Y8036D01*
G01X6153Y8037D01*
G01X6115Y8017D01*
G01X5862Y7539D02*
G01X5659Y7337D01*
G01X5862Y7539D02*
G01X5949Y7453D01*
G01X5968Y7414D01*
G01X5968Y7395D01*
G01X5959Y7366D01*
G01X5930Y7337D01*
G01X5901Y7327D01*
G01X5882Y7327D01*
G01X5843Y7346D01*
G01X5756Y7433D01*
G01X6061Y7341D02*
G01X5858Y7138D01*
G01X6061Y7341D02*
G01X6148Y7254D01*
G01X6167Y7215D01*
G01X6166Y7196D01*
G01X6157Y7167D01*
G01X6138Y7148D01*
G01X6109Y7139D01*
G01X6090Y7138D01*
G01X6051Y7157D01*
G01X5964Y7244D02*
G01X6051Y7157D01*
G01X6071Y7119D01*
G01X6070Y7100D01*
G01X6061Y7071D01*
G01X6032Y7042D01*
G01X6003Y7032D01*
G01X5984Y7032D01*
G01X5945Y7051D01*
G01X5858Y7138D01*
G01X6375Y7027D02*
G01X6279Y7123D01*
G01X6182Y7046D01*
G01X6202Y7046D01*
G01X6240Y7026D01*
G01X6269Y6997D01*
G01X6289Y6959D01*
G01X6288Y6920D01*
G01X6269Y6881D01*
G01X6250Y6862D01*
G01X6211Y6843D01*
G01X6173Y6843D01*
G01X6134Y6862D01*
G01X6105Y6891D01*
G01X6086Y6930D01*
G01X6086Y6950D01*
G01X6096Y6978D01*
G01X5822Y6619D02*
G01X5619Y6417D01*
G01X5822Y6619D02*
G01X5909Y6533D01*
G01X5928Y6494D01*
G01X5928Y6475D01*
G01X5919Y6446D01*
G01X5890Y6417D01*
G01X5861Y6407D01*
G01X5842Y6407D01*
G01X5803Y6426D01*
G01X5716Y6513D01*
G01X6021Y6421D02*
G01X5818Y6218D01*
G01X6021Y6421D02*
G01X6108Y6334D01*
G01X6127Y6295D01*
G01X6126Y6276D01*
G01X6117Y6247D01*
G01X6098Y6228D01*
G01X6069Y6219D01*
G01X6050Y6218D01*
G01X6011Y6237D01*
G01X5924Y6324D02*
G01X6011Y6237D01*
G01X6031Y6199D01*
G01X6030Y6180D01*
G01X6021Y6151D01*
G01X5992Y6122D01*
G01X5963Y6112D01*
G01X5944Y6112D01*
G01X5905Y6131D01*
G01X5818Y6218D01*
G01X6316Y6126D02*
G01X6085Y6087D01*
G01X6229Y5943D01*
G01X6316Y6126D02*
G01X6113Y5923D01*
G01X5812Y5650D02*
G01X5609Y5447D01*
G01X5812Y5650D02*
G01X5899Y5563D01*
G01X5918Y5524D01*
G01X5918Y5505D01*
G01X5909Y5476D01*
G01X5880Y5447D01*
G01X5851Y5437D01*
G01X5832Y5437D01*
G01X5793Y5456D01*
G01X5706Y5543D01*
G01X6011Y5451D02*
G01X5808Y5248D01*
G01X6011Y5451D02*
G01X6098Y5364D01*
G01X6116Y5326D01*
G01X6116Y5306D01*
G01X6107Y5277D01*
G01X6088Y5258D01*
G01X6059Y5249D01*
G01X6039Y5249D01*
G01X6001Y5267D01*
G01X5914Y5354D02*
G01X6001Y5267D01*
G01X6020Y5229D01*
G01X6020Y5210D01*
G01X6011Y5181D01*
G01X5982Y5152D01*
G01X5953Y5142D01*
G01X5933Y5142D01*
G01X5895Y5161D01*
G01X5808Y5248D01*
G01X6229Y5233D02*
G01X6335Y5127D01*
G01X6200Y5108D01*
G01X6229Y5079D01*
G01X6238Y5050D01*
G01X6238Y5030D01*
G01X6219Y4991D01*
G01X6200Y4972D01*
G01X6161Y4953D01*
G01X6123Y4953D01*
G01X6084Y4972D01*
G01X6055Y5001D01*
G01X6036Y5040D01*
G01X6036Y5060D01*
G01X6046Y5088D01*
G01X5762Y4680D02*
G01X5559Y4477D01*
G01X5762Y4680D02*
G01X5849Y4593D01*
G01X5868Y4554D01*
G01X5868Y4535D01*
G01X5859Y4506D01*
G01X5830Y4477D01*
G01X5801Y4467D01*
G01X5782Y4467D01*
G01X5743Y4486D01*
G01X5656Y4573D01*
G01X6038Y4404D02*
G01X5758Y4278D01*
G01X6038Y4404D02*
G01X5912Y4124D01*
G01X5855Y4317D02*
G01X5951Y4221D01*
G01X6140Y4224D02*
G01X6169Y4215D01*
G01X6227Y4215D01*
G01X6024Y4012D01*
G01X6252Y4093D02*
G01X6262Y4103D01*
G01X6291Y4112D01*
G01X6310Y4112D01*
G01X6339Y4103D01*
G01X6378Y4064D01*
G01X6387Y4035D01*
G01X6387Y4016D01*
G01X6378Y3987D01*
G01X6359Y3967D01*
G01X6330Y3958D01*
G01X6281Y3948D01*
G01X6088Y3948D01*
G01X6223Y3813D01*
G01X5742Y3680D02*
G01X5539Y3477D01*
G01X5742Y3680D02*
G01X5829Y3593D01*
G01X5848Y3554D01*
G01X5848Y3535D01*
G01X5839Y3506D01*
G01X5810Y3477D01*
G01X5781Y3467D01*
G01X5762Y3467D01*
G01X5723Y3486D01*
G01X5636Y3573D01*
G01X6018Y3404D02*
G01X5738Y3278D01*
G01X6018Y3404D02*
G01X5892Y3124D01*
G01X5835Y3317D02*
G01X5931Y3221D01*
G01X6120Y3224D02*
G01X6149Y3215D01*
G01X6207Y3215D01*
G01X6004Y3012D01*
G01X6232Y3112D02*
G01X6261Y3103D01*
G01X6319Y3103D01*
G01X6116Y2900D01*
G01X5572Y2860D02*
G01X5369Y2657D01*
G01X5572Y2860D02*
G01X5659Y2773D01*
G01X5678Y2734D01*
G01X5678Y2715D01*
G01X5669Y2686D01*
G01X5640Y2657D01*
G01X5611Y2647D01*
G01X5592Y2647D01*
G01X5553Y2666D01*
G01X5466Y2753D01*
G01X5848Y2584D02*
G01X5568Y2458D01*
G01X5848Y2584D02*
G01X5722Y2304D01*
G01X5665Y2497D02*
G01X5761Y2401D01*
G01X5950Y2404D02*
G01X5979Y2395D01*
G01X6037Y2395D01*
G01X5834Y2192D01*
G01X6159Y2273D02*
G01X6120Y2292D01*
G01X6072Y2283D01*
G01X6014Y2244D01*
G01X5985Y2215D01*
G01X5946Y2157D01*
G01X5937Y2109D01*
G01X5956Y2070D01*
G01X5975Y2051D01*
G01X6014Y2032D01*
G01X6062Y2042D01*
G01X6120Y2080D01*
G01X6149Y2109D01*
G01X6187Y2167D01*
G01X6197Y2215D01*
G01X6178Y2254D01*
G01X6159Y2273D01*
G01X5666Y2215D02*
G01X5463Y2012D01*
G01X5666Y2215D02*
G01X5753Y2128D01*
G01X5772Y2090D01*
G01X5771Y2070D01*
G01X5762Y2041D01*
G01X5733Y2012D01*
G01X5704Y2003D01*
G01X5685Y2003D01*
G01X5646Y2022D01*
G01X5559Y2109D01*
G01X5941Y1940D02*
G01X5661Y1814D01*
G01X5941Y1940D02*
G01X5815Y1660D01*
G01X5758Y1853D02*
G01X5854Y1756D01*
G01X6139Y1606D02*
G01X6101Y1586D01*
G01X6062Y1587D01*
G01X6023Y1606D01*
G01X6014Y1615D01*
G01X5995Y1654D01*
G01X5995Y1692D01*
G01X6014Y1731D01*
G01X6024Y1741D01*
G01X6063Y1760D01*
G01X6101Y1760D01*
G01X6140Y1741D01*
G01X6149Y1732D01*
G01X6168Y1693D01*
G01X6169Y1654D01*
G01X6139Y1606D01*
G01X6091Y1558D01*
G01X6034Y1519D01*
G01X5985Y1510D01*
G01X5946Y1529D01*
G01X5927Y1548D01*
G01X5908Y1587D01*
G01X5918Y1615D01*
G01X5852Y1500D02*
G01X5650Y1297D01*
G01X5852Y1500D02*
G01X5939Y1413D01*
G01X5958Y1374D01*
G01X5958Y1355D01*
G01X5949Y1326D01*
G01X5920Y1297D01*
G01X5891Y1287D01*
G01X5872Y1287D01*
G01X5833Y1306D01*
G01X5746Y1393D01*
G01X6128Y1224D02*
G01X5848Y1098D01*
G01X6128Y1224D02*
G01X6002Y944D01*
G01X5945Y1137D02*
G01X6041Y1041D01*
G01X6317Y1035D02*
G01X6278Y1054D01*
G01X6250Y1044D01*
G01X6230Y1024D01*
G01X6220Y996D01*
G01X6231Y967D01*
G01X6259Y919D01*
G01X6278Y880D01*
G01X6278Y842D01*
G01X6269Y813D01*
G01X6240Y784D01*
G01X6211Y775D01*
G01X6192Y774D01*
G01X6153Y793D01*
G01X6114Y832D01*
G01X6095Y871D01*
G01X6096Y890D01*
G01X6105Y919D01*
G01X6134Y948D01*
G01X6163Y957D01*
G01X6201Y957D01*
G01X6240Y938D01*
G01X6288Y910D01*
G01X6317Y899D01*
G01X6345Y909D01*
G01X6365Y929D01*
G01X6375Y957D01*
G01X6356Y996D01*
G01X6317Y1035D01*
G01X4799Y725D02*
G01X5002Y523D01*
G01X4799Y725D02*
G01X4886Y811D01*
G01X4925Y830D01*
G01X4944Y831D01*
G01X4973Y821D01*
G01X5002Y793D01*
G01X5012Y763D01*
G01X5011Y744D01*
G01X4992Y705D01*
G01X4906Y619D01*
G01X4998Y924D02*
G01X5200Y722D01*
G01X4998Y924D02*
G01X5084Y1010D01*
G01X5123Y1029D01*
G01X5142Y1030D01*
G01X5172Y1020D01*
G01X5191Y1001D01*
G01X5200Y972D01*
G01X5200Y952D01*
G01X5181Y914D01*
G01X5094Y828D02*
G01X5181Y914D01*
G01X5220Y933D01*
G01X5239Y933D01*
G01X5268Y924D01*
G01X5297Y895D01*
G01X5306Y866D01*
G01X5306Y846D01*
G01X5287Y808D01*
G01X5200Y722D01*
G01X5236Y1084D02*
G01X5245Y1113D01*
G01X5245Y1171D01*
G01X5447Y968D01*
G01X5424Y1350D02*
G01X5328Y1253D01*
G01X5405Y1156D01*
G01X5405Y1176D01*
G01X5424Y1215D01*
G01X5453Y1244D01*
G01X5492Y1263D01*
G01X5530Y1263D01*
G01X5569Y1244D01*
G01X5589Y1224D01*
G01X5607Y1186D01*
G01X5608Y1147D01*
G01X5588Y1109D01*
G01X5559Y1080D01*
G01X5521Y1060D01*
G01X5501Y1060D01*
G01X5473Y1070D01*
G01X3799Y794D02*
G01X4002Y591D01*
G01X3799Y794D02*
G01X3886Y881D01*
G01X3925Y900D01*
G01X3944Y900D01*
G01X3973Y890D01*
G01X4002Y861D01*
G01X4012Y832D01*
G01X4012Y813D01*
G01X3993Y775D01*
G01X3906Y688D01*
G01X3998Y993D02*
G01X4201Y790D01*
G01X3998Y993D02*
G01X4085Y1080D01*
G01X4123Y1098D01*
G01X4143Y1098D01*
G01X4172Y1089D01*
G01X4191Y1070D01*
G01X4200Y1041D01*
G01X4200Y1021D01*
G01X4182Y983D01*
G01X4095Y896D02*
G01X4182Y983D01*
G01X4220Y1002D01*
G01X4239Y1002D01*
G01X4268Y993D01*
G01X4297Y964D01*
G01X4306Y935D01*
G01X4306Y915D01*
G01X4288Y877D01*
G01X4201Y790D01*
G01X4236Y1153D02*
G01X4245Y1182D01*
G01X4245Y1240D01*
G01X4448Y1037D01*
G01X4405Y1400D02*
G01X4444Y1168D01*
G01X4588Y1313D01*
G01X4405Y1400D02*
G01X4608Y1197D01*
G01X2809Y795D02*
G01X3012Y592D01*
G01X2809Y795D02*
G01X2896Y882D01*
G01X2935Y901D01*
G01X2954Y901D01*
G01X2983Y891D01*
G01X3012Y862D01*
G01X3022Y833D01*
G01X3022Y814D01*
G01X3003Y776D01*
G01X2916Y689D01*
G01X3008Y994D02*
G01X3211Y791D01*
G01X3008Y994D02*
G01X3095Y1081D01*
G01X3134Y1100D01*
G01X3153Y1099D01*
G01X3182Y1090D01*
G01X3201Y1071D01*
G01X3211Y1041D01*
G01X3211Y1023D01*
G01X3192Y984D01*
G01X3105Y897D02*
G01X3192Y984D01*
G01X3230Y1004D01*
G01X3249Y1003D01*
G01X3278Y994D01*
G01X3307Y965D01*
G01X3317Y935D01*
G01X3317Y917D01*
G01X3298Y878D01*
G01X3211Y791D01*
G01X3246Y1154D02*
G01X3255Y1183D01*
G01X3255Y1241D01*
G01X3458Y1038D01*
G01X3338Y1323D02*
G01X3444Y1429D01*
G01X3464Y1294D01*
G01X3493Y1323D01*
G01X3522Y1333D01*
G01X3541Y1333D01*
G01X3580Y1314D01*
G01X3599Y1294D01*
G01X3618Y1256D01*
G01X3618Y1217D01*
G01X3599Y1178D01*
G01X3570Y1149D01*
G01X3531Y1130D01*
G01X3512Y1130D01*
G01X3483Y1140D01*
G01X1779Y784D02*
G01X1982Y581D01*
G01X1779Y784D02*
G01X1866Y870D01*
G01X1905Y890D01*
G01X1924Y890D01*
G01X1953Y880D01*
G01X1982Y851D01*
G01X1992Y822D01*
G01X1992Y803D01*
G01X1973Y764D01*
G01X1886Y677D01*
G01X1978Y982D02*
G01X2180Y780D01*
G01X1978Y982D02*
G01X2065Y1069D01*
G01X2103Y1088D01*
G01X2122Y1088D01*
G01X2152Y1078D01*
G01X2171Y1059D01*
G01X2180Y1030D01*
G01X2180Y1010D01*
G01X2161Y973D01*
G01X2074Y886D02*
G01X2161Y973D01*
G01X2200Y991D01*
G01X2219Y991D01*
G01X2248Y982D01*
G01X2277Y953D01*
G01X2286Y924D01*
G01X2286Y904D01*
G01X2267Y867D01*
G01X2180Y780D01*
G01X2216Y1142D02*
G01X2225Y1171D01*
G01X2225Y1229D01*
G01X2427Y1027D01*
G01X2347Y1254D02*
G01X2337Y1264D01*
G01X2327Y1293D01*
G01X2327Y1312D01*
G01X2337Y1341D01*
G01X2376Y1380D01*
G01X2405Y1389D01*
G01X2424Y1390D01*
G01X2453Y1379D01*
G01X2472Y1360D01*
G01X2482Y1332D01*
G01X2491Y1283D01*
G01X2491Y1090D01*
G01X2626Y1225D01*
G01X869Y1304D02*
G01X1072Y1101D01*
G01X869Y1304D02*
G01X956Y1390D01*
G01X995Y1410D01*
G01X1014Y1410D01*
G01X1043Y1400D01*
G01X1072Y1371D01*
G01X1081Y1342D01*
G01X1082Y1323D01*
G01X1063Y1284D01*
G01X976Y1197D01*
G01X1068Y1502D02*
G01X1270Y1300D01*
G01X1068Y1502D02*
G01X1155Y1589D01*
G01X1193Y1609D01*
G01X1212Y1608D01*
G01X1241Y1599D01*
G01X1261Y1580D01*
G01X1270Y1550D01*
G01X1270Y1532D01*
G01X1251Y1493D01*
G01X1164Y1406D02*
G01X1251Y1493D01*
G01X1290Y1512D01*
G01X1309Y1512D01*
G01X1338Y1502D01*
G01X1367Y1474D01*
G01X1376Y1444D01*
G01X1376Y1426D01*
G01X1357Y1387D01*
G01X1270Y1300D01*
G01X1305Y1663D02*
G01X1315Y1691D01*
G01X1315Y1749D01*
G01X1517Y1547D01*
G01X1437Y1871D02*
G01X1417Y1832D01*
G01X1427Y1784D01*
G01X1465Y1726D01*
G01X1494Y1697D01*
G01X1552Y1659D01*
G01X1600Y1649D01*
G01X1639Y1668D01*
G01X1658Y1687D01*
G01X1677Y1726D01*
G01X1667Y1774D01*
G01X1629Y1832D01*
G01X1600Y1861D01*
G01X1542Y1900D01*
G01X1494Y1909D01*
G01X1456Y1890D01*
G01X1437Y1871D01*
G01X809Y2224D02*
G01X1012Y2022D01*
G01X809Y2224D02*
G01X896Y2311D01*
G01X935Y2331D01*
G01X954Y2330D01*
G01X983Y2321D01*
G01X1012Y2292D01*
G01X1022Y2262D01*
G01X1022Y2244D01*
G01X1003Y2205D01*
G01X916Y2118D01*
G01X1008Y2423D02*
G01X1210Y2220D01*
G01X1008Y2423D02*
G01X1095Y2510D01*
G01X1133Y2529D01*
G01X1152Y2529D01*
G01X1181Y2520D01*
G01X1201Y2500D01*
G01X1210Y2471D01*
G01X1211Y2452D01*
G01X1191Y2414D01*
G01X1104Y2327D02*
G01X1191Y2414D01*
G01X1230Y2433D01*
G01X1249Y2433D01*
G01X1278Y2423D01*
G01X1307Y2394D01*
G01X1316Y2365D01*
G01X1317Y2346D01*
G01X1297Y2307D01*
G01X1210Y2220D01*
G01X1245Y2583D02*
G01X1255Y2612D01*
G01X1255Y2669D01*
G01X1457Y2467D01*
G01X789Y3206D02*
G01X992Y3003D01*
G01X789Y3206D02*
G01X876Y3293D01*
G01X915Y3312D01*
G01X934Y3311D01*
G01X963Y3302D01*
G01X992Y3273D01*
G01X1002Y3244D01*
G01X1002Y3225D01*
G01X983Y3187D01*
G01X896Y3100D01*
G01X988Y3405D02*
G01X1191Y3202D01*
G01X988Y3405D02*
G01X1075Y3492D01*
G01X1114Y3511D01*
G01X1133Y3510D01*
G01X1162Y3501D01*
G01X1181Y3482D01*
G01X1190Y3453D01*
G01X1191Y3434D01*
G01X1172Y3395D01*
G01X1085Y3308D02*
G01X1172Y3395D01*
G01X1210Y3415D01*
G01X1229Y3414D01*
G01X1258Y3405D01*
G01X1287Y3376D01*
G01X1296Y3347D01*
G01X1297Y3328D01*
G01X1278Y3289D01*
G01X1191Y3202D01*
G01X1245Y3661D02*
G01X1226Y3622D01*
G01X1235Y3574D01*
G01X1274Y3516D01*
G01X1303Y3487D01*
G01X1360Y3448D01*
G01X1409Y3439D01*
G01X1448Y3458D01*
G01X1467Y3477D01*
G01X1486Y3516D01*
G01X1476Y3564D01*
G01X1438Y3622D01*
G01X1409Y3651D01*
G01X1351Y3690D01*
G01X1303Y3700D01*
G01X1264Y3680D01*
G01X1245Y3661D01*
G01X759Y4158D02*
G01X962Y3955D01*
G01X759Y4158D02*
G01X846Y4245D01*
G01X885Y4264D01*
G01X904Y4263D01*
G01X933Y4254D01*
G01X962Y4225D01*
G01X972Y4196D01*
G01X972Y4177D01*
G01X953Y4139D01*
G01X866Y4052D01*
G01X1035Y4434D02*
G01X1161Y4154D01*
G01X1035Y4434D02*
G01X1315Y4308D01*
G01X1122Y4251D02*
G01X1218Y4347D01*
G01X1311Y4709D02*
G01X1418Y4410D01*
G01X1176Y4574D02*
G01X1311Y4709D01*
G01X729Y5127D02*
G01X932Y4924D01*
G01X729Y5127D02*
G01X816Y5214D01*
G01X855Y5233D01*
G01X874Y5232D01*
G01X903Y5223D01*
G01X932Y5194D01*
G01X942Y5165D01*
G01X942Y5146D01*
G01X923Y5108D01*
G01X836Y5021D01*
G01X1005Y5403D02*
G01X1131Y5123D01*
G01X1005Y5403D02*
G01X1285Y5277D01*
G01X1092Y5219D02*
G01X1188Y5316D01*
G01X1291Y5630D02*
G01X1262Y5640D01*
G01X1223Y5620D01*
G01X1204Y5601D01*
G01X1185Y5562D01*
G01X1195Y5514D01*
G01X1233Y5456D01*
G01X1281Y5408D01*
G01X1330Y5379D01*
G01X1368Y5379D01*
G01X1407Y5398D01*
G01X1417Y5408D01*
G01X1435Y5446D01*
G01X1436Y5485D01*
G01X1416Y5524D01*
G01X1406Y5533D01*
G01X1368Y5553D01*
G01X1329Y5553D01*
G01X1291Y5534D01*
G01X1281Y5524D01*
G01X1262Y5485D01*
G01X1262Y5447D01*
G01X1281Y5408D01*
G01X579Y6007D02*
G01X782Y5804D01*
G01X579Y6007D02*
G01X666Y6094D01*
G01X705Y6113D01*
G01X724Y6112D01*
G01X753Y6103D01*
G01X782Y6074D01*
G01X792Y6045D01*
G01X792Y6026D01*
G01X773Y5988D01*
G01X686Y5901D01*
G01X855Y6283D02*
G01X981Y6003D01*
G01X855Y6283D02*
G01X1135Y6157D01*
G01X942Y6100D02*
G01X1038Y6196D01*
G01X1112Y6540D02*
G01X1015Y6443D01*
G01X1093Y6346D01*
G01X1092Y6366D01*
G01X1112Y6404D01*
G01X1141Y6433D01*
G01X1179Y6453D01*
G01X1218Y6452D01*
G01X1257Y6433D01*
G01X1276Y6414D01*
G01X1295Y6375D01*
G01X1295Y6337D01*
G01X1276Y6298D01*
G01X1247Y6269D01*
G01X1208Y6250D01*
G01X1189Y6250D01*
G01X1160Y6259D01*
G01X579Y7017D02*
G01X782Y6814D01*
G01X579Y7017D02*
G01X666Y7104D01*
G01X705Y7123D01*
G01X724Y7122D01*
G01X753Y7113D01*
G01X782Y7084D01*
G01X792Y7055D01*
G01X792Y7036D01*
G01X773Y6998D01*
G01X686Y6911D01*
G01X855Y7293D02*
G01X981Y7013D01*
G01X855Y7293D02*
G01X1135Y7167D01*
G01X942Y7109D02*
G01X1038Y7206D01*
G01X1092Y7530D02*
G01X1131Y7298D01*
G01X1276Y7443D01*
G01X1092Y7530D02*
G01X1295Y7327D01*
G01X569Y8018D02*
G01X772Y7816D01*
G01X569Y8018D02*
G01X656Y8105D01*
G01X695Y8125D01*
G01X714Y8124D01*
G01X743Y8115D01*
G01X772Y8086D01*
G01X781Y8057D01*
G01X782Y8038D01*
G01X763Y7999D01*
G01X676Y7912D01*
G01X845Y8294D02*
G01X970Y8014D01*
G01X845Y8294D02*
G01X1125Y8168D01*
G01X932Y8110D02*
G01X1028Y8207D01*
G01X1005Y8453D02*
G01X1111Y8559D01*
G01X1131Y8425D01*
G01X1160Y8454D01*
G01X1188Y8464D01*
G01X1207Y8463D01*
G01X1246Y8444D01*
G01X1265Y8425D01*
G01X1284Y8386D01*
G01X1284Y8348D01*
G01X1265Y8309D01*
G01X1236Y8280D01*
G01X1197Y8261D01*
G01X1179Y8261D01*
G01X1150Y8270D01*
G01X549Y9037D02*
G01X752Y8834D01*
G01X549Y9037D02*
G01X636Y9124D01*
G01X675Y9143D01*
G01X694Y9142D01*
G01X723Y9133D01*
G01X752Y9104D01*
G01X762Y9075D01*
G01X762Y9056D01*
G01X743Y9018D01*
G01X656Y8931D01*
G01X825Y9313D02*
G01X951Y9033D01*
G01X825Y9313D02*
G01X1105Y9187D01*
G01X912Y9129D02*
G01X1008Y9226D01*
G01X1025Y9414D02*
G01X1015Y9424D01*
G01X1005Y9453D01*
G01X1005Y9472D01*
G01X1014Y9501D01*
G01X1053Y9540D01*
G01X1082Y9550D01*
G01X1102Y9550D01*
G01X1130Y9540D01*
G01X1149Y9521D01*
G01X1159Y9492D01*
G01X1168Y9443D01*
G01X1169Y9250D01*
G01X1304Y9385D01*
G01X524Y10025D02*
G01X727Y9822D01*
G01X524Y10025D02*
G01X611Y10112D01*
G01X649Y10131D01*
G01X668Y10131D01*
G01X698Y10121D01*
G01X727Y10092D01*
G01X736Y10063D01*
G01X736Y10044D01*
G01X717Y10006D01*
G01X630Y9919D01*
G01X799Y10301D02*
G01X925Y10021D01*
G01X799Y10301D02*
G01X1079Y10175D01*
G01X886Y10118D02*
G01X982Y10214D01*
G01X979Y10403D02*
G01X988Y10432D01*
G01X988Y10490D01*
G01X1191Y10287D01*
G01X494Y11016D02*
G01X697Y10813D01*
G01X494Y11016D02*
G01X580Y11102D01*
G01X619Y11121D01*
G01X639Y11121D01*
G01X668Y11112D01*
G01X697Y11083D01*
G01X706Y11054D01*
G01X706Y11034D01*
G01X686Y10996D01*
G01X600Y10910D01*
G01X770Y11291D02*
G01X895Y11011D01*
G01X770Y11291D02*
G01X1050Y11166D01*
G01X857Y11108D02*
G01X953Y11204D01*
G01X968Y11490D02*
G01X949Y11451D01*
G01X958Y11402D01*
G01X997Y11345D01*
G01X1026Y11316D01*
G01X1084Y11277D01*
G01X1132Y11268D01*
G01X1171Y11287D01*
G01X1190Y11306D01*
G01X1209Y11345D01*
G01X1200Y11393D01*
G01X1161Y11451D01*
G01X1132Y11480D01*
G01X1074Y11518D01*
G01X1026Y11528D01*
G01X987Y11509D01*
G01X968Y11490D01*

%LPD*%
G36*
G01X3718Y17434D02*
G01X3692Y17434D01*
G01X3663Y17433D01*
G01X3636Y17428D01*
G01X3612Y17421D01*
G01X3589Y17411D01*
G01X3568Y17398D01*
G01X3549Y17384D01*
G01X3533Y17366D01*
G01X3518Y17347D01*
G01X3506Y17326D01*
G01X3496Y17303D01*
G01X3487Y17278D01*
G01X3481Y17252D01*
G01X3476Y17252D01*
G01X3469Y17272D01*
G01X3459Y17290D01*
G01X3448Y17307D01*
G01X3434Y17323D01*
G01X3420Y17336D01*
G01X3404Y17348D01*
G01X3386Y17359D01*
G01X3368Y17367D01*
G01X3349Y17374D01*
G01X3328Y17379D01*
G01X3307Y17382D01*
G01X3263Y17382D01*
G01X3242Y17379D01*
G01X3223Y17375D01*
G01X3205Y17369D01*
G01X3188Y17361D01*
G01X3172Y17352D01*
G01X3158Y17341D01*
G01X3144Y17328D01*
G01X3132Y17315D01*
G01X3121Y17300D01*
G01X3112Y17283D01*
G01X3103Y17265D01*
G01X3095Y17246D01*
G01X3089Y17226D01*
G01X3083Y17205D01*
G01X3079Y17182D01*
G01X3076Y17159D01*
G01X3073Y17134D01*
G01X3072Y17109D01*
G01X3071Y17082D01*
G01X3071Y16828D01*
G01X3949Y16828D01*
G01X3949Y17130D01*
G01X3947Y17159D01*
G01X3944Y17186D01*
G01X3939Y17212D01*
G01X3933Y17237D01*
G01X3926Y17260D01*
G01X3918Y17283D01*
G01X3908Y17304D01*
G01X3898Y17323D01*
G01X3885Y17342D01*
G01X3872Y17359D01*
G01X3857Y17374D01*
G01X3841Y17388D01*
G01X3824Y17400D01*
G01X3805Y17410D01*
G01X3785Y17419D01*
G01X3764Y17426D01*
G01X3718Y17434D01*
G37*

%LPC*%
G36*
G01X3320Y17283D02*
G01X3297Y17284D01*
G01X3272Y17283D01*
G01X3249Y17278D01*
G01X3229Y17271D01*
G01X3211Y17260D01*
G01X3196Y17247D01*
G01X3183Y17230D01*
G01X3173Y17211D01*
G01X3165Y17188D01*
G01X3158Y17163D01*
G01X3154Y17134D01*
G01X3151Y17103D01*
G01X3150Y17069D01*
G01X3150Y16928D01*
G01X3447Y16928D01*
G01X3447Y17063D01*
G01X3446Y17100D01*
G01X3443Y17134D01*
G01X3437Y17164D01*
G01X3429Y17190D01*
G01X3419Y17213D01*
G01X3407Y17233D01*
G01X3393Y17249D01*
G01X3378Y17262D01*
G01X3360Y17272D01*
G01X3341Y17279D01*
G01X3320Y17283D01*
G37*
G36*
G01X3712Y17336D02*
G01X3689Y17338D01*
G01X3669Y17336D01*
G01X3650Y17333D01*
G01X3632Y17328D01*
G01X3616Y17321D01*
G01X3601Y17311D01*
G01X3588Y17300D01*
G01X3575Y17287D01*
G01X3565Y17272D01*
G01X3555Y17255D01*
G01X3547Y17236D01*
G01X3540Y17215D01*
G01X3534Y17193D01*
G01X3530Y17169D01*
G01X3527Y17143D01*
G01X3525Y17115D01*
G01X3524Y17086D01*
G01X3524Y16928D01*
G01X3870Y16928D01*
G01X3870Y17115D01*
G01X3868Y17142D01*
G01X3860Y17192D01*
G01X3853Y17214D01*
G01X3846Y17234D01*
G01X3837Y17253D01*
G01X3826Y17271D01*
G01X3815Y17286D01*
G01X3801Y17299D01*
G01X3786Y17311D01*
G01X3770Y17320D01*
G01X3752Y17328D01*
G01X3733Y17333D01*
G01X3712Y17336D01*
G37*

%LPD*%
G36*
G01X3740Y16653D02*
G01X3719Y16653D01*
G01X3688Y16652D01*
G01X3660Y16647D01*
G01X3634Y16639D01*
G01X3610Y16628D01*
G01X3589Y16615D01*
G01X3569Y16600D01*
G01X3552Y16582D01*
G01X3535Y16563D01*
G01X3521Y16542D01*
G01X3507Y16519D01*
G01X3483Y16471D01*
G01X3429Y16344D01*
G01X3419Y16318D01*
G01X3406Y16292D01*
G01X3393Y16268D01*
G01X3377Y16245D01*
G01X3358Y16226D01*
G01X3335Y16211D01*
G01X3309Y16201D01*
G01X3277Y16198D01*
G01X3257Y16199D01*
G01X3239Y16203D01*
G01X3221Y16210D01*
G01X3206Y16219D01*
G01X3192Y16230D01*
G01X3179Y16244D01*
G01X3169Y16260D01*
G01X3160Y16278D01*
G01X3153Y16298D01*
G01X3148Y16319D01*
G01X3144Y16343D01*
G01X3143Y16367D01*
G01X3145Y16398D01*
G01X3149Y16427D01*
G01X3156Y16455D01*
G01X3166Y16480D01*
G01X3178Y16505D01*
G01X3192Y16528D01*
G01X3209Y16550D01*
G01X3227Y16571D01*
G01X3163Y16623D01*
G01X3148Y16608D01*
G01X3133Y16591D01*
G01X3120Y16573D01*
G01X3107Y16554D01*
G01X3096Y16534D01*
G01X3085Y16513D01*
G01X3077Y16491D01*
G01X3069Y16468D01*
G01X3063Y16444D01*
G01X3059Y16419D01*
G01X3056Y16394D01*
G01X3055Y16367D01*
G01X3057Y16339D01*
G01X3060Y16311D01*
G01X3065Y16284D01*
G01X3072Y16259D01*
G01X3082Y16236D01*
G01X3093Y16213D01*
G01X3106Y16192D01*
G01X3120Y16173D01*
G01X3136Y16156D01*
G01X3153Y16141D01*
G01X3172Y16128D01*
G01X3193Y16117D01*
G01X3214Y16108D01*
G01X3236Y16102D01*
G01X3260Y16098D01*
G01X3284Y16096D01*
G01X3315Y16098D01*
G01X3343Y16104D01*
G01X3369Y16113D01*
G01X3392Y16125D01*
G01X3413Y16139D01*
G01X3432Y16155D01*
G01X3448Y16173D01*
G01X3463Y16193D01*
G01X3476Y16213D01*
G01X3488Y16234D01*
G01X3498Y16255D01*
G01X3507Y16276D01*
G01X3564Y16403D01*
G01X3574Y16423D01*
G01X3583Y16443D01*
G01X3592Y16461D01*
G01X3602Y16479D01*
G01X3612Y16495D01*
G01X3624Y16509D01*
G01X3636Y16521D01*
G01X3650Y16532D01*
G01X3666Y16541D01*
G01X3684Y16547D01*
G01X3704Y16551D01*
G01X3726Y16553D01*
G01X3748Y16551D01*
G01X3769Y16546D01*
G01X3788Y16539D01*
G01X3806Y16529D01*
G01X3821Y16516D01*
G01X3836Y16501D01*
G01X3848Y16483D01*
G01X3858Y16463D01*
G01X3866Y16440D01*
G01X3872Y16415D01*
G01X3876Y16388D01*
G01X3877Y16359D01*
G01X3877Y16336D01*
G01X3874Y16313D01*
G01X3870Y16290D01*
G01X3864Y16268D01*
G01X3856Y16246D01*
G01X3847Y16225D01*
G01X3837Y16204D01*
G01X3825Y16184D01*
G01X3812Y16165D01*
G01X3798Y16147D01*
G01X3782Y16130D01*
G01X3765Y16113D01*
G01X3834Y16053D01*
G01X3849Y16068D01*
G01X3863Y16083D01*
G01X3889Y16115D01*
G01X3900Y16132D01*
G01X3911Y16150D01*
G01X3921Y16168D01*
G01X3930Y16187D01*
G01X3938Y16207D01*
G01X3945Y16226D01*
G01X3951Y16247D01*
G01X3956Y16268D01*
G01X3960Y16290D01*
G01X3963Y16312D01*
G01X3965Y16334D01*
G01X3965Y16384D01*
G01X3962Y16410D01*
G01X3958Y16435D01*
G01X3953Y16458D01*
G01X3946Y16480D01*
G01X3938Y16502D01*
G01X3929Y16522D01*
G01X3919Y16540D01*
G01X3907Y16558D01*
G01X3894Y16574D01*
G01X3866Y16602D01*
G01X3850Y16613D01*
G01X3833Y16624D01*
G01X3816Y16633D01*
G01X3798Y16640D01*
G01X3779Y16646D01*
G01X3760Y16650D01*
G01X3740Y16653D01*
G37*

%LPD*%
G36*
G01X3593Y15890D02*
G01X3071Y15890D01*
G01X3071Y15796D01*
G01X3594Y15796D01*
G01X3626Y15795D01*
G01X3655Y15793D01*
G01X3682Y15789D01*
G01X3707Y15784D01*
G01X3730Y15778D01*
G01X3751Y15771D01*
G01X3770Y15763D01*
G01X3787Y15753D01*
G01X3803Y15743D01*
G01X3817Y15732D01*
G01X3829Y15719D01*
G01X3840Y15707D01*
G01X3849Y15693D01*
G01X3857Y15678D01*
G01X3864Y15663D01*
G01X3869Y15647D01*
G01X3873Y15631D01*
G01X3877Y15597D01*
G01X3877Y15558D01*
G01X3874Y15537D01*
G01X3870Y15517D01*
G01X3864Y15497D01*
G01X3855Y15478D01*
G01X3845Y15461D01*
G01X3832Y15445D01*
G01X3817Y15430D01*
G01X3799Y15416D01*
G01X3779Y15404D01*
G01X3756Y15393D01*
G01X3730Y15384D01*
G01X3701Y15377D01*
G01X3669Y15372D01*
G01X3633Y15369D01*
G01X3594Y15367D01*
G01X3071Y15367D01*
G01X3071Y15269D01*
G01X3627Y15269D01*
G01X3659Y15271D01*
G01X3689Y15275D01*
G01X3718Y15280D01*
G01X3744Y15286D01*
G01X3769Y15293D01*
G01X3792Y15301D01*
G01X3814Y15311D01*
G01X3834Y15321D01*
G01X3852Y15333D01*
G01X3869Y15346D01*
G01X3884Y15359D01*
G01X3898Y15373D01*
G01X3910Y15389D01*
G01X3921Y15405D01*
G01X3931Y15422D01*
G01X3947Y15458D01*
G01X3957Y15496D01*
G01X3961Y15517D01*
G01X3963Y15537D01*
G01X3965Y15558D01*
G01X3965Y15601D01*
G01X3963Y15622D01*
G01X3961Y15642D01*
G01X3957Y15662D01*
G01X3952Y15682D01*
G01X3947Y15701D01*
G01X3939Y15719D01*
G01X3931Y15736D01*
G01X3921Y15753D01*
G01X3910Y15769D01*
G01X3898Y15784D01*
G01X3884Y15799D01*
G01X3869Y15813D01*
G01X3852Y15825D01*
G01X3834Y15837D01*
G01X3814Y15847D01*
G01X3792Y15857D01*
G01X3769Y15865D01*
G01X3744Y15873D01*
G01X3718Y15878D01*
G01X3689Y15883D01*
G01X3659Y15887D01*
G01X3627Y15889D01*
G01X3593Y15890D01*
G37*

%LPD*%
G01X875Y764D02*
G01X1078Y561D01*
G01X875Y764D02*
G01X962Y851D01*
G01X1001Y870D01*
G01X1020Y869D01*
G01X1049Y860D01*
G01X1078Y831D01*
G01X1087Y802D01*
G01X1088Y783D01*
G01X1068Y745D01*
G01X981Y658D01*
G01X1074Y962D02*
G01X1277Y760D01*
G01X1074Y962D02*
G01X1161Y1049D01*
G01X1200Y1069D01*
G01X1219Y1068D01*
G01X1248Y1059D01*
G01X1267Y1040D01*
G01X1276Y1011D01*
G01X1277Y991D01*
G01X1258Y953D01*
G01X1171Y866D02*
G01X1258Y953D01*
G01X1296Y972D01*
G01X1315Y972D01*
G01X1344Y962D01*
G01X1373Y933D01*
G01X1382Y904D01*
G01X1383Y885D01*
G01X1364Y846D01*
G01X1277Y760D01*
G01X1312Y1122D02*
G01X1321Y1151D01*
G01X1321Y1209D01*
G01X1524Y1006D01*
G01X1423Y1234D02*
G01X1432Y1263D01*
G01X1432Y1321D01*
G01X1635Y1118D01*
G54D36*
G75*
G01X1222Y10093D02*
G03X1223Y10093I0J-59D01*
G01*
G75*
G01X3179Y9228D02*
G03X3178Y9227I-42J41D01*
G01*
G54D13*
G75*
G01X4360Y11380D02*
G03X4360Y11380I-50J0D01*
G01*
G75*
G01X3622Y2490D02*
G03X3622Y2490I-472J0D01*
G01*
G75*
G01X3428Y2490D02*
G03X3428Y2490I-278J0D01*
G01*
M00*
M02*
