;Layer: Drill PTH
;EasyEDA v6.3.22, 2020-03-24T16:00:13+09:00
;d7f5250073f14fcc9ce3ff4b1d3fcb3e,67344a67363949849f01d11c0c7cf016,10
;Gerber Generator version 0.2
M48
INCH,LZ,00.0000
;Holesize 1 = 0.012 INCH
T01C0.012
;Holesize 2 = 0.036 INCH
T02C0.036
%
G05
G90
T01
X+005099Y+013850
X+003899Y+013500
X+004489Y+003830
X+005869Y+001800
X+003099Y+004850
X+003419Y+004700
X+003949Y+011950
X+003399Y+012869
X+003549Y+013500
X+003249Y+013700
X+005829Y+001490
X+005619Y+010669
X+004519Y+010750
X+004509Y+011190
X+005599Y+011700
X+004299Y+009750
X+004489Y+004550
X+004699Y+004809
X+004499Y+005050
X+004969Y+005300
X+005329Y+005419
X+002449Y+009169
X+005429Y+008230
X+005569Y+008530
X+005569Y+008859
X+005099Y+008840
X+004819Y+008650
X+004569Y+009009
X+004509Y+009330
X+004499Y+011550
X+003069Y+011759
X+004649Y+002400
X+003849Y+003659
X+003339Y+009040
X+001559Y+008280
X+003149Y+003850
X+001479Y+004790
X+005579Y+009180
X+002479Y+004730
X+001689Y+008859
X+001849Y+003600
X+004209Y+009430
X+003649Y+011850
X+004679Y+004069
X+005449Y+006900
X+005269Y+011930
X+001799Y+009500
X+003209Y+009380
T02
X+000999Y+012500
X+000499Y+011500
X+000499Y+010500
X+000499Y+009500
X+000499Y+008500
X+000499Y+007500
X+000499Y+006500
X+000499Y+005500
X+000499Y+004500
X+000499Y+003500
X+000499Y+002500
X+000499Y+001500
X+000499Y+000500
X+001999Y+012500
X+002999Y+012500
X+003999Y+012500
X+004999Y+012500
X+005999Y+012500
X+006499Y+011500
X+006499Y+010500
X+006499Y+009500
X+006499Y+008500
X+006499Y+007500
X+006499Y+006500
X+006499Y+005500
X+006499Y+004500
X+006499Y+003500
X+006499Y+002500
X+006499Y+001500
X+006499Y+000500
X+005499Y+000500
X+004499Y+000500
X+003499Y+000500
X+002499Y+000500
M30
