G04 Layer: TopLayer*
G04 EasyEDA v6.3.22, 2020-03-24T16:05:03+09:00*
G04 334177c2c5fb4733a61f24cf9fce308a,67344a67363949849f01d11c0c7cf016,10*
G04 Gerber Generator version 0.2*
G04 Scale: 100 percent, Rotated: No, Reflected: No *
G04 Dimensions in inches *
G04 leading zeros omitted , absolute positions ,2 integer and 4 decimal *
%FSLAX24Y24*%
%MOIN*%
G90*
G70D02*

%ADD11C,0.007000*%
%ADD12C,0.006000*%
%ADD13C,0.010000*%
%ADD14C,0.020000*%
%ADD15C,0.011024*%
%ADD16C,0.024000*%
%ADD17R,0.051181X0.027559*%
%ADD18R,0.023620X0.025590*%
%ADD19R,0.025590X0.023620*%
%ADD20R,0.019685X0.023622*%
%ADD21R,0.023622X0.019685*%
%ADD22R,0.021654X0.039370*%
%ADD23R,0.057087X0.045670*%
%ADD24R,0.047244X0.055118*%
%ADD25R,0.055118X0.045276*%
%ADD26C,0.051400*%
%ADD27C,0.070000*%

%LPD*%
G36*
G01X4624Y11403D02*
G01X4613Y11403D01*
G01X4607Y11402D01*
G01X4602Y11400D01*
G01X4597Y11397D01*
G01X4586Y11390D01*
G01X4562Y11380D01*
G01X4550Y11376D01*
G01X4538Y11373D01*
G01X4525Y11370D01*
G01X4512Y11369D01*
G01X4487Y11369D01*
G01X4474Y11370D01*
G01X4448Y11376D01*
G01X4436Y11380D01*
G01X4424Y11385D01*
G01X4419Y11387D01*
G01X4413Y11388D01*
G01X4408Y11389D01*
G01X4296Y11388D01*
G01X4290Y11388D01*
G01X4284Y11387D01*
G01X4278Y11384D01*
G01X4273Y11381D01*
G01X4268Y11377D01*
G01X4210Y11319D01*
G01X4207Y11313D01*
G01X4203Y11301D01*
G01X4203Y11173D01*
G01X4201Y11157D01*
G01X4195Y11141D01*
G01X4195Y11043D01*
G01X4193Y11021D01*
G01X4191Y11009D01*
G01X4188Y10998D01*
G01X4184Y10987D01*
G01X4180Y10977D01*
G01X4175Y10966D01*
G01X4169Y10956D01*
G01X4155Y10938D01*
G01X4015Y10798D01*
G01X3997Y10784D01*
G01X3987Y10778D01*
G01X3976Y10773D01*
G01X3966Y10769D01*
G01X3955Y10765D01*
G01X3944Y10762D01*
G01X3932Y10760D01*
G01X3910Y10758D01*
G01X3717Y10759D01*
G01X3711Y10758D01*
G01X3706Y10757D01*
G01X3700Y10755D01*
G01X3695Y10752D01*
G01X3691Y10749D01*
G01X3687Y10745D01*
G01X3683Y10740D01*
G01X3679Y10730D01*
G01X3677Y10724D01*
G01X3677Y10719D01*
G01X3678Y10712D01*
G01X3679Y10706D01*
G01X3681Y10700D01*
G01X3689Y10690D01*
G01X3925Y10454D01*
G01X3931Y10451D01*
G01X3936Y10449D01*
G01X3942Y10447D01*
G01X4142Y10447D01*
G01X4156Y10445D01*
G01X4163Y10443D01*
G01X4170Y10440D01*
G01X4176Y10436D01*
G01X4182Y10431D01*
G01X4187Y10426D01*
G01X4192Y10420D01*
G01X4196Y10414D01*
G01X4199Y10407D01*
G01X4201Y10400D01*
G01X4203Y10386D01*
G01X4203Y10334D01*
G01X4204Y10329D01*
G01X4206Y10323D01*
G01X4209Y10318D01*
G01X4221Y10306D01*
G01X4226Y10304D01*
G01X4232Y10302D01*
G01X4237Y10300D01*
G01X4426Y10300D01*
G01X4438Y10304D01*
G01X4448Y10312D01*
G01X4488Y10352D01*
G01X4496Y10362D01*
G01X4500Y10374D01*
G01X4500Y10484D01*
G01X4501Y10492D01*
G01X4502Y10499D01*
G01X4504Y10506D01*
G01X4507Y10512D01*
G01X4511Y10519D01*
G01X4515Y10525D01*
G01X4521Y10530D01*
G01X4526Y10534D01*
G01X4533Y10538D01*
G01X4539Y10541D01*
G01X4546Y10543D01*
G01X4554Y10545D01*
G01X4729Y10545D01*
G01X4734Y10546D01*
G01X4740Y10547D01*
G01X4750Y10551D01*
G01X4755Y10555D01*
G01X4759Y10559D01*
G01X4765Y10569D01*
G01X4767Y10574D01*
G01X4768Y10579D01*
G01X4769Y10585D01*
G01X4768Y10591D01*
G01X4767Y10598D01*
G01X4764Y10603D01*
G01X4761Y10609D01*
G01X4685Y10685D01*
G01X4679Y10692D01*
G01X4674Y10699D01*
G01X4669Y10707D01*
G01X4665Y10715D01*
G01X4662Y10723D01*
G01X4660Y10732D01*
G01X4659Y10741D01*
G01X4659Y11363D01*
G01X4657Y11375D01*
G01X4655Y11380D01*
G01X4652Y11385D01*
G01X4649Y11389D01*
G01X4645Y11394D01*
G01X4635Y11400D01*
G01X4630Y11402D01*
G01X4624Y11403D01*
G37*

%LPD*%
G36*
G01X1477Y9950D02*
G01X1223Y9950D01*
G01X1218Y9949D01*
G01X1212Y9948D01*
G01X1207Y9946D01*
G01X1197Y9940D01*
G01X1193Y9936D01*
G01X1187Y9926D01*
G01X1185Y9921D01*
G01X1184Y9915D01*
G01X1183Y9910D01*
G01X1184Y9903D01*
G01X1185Y9897D01*
G01X1188Y9891D01*
G01X1192Y9885D01*
G01X1196Y9878D01*
G01X1201Y9871D01*
G01X1207Y9855D01*
G01X1209Y9846D01*
G01X1210Y9838D01*
G01X1211Y9829D01*
G01X1210Y9429D01*
G01X1211Y9423D01*
G01X1212Y9418D01*
G01X1214Y9412D01*
G01X1217Y9407D01*
G01X1220Y9403D01*
G01X1224Y9399D01*
G01X1229Y9395D01*
G01X1234Y9392D01*
G01X1239Y9390D01*
G01X1245Y9389D01*
G01X1491Y9389D01*
G01X1499Y9388D01*
G01X1506Y9387D01*
G01X1513Y9385D01*
G01X1520Y9382D01*
G01X1526Y9378D01*
G01X1532Y9373D01*
G01X1537Y9368D01*
G01X1542Y9362D01*
G01X1545Y9356D01*
G01X1551Y9342D01*
G01X1552Y9336D01*
G01X1558Y9326D01*
G01X1562Y9321D01*
G01X1572Y9315D01*
G01X1578Y9312D01*
G01X1584Y9311D01*
G01X1595Y9311D01*
G01X1601Y9312D01*
G01X1607Y9315D01*
G01X1617Y9321D01*
G01X1621Y9326D01*
G01X1627Y9336D01*
G01X1628Y9342D01*
G01X1631Y9350D01*
G01X1635Y9358D01*
G01X1640Y9365D01*
G01X1646Y9377D01*
G01X1648Y9389D01*
G01X1647Y9396D01*
G01X1645Y9403D01*
G01X1643Y9409D01*
G01X1636Y9421D01*
G01X1631Y9434D01*
G01X1626Y9446D01*
G01X1623Y9459D01*
G01X1621Y9473D01*
G01X1619Y9486D01*
G01X1618Y9500D01*
G01X1620Y9524D01*
G01X1622Y9537D01*
G01X1625Y9549D01*
G01X1629Y9561D01*
G01X1639Y9583D01*
G01X1645Y9594D01*
G01X1652Y9605D01*
G01X1660Y9614D01*
G01X1668Y9624D01*
G01X1677Y9633D01*
G01X1686Y9641D01*
G01X1696Y9648D01*
G01X1707Y9655D01*
G01X1718Y9661D01*
G01X1740Y9671D01*
G01X1752Y9674D01*
G01X1758Y9676D01*
G01X1768Y9682D01*
G01X1772Y9686D01*
G01X1778Y9696D01*
G01X1780Y9701D01*
G01X1782Y9707D01*
G01X1782Y9713D01*
G01X1780Y9725D01*
G01X1778Y9731D01*
G01X1770Y9741D01*
G01X1758Y9753D01*
G01X1746Y9759D01*
G01X1734Y9761D01*
G01X1571Y9761D01*
G01X1564Y9762D01*
G01X1550Y9768D01*
G01X1544Y9771D01*
G01X1538Y9776D01*
G01X1533Y9781D01*
G01X1528Y9787D01*
G01X1524Y9793D01*
G01X1521Y9800D01*
G01X1519Y9807D01*
G01X1518Y9814D01*
G01X1517Y9822D01*
G01X1517Y9915D01*
G01X1516Y9921D01*
G01X1514Y9926D01*
G01X1508Y9936D01*
G01X1504Y9940D01*
G01X1494Y9946D01*
G01X1489Y9948D01*
G01X1477Y9950D01*
G37*

%LPD*%
G36*
G01X2990Y10816D02*
G01X2984Y10816D01*
G01X2978Y10814D01*
G01X2968Y10810D01*
G01X2963Y10806D01*
G01X2959Y10802D01*
G01X2956Y10798D01*
G01X2953Y10793D01*
G01X2951Y10787D01*
G01X2950Y10782D01*
G01X2950Y9950D01*
G01X2532Y9950D01*
G01X2520Y9948D01*
G01X2515Y9946D01*
G01X2505Y9940D01*
G01X2501Y9936D01*
G01X2495Y9926D01*
G01X2493Y9921D01*
G01X2492Y9915D01*
G01X2492Y9822D01*
G01X2491Y9814D01*
G01X2490Y9807D01*
G01X2488Y9800D01*
G01X2485Y9793D01*
G01X2481Y9787D01*
G01X2476Y9781D01*
G01X2471Y9776D01*
G01X2465Y9771D01*
G01X2459Y9768D01*
G01X2445Y9762D01*
G01X2438Y9761D01*
G01X2427Y9761D01*
G01X2415Y9759D01*
G01X2410Y9757D01*
G01X2404Y9754D01*
G01X2396Y9746D01*
G01X2392Y9741D01*
G01X2390Y9738D01*
G01X2386Y9728D01*
G01X2384Y9716D01*
G01X2385Y9711D01*
G01X2386Y9705D01*
G01X2388Y9700D01*
G01X2394Y9690D01*
G01X2398Y9686D01*
G01X2408Y9680D01*
G01X2413Y9678D01*
G01X2418Y9677D01*
G01X2424Y9676D01*
G01X2432Y9677D01*
G01X2444Y9678D01*
G01X2688Y9678D01*
G01X2696Y9676D01*
G01X2703Y9674D01*
G01X2710Y9671D01*
G01X2716Y9668D01*
G01X2723Y9666D01*
G01X2736Y9666D01*
G01X2743Y9668D01*
G01X2749Y9671D01*
G01X2756Y9674D01*
G01X2763Y9676D01*
G01X2771Y9678D01*
G01X3022Y9678D01*
G01X3029Y9677D01*
G01X3036Y9675D01*
G01X3043Y9672D01*
G01X3049Y9668D01*
G01X3055Y9663D01*
G01X3060Y9658D01*
G01X3064Y9653D01*
G01X3068Y9647D01*
G01X3074Y9633D01*
G01X3076Y9619D01*
G01X3076Y9613D01*
G01X3077Y9607D01*
G01X3080Y9602D01*
G01X3082Y9597D01*
G01X3090Y9589D01*
G01X3095Y9585D01*
G01X3105Y9581D01*
G01X3111Y9580D01*
G01X3119Y9578D01*
G01X3128Y9576D01*
G01X3136Y9573D01*
G01X3144Y9569D01*
G01X3151Y9565D01*
G01X3156Y9562D01*
G01X3162Y9559D01*
G01X3168Y9558D01*
G01X3180Y9558D01*
G01X3195Y9560D01*
G01X3209Y9561D01*
G01X3222Y9560D01*
G01X3234Y9559D01*
G01X3246Y9557D01*
G01X3258Y9554D01*
G01X3282Y9546D01*
G01X3304Y9534D01*
G01X3324Y9520D01*
G01X3333Y9512D01*
G01X3342Y9503D01*
G01X3350Y9494D01*
G01X3364Y9474D01*
G01X3376Y9452D01*
G01X3384Y9428D01*
G01X3387Y9416D01*
G01X3389Y9404D01*
G01X3390Y9392D01*
G01X3391Y9379D01*
G01X3389Y9355D01*
G01X3387Y9343D01*
G01X3384Y9332D01*
G01X3380Y9320D01*
G01X3376Y9309D01*
G01X3371Y9298D01*
G01X3365Y9287D01*
G01X3356Y9272D01*
G01X3353Y9266D01*
G01X3352Y9260D01*
G01X3352Y9248D01*
G01X3353Y9243D01*
G01X3355Y9237D01*
G01X3358Y9232D01*
G01X3362Y9227D01*
G01X3366Y9223D01*
G01X3371Y9220D01*
G01X3377Y9217D01*
G01X3382Y9215D01*
G01X3395Y9212D01*
G01X3419Y9202D01*
G01X3431Y9196D01*
G01X3442Y9189D01*
G01X3452Y9181D01*
G01X3472Y9163D01*
G01X3482Y9155D01*
G01X3494Y9151D01*
G01X3501Y9150D01*
G01X3727Y9150D01*
G01X3739Y9152D01*
G01X3745Y9155D01*
G01X3750Y9158D01*
G01X3755Y9162D01*
G01X3847Y9254D01*
G01X3851Y9259D01*
G01X3854Y9264D01*
G01X3857Y9270D01*
G01X3859Y9282D01*
G01X3859Y9497D01*
G01X3858Y9502D01*
G01X3857Y9508D01*
G01X3855Y9513D01*
G01X3849Y9523D01*
G01X3845Y9527D01*
G01X3835Y9533D01*
G01X3830Y9535D01*
G01X3824Y9536D01*
G01X3819Y9537D01*
G01X3812Y9536D01*
G01X3806Y9535D01*
G01X3800Y9532D01*
G01X3795Y9529D01*
G01X3790Y9525D01*
G01X3778Y9515D01*
G01X3771Y9512D01*
G01X3763Y9509D01*
G01X3747Y9507D01*
G01X3492Y9507D01*
G01X3484Y9508D01*
G01X3477Y9509D01*
G01X3470Y9511D01*
G01X3463Y9514D01*
G01X3457Y9518D01*
G01X3451Y9523D01*
G01X3446Y9528D01*
G01X3441Y9534D01*
G01X3438Y9540D01*
G01X3432Y9554D01*
G01X3431Y9561D01*
G01X3431Y9812D01*
G01X3432Y9819D01*
G01X3435Y9827D01*
G01X3438Y9833D01*
G01X3442Y9840D01*
G01X3446Y9846D01*
G01X3450Y9850D01*
G01X3453Y9855D01*
G01X3455Y9861D01*
G01X3456Y9867D01*
G01X3457Y9872D01*
G01X3456Y9879D01*
G01X3455Y9885D01*
G01X3452Y9891D01*
G01X3449Y9896D01*
G01X3445Y9901D01*
G01X3426Y9919D01*
G01X3421Y9924D01*
G01X3416Y9927D01*
G01X3404Y9931D01*
G01X3177Y9931D01*
G01X3163Y9933D01*
G01X3156Y9935D01*
G01X3149Y9938D01*
G01X3137Y9946D01*
G01X3132Y9952D01*
G01X3127Y9957D01*
G01X3123Y9964D01*
G01X3120Y9970D01*
G01X3118Y9978D01*
G01X3116Y9992D01*
G01X3116Y10386D01*
G01X3118Y10400D01*
G01X3120Y10407D01*
G01X3123Y10414D01*
G01X3127Y10420D01*
G01X3132Y10426D01*
G01X3137Y10431D01*
G01X3143Y10436D01*
G01X3149Y10440D01*
G01X3156Y10443D01*
G01X3163Y10445D01*
G01X3177Y10447D01*
G01X3394Y10447D01*
G01X3408Y10445D01*
G01X3415Y10443D01*
G01X3422Y10440D01*
G01X3428Y10436D01*
G01X3434Y10431D01*
G01X3439Y10426D01*
G01X3444Y10420D01*
G01X3448Y10414D01*
G01X3451Y10407D01*
G01X3453Y10400D01*
G01X3455Y10386D01*
G01X3455Y10159D01*
G01X3459Y10147D01*
G01X3462Y10141D01*
G01X3690Y9913D01*
G01X3695Y9906D01*
G01X3700Y9898D01*
G01X3703Y9890D01*
G01X3709Y9880D01*
G01X3714Y9876D01*
G01X3718Y9872D01*
G01X3723Y9869D01*
G01X3729Y9867D01*
G01X3734Y9866D01*
G01X3747Y9866D01*
G01X3763Y9864D01*
G01X3771Y9861D01*
G01X3778Y9858D01*
G01X3790Y9848D01*
G01X3795Y9844D01*
G01X3800Y9841D01*
G01X3806Y9838D01*
G01X3812Y9837D01*
G01X3819Y9836D01*
G01X3824Y9837D01*
G01X3830Y9838D01*
G01X3835Y9840D01*
G01X3845Y9846D01*
G01X3849Y9850D01*
G01X3855Y9860D01*
G01X3857Y9865D01*
G01X3858Y9871D01*
G01X3859Y9876D01*
G01X3859Y10190D01*
G01X3857Y10202D01*
G01X3854Y10208D01*
G01X3851Y10213D01*
G01X3847Y10218D01*
G01X3528Y10537D01*
G01X3523Y10541D01*
G01X3518Y10544D01*
G01X3512Y10547D01*
G01X3500Y10549D01*
G01X3310Y10549D01*
G01X3300Y10550D01*
G01X3291Y10552D01*
G01X3282Y10555D01*
G01X3264Y10563D01*
G01X3256Y10569D01*
G01X3248Y10574D01*
G01X3018Y10804D01*
G01X3008Y10812D01*
G01X3002Y10814D01*
G01X2990Y10816D01*
G37*

%LPD*%
G36*
G01X1653Y5369D02*
G01X1464Y5369D01*
G01X1458Y5368D01*
G01X1451Y5367D01*
G01X1446Y5364D01*
G01X1440Y5361D01*
G01X1435Y5357D01*
G01X1372Y5294D01*
G01X1368Y5289D01*
G01X1365Y5283D01*
G01X1362Y5278D01*
G01X1361Y5271D01*
G01X1361Y5265D01*
G01X1360Y4586D01*
G01X1362Y4574D01*
G01X1364Y4569D01*
G01X1367Y4564D01*
G01X1370Y4560D01*
G01X1374Y4556D01*
G01X1379Y4552D01*
G01X1384Y4549D01*
G01X1389Y4547D01*
G01X1395Y4546D01*
G01X1407Y4546D01*
G01X1419Y4550D01*
G01X1424Y4553D01*
G01X1429Y4557D01*
G01X1735Y4864D01*
G01X1742Y4870D01*
G01X1749Y4875D01*
G01X1757Y4880D01*
G01X1765Y4884D01*
G01X1773Y4887D01*
G01X1782Y4889D01*
G01X1791Y4890D01*
G01X1855Y4890D01*
G01X1861Y4891D01*
G01X1868Y4892D01*
G01X1873Y4895D01*
G01X1879Y4898D01*
G01X1884Y4902D01*
G01X1904Y4922D01*
G01X1908Y4927D01*
G01X1911Y4932D01*
G01X1915Y4944D01*
G01X1915Y4956D01*
G01X1914Y4962D01*
G01X1912Y4967D01*
G01X1906Y4977D01*
G01X1902Y4981D01*
G01X1892Y4987D01*
G01X1887Y4989D01*
G01X1875Y4991D01*
G01X1744Y4991D01*
G01X1737Y4992D01*
G01X1723Y4998D01*
G01X1717Y5001D01*
G01X1711Y5006D01*
G01X1706Y5011D01*
G01X1701Y5017D01*
G01X1697Y5023D01*
G01X1694Y5030D01*
G01X1692Y5037D01*
G01X1691Y5044D01*
G01X1690Y5052D01*
G01X1690Y5307D01*
G01X1692Y5320D01*
G01X1693Y5329D01*
G01X1692Y5334D01*
G01X1691Y5340D01*
G01X1689Y5345D01*
G01X1683Y5355D01*
G01X1679Y5359D01*
G01X1669Y5365D01*
G01X1664Y5367D01*
G01X1658Y5368D01*
G01X1653Y5369D01*
G37*

%LPD*%
G36*
G01X5520Y5328D02*
G01X5508Y5330D01*
G01X5496Y5328D01*
G01X5490Y5325D01*
G01X5485Y5322D01*
G01X5480Y5318D01*
G01X5476Y5313D01*
G01X5469Y5304D01*
G01X5460Y5295D01*
G01X5452Y5286D01*
G01X5443Y5278D01*
G01X5433Y5271D01*
G01X5422Y5264D01*
G01X5412Y5258D01*
G01X5401Y5253D01*
G01X5389Y5249D01*
G01X5378Y5245D01*
G01X5366Y5242D01*
G01X5354Y5240D01*
G01X5330Y5238D01*
G01X5304Y5240D01*
G01X5291Y5243D01*
G01X5279Y5246D01*
G01X5267Y5250D01*
G01X5243Y5260D01*
G01X5221Y5274D01*
G01X5211Y5282D01*
G01X5207Y5286D01*
G01X5197Y5290D01*
G01X5191Y5292D01*
G01X5179Y5292D01*
G01X5173Y5290D01*
G01X5168Y5288D01*
G01X5163Y5285D01*
G01X5158Y5281D01*
G01X5154Y5277D01*
G01X5151Y5272D01*
G01X5148Y5266D01*
G01X5146Y5261D01*
G01X5143Y5249D01*
G01X5139Y5237D01*
G01X5135Y5226D01*
G01X5123Y5204D01*
G01X5117Y5194D01*
G01X5109Y5184D01*
G01X5101Y5175D01*
G01X5092Y5166D01*
G01X5083Y5158D01*
G01X5063Y5144D01*
G01X5052Y5138D01*
G01X5041Y5133D01*
G01X5030Y5129D01*
G01X5018Y5125D01*
G01X5006Y5122D01*
G01X4994Y5120D01*
G01X4982Y5119D01*
G01X4957Y5119D01*
G01X4945Y5120D01*
G01X4933Y5122D01*
G01X4922Y5125D01*
G01X4910Y5129D01*
G01X4899Y5133D01*
G01X4888Y5138D01*
G01X4877Y5144D01*
G01X4867Y5150D01*
G01X4857Y5157D01*
G01X4848Y5165D01*
G01X4839Y5174D01*
G01X4831Y5183D01*
G01X4824Y5192D01*
G01X4820Y5197D01*
G01X4815Y5201D01*
G01X4810Y5204D01*
G01X4804Y5207D01*
G01X4792Y5209D01*
G01X4686Y5209D01*
G01X4674Y5207D01*
G01X4669Y5205D01*
G01X4664Y5202D01*
G01X4660Y5199D01*
G01X4655Y5195D01*
G01X4649Y5185D01*
G01X4647Y5180D01*
G01X4646Y5174D01*
G01X4646Y5163D01*
G01X4647Y5157D01*
G01X4649Y5152D01*
G01X4652Y5147D01*
G01X4659Y5136D01*
G01X4669Y5112D01*
G01X4673Y5100D01*
G01X4676Y5088D01*
G01X4679Y5075D01*
G01X4680Y5062D01*
G01X4680Y5024D01*
G01X4681Y5018D01*
G01X4683Y5012D01*
G01X4686Y5007D01*
G01X4694Y4999D01*
G01X4699Y4995D01*
G01X4705Y4993D01*
G01X4710Y4991D01*
G01X4740Y4986D01*
G01X4752Y4983D01*
G01X4763Y4979D01*
G01X4775Y4974D01*
G01X4785Y4969D01*
G01X4796Y4963D01*
G01X4806Y4956D01*
G01X4816Y4948D01*
G01X4825Y4940D01*
G01X4833Y4932D01*
G01X4841Y4922D01*
G01X4855Y4902D01*
G01X4861Y4892D01*
G01X4866Y4881D01*
G01X4870Y4869D01*
G01X4874Y4858D01*
G01X4877Y4846D01*
G01X4879Y4834D01*
G01X4880Y4822D01*
G01X4880Y4797D01*
G01X4879Y4785D01*
G01X4877Y4773D01*
G01X4874Y4762D01*
G01X4870Y4750D01*
G01X4866Y4739D01*
G01X4861Y4728D01*
G01X4855Y4717D01*
G01X4849Y4707D01*
G01X4842Y4697D01*
G01X4834Y4688D01*
G01X4825Y4679D01*
G01X4816Y4671D01*
G01X4807Y4664D01*
G01X4797Y4657D01*
G01X4787Y4651D01*
G01X4776Y4645D01*
G01X4765Y4641D01*
G01X4753Y4637D01*
G01X4742Y4633D01*
G01X4718Y4629D01*
G01X4706Y4629D01*
G01X4700Y4628D01*
G01X4688Y4624D01*
G01X4683Y4621D01*
G01X4674Y4612D01*
G01X4671Y4606D01*
G01X4669Y4601D01*
G01X4667Y4595D01*
G01X4667Y4589D01*
G01X4668Y4582D01*
G01X4670Y4566D01*
G01X4671Y4550D01*
G01X4670Y4537D01*
G01X4669Y4525D01*
G01X4667Y4513D01*
G01X4664Y4501D01*
G01X4656Y4477D01*
G01X4644Y4455D01*
G01X4630Y4435D01*
G01X4622Y4426D01*
G01X4613Y4417D01*
G01X4604Y4409D01*
G01X4584Y4395D01*
G01X4562Y4383D01*
G01X4538Y4375D01*
G01X4526Y4372D01*
G01X4514Y4370D01*
G01X4502Y4369D01*
G01X4476Y4369D01*
G01X4463Y4370D01*
G01X4437Y4376D01*
G01X4425Y4380D01*
G01X4418Y4382D01*
G01X4411Y4383D01*
G01X4405Y4383D01*
G01X4399Y4381D01*
G01X4389Y4377D01*
G01X4384Y4373D01*
G01X4380Y4369D01*
G01X4377Y4365D01*
G01X4374Y4360D01*
G01X4372Y4354D01*
G01X4371Y4349D01*
G01X4371Y3735D01*
G01X4372Y3729D01*
G01X4374Y3724D01*
G01X4380Y3714D01*
G01X4384Y3710D01*
G01X4394Y3704D01*
G01X4399Y3702D01*
G01X4405Y3701D01*
G01X4623Y3701D01*
G01X4629Y3702D01*
G01X4634Y3704D01*
G01X4644Y3710D01*
G01X4648Y3714D01*
G01X4654Y3724D01*
G01X4656Y3729D01*
G01X4657Y3735D01*
G01X4657Y3747D01*
G01X4656Y3753D01*
G01X4653Y3759D01*
G01X4650Y3764D01*
G01X4644Y3772D01*
G01X4636Y3790D01*
G01X4630Y3810D01*
G01X4628Y3830D01*
G01X4628Y3874D01*
G01X4627Y3879D01*
G01X4625Y3885D01*
G01X4622Y3890D01*
G01X4619Y3894D01*
G01X4615Y3898D01*
G01X4610Y3902D01*
G01X4605Y3905D01*
G01X4594Y3910D01*
G01X4583Y3916D01*
G01X4573Y3923D01*
G01X4564Y3930D01*
G01X4555Y3939D01*
G01X4546Y3947D01*
G01X4538Y3956D01*
G01X4531Y3966D01*
G01X4524Y3977D01*
G01X4518Y3987D01*
G01X4513Y3998D01*
G01X4509Y4010D01*
G01X4505Y4021D01*
G01X4502Y4033D01*
G01X4500Y4045D01*
G01X4499Y4057D01*
G01X4499Y4082D01*
G01X4500Y4094D01*
G01X4502Y4106D01*
G01X4505Y4118D01*
G01X4513Y4142D01*
G01X4525Y4164D01*
G01X4539Y4184D01*
G01X4547Y4193D01*
G01X4556Y4202D01*
G01X4565Y4210D01*
G01X4585Y4224D01*
G01X4607Y4236D01*
G01X4631Y4244D01*
G01X4643Y4247D01*
G01X4655Y4249D01*
G01X4667Y4250D01*
G01X4680Y4251D01*
G01X4704Y4249D01*
G01X4716Y4247D01*
G01X4728Y4244D01*
G01X4752Y4236D01*
G01X4774Y4224D01*
G01X4794Y4210D01*
G01X4803Y4202D01*
G01X4812Y4193D01*
G01X4820Y4184D01*
G01X4834Y4164D01*
G01X4846Y4142D01*
G01X4854Y4118D01*
G01X4857Y4106D01*
G01X4859Y4094D01*
G01X4861Y4070D01*
G01X4860Y4056D01*
G01X4858Y4042D01*
G01X4856Y4029D01*
G01X4852Y4016D01*
G01X4850Y4004D01*
G01X4850Y3892D01*
G01X4852Y3880D01*
G01X4855Y3874D01*
G01X4858Y3869D01*
G01X4862Y3864D01*
G01X5004Y3722D01*
G01X5009Y3718D01*
G01X5014Y3715D01*
G01X5020Y3712D01*
G01X5026Y3711D01*
G01X5123Y3711D01*
G01X5129Y3712D01*
G01X5135Y3715D01*
G01X5140Y3718D01*
G01X5145Y3722D01*
G01X5223Y3800D01*
G01X5227Y3805D01*
G01X5230Y3810D01*
G01X5233Y3816D01*
G01X5235Y3828D01*
G01X5234Y3835D01*
G01X5230Y3847D01*
G01X5222Y3857D01*
G01X5217Y3861D01*
G01X5211Y3866D01*
G01X5206Y3871D01*
G01X5201Y3877D01*
G01X5197Y3883D01*
G01X5194Y3890D01*
G01X5192Y3897D01*
G01X5191Y3904D01*
G01X5190Y3912D01*
G01X5190Y4167D01*
G01X5192Y4181D01*
G01X5194Y4188D01*
G01X5197Y4195D01*
G01X5200Y4201D01*
G01X5204Y4206D01*
G01X5209Y4212D01*
G01X5221Y4220D01*
G01X5225Y4223D01*
G01X5230Y4227D01*
G01X5236Y4237D01*
G01X5239Y4243D01*
G01X5240Y4249D01*
G01X5240Y4260D01*
G01X5239Y4266D01*
G01X5236Y4272D01*
G01X5230Y4282D01*
G01X5225Y4286D01*
G01X5221Y4289D01*
G01X5209Y4297D01*
G01X5204Y4303D01*
G01X5200Y4308D01*
G01X5197Y4314D01*
G01X5194Y4321D01*
G01X5192Y4328D01*
G01X5190Y4342D01*
G01X5190Y4597D01*
G01X5192Y4613D01*
G01X5198Y4627D01*
G01X5202Y4634D01*
G01X5207Y4640D01*
G01X5213Y4645D01*
G01X5220Y4649D01*
G01X5224Y4653D01*
G01X5229Y4657D01*
G01X5235Y4667D01*
G01X5237Y4672D01*
G01X5239Y4684D01*
G01X5237Y4696D01*
G01X5235Y4701D01*
G01X5232Y4706D01*
G01X5228Y4711D01*
G01X5223Y4715D01*
G01X5218Y4718D01*
G01X5212Y4722D01*
G01X5202Y4732D01*
G01X5194Y4744D01*
G01X5191Y4751D01*
G01X5189Y4757D01*
G01X5188Y4764D01*
G01X5187Y4772D01*
G01X5187Y5027D01*
G01X5188Y5035D01*
G01X5189Y5042D01*
G01X5191Y5049D01*
G01X5194Y5056D01*
G01X5198Y5062D01*
G01X5203Y5068D01*
G01X5208Y5073D01*
G01X5214Y5078D01*
G01X5220Y5081D01*
G01X5234Y5087D01*
G01X5241Y5088D01*
G01X5492Y5088D01*
G01X5499Y5087D01*
G01X5508Y5086D01*
G01X5514Y5086D01*
G01X5520Y5087D01*
G01X5525Y5089D01*
G01X5535Y5095D01*
G01X5539Y5099D01*
G01X5545Y5109D01*
G01X5547Y5114D01*
G01X5548Y5120D01*
G01X5548Y5296D01*
G01X5547Y5301D01*
G01X5545Y5306D01*
G01X5539Y5316D01*
G01X5535Y5320D01*
G01X5530Y5324D01*
G01X5520Y5328D01*
G37*

%LPD*%
G36*
G01X4871Y10493D02*
G01X4859Y10495D01*
G01X4853Y10494D01*
G01X4848Y10493D01*
G01X4842Y10491D01*
G01X4837Y10488D01*
G01X4833Y10485D01*
G01X4829Y10481D01*
G01X4825Y10476D01*
G01X4819Y10461D01*
G01X4819Y10248D01*
G01X4818Y10240D01*
G01X4817Y10233D01*
G01X4815Y10226D01*
G01X4812Y10219D01*
G01X4808Y10213D01*
G01X4803Y10207D01*
G01X4798Y10202D01*
G01X4792Y10197D01*
G01X4786Y10194D01*
G01X4772Y10188D01*
G01X4766Y10187D01*
G01X4756Y10181D01*
G01X4751Y10177D01*
G01X4745Y10167D01*
G01X4742Y10161D01*
G01X4741Y10155D01*
G01X4741Y10144D01*
G01X4742Y10138D01*
G01X4745Y10132D01*
G01X4751Y10122D01*
G01X4756Y10118D01*
G01X4766Y10112D01*
G01X4772Y10111D01*
G01X4786Y10105D01*
G01X4792Y10102D01*
G01X4798Y10097D01*
G01X4803Y10092D01*
G01X4808Y10086D01*
G01X4812Y10080D01*
G01X4815Y10073D01*
G01X4817Y10066D01*
G01X4818Y10059D01*
G01X4819Y10051D01*
G01X4819Y9815D01*
G01X4818Y9807D01*
G01X4817Y9800D01*
G01X4815Y9793D01*
G01X4812Y9787D01*
G01X4808Y9780D01*
G01X4804Y9774D01*
G01X4798Y9769D01*
G01X4793Y9765D01*
G01X4786Y9761D01*
G01X4780Y9758D01*
G01X4773Y9756D01*
G01X4765Y9754D01*
G01X4626Y9754D01*
G01X4619Y9753D01*
G01X4613Y9752D01*
G01X4607Y9749D01*
G01X4602Y9746D01*
G01X4597Y9742D01*
G01X4534Y9679D01*
G01X4527Y9674D01*
G01X4519Y9669D01*
G01X4495Y9660D01*
G01X4486Y9659D01*
G01X4477Y9659D01*
G01X4471Y9658D01*
G01X4459Y9654D01*
G01X4454Y9651D01*
G01X4449Y9647D01*
G01X4445Y9642D01*
G01X4438Y9633D01*
G01X4430Y9624D01*
G01X4421Y9615D01*
G01X4412Y9607D01*
G01X4402Y9600D01*
G01X4392Y9594D01*
G01X4381Y9588D01*
G01X4370Y9583D01*
G01X4359Y9579D01*
G01X4347Y9575D01*
G01X4336Y9572D01*
G01X4324Y9570D01*
G01X4312Y9569D01*
G01X4287Y9569D01*
G01X4275Y9570D01*
G01X4263Y9572D01*
G01X4251Y9575D01*
G01X4240Y9579D01*
G01X4228Y9583D01*
G01X4217Y9588D01*
G01X4207Y9594D01*
G01X4196Y9601D01*
G01X4186Y9608D01*
G01X4177Y9616D01*
G01X4169Y9625D01*
G01X4160Y9634D01*
G01X4153Y9643D01*
G01X4149Y9648D01*
G01X4139Y9656D01*
G01X4133Y9658D01*
G01X4121Y9660D01*
G01X4109Y9658D01*
G01X4099Y9654D01*
G01X4094Y9650D01*
G01X4090Y9646D01*
G01X4087Y9642D01*
G01X4084Y9637D01*
G01X4082Y9631D01*
G01X4081Y9626D01*
G01X4080Y9620D01*
G01X4080Y9210D01*
G01X4079Y9200D01*
G01X4077Y9191D01*
G01X4074Y9182D01*
G01X4066Y9164D01*
G01X4060Y9156D01*
G01X4055Y9148D01*
G01X4048Y9141D01*
G01X4043Y9135D01*
G01X4039Y9128D01*
G01X4034Y9118D01*
G01X4029Y9109D01*
G01X4022Y9100D01*
G01X4014Y9091D01*
G01X3593Y8669D01*
G01X3585Y8663D01*
G01X3577Y8656D01*
G01X3559Y8646D01*
G01X3550Y8642D01*
G01X3540Y8639D01*
G01X3531Y8637D01*
G01X3521Y8636D01*
G01X3510Y8635D01*
G01X3490Y8637D01*
G01X3480Y8639D01*
G01X3471Y8643D01*
G01X3461Y8646D01*
G01X3452Y8651D01*
G01X3436Y8663D01*
G01X3428Y8670D01*
G01X3421Y8677D01*
G01X3415Y8685D01*
G01X3405Y8703D01*
G01X3401Y8712D01*
G01X3398Y8722D01*
G01X3396Y8727D01*
G01X3394Y8733D01*
G01X3382Y8745D01*
G01X3376Y8748D01*
G01X3371Y8750D01*
G01X3359Y8752D01*
G01X3354Y8751D01*
G01X3348Y8750D01*
G01X3343Y8748D01*
G01X3337Y8745D01*
G01X3329Y8737D01*
G01X3325Y8732D01*
G01X3321Y8722D01*
G01X3318Y8712D01*
G01X3314Y8703D01*
G01X3309Y8694D01*
G01X3304Y8686D01*
G01X3298Y8678D01*
G01X3291Y8670D01*
G01X3284Y8663D01*
G01X3276Y8657D01*
G01X3268Y8652D01*
G01X3259Y8647D01*
G01X3250Y8643D01*
G01X3240Y8640D01*
G01X3230Y8638D01*
G01X3221Y8636D01*
G01X3215Y8635D01*
G01X3209Y8633D01*
G01X3203Y8630D01*
G01X3199Y8627D01*
G01X3194Y8622D01*
G01X3188Y8612D01*
G01X3186Y8606D01*
G01X3185Y8600D01*
G01X3183Y8591D01*
G01X3181Y8581D01*
G01X3178Y8572D01*
G01X3174Y8562D01*
G01X3170Y8554D01*
G01X3164Y8545D01*
G01X3158Y8538D01*
G01X3151Y8530D01*
G01X3144Y8524D01*
G01X3136Y8517D01*
G01X3128Y8512D01*
G01X3119Y8507D01*
G01X3101Y8501D01*
G01X3091Y8498D01*
G01X3081Y8497D01*
G01X3075Y8496D01*
G01X3070Y8494D01*
G01X3064Y8491D01*
G01X3059Y8487D01*
G01X3055Y8483D01*
G01X3049Y8473D01*
G01X3047Y8467D01*
G01X3046Y8461D01*
G01X3044Y8451D01*
G01X3042Y8442D01*
G01X3039Y8432D01*
G01X3035Y8423D01*
G01X3030Y8415D01*
G01X3025Y8406D01*
G01X3019Y8398D01*
G01X3005Y8384D01*
G01X2997Y8378D01*
G01X2989Y8373D01*
G01X2980Y8368D01*
G01X2971Y8365D01*
G01X2962Y8361D01*
G01X2952Y8359D01*
G01X2942Y8358D01*
G01X2936Y8357D01*
G01X2930Y8355D01*
G01X2925Y8352D01*
G01X2920Y8348D01*
G01X2916Y8344D01*
G01X2912Y8339D01*
G01X2910Y8334D01*
G01X2906Y8322D01*
G01X2905Y8312D01*
G01X2903Y8303D01*
G01X2900Y8293D01*
G01X2896Y8284D01*
G01X2891Y8275D01*
G01X2886Y8267D01*
G01X2880Y8259D01*
G01X2866Y8245D01*
G01X2858Y8239D01*
G01X2850Y8234D01*
G01X2841Y8229D01*
G01X2832Y8225D01*
G01X2822Y8222D01*
G01X2813Y8220D01*
G01X2803Y8218D01*
G01X2797Y8217D01*
G01X2791Y8215D01*
G01X2786Y8213D01*
G01X2781Y8209D01*
G01X2777Y8205D01*
G01X2773Y8200D01*
G01X2770Y8194D01*
G01X2768Y8189D01*
G01X2767Y8183D01*
G01X2766Y8173D01*
G01X2764Y8163D01*
G01X2761Y8154D01*
G01X2757Y8145D01*
G01X2752Y8136D01*
G01X2747Y8128D01*
G01X2741Y8120D01*
G01X2727Y8106D01*
G01X2719Y8100D01*
G01X2710Y8095D01*
G01X2702Y8090D01*
G01X2693Y8086D01*
G01X2683Y8083D01*
G01X2674Y8081D01*
G01X2664Y8079D01*
G01X2658Y8078D01*
G01X2652Y8076D01*
G01X2642Y8070D01*
G01X2638Y8066D01*
G01X2634Y8061D01*
G01X2631Y8055D01*
G01X2629Y8050D01*
G01X2628Y8044D01*
G01X2627Y8034D01*
G01X2624Y8024D01*
G01X2621Y8015D01*
G01X2613Y7997D01*
G01X2595Y7973D01*
G01X2587Y7967D01*
G01X2580Y7961D01*
G01X2571Y7955D01*
G01X2563Y7951D01*
G01X2553Y7947D01*
G01X2544Y7944D01*
G01X2534Y7941D01*
G01X2525Y7940D01*
G01X2519Y7939D01*
G01X2513Y7937D01*
G01X2503Y7931D01*
G01X2498Y7926D01*
G01X2492Y7916D01*
G01X2490Y7910D01*
G01X2489Y7904D01*
G01X2487Y7894D01*
G01X2485Y7885D01*
G01X2482Y7875D01*
G01X2478Y7866D01*
G01X2473Y7857D01*
G01X2468Y7849D01*
G01X2462Y7841D01*
G01X2455Y7834D01*
G01X2447Y7827D01*
G01X2431Y7815D01*
G01X2413Y7807D01*
G01X2403Y7804D01*
G01X2393Y7802D01*
G01X2373Y7800D01*
G01X2353Y7802D01*
G01X2343Y7804D01*
G01X2334Y7807D01*
G01X2324Y7811D01*
G01X2315Y7816D01*
G01X2307Y7821D01*
G01X2299Y7827D01*
G01X2291Y7834D01*
G01X1869Y8256D01*
G01X1862Y8264D01*
G01X1855Y8273D01*
G01X1849Y8283D01*
G01X1845Y8293D01*
G01X1841Y8304D01*
G01X1838Y8314D01*
G01X1836Y8320D01*
G01X1834Y8325D01*
G01X1831Y8330D01*
G01X1803Y8358D01*
G01X1793Y8366D01*
G01X1781Y8370D01*
G01X1769Y8370D01*
G01X1763Y8368D01*
G01X1753Y8364D01*
G01X1748Y8360D01*
G01X1744Y8356D01*
G01X1741Y8352D01*
G01X1738Y8347D01*
G01X1736Y8341D01*
G01X1735Y8336D01*
G01X1735Y8330D01*
G01X1736Y8321D01*
G01X1740Y8293D01*
G01X1741Y8280D01*
G01X1740Y8267D01*
G01X1739Y8255D01*
G01X1737Y8242D01*
G01X1734Y8230D01*
G01X1730Y8218D01*
G01X1725Y8207D01*
G01X1723Y8199D01*
G01X1722Y8191D01*
G01X1722Y8184D01*
G01X1724Y8178D01*
G01X1726Y8173D01*
G01X1730Y8167D01*
G01X1734Y8162D01*
G01X1742Y8154D01*
G01X1746Y8151D01*
G01X2184Y7713D01*
G01X2190Y7705D01*
G01X2196Y7696D01*
G01X2204Y7678D01*
G01X2207Y7668D01*
G01X2211Y7648D01*
G01X2211Y7628D01*
G01X2207Y7608D01*
G01X2204Y7599D01*
G01X2201Y7589D01*
G01X2196Y7581D01*
G01X2191Y7572D01*
G01X2185Y7564D01*
G01X2171Y7550D01*
G01X2163Y7544D01*
G01X2154Y7538D01*
G01X2145Y7533D01*
G01X2136Y7529D01*
G01X2127Y7526D01*
G01X2117Y7524D01*
G01X2107Y7523D01*
G01X2095Y7519D01*
G01X2090Y7517D01*
G01X2085Y7513D01*
G01X2081Y7509D01*
G01X2077Y7504D01*
G01X2074Y7499D01*
G01X2072Y7493D01*
G01X2071Y7487D01*
G01X2070Y7477D01*
G01X2068Y7467D01*
G01X2064Y7458D01*
G01X2061Y7449D01*
G01X2056Y7440D01*
G01X2051Y7432D01*
G01X2045Y7424D01*
G01X2031Y7410D01*
G01X2023Y7404D01*
G01X2014Y7399D01*
G01X2006Y7394D01*
G01X1997Y7390D01*
G01X1987Y7387D01*
G01X1978Y7385D01*
G01X1968Y7383D01*
G01X1962Y7382D01*
G01X1956Y7380D01*
G01X1946Y7374D01*
G01X1942Y7370D01*
G01X1938Y7365D01*
G01X1935Y7359D01*
G01X1933Y7354D01*
G01X1932Y7348D01*
G01X1931Y7338D01*
G01X1928Y7328D01*
G01X1922Y7310D01*
G01X1917Y7301D01*
G01X1912Y7293D01*
G01X1905Y7285D01*
G01X1899Y7277D01*
G01X1891Y7271D01*
G01X1884Y7265D01*
G01X1875Y7259D01*
G01X1867Y7255D01*
G01X1857Y7251D01*
G01X1848Y7248D01*
G01X1838Y7246D01*
G01X1829Y7244D01*
G01X1823Y7243D01*
G01X1817Y7241D01*
G01X1807Y7235D01*
G01X1802Y7230D01*
G01X1799Y7226D01*
G01X1796Y7220D01*
G01X1794Y7214D01*
G01X1793Y7208D01*
G01X1791Y7199D01*
G01X1789Y7189D01*
G01X1786Y7179D01*
G01X1782Y7170D01*
G01X1777Y7161D01*
G01X1772Y7153D01*
G01X1766Y7145D01*
G01X1759Y7138D01*
G01X1751Y7131D01*
G01X1743Y7125D01*
G01X1735Y7120D01*
G01X1726Y7115D01*
G01X1717Y7111D01*
G01X1707Y7108D01*
G01X1702Y7106D01*
G01X1696Y7104D01*
G01X1684Y7092D01*
G01X1681Y7086D01*
G01X1679Y7081D01*
G01X1677Y7069D01*
G01X1678Y7064D01*
G01X1679Y7058D01*
G01X1681Y7053D01*
G01X1684Y7047D01*
G01X1692Y7039D01*
G01X1697Y7035D01*
G01X1707Y7031D01*
G01X1717Y7028D01*
G01X1726Y7024D01*
G01X1735Y7019D01*
G01X1743Y7014D01*
G01X1751Y7008D01*
G01X1759Y7001D01*
G01X1766Y6994D01*
G01X1772Y6986D01*
G01X1777Y6978D01*
G01X1782Y6969D01*
G01X1786Y6960D01*
G01X1789Y6950D01*
G01X1794Y6925D01*
G01X1796Y6919D01*
G01X1799Y6913D01*
G01X1802Y6909D01*
G01X1807Y6904D01*
G01X1817Y6898D01*
G01X1823Y6896D01*
G01X1829Y6895D01*
G01X1838Y6893D01*
G01X1848Y6891D01*
G01X1857Y6888D01*
G01X1867Y6884D01*
G01X1875Y6880D01*
G01X1884Y6874D01*
G01X1891Y6868D01*
G01X1899Y6861D01*
G01X1905Y6854D01*
G01X1912Y6846D01*
G01X1917Y6838D01*
G01X1925Y6820D01*
G01X1928Y6811D01*
G01X1931Y6801D01*
G01X1932Y6791D01*
G01X1933Y6785D01*
G01X1935Y6780D01*
G01X1938Y6774D01*
G01X1942Y6769D01*
G01X1946Y6765D01*
G01X1956Y6759D01*
G01X1962Y6757D01*
G01X1968Y6756D01*
G01X1978Y6754D01*
G01X1987Y6752D01*
G01X1997Y6749D01*
G01X2006Y6745D01*
G01X2015Y6740D01*
G01X2023Y6735D01*
G01X2031Y6729D01*
G01X2045Y6715D01*
G01X2051Y6707D01*
G01X2056Y6699D01*
G01X2061Y6690D01*
G01X2065Y6681D01*
G01X2068Y6672D01*
G01X2070Y6662D01*
G01X2071Y6652D01*
G01X2072Y6646D01*
G01X2074Y6640D01*
G01X2077Y6635D01*
G01X2081Y6630D01*
G01X2085Y6626D01*
G01X2090Y6622D01*
G01X2095Y6619D01*
G01X2101Y6618D01*
G01X2107Y6616D01*
G01X2117Y6615D01*
G01X2126Y6613D01*
G01X2136Y6610D01*
G01X2145Y6606D01*
G01X2154Y6601D01*
G01X2162Y6596D01*
G01X2170Y6590D01*
G01X2184Y6576D01*
G01X2190Y6568D01*
G01X2195Y6560D01*
G01X2200Y6551D01*
G01X2204Y6542D01*
G01X2207Y6532D01*
G01X2209Y6523D01*
G01X2211Y6513D01*
G01X2212Y6507D01*
G01X2214Y6501D01*
G01X2216Y6496D01*
G01X2220Y6491D01*
G01X2224Y6487D01*
G01X2229Y6483D01*
G01X2235Y6480D01*
G01X2240Y6478D01*
G01X2246Y6477D01*
G01X2256Y6476D01*
G01X2266Y6474D01*
G01X2275Y6471D01*
G01X2284Y6467D01*
G01X2293Y6462D01*
G01X2301Y6457D01*
G01X2309Y6451D01*
G01X2323Y6437D01*
G01X2329Y6429D01*
G01X2334Y6420D01*
G01X2339Y6412D01*
G01X2343Y6403D01*
G01X2346Y6393D01*
G01X2348Y6384D01*
G01X2350Y6374D01*
G01X2351Y6368D01*
G01X2353Y6362D01*
G01X2359Y6352D01*
G01X2363Y6348D01*
G01X2368Y6344D01*
G01X2374Y6341D01*
G01X2379Y6339D01*
G01X2385Y6338D01*
G01X2395Y6337D01*
G01X2405Y6334D01*
G01X2414Y6331D01*
G01X2432Y6323D01*
G01X2456Y6305D01*
G01X2462Y6297D01*
G01X2468Y6290D01*
G01X2474Y6281D01*
G01X2478Y6273D01*
G01X2482Y6263D01*
G01X2485Y6254D01*
G01X2488Y6244D01*
G01X2489Y6235D01*
G01X2490Y6229D01*
G01X2492Y6223D01*
G01X2498Y6213D01*
G01X2503Y6208D01*
G01X2513Y6202D01*
G01X2519Y6200D01*
G01X2525Y6199D01*
G01X2534Y6197D01*
G01X2544Y6195D01*
G01X2553Y6192D01*
G01X2563Y6188D01*
G01X2571Y6184D01*
G01X2580Y6178D01*
G01X2587Y6172D01*
G01X2595Y6165D01*
G01X2601Y6158D01*
G01X2613Y6142D01*
G01X2621Y6124D01*
G01X2624Y6115D01*
G01X2627Y6105D01*
G01X2628Y6095D01*
G01X2629Y6089D01*
G01X2631Y6084D01*
G01X2634Y6078D01*
G01X2637Y6073D01*
G01X2642Y6069D01*
G01X2652Y6063D01*
G01X2658Y6061D01*
G01X2664Y6060D01*
G01X2674Y6058D01*
G01X2683Y6056D01*
G01X2693Y6053D01*
G01X2702Y6049D01*
G01X2710Y6044D01*
G01X2719Y6039D01*
G01X2727Y6033D01*
G01X2741Y6019D01*
G01X2747Y6011D01*
G01X2752Y6003D01*
G01X2757Y5994D01*
G01X2761Y5985D01*
G01X2764Y5976D01*
G01X2766Y5966D01*
G01X2767Y5956D01*
G01X2768Y5950D01*
G01X2770Y5944D01*
G01X2773Y5939D01*
G01X2777Y5934D01*
G01X2781Y5930D01*
G01X2786Y5926D01*
G01X2791Y5924D01*
G01X2797Y5922D01*
G01X2803Y5921D01*
G01X2813Y5919D01*
G01X2822Y5917D01*
G01X2832Y5914D01*
G01X2841Y5910D01*
G01X2850Y5905D01*
G01X2858Y5900D01*
G01X2866Y5894D01*
G01X2880Y5880D01*
G01X2886Y5872D01*
G01X2891Y5864D01*
G01X2896Y5855D01*
G01X2900Y5846D01*
G01X2903Y5836D01*
G01X2905Y5827D01*
G01X2906Y5817D01*
G01X2907Y5811D01*
G01X2909Y5805D01*
G01X2912Y5800D01*
G01X2916Y5795D01*
G01X2920Y5791D01*
G01X2925Y5787D01*
G01X2930Y5784D01*
G01X2936Y5782D01*
G01X2942Y5781D01*
G01X2952Y5780D01*
G01X2962Y5778D01*
G01X2971Y5774D01*
G01X2981Y5770D01*
G01X2989Y5766D01*
G01X2998Y5760D01*
G01X3006Y5754D01*
G01X3020Y5740D01*
G01X3026Y5732D01*
G01X3036Y5714D01*
G01X3042Y5696D01*
G01X3045Y5686D01*
G01X3046Y5676D01*
G01X3046Y5656D01*
G01X3045Y5646D01*
G01X3039Y5626D01*
G01X3031Y5608D01*
G01X3025Y5599D01*
G01X3019Y5591D01*
G01X2583Y5155D01*
G01X2575Y5149D01*
G01X2566Y5143D01*
G01X2558Y5137D01*
G01X2552Y5131D01*
G01X2548Y5126D01*
G01X2545Y5121D01*
G01X2542Y5115D01*
G01X2541Y5109D01*
G01X2541Y5069D01*
G01X2540Y5060D01*
G01X2539Y5050D01*
G01X2537Y5041D01*
G01X2534Y5032D01*
G01X2526Y5014D01*
G01X2520Y5006D01*
G01X2515Y4998D01*
G01X2095Y4578D01*
G01X2092Y4572D01*
G01X2088Y4560D01*
G01X2088Y4548D01*
G01X2092Y4536D01*
G01X2095Y4530D01*
G01X2104Y4521D01*
G01X2110Y4518D01*
G01X2116Y4516D01*
G01X2128Y4510D01*
G01X2140Y4502D01*
G01X2144Y4496D01*
G01X2149Y4491D01*
G01X2152Y4485D01*
G01X2155Y4478D01*
G01X2157Y4472D01*
G01X2158Y4465D01*
G01X2158Y4214D01*
G01X2157Y4207D01*
G01X2151Y4193D01*
G01X2148Y4187D01*
G01X2143Y4181D01*
G01X2138Y4176D01*
G01X2132Y4171D01*
G01X2126Y4167D01*
G01X2119Y4164D01*
G01X2112Y4162D01*
G01X2105Y4161D01*
G01X2097Y4160D01*
G01X1842Y4160D01*
G01X1834Y4161D01*
G01X1827Y4162D01*
G01X1820Y4164D01*
G01X1813Y4167D01*
G01X1807Y4171D01*
G01X1801Y4176D01*
G01X1796Y4181D01*
G01X1791Y4187D01*
G01X1788Y4193D01*
G01X1782Y4207D01*
G01X1781Y4214D01*
G01X1781Y4345D01*
G01X1779Y4357D01*
G01X1777Y4362D01*
G01X1771Y4372D01*
G01X1767Y4376D01*
G01X1757Y4382D01*
G01X1752Y4384D01*
G01X1746Y4385D01*
G01X1734Y4385D01*
G01X1722Y4381D01*
G01X1717Y4378D01*
G01X1712Y4374D01*
G01X1672Y4334D01*
G01X1668Y4329D01*
G01X1665Y4323D01*
G01X1662Y4318D01*
G01X1661Y4312D01*
G01X1661Y4305D01*
G01X1660Y3763D01*
G01X1662Y3751D01*
G01X1664Y3746D01*
G01X1667Y3741D01*
G01X1670Y3737D01*
G01X1674Y3732D01*
G01X1684Y3726D01*
G01X1689Y3724D01*
G01X1695Y3723D01*
G01X1706Y3723D01*
G01X1712Y3724D01*
G01X1718Y3727D01*
G01X1723Y3730D01*
G01X1727Y3733D01*
G01X1737Y3741D01*
G01X1746Y3748D01*
G01X1757Y3755D01*
G01X1767Y3761D01*
G01X1778Y3766D01*
G01X1790Y3770D01*
G01X1801Y3774D01*
G01X1813Y3777D01*
G01X1825Y3779D01*
G01X1837Y3780D01*
G01X1862Y3780D01*
G01X1874Y3779D01*
G01X1886Y3777D01*
G01X1898Y3774D01*
G01X1922Y3766D01*
G01X1944Y3754D01*
G01X1964Y3740D01*
G01X1973Y3732D01*
G01X1982Y3723D01*
G01X1990Y3714D01*
G01X2004Y3694D01*
G01X2016Y3672D01*
G01X2024Y3648D01*
G01X2027Y3636D01*
G01X2029Y3624D01*
G01X2030Y3612D01*
G01X2030Y3586D01*
G01X2028Y3572D01*
G01X2028Y3560D01*
G01X2030Y3555D01*
G01X2031Y3549D01*
G01X2034Y3544D01*
G01X2038Y3540D01*
G01X2043Y3532D01*
G01X2048Y3525D01*
G01X2052Y3516D01*
G01X2055Y3508D01*
G01X2058Y3499D01*
G01X2059Y3490D01*
G01X2059Y3457D01*
G01X2060Y3451D01*
G01X2061Y3446D01*
G01X2063Y3440D01*
G01X2066Y3435D01*
G01X2069Y3431D01*
G01X2073Y3427D01*
G01X2078Y3423D01*
G01X2083Y3420D01*
G01X2088Y3418D01*
G01X2094Y3417D01*
G01X2224Y3417D01*
G01X2232Y3416D01*
G01X2239Y3415D01*
G01X2246Y3413D01*
G01X2252Y3410D01*
G01X2264Y3402D01*
G01X2269Y3397D01*
G01X2274Y3391D01*
G01X2278Y3385D01*
G01X2281Y3379D01*
G01X2285Y3365D01*
G01X2285Y3358D01*
G01X2286Y3352D01*
G01X2290Y3340D01*
G01X2293Y3335D01*
G01X2297Y3330D01*
G01X2302Y3326D01*
G01X2307Y3323D01*
G01X2319Y3319D01*
G01X3980Y3319D01*
G01X3992Y3323D01*
G01X3997Y3326D01*
G01X4002Y3330D01*
G01X4006Y3335D01*
G01X4009Y3340D01*
G01X4013Y3352D01*
G01X4014Y3358D01*
G01X4014Y3365D01*
G01X4018Y3379D01*
G01X4021Y3385D01*
G01X4025Y3391D01*
G01X4030Y3397D01*
G01X4035Y3402D01*
G01X4047Y3410D01*
G01X4053Y3413D01*
G01X4060Y3415D01*
G01X4067Y3416D01*
G01X4075Y3417D01*
G01X4133Y3417D01*
G01X4138Y3418D01*
G01X4144Y3420D01*
G01X4149Y3423D01*
G01X4161Y3435D01*
G01X4163Y3440D01*
G01X4165Y3446D01*
G01X4167Y3451D01*
G01X4167Y3457D01*
G01X4165Y3469D01*
G01X4163Y3475D01*
G01X4155Y3485D01*
G01X4075Y3565D01*
G01X4069Y3572D01*
G01X4064Y3579D01*
G01X4059Y3587D01*
G01X4055Y3595D01*
G01X4052Y3603D01*
G01X4050Y3612D01*
G01X4049Y3621D01*
G01X4048Y3629D01*
G01X4048Y4281D01*
G01X4047Y4288D01*
G01X4044Y4293D01*
G01X4041Y4299D01*
G01X4037Y4304D01*
G01X3944Y4397D01*
G01X3939Y4401D01*
G01X3933Y4404D01*
G01X3928Y4407D01*
G01X3921Y4408D01*
G01X3915Y4409D01*
G01X3591Y4409D01*
G01X3582Y4410D01*
G01X3573Y4412D01*
G01X3565Y4415D01*
G01X3557Y4419D01*
G01X3549Y4424D01*
G01X3542Y4429D01*
G01X3535Y4435D01*
G01X3463Y4507D01*
G01X3453Y4515D01*
G01X3441Y4519D01*
G01X3407Y4519D01*
G01X3394Y4520D01*
G01X3382Y4523D01*
G01X3369Y4526D01*
G01X3345Y4534D01*
G01X3323Y4546D01*
G01X3313Y4553D01*
G01X3303Y4561D01*
G01X3297Y4565D01*
G01X3291Y4568D01*
G01X3284Y4570D01*
G01X3277Y4571D01*
G01X3275Y4571D01*
G01X3276Y4577D01*
G01X3274Y4589D01*
G01X3272Y4594D01*
G01X3269Y4599D01*
G01X3255Y4623D01*
G01X3250Y4636D01*
G01X3246Y4649D01*
G01X3242Y4663D01*
G01X3241Y4668D01*
G01X3238Y4674D01*
G01X3235Y4679D01*
G01X3231Y4683D01*
G01X3226Y4687D01*
G01X3221Y4690D01*
G01X3209Y4694D01*
G01X3197Y4694D01*
G01X3190Y4692D01*
G01X3184Y4690D01*
G01X3172Y4684D01*
G01X3159Y4678D01*
G01X3153Y4676D01*
G01X3148Y4673D01*
G01X3143Y4669D01*
G01X3139Y4664D01*
G01X3136Y4659D01*
G01X3132Y4647D01*
G01X3132Y4634D01*
G01X3134Y4628D01*
G01X3136Y4623D01*
G01X3140Y4617D01*
G01X3144Y4612D01*
G01X3207Y4549D01*
G01X3217Y4541D01*
G01X3229Y4537D01*
G01X3237Y4537D01*
G01X3237Y4525D01*
G01X3238Y4520D01*
G01X3240Y4514D01*
G01X3243Y4509D01*
G01X3253Y4491D01*
G01X3256Y4481D01*
G01X3259Y4470D01*
G01X3260Y4460D01*
G01X3261Y4449D01*
G01X3260Y4258D01*
G01X3261Y4252D01*
G01X3262Y4247D01*
G01X3264Y4241D01*
G01X3267Y4236D01*
G01X3270Y4232D01*
G01X3274Y4228D01*
G01X3279Y4224D01*
G01X3289Y4220D01*
G01X3295Y4218D01*
G01X3307Y4218D01*
G01X3313Y4220D01*
G01X3325Y4226D01*
G01X3331Y4230D01*
G01X3338Y4234D01*
G01X3354Y4238D01*
G01X3605Y4238D01*
G01X3612Y4237D01*
G01X3626Y4231D01*
G01X3632Y4228D01*
G01X3638Y4223D01*
G01X3643Y4218D01*
G01X3648Y4212D01*
G01X3652Y4206D01*
G01X3655Y4199D01*
G01X3657Y4192D01*
G01X3658Y4185D01*
G01X3659Y4177D01*
G01X3659Y3922D01*
G01X3658Y3914D01*
G01X3657Y3907D01*
G01X3655Y3900D01*
G01X3652Y3893D01*
G01X3648Y3887D01*
G01X3643Y3881D01*
G01X3638Y3876D01*
G01X3632Y3871D01*
G01X3626Y3868D01*
G01X3612Y3862D01*
G01X3605Y3861D01*
G01X3369Y3861D01*
G01X3357Y3859D01*
G01X3352Y3857D01*
G01X3342Y3851D01*
G01X3338Y3847D01*
G01X3332Y3837D01*
G01X3330Y3831D01*
G01X3329Y3826D01*
G01X3327Y3814D01*
G01X3324Y3802D01*
G01X3316Y3778D01*
G01X3311Y3767D01*
G01X3305Y3756D01*
G01X3298Y3746D01*
G01X3282Y3726D01*
G01X3273Y3718D01*
G01X3264Y3709D01*
G01X3244Y3695D01*
G01X3233Y3689D01*
G01X3222Y3684D01*
G01X3210Y3679D01*
G01X3199Y3675D01*
G01X3186Y3672D01*
G01X3174Y3670D01*
G01X3162Y3669D01*
G01X3136Y3669D01*
G01X3123Y3670D01*
G01X3110Y3673D01*
G01X3098Y3676D01*
G01X3085Y3680D01*
G01X3073Y3685D01*
G01X3061Y3691D01*
G01X3050Y3698D01*
G01X3040Y3706D01*
G01X3029Y3714D01*
G01X3025Y3718D01*
G01X3020Y3720D01*
G01X3014Y3723D01*
G01X3009Y3724D01*
G01X2996Y3724D01*
G01X2990Y3722D01*
G01X2983Y3719D01*
G01X2973Y3711D01*
G01X2968Y3706D01*
G01X2962Y3701D01*
G01X2956Y3697D01*
G01X2949Y3695D01*
G01X2942Y3692D01*
G01X2935Y3691D01*
G01X2684Y3691D01*
G01X2677Y3692D01*
G01X2663Y3698D01*
G01X2657Y3701D01*
G01X2651Y3706D01*
G01X2646Y3711D01*
G01X2641Y3717D01*
G01X2637Y3723D01*
G01X2634Y3730D01*
G01X2632Y3737D01*
G01X2631Y3744D01*
G01X2630Y3752D01*
G01X2630Y4007D01*
G01X2631Y4015D01*
G01X2632Y4022D01*
G01X2635Y4030D01*
G01X2638Y4036D01*
G01X2642Y4043D01*
G01X2646Y4049D01*
G01X2652Y4054D01*
G01X2658Y4058D01*
G01X2665Y4062D01*
G01X2672Y4065D01*
G01X2682Y4071D01*
G01X2687Y4075D01*
G01X2691Y4080D01*
G01X2694Y4085D01*
G01X2697Y4091D01*
G01X2699Y4103D01*
G01X2699Y4116D01*
G01X2697Y4128D01*
G01X2694Y4134D01*
G01X2691Y4139D01*
G01X2687Y4144D01*
G01X2682Y4148D01*
G01X2672Y4154D01*
G01X2665Y4157D01*
G01X2658Y4161D01*
G01X2652Y4165D01*
G01X2646Y4170D01*
G01X2642Y4176D01*
G01X2638Y4183D01*
G01X2635Y4189D01*
G01X2632Y4197D01*
G01X2631Y4204D01*
G01X2630Y4212D01*
G01X2630Y4467D01*
G01X2631Y4475D01*
G01X2632Y4482D01*
G01X2634Y4489D01*
G01X2637Y4496D01*
G01X2641Y4502D01*
G01X2646Y4508D01*
G01X2651Y4513D01*
G01X2657Y4518D01*
G01X2663Y4521D01*
G01X2677Y4527D01*
G01X2684Y4528D01*
G01X2817Y4528D01*
G01X2823Y4529D01*
G01X2828Y4530D01*
G01X2834Y4532D01*
G01X2839Y4535D01*
G01X2843Y4538D01*
G01X2847Y4542D01*
G01X2851Y4547D01*
G01X2855Y4557D01*
G01X2857Y4563D01*
G01X2857Y4575D01*
G01X2853Y4587D01*
G01X2845Y4597D01*
G01X2714Y4728D01*
G01X2709Y4736D01*
G01X2703Y4744D01*
G01X2695Y4762D01*
G01X2692Y4771D01*
G01X2690Y4780D01*
G01X2689Y4790D01*
G01X2688Y4799D01*
G01X2688Y4899D01*
G01X2684Y4911D01*
G01X2679Y4922D01*
G01X2675Y4932D01*
G01X2671Y4954D01*
G01X2671Y4976D01*
G01X2672Y4986D01*
G01X2674Y4996D01*
G01X2678Y5005D01*
G01X2681Y5015D01*
G01X2686Y5024D01*
G01X2698Y5040D01*
G01X2705Y5048D01*
G01X3126Y5470D01*
G01X3134Y5476D01*
G01X3142Y5483D01*
G01X3160Y5493D01*
G01X3169Y5497D01*
G01X3179Y5500D01*
G01X3188Y5502D01*
G01X3198Y5503D01*
G01X3209Y5504D01*
G01X3229Y5502D01*
G01X3239Y5500D01*
G01X3248Y5497D01*
G01X3258Y5493D01*
G01X3267Y5488D01*
G01X3283Y5476D01*
G01X3291Y5469D01*
G01X3298Y5462D01*
G01X3304Y5454D01*
G01X3314Y5436D01*
G01X3318Y5427D01*
G01X3321Y5417D01*
G01X3323Y5411D01*
G01X3326Y5406D01*
G01X3330Y5401D01*
G01X3334Y5397D01*
G01X3339Y5393D01*
G01X3345Y5390D01*
G01X3350Y5388D01*
G01X3357Y5387D01*
G01X3350Y5386D01*
G01X3345Y5385D01*
G01X3339Y5382D01*
G01X3334Y5378D01*
G01X3330Y5374D01*
G01X3326Y5369D01*
G01X3323Y5364D01*
G01X3321Y5358D01*
G01X3318Y5348D01*
G01X3314Y5339D01*
G01X3304Y5321D01*
G01X3298Y5313D01*
G01X3291Y5305D01*
G01X3080Y5094D01*
G01X3076Y5088D01*
G01X3074Y5083D01*
G01X3073Y5076D01*
G01X3072Y5070D01*
G01X3074Y5058D01*
G01X3076Y5053D01*
G01X3079Y5047D01*
G01X3087Y5039D01*
G01X3093Y5035D01*
G01X3098Y5033D01*
G01X3104Y5031D01*
G01X3110Y5030D01*
G01X3133Y5027D01*
G01X3147Y5027D01*
G01X3159Y5031D01*
G01X3168Y5035D01*
G01X3179Y5038D01*
G01X3189Y5040D01*
G01X3559Y5040D01*
G01X3568Y5039D01*
G01X3577Y5036D01*
G01X3585Y5033D01*
G01X3594Y5029D01*
G01X3600Y5026D01*
G01X3606Y5025D01*
G01X3613Y5024D01*
G01X3619Y5024D01*
G01X3624Y5026D01*
G01X3630Y5028D01*
G01X3635Y5030D01*
G01X3647Y5042D01*
G01X3649Y5047D01*
G01X3651Y5053D01*
G01X3653Y5058D01*
G01X3653Y5064D01*
G01X3651Y5076D01*
G01X3649Y5082D01*
G01X3645Y5088D01*
G01X3428Y5305D01*
G01X3421Y5313D01*
G01X3415Y5321D01*
G01X3405Y5339D01*
G01X3401Y5348D01*
G01X3398Y5358D01*
G01X3396Y5364D01*
G01X3390Y5374D01*
G01X3380Y5382D01*
G01X3374Y5385D01*
G01X3369Y5386D01*
G01X3362Y5387D01*
G01X3369Y5388D01*
G01X3374Y5390D01*
G01X3380Y5393D01*
G01X3390Y5401D01*
G01X3396Y5411D01*
G01X3398Y5417D01*
G01X3401Y5427D01*
G01X3405Y5436D01*
G01X3410Y5445D01*
G01X3415Y5453D01*
G01X3421Y5461D01*
G01X3428Y5469D01*
G01X3435Y5476D01*
G01X3443Y5482D01*
G01X3451Y5487D01*
G01X3460Y5492D01*
G01X3469Y5496D01*
G01X3479Y5499D01*
G01X3489Y5501D01*
G01X3498Y5503D01*
G01X3504Y5504D01*
G01X3510Y5506D01*
G01X3516Y5509D01*
G01X3520Y5512D01*
G01X3525Y5517D01*
G01X3531Y5527D01*
G01X3533Y5533D01*
G01X3534Y5539D01*
G01X3536Y5548D01*
G01X3538Y5558D01*
G01X3541Y5567D01*
G01X3545Y5577D01*
G01X3549Y5585D01*
G01X3555Y5594D01*
G01X3561Y5601D01*
G01X3567Y5609D01*
G01X3575Y5615D01*
G01X3583Y5622D01*
G01X3591Y5627D01*
G01X3600Y5632D01*
G01X3618Y5638D01*
G01X3628Y5641D01*
G01X3638Y5642D01*
G01X3644Y5643D01*
G01X3649Y5645D01*
G01X3655Y5648D01*
G01X3660Y5652D01*
G01X3664Y5656D01*
G01X3670Y5666D01*
G01X3672Y5672D01*
G01X3673Y5678D01*
G01X3675Y5688D01*
G01X3677Y5697D01*
G01X3680Y5707D01*
G01X3684Y5716D01*
G01X3689Y5725D01*
G01X3694Y5733D01*
G01X3700Y5741D01*
G01X3714Y5755D01*
G01X3722Y5761D01*
G01X3730Y5766D01*
G01X3739Y5771D01*
G01X3748Y5775D01*
G01X3757Y5778D01*
G01X3767Y5780D01*
G01X3777Y5781D01*
G01X3783Y5782D01*
G01X3789Y5784D01*
G01X3794Y5787D01*
G01X3799Y5791D01*
G01X3803Y5795D01*
G01X3807Y5800D01*
G01X3809Y5805D01*
G01X3813Y5817D01*
G01X3814Y5827D01*
G01X3816Y5836D01*
G01X3819Y5846D01*
G01X3823Y5855D01*
G01X3828Y5864D01*
G01X3833Y5872D01*
G01X3839Y5880D01*
G01X3853Y5894D01*
G01X3861Y5900D01*
G01X3869Y5905D01*
G01X3878Y5910D01*
G01X3887Y5914D01*
G01X3897Y5917D01*
G01X3906Y5919D01*
G01X3916Y5921D01*
G01X3922Y5922D01*
G01X3928Y5924D01*
G01X3933Y5926D01*
G01X3938Y5930D01*
G01X3942Y5934D01*
G01X3946Y5939D01*
G01X3949Y5945D01*
G01X3951Y5950D01*
G01X3952Y5956D01*
G01X3953Y5966D01*
G01X3955Y5976D01*
G01X3958Y5985D01*
G01X3962Y5994D01*
G01X3967Y6003D01*
G01X3972Y6011D01*
G01X3978Y6019D01*
G01X3992Y6033D01*
G01X4000Y6039D01*
G01X4009Y6044D01*
G01X4017Y6049D01*
G01X4026Y6053D01*
G01X4036Y6056D01*
G01X4045Y6058D01*
G01X4055Y6060D01*
G01X4061Y6061D01*
G01X4067Y6063D01*
G01X4077Y6069D01*
G01X4081Y6073D01*
G01X4085Y6078D01*
G01X4088Y6084D01*
G01X4090Y6089D01*
G01X4091Y6095D01*
G01X4092Y6105D01*
G01X4095Y6115D01*
G01X4098Y6124D01*
G01X4106Y6142D01*
G01X4124Y6166D01*
G01X4132Y6172D01*
G01X4139Y6178D01*
G01X4148Y6184D01*
G01X4156Y6188D01*
G01X4166Y6192D01*
G01X4175Y6195D01*
G01X4185Y6198D01*
G01X4194Y6199D01*
G01X4200Y6200D01*
G01X4206Y6202D01*
G01X4216Y6208D01*
G01X4221Y6213D01*
G01X4227Y6223D01*
G01X4229Y6229D01*
G01X4230Y6235D01*
G01X4231Y6244D01*
G01X4234Y6254D01*
G01X4237Y6263D01*
G01X4241Y6273D01*
G01X4245Y6281D01*
G01X4251Y6290D01*
G01X4257Y6297D01*
G01X4263Y6305D01*
G01X4287Y6323D01*
G01X4305Y6331D01*
G01X4314Y6334D01*
G01X4324Y6337D01*
G01X4334Y6338D01*
G01X4340Y6339D01*
G01X4345Y6341D01*
G01X4351Y6344D01*
G01X4356Y6348D01*
G01X4360Y6352D01*
G01X4366Y6362D01*
G01X4368Y6368D01*
G01X4369Y6374D01*
G01X4371Y6384D01*
G01X4373Y6393D01*
G01X4376Y6403D01*
G01X4380Y6412D01*
G01X4385Y6420D01*
G01X4390Y6429D01*
G01X4396Y6437D01*
G01X4410Y6451D01*
G01X4418Y6457D01*
G01X4426Y6462D01*
G01X4435Y6467D01*
G01X4444Y6471D01*
G01X4453Y6474D01*
G01X4463Y6476D01*
G01X4473Y6477D01*
G01X4479Y6478D01*
G01X4484Y6480D01*
G01X4490Y6483D01*
G01X4495Y6487D01*
G01X4499Y6491D01*
G01X4503Y6496D01*
G01X4505Y6501D01*
G01X4507Y6507D01*
G01X4508Y6513D01*
G01X4510Y6523D01*
G01X4512Y6532D01*
G01X4515Y6542D01*
G01X4519Y6551D01*
G01X4524Y6560D01*
G01X4529Y6568D01*
G01X4535Y6576D01*
G01X4549Y6590D01*
G01X4557Y6596D01*
G01X4565Y6601D01*
G01X4574Y6606D01*
G01X4583Y6610D01*
G01X4593Y6613D01*
G01X4602Y6615D01*
G01X4612Y6616D01*
G01X4624Y6620D01*
G01X4629Y6622D01*
G01X4634Y6626D01*
G01X4638Y6630D01*
G01X4642Y6635D01*
G01X4645Y6640D01*
G01X4647Y6646D01*
G01X4648Y6652D01*
G01X4649Y6662D01*
G01X4651Y6672D01*
G01X4655Y6681D01*
G01X4659Y6691D01*
G01X4663Y6699D01*
G01X4669Y6708D01*
G01X4675Y6716D01*
G01X4689Y6730D01*
G01X4697Y6736D01*
G01X4715Y6746D01*
G01X4733Y6752D01*
G01X4743Y6755D01*
G01X4753Y6756D01*
G01X4773Y6756D01*
G01X4783Y6755D01*
G01X4803Y6749D01*
G01X4821Y6741D01*
G01X4830Y6735D01*
G01X4838Y6729D01*
G01X5277Y6290D01*
G01X5281Y6287D01*
G01X5286Y6284D01*
G01X5292Y6282D01*
G01X5297Y6281D01*
G01X5303Y6280D01*
G01X5435Y6280D01*
G01X5441Y6281D01*
G01X5448Y6282D01*
G01X5453Y6285D01*
G01X5459Y6288D01*
G01X5464Y6292D01*
G01X5484Y6312D01*
G01X5488Y6317D01*
G01X5491Y6323D01*
G01X5493Y6328D01*
G01X5495Y6334D01*
G01X5495Y6347D01*
G01X5494Y6353D01*
G01X5491Y6358D01*
G01X5488Y6364D01*
G01X5480Y6372D01*
G01X5475Y6376D01*
G01X5469Y6378D01*
G01X5464Y6380D01*
G01X5458Y6381D01*
G01X5447Y6382D01*
G01X5436Y6384D01*
G01X5426Y6387D01*
G01X5416Y6391D01*
G01X5407Y6395D01*
G01X5389Y6407D01*
G01X5353Y6443D01*
G01X5347Y6448D01*
G01X5339Y6454D01*
G01X5331Y6461D01*
G01X5131Y6661D01*
G01X5124Y6669D01*
G01X5118Y6677D01*
G01X5113Y6683D01*
G01X4959Y6836D01*
G01X4953Y6844D01*
G01X4946Y6852D01*
G01X4936Y6870D01*
G01X4932Y6879D01*
G01X4929Y6889D01*
G01X4927Y6898D01*
G01X4926Y6908D01*
G01X4925Y6919D01*
G01X4927Y6939D01*
G01X4929Y6949D01*
G01X4932Y6958D01*
G01X4936Y6968D01*
G01X4941Y6977D01*
G01X4953Y6993D01*
G01X4960Y7001D01*
G01X4967Y7008D01*
G01X4975Y7014D01*
G01X4993Y7024D01*
G01X5002Y7028D01*
G01X5012Y7031D01*
G01X5018Y7033D01*
G01X5023Y7036D01*
G01X5028Y7040D01*
G01X5032Y7044D01*
G01X5036Y7049D01*
G01X5039Y7055D01*
G01X5041Y7060D01*
G01X5042Y7067D01*
G01X5043Y7060D01*
G01X5044Y7055D01*
G01X5047Y7049D01*
G01X5051Y7044D01*
G01X5055Y7040D01*
G01X5060Y7036D01*
G01X5065Y7033D01*
G01X5071Y7031D01*
G01X5081Y7028D01*
G01X5090Y7024D01*
G01X5108Y7014D01*
G01X5116Y7008D01*
G01X5124Y7001D01*
G01X5205Y6919D01*
G01X5210Y6915D01*
G01X5216Y6912D01*
G01X5221Y6909D01*
G01X5227Y6908D01*
G01X5234Y6907D01*
G01X5246Y6909D01*
G01X5251Y6911D01*
G01X5256Y6914D01*
G01X5261Y6918D01*
G01X5265Y6922D01*
G01X5268Y6927D01*
G01X5271Y6933D01*
G01X5273Y6939D01*
G01X5276Y6950D01*
G01X5280Y6962D01*
G01X5284Y6973D01*
G01X5296Y6995D01*
G01X5310Y7015D01*
G01X5318Y7024D01*
G01X5327Y7033D01*
G01X5336Y7041D01*
G01X5356Y7055D01*
G01X5367Y7061D01*
G01X5378Y7066D01*
G01X5389Y7070D01*
G01X5401Y7074D01*
G01X5413Y7077D01*
G01X5425Y7079D01*
G01X5437Y7080D01*
G01X5462Y7080D01*
G01X5475Y7079D01*
G01X5488Y7076D01*
G01X5500Y7073D01*
G01X5512Y7069D01*
G01X5536Y7059D01*
G01X5547Y7052D01*
G01X5552Y7049D01*
G01X5557Y7047D01*
G01X5563Y7046D01*
G01X5574Y7046D01*
G01X5580Y7047D01*
G01X5585Y7049D01*
G01X5595Y7055D01*
G01X5599Y7060D01*
G01X5602Y7064D01*
G01X5605Y7069D01*
G01X5607Y7074D01*
G01X5609Y7086D01*
G01X5609Y7527D01*
G01X5608Y7532D01*
G01X5607Y7538D01*
G01X5605Y7543D01*
G01X5599Y7553D01*
G01X5595Y7557D01*
G01X5585Y7563D01*
G01X5580Y7565D01*
G01X5574Y7566D01*
G01X5569Y7567D01*
G01X5562Y7566D01*
G01X5556Y7565D01*
G01X5550Y7562D01*
G01X5545Y7559D01*
G01X5540Y7555D01*
G01X5124Y7138D01*
G01X5116Y7131D01*
G01X5108Y7125D01*
G01X5090Y7115D01*
G01X5081Y7111D01*
G01X5071Y7108D01*
G01X5065Y7106D01*
G01X5055Y7100D01*
G01X5047Y7090D01*
G01X5044Y7084D01*
G01X5043Y7079D01*
G01X5042Y7072D01*
G01X5041Y7079D01*
G01X5039Y7084D01*
G01X5036Y7090D01*
G01X5028Y7100D01*
G01X5018Y7106D01*
G01X5012Y7108D01*
G01X5002Y7111D01*
G01X4993Y7115D01*
G01X4984Y7120D01*
G01X4976Y7125D01*
G01X4968Y7131D01*
G01X4960Y7138D01*
G01X4953Y7145D01*
G01X4947Y7153D01*
G01X4942Y7161D01*
G01X4937Y7170D01*
G01X4933Y7179D01*
G01X4930Y7189D01*
G01X4925Y7214D01*
G01X4923Y7220D01*
G01X4920Y7226D01*
G01X4917Y7230D01*
G01X4912Y7235D01*
G01X4902Y7241D01*
G01X4896Y7243D01*
G01X4890Y7244D01*
G01X4881Y7246D01*
G01X4871Y7248D01*
G01X4862Y7251D01*
G01X4852Y7255D01*
G01X4844Y7259D01*
G01X4835Y7265D01*
G01X4828Y7271D01*
G01X4820Y7278D01*
G01X4814Y7285D01*
G01X4802Y7301D01*
G01X4794Y7319D01*
G01X4791Y7328D01*
G01X4788Y7338D01*
G01X4787Y7348D01*
G01X4786Y7354D01*
G01X4784Y7359D01*
G01X4781Y7365D01*
G01X4777Y7370D01*
G01X4773Y7374D01*
G01X4763Y7380D01*
G01X4757Y7382D01*
G01X4751Y7383D01*
G01X4741Y7385D01*
G01X4732Y7387D01*
G01X4722Y7390D01*
G01X4713Y7394D01*
G01X4705Y7399D01*
G01X4696Y7404D01*
G01X4688Y7410D01*
G01X4674Y7424D01*
G01X4668Y7432D01*
G01X4663Y7440D01*
G01X4658Y7449D01*
G01X4654Y7458D01*
G01X4651Y7467D01*
G01X4649Y7477D01*
G01X4648Y7487D01*
G01X4647Y7493D01*
G01X4645Y7499D01*
G01X4642Y7504D01*
G01X4638Y7509D01*
G01X4634Y7513D01*
G01X4629Y7517D01*
G01X4624Y7519D01*
G01X4618Y7521D01*
G01X4612Y7522D01*
G01X4602Y7524D01*
G01X4593Y7526D01*
G01X4583Y7529D01*
G01X4574Y7533D01*
G01X4565Y7538D01*
G01X4557Y7543D01*
G01X4549Y7549D01*
G01X4535Y7563D01*
G01X4529Y7571D01*
G01X4524Y7579D01*
G01X4519Y7588D01*
G01X4515Y7597D01*
G01X4512Y7607D01*
G01X4510Y7616D01*
G01X4508Y7626D01*
G01X4507Y7632D01*
G01X4505Y7638D01*
G01X4503Y7643D01*
G01X4499Y7648D01*
G01X4495Y7652D01*
G01X4490Y7656D01*
G01X4484Y7659D01*
G01X4479Y7661D01*
G01X4473Y7662D01*
G01X4463Y7663D01*
G01X4453Y7665D01*
G01X4444Y7668D01*
G01X4435Y7672D01*
G01X4426Y7677D01*
G01X4418Y7682D01*
G01X4410Y7688D01*
G01X4396Y7702D01*
G01X4390Y7710D01*
G01X4385Y7719D01*
G01X4380Y7727D01*
G01X4376Y7736D01*
G01X4373Y7746D01*
G01X4371Y7755D01*
G01X4369Y7765D01*
G01X4368Y7771D01*
G01X4366Y7777D01*
G01X4360Y7787D01*
G01X4356Y7792D01*
G01X4351Y7795D01*
G01X4345Y7798D01*
G01X4340Y7800D01*
G01X4334Y7801D01*
G01X4324Y7802D01*
G01X4314Y7805D01*
G01X4305Y7808D01*
G01X4287Y7816D01*
G01X4271Y7828D01*
G01X4264Y7834D01*
G01X4257Y7842D01*
G01X4251Y7849D01*
G01X4245Y7858D01*
G01X4241Y7866D01*
G01X4237Y7876D01*
G01X4234Y7885D01*
G01X4232Y7895D01*
G01X4230Y7904D01*
G01X4229Y7910D01*
G01X4227Y7916D01*
G01X4221Y7926D01*
G01X4216Y7931D01*
G01X4206Y7937D01*
G01X4200Y7939D01*
G01X4194Y7940D01*
G01X4185Y7941D01*
G01X4175Y7944D01*
G01X4166Y7947D01*
G01X4156Y7951D01*
G01X4148Y7955D01*
G01X4139Y7961D01*
G01X4132Y7967D01*
G01X4124Y7973D01*
G01X4106Y7997D01*
G01X4098Y8015D01*
G01X4095Y8024D01*
G01X4092Y8034D01*
G01X4091Y8044D01*
G01X4090Y8050D01*
G01X4088Y8055D01*
G01X4085Y8061D01*
G01X4081Y8066D01*
G01X4077Y8070D01*
G01X4067Y8076D01*
G01X4061Y8078D01*
G01X4055Y8079D01*
G01X4045Y8081D01*
G01X4036Y8083D01*
G01X4026Y8086D01*
G01X4017Y8090D01*
G01X4009Y8095D01*
G01X4000Y8100D01*
G01X3992Y8106D01*
G01X3978Y8120D01*
G01X3972Y8128D01*
G01X3967Y8136D01*
G01X3962Y8145D01*
G01X3958Y8154D01*
G01X3955Y8163D01*
G01X3953Y8173D01*
G01X3952Y8183D01*
G01X3951Y8189D01*
G01X3949Y8195D01*
G01X3946Y8200D01*
G01X3942Y8205D01*
G01X3938Y8209D01*
G01X3933Y8213D01*
G01X3928Y8215D01*
G01X3922Y8217D01*
G01X3916Y8218D01*
G01X3906Y8220D01*
G01X3897Y8222D01*
G01X3887Y8225D01*
G01X3878Y8229D01*
G01X3869Y8234D01*
G01X3861Y8239D01*
G01X3853Y8245D01*
G01X3839Y8259D01*
G01X3833Y8267D01*
G01X3828Y8275D01*
G01X3823Y8284D01*
G01X3819Y8293D01*
G01X3816Y8303D01*
G01X3814Y8312D01*
G01X3812Y8322D01*
G01X3811Y8328D01*
G01X3809Y8334D01*
G01X3807Y8339D01*
G01X3803Y8344D01*
G01X3799Y8348D01*
G01X3794Y8352D01*
G01X3789Y8355D01*
G01X3783Y8357D01*
G01X3777Y8358D01*
G01X3767Y8359D01*
G01X3757Y8361D01*
G01X3748Y8365D01*
G01X3738Y8369D01*
G01X3730Y8373D01*
G01X3721Y8379D01*
G01X3713Y8385D01*
G01X3699Y8399D01*
G01X3693Y8407D01*
G01X3683Y8425D01*
G01X3677Y8443D01*
G01X3674Y8453D01*
G01X3673Y8463D01*
G01X3673Y8483D01*
G01X3674Y8493D01*
G01X3680Y8513D01*
G01X3688Y8531D01*
G01X3694Y8540D01*
G01X3700Y8548D01*
G01X4137Y8985D01*
G01X4155Y8997D01*
G01X4165Y9002D01*
G01X4176Y9006D01*
G01X4187Y9009D01*
G01X4192Y9010D01*
G01X4198Y9013D01*
G01X4202Y9016D01*
G01X4207Y9020D01*
G01X4251Y9064D01*
G01X4254Y9070D01*
G01X4257Y9075D01*
G01X4258Y9082D01*
G01X4259Y9088D01*
G01X4259Y9098D01*
G01X4260Y9107D01*
G01X4262Y9116D01*
G01X4265Y9124D01*
G01X4269Y9132D01*
G01X4274Y9140D01*
G01X4279Y9147D01*
G01X4285Y9154D01*
G01X4342Y9211D01*
G01X4348Y9223D01*
G01X4350Y9235D01*
G01X4348Y9247D01*
G01X4346Y9252D01*
G01X4341Y9264D01*
G01X4336Y9277D01*
G01X4330Y9303D01*
G01X4328Y9329D01*
G01X4329Y9342D01*
G01X4330Y9354D01*
G01X4332Y9366D01*
G01X4335Y9378D01*
G01X4343Y9402D01*
G01X4355Y9424D01*
G01X4369Y9444D01*
G01X4377Y9453D01*
G01X4386Y9462D01*
G01X4395Y9470D01*
G01X4415Y9484D01*
G01X4437Y9496D01*
G01X4461Y9504D01*
G01X4473Y9507D01*
G01X4485Y9509D01*
G01X4497Y9510D01*
G01X4522Y9510D01*
G01X4534Y9509D01*
G01X4546Y9507D01*
G01X4558Y9504D01*
G01X4582Y9496D01*
G01X4604Y9484D01*
G01X4624Y9470D01*
G01X4633Y9462D01*
G01X4642Y9453D01*
G01X4650Y9444D01*
G01X4664Y9424D01*
G01X4676Y9402D01*
G01X4684Y9378D01*
G01X4687Y9366D01*
G01X4689Y9354D01*
G01X4690Y9342D01*
G01X4691Y9329D01*
G01X4690Y9317D01*
G01X4689Y9304D01*
G01X4686Y9291D01*
G01X4683Y9279D01*
G01X4679Y9266D01*
G01X4674Y9254D01*
G01X4662Y9232D01*
G01X4654Y9221D01*
G01X4651Y9216D01*
G01X4648Y9210D01*
G01X4647Y9203D01*
G01X4646Y9197D01*
G01X4647Y9191D01*
G01X4648Y9186D01*
G01X4650Y9180D01*
G01X4653Y9175D01*
G01X4656Y9171D01*
G01X4661Y9167D01*
G01X4665Y9163D01*
G01X4676Y9156D01*
G01X4687Y9147D01*
G01X4697Y9138D01*
G01X4706Y9128D01*
G01X4710Y9124D01*
G01X4720Y9118D01*
G01X4725Y9116D01*
G01X4731Y9115D01*
G01X4736Y9114D01*
G01X4748Y9116D01*
G01X4753Y9118D01*
G01X4763Y9124D01*
G01X4767Y9128D01*
G01X4773Y9138D01*
G01X4775Y9143D01*
G01X4776Y9149D01*
G01X4776Y9387D01*
G01X4777Y9395D01*
G01X4778Y9402D01*
G01X4780Y9409D01*
G01X4783Y9416D01*
G01X4787Y9422D01*
G01X4792Y9428D01*
G01X4797Y9433D01*
G01X4803Y9438D01*
G01X4809Y9441D01*
G01X4823Y9447D01*
G01X4830Y9448D01*
G01X5070Y9448D01*
G01X5075Y9449D01*
G01X5081Y9450D01*
G01X5086Y9452D01*
G01X5096Y9458D01*
G01X5100Y9462D01*
G01X5106Y9472D01*
G01X5108Y9477D01*
G01X5109Y9483D01*
G01X5109Y9550D01*
G01X5719Y9549D01*
G01X5724Y9550D01*
G01X5730Y9551D01*
G01X5735Y9553D01*
G01X5745Y9559D01*
G01X5749Y9563D01*
G01X5755Y9573D01*
G01X5757Y9578D01*
G01X5758Y9584D01*
G01X5759Y9589D01*
G01X5759Y9595D01*
G01X5758Y9601D01*
G01X5757Y9608D01*
G01X5754Y9613D01*
G01X5751Y9619D01*
G01X5747Y9624D01*
G01X4887Y10483D01*
G01X4882Y10487D01*
G01X4877Y10490D01*
G01X4871Y10493D01*
G37*

%LPD*%
G36*
G01X1629Y13097D02*
G01X1617Y13099D01*
G01X366Y13098D01*
G01X360Y13098D01*
G01X354Y13097D01*
G01X348Y13094D01*
G01X343Y13091D01*
G01X338Y13087D01*
G01X12Y12761D01*
G01X8Y12756D01*
G01X5Y12751D01*
G01X2Y12745D01*
G01X1Y12739D01*
G01X1Y260D01*
G01X2Y254D01*
G01X5Y248D01*
G01X8Y243D01*
G01X12Y238D01*
G01X238Y12D01*
G01X243Y8D01*
G01X248Y5D01*
G01X254Y2D01*
G01X260Y1D01*
G01X6739Y1D01*
G01X6745Y2D01*
G01X6751Y5D01*
G01X6756Y8D01*
G01X6761Y12D01*
G01X6987Y238D01*
G01X6991Y243D01*
G01X6994Y248D01*
G01X6997Y254D01*
G01X6999Y266D01*
G01X6999Y12604D01*
G01X6997Y12614D01*
G01X6951Y12789D01*
G01X6949Y12795D01*
G01X6941Y12807D01*
G01X6661Y13087D01*
G01X6656Y13091D01*
G01X6651Y13094D01*
G01X6645Y13097D01*
G01X6639Y13098D01*
G01X5500Y13098D01*
G01X5442Y13099D01*
G01X5430Y13097D01*
G01X5424Y13094D01*
G01X5419Y13091D01*
G01X5414Y13087D01*
G01X5410Y13082D01*
G01X5407Y13077D01*
G01X5404Y13071D01*
G01X5401Y13062D01*
G01X5391Y13044D01*
G01X5379Y13028D01*
G01X5372Y13021D01*
G01X5364Y13014D01*
G01X5356Y13008D01*
G01X5347Y13003D01*
G01X5329Y12995D01*
G01X5319Y12992D01*
G01X5310Y12990D01*
G01X5290Y12988D01*
G01X5279Y12989D01*
G01X5269Y12990D01*
G01X5259Y12992D01*
G01X5250Y12995D01*
G01X5240Y12999D01*
G01X5231Y13003D01*
G01X5223Y13009D01*
G01X5214Y13015D01*
G01X5207Y13021D01*
G01X5202Y13025D01*
G01X5197Y13028D01*
G01X5191Y13030D01*
G01X5185Y13031D01*
G01X5180Y13032D01*
G01X5168Y13030D01*
G01X5162Y13028D01*
G01X5157Y13025D01*
G01X5152Y13021D01*
G01X5145Y13015D01*
G01X5136Y13009D01*
G01X5128Y13003D01*
G01X5119Y12999D01*
G01X5109Y12995D01*
G01X5100Y12992D01*
G01X5090Y12990D01*
G01X5070Y12988D01*
G01X5059Y12989D01*
G01X5049Y12990D01*
G01X5039Y12992D01*
G01X5030Y12995D01*
G01X5020Y12999D01*
G01X5011Y13003D01*
G01X5003Y13009D01*
G01X4994Y13015D01*
G01X4987Y13021D01*
G01X4982Y13025D01*
G01X4977Y13028D01*
G01X4971Y13030D01*
G01X4959Y13032D01*
G01X4954Y13031D01*
G01X4948Y13030D01*
G01X4942Y13028D01*
G01X4937Y13025D01*
G01X4932Y13021D01*
G01X4925Y13015D01*
G01X4916Y13009D01*
G01X4908Y13003D01*
G01X4899Y12999D01*
G01X4889Y12995D01*
G01X4880Y12992D01*
G01X4870Y12990D01*
G01X4850Y12988D01*
G01X4839Y12989D01*
G01X4829Y12990D01*
G01X4819Y12992D01*
G01X4810Y12995D01*
G01X4800Y12999D01*
G01X4791Y13003D01*
G01X4783Y13009D01*
G01X4774Y13015D01*
G01X4767Y13021D01*
G01X4762Y13025D01*
G01X4757Y13028D01*
G01X4751Y13030D01*
G01X4745Y13031D01*
G01X4740Y13032D01*
G01X4728Y13030D01*
G01X4722Y13028D01*
G01X4717Y13025D01*
G01X4712Y13021D01*
G01X4705Y13015D01*
G01X4696Y13009D01*
G01X4688Y13003D01*
G01X4679Y12999D01*
G01X4669Y12995D01*
G01X4660Y12992D01*
G01X4650Y12990D01*
G01X4630Y12988D01*
G01X4619Y12989D01*
G01X4609Y12990D01*
G01X4599Y12992D01*
G01X4590Y12995D01*
G01X4580Y12999D01*
G01X4571Y13003D01*
G01X4563Y13009D01*
G01X4554Y13015D01*
G01X4547Y13021D01*
G01X4542Y13025D01*
G01X4537Y13028D01*
G01X4531Y13030D01*
G01X4519Y13032D01*
G01X4514Y13031D01*
G01X4508Y13030D01*
G01X4502Y13028D01*
G01X4497Y13025D01*
G01X4492Y13021D01*
G01X4485Y13015D01*
G01X4476Y13009D01*
G01X4468Y13003D01*
G01X4459Y12999D01*
G01X4449Y12995D01*
G01X4440Y12992D01*
G01X4430Y12990D01*
G01X4420Y12989D01*
G01X4409Y12988D01*
G01X4389Y12990D01*
G01X4379Y12992D01*
G01X4370Y12995D01*
G01X4360Y12999D01*
G01X4351Y13003D01*
G01X4343Y13009D01*
G01X4334Y13015D01*
G01X4327Y13021D01*
G01X4322Y13025D01*
G01X4317Y13028D01*
G01X4311Y13030D01*
G01X4305Y13031D01*
G01X4300Y13032D01*
G01X4288Y13030D01*
G01X4282Y13028D01*
G01X4277Y13025D01*
G01X4272Y13021D01*
G01X4265Y13015D01*
G01X4256Y13009D01*
G01X4248Y13003D01*
G01X4239Y12999D01*
G01X4229Y12995D01*
G01X4220Y12992D01*
G01X4210Y12990D01*
G01X4190Y12988D01*
G01X4179Y12989D01*
G01X4169Y12990D01*
G01X4159Y12992D01*
G01X4150Y12995D01*
G01X4140Y12999D01*
G01X4131Y13003D01*
G01X4123Y13009D01*
G01X4114Y13015D01*
G01X4107Y13021D01*
G01X4102Y13025D01*
G01X4097Y13028D01*
G01X4091Y13030D01*
G01X4085Y13031D01*
G01X4080Y13032D01*
G01X4068Y13030D01*
G01X4062Y13028D01*
G01X4057Y13025D01*
G01X4052Y13021D01*
G01X4044Y13014D01*
G01X4036Y13008D01*
G01X4027Y13003D01*
G01X4018Y12999D01*
G01X4008Y12995D01*
G01X3998Y12992D01*
G01X3988Y12990D01*
G01X3976Y12986D01*
G01X3969Y12988D01*
G01X3962Y12989D01*
G01X3953Y12990D01*
G01X3943Y12991D01*
G01X3933Y12994D01*
G01X3924Y12997D01*
G01X3915Y13002D01*
G01X3906Y13006D01*
G01X3890Y13018D01*
G01X3876Y13032D01*
G01X3870Y13040D01*
G01X3865Y13048D01*
G01X3862Y13053D01*
G01X3858Y13058D01*
G01X3848Y13064D01*
G01X3842Y13067D01*
G01X3836Y13068D01*
G01X3825Y13068D01*
G01X3819Y13067D01*
G01X3814Y13065D01*
G01X3809Y13062D01*
G01X3804Y13058D01*
G01X3800Y13054D01*
G01X3797Y13050D01*
G01X3794Y13045D01*
G01X3792Y13040D01*
G01X3791Y13034D01*
G01X3791Y12912D01*
G01X3792Y12906D01*
G01X3794Y12901D01*
G01X3800Y12891D01*
G01X3804Y12887D01*
G01X3814Y12881D01*
G01X3819Y12879D01*
G01X3825Y12878D01*
G01X3838Y12878D01*
G01X3845Y12881D01*
G01X3865Y12888D01*
G01X3884Y12894D01*
G01X3903Y12899D01*
G01X3943Y12907D01*
G01X3964Y12909D01*
G01X3972Y12910D01*
G01X3979Y12914D01*
G01X3987Y12911D01*
G01X3995Y12910D01*
G01X4000Y12911D01*
G01X4036Y12909D01*
G01X4055Y12907D01*
G01X4073Y12904D01*
G01X4109Y12896D01*
G01X4127Y12890D01*
G01X4144Y12884D01*
G01X4178Y12870D01*
G01X4226Y12843D01*
G01X4256Y12821D01*
G01X4284Y12797D01*
G01X4297Y12784D01*
G01X4321Y12756D01*
G01X4343Y12726D01*
G01X4370Y12678D01*
G01X4384Y12644D01*
G01X4390Y12627D01*
G01X4396Y12609D01*
G01X4404Y12573D01*
G01X4407Y12555D01*
G01X4409Y12536D01*
G01X4411Y12500D01*
G01X4410Y12481D01*
G01X4409Y12463D01*
G01X4407Y12445D01*
G01X4404Y12427D01*
G01X4396Y12391D01*
G01X4391Y12373D01*
G01X4385Y12356D01*
G01X4378Y12339D01*
G01X4370Y12322D01*
G01X4359Y12300D01*
G01X4358Y12293D01*
G01X4357Y12287D01*
G01X4359Y12275D01*
G01X4365Y12263D01*
G01X4369Y12259D01*
G01X4740Y11887D01*
G01X4745Y11883D01*
G01X4750Y11880D01*
G01X4762Y11876D01*
G01X4774Y11876D01*
G01X4780Y11877D01*
G01X4785Y11879D01*
G01X4790Y11882D01*
G01X4795Y11886D01*
G01X4799Y11890D01*
G01X4802Y11894D01*
G01X4805Y11899D01*
G01X4807Y11904D01*
G01X4809Y11916D01*
G01X4809Y12112D01*
G01X4807Y12124D01*
G01X4805Y12129D01*
G01X4802Y12134D01*
G01X4798Y12139D01*
G01X4794Y12143D01*
G01X4789Y12147D01*
G01X4773Y12156D01*
G01X4743Y12178D01*
G01X4729Y12190D01*
G01X4716Y12202D01*
G01X4703Y12215D01*
G01X4690Y12229D01*
G01X4678Y12243D01*
G01X4667Y12258D01*
G01X4657Y12273D01*
G01X4647Y12289D01*
G01X4629Y12321D01*
G01X4615Y12355D01*
G01X4609Y12372D01*
G01X4603Y12390D01*
G01X4595Y12426D01*
G01X4592Y12444D01*
G01X4590Y12463D01*
G01X4589Y12481D01*
G01X4588Y12500D01*
G01X4590Y12536D01*
G01X4592Y12555D01*
G01X4595Y12573D01*
G01X4603Y12609D01*
G01X4609Y12627D01*
G01X4615Y12644D01*
G01X4629Y12678D01*
G01X4656Y12726D01*
G01X4678Y12756D01*
G01X4702Y12784D01*
G01X4715Y12797D01*
G01X4743Y12821D01*
G01X4773Y12843D01*
G01X4821Y12870D01*
G01X4855Y12884D01*
G01X4872Y12890D01*
G01X4890Y12896D01*
G01X4926Y12904D01*
G01X4944Y12907D01*
G01X4963Y12909D01*
G01X4981Y12910D01*
G01X5000Y12911D01*
G01X5036Y12909D01*
G01X5055Y12907D01*
G01X5073Y12904D01*
G01X5109Y12896D01*
G01X5127Y12890D01*
G01X5144Y12884D01*
G01X5178Y12870D01*
G01X5226Y12843D01*
G01X5256Y12821D01*
G01X5284Y12797D01*
G01X5297Y12784D01*
G01X5321Y12756D01*
G01X5343Y12726D01*
G01X5370Y12678D01*
G01X5384Y12644D01*
G01X5390Y12627D01*
G01X5396Y12609D01*
G01X5404Y12573D01*
G01X5407Y12555D01*
G01X5409Y12536D01*
G01X5411Y12500D01*
G01X5410Y12481D01*
G01X5409Y12463D01*
G01X5407Y12445D01*
G01X5404Y12427D01*
G01X5396Y12391D01*
G01X5391Y12374D01*
G01X5385Y12357D01*
G01X5371Y12323D01*
G01X5363Y12307D01*
G01X5354Y12291D01*
G01X5344Y12276D01*
G01X5334Y12260D01*
G01X5323Y12246D01*
G01X5299Y12218D01*
G01X5286Y12205D01*
G01X5273Y12193D01*
G01X5259Y12181D01*
G01X5255Y12177D01*
G01X5251Y12172D01*
G01X5248Y12167D01*
G01X5246Y12162D01*
G01X5245Y12156D01*
G01X5245Y12144D01*
G01X5246Y12138D01*
G01X5249Y12133D01*
G01X5252Y12127D01*
G01X5255Y12123D01*
G01X5265Y12115D01*
G01X5270Y12113D01*
G01X5276Y12111D01*
G01X5282Y12110D01*
G01X5296Y12109D01*
G01X5309Y12106D01*
G01X5323Y12102D01*
G01X5336Y12098D01*
G01X5343Y12096D01*
G01X5351Y12095D01*
G01X5363Y12097D01*
G01X5369Y12099D01*
G01X5379Y12107D01*
G01X5600Y12328D01*
G01X5608Y12338D01*
G01X5610Y12344D01*
G01X5612Y12356D01*
G01X5611Y12363D01*
G01X5610Y12369D01*
G01X5604Y12387D01*
G01X5599Y12405D01*
G01X5596Y12424D01*
G01X5592Y12443D01*
G01X5590Y12462D01*
G01X5588Y12500D01*
G01X5590Y12536D01*
G01X5592Y12555D01*
G01X5595Y12573D01*
G01X5603Y12609D01*
G01X5609Y12627D01*
G01X5615Y12644D01*
G01X5629Y12678D01*
G01X5656Y12726D01*
G01X5678Y12756D01*
G01X5702Y12784D01*
G01X5715Y12797D01*
G01X5743Y12821D01*
G01X5773Y12843D01*
G01X5821Y12870D01*
G01X5855Y12884D01*
G01X5872Y12890D01*
G01X5890Y12896D01*
G01X5926Y12904D01*
G01X5944Y12907D01*
G01X5963Y12909D01*
G01X5981Y12910D01*
G01X6000Y12911D01*
G01X6036Y12909D01*
G01X6055Y12907D01*
G01X6073Y12904D01*
G01X6109Y12896D01*
G01X6127Y12890D01*
G01X6144Y12884D01*
G01X6178Y12870D01*
G01X6226Y12843D01*
G01X6256Y12821D01*
G01X6284Y12797D01*
G01X6297Y12784D01*
G01X6321Y12756D01*
G01X6343Y12726D01*
G01X6370Y12678D01*
G01X6384Y12644D01*
G01X6390Y12627D01*
G01X6396Y12609D01*
G01X6404Y12573D01*
G01X6407Y12555D01*
G01X6409Y12536D01*
G01X6411Y12500D01*
G01X6410Y12481D01*
G01X6409Y12463D01*
G01X6407Y12444D01*
G01X6404Y12426D01*
G01X6396Y12390D01*
G01X6390Y12372D01*
G01X6384Y12355D01*
G01X6370Y12321D01*
G01X6343Y12273D01*
G01X6321Y12243D01*
G01X6297Y12215D01*
G01X6284Y12202D01*
G01X6256Y12178D01*
G01X6226Y12156D01*
G01X6178Y12129D01*
G01X6144Y12115D01*
G01X6127Y12109D01*
G01X6109Y12103D01*
G01X6073Y12095D01*
G01X6055Y12092D01*
G01X6036Y12090D01*
G01X6000Y12088D01*
G01X5962Y12090D01*
G01X5943Y12092D01*
G01X5924Y12096D01*
G01X5905Y12099D01*
G01X5887Y12104D01*
G01X5869Y12110D01*
G01X5863Y12111D01*
G01X5856Y12112D01*
G01X5844Y12110D01*
G01X5838Y12108D01*
G01X5828Y12100D01*
G01X5654Y11926D01*
G01X5651Y11921D01*
G01X5647Y11909D01*
G01X5647Y11897D01*
G01X5648Y11891D01*
G01X5651Y11886D01*
G01X5653Y11881D01*
G01X5657Y11876D01*
G01X5661Y11872D01*
G01X5666Y11868D01*
G01X5671Y11866D01*
G01X5693Y11854D01*
G01X5703Y11848D01*
G01X5723Y11832D01*
G01X5731Y11823D01*
G01X5740Y11814D01*
G01X5754Y11794D01*
G01X5760Y11783D01*
G01X5765Y11772D01*
G01X5770Y11760D01*
G01X5774Y11748D01*
G01X5777Y11736D01*
G01X5779Y11724D01*
G01X5780Y11712D01*
G01X5780Y11687D01*
G01X5779Y11675D01*
G01X5777Y11663D01*
G01X5774Y11651D01*
G01X5770Y11639D01*
G01X5766Y11628D01*
G01X5754Y11606D01*
G01X5748Y11596D01*
G01X5745Y11590D01*
G01X5742Y11585D01*
G01X5741Y11579D01*
G01X5741Y11559D01*
G01X5742Y11553D01*
G01X5745Y11548D01*
G01X5748Y11542D01*
G01X5756Y11534D01*
G01X5762Y11530D01*
G01X5767Y11528D01*
G01X5773Y11526D01*
G01X5779Y11526D01*
G01X5786Y11525D01*
G01X5794Y11523D01*
G01X5800Y11521D01*
G01X5807Y11518D01*
G01X5819Y11510D01*
G01X5824Y11504D01*
G01X5828Y11499D01*
G01X5832Y11492D01*
G01X5835Y11486D01*
G01X5837Y11479D01*
G01X5838Y11472D01*
G01X5838Y11221D01*
G01X5837Y11214D01*
G01X5831Y11200D01*
G01X5828Y11194D01*
G01X5823Y11188D01*
G01X5818Y11183D01*
G01X5812Y11178D01*
G01X5806Y11174D01*
G01X5799Y11171D01*
G01X5792Y11169D01*
G01X5785Y11168D01*
G01X5777Y11167D01*
G01X5522Y11167D01*
G01X5508Y11169D01*
G01X5501Y11171D01*
G01X5495Y11174D01*
G01X5488Y11177D01*
G01X5483Y11181D01*
G01X5473Y11191D01*
G01X5469Y11197D01*
G01X5466Y11203D01*
G01X5460Y11213D01*
G01X5456Y11217D01*
G01X5451Y11221D01*
G01X5441Y11225D01*
G01X5435Y11227D01*
G01X5424Y11227D01*
G01X5418Y11225D01*
G01X5408Y11221D01*
G01X5403Y11217D01*
G01X5399Y11213D01*
G01X5393Y11203D01*
G01X5390Y11197D01*
G01X5386Y11191D01*
G01X5376Y11181D01*
G01X5371Y11177D01*
G01X5364Y11174D01*
G01X5358Y11171D01*
G01X5351Y11169D01*
G01X5337Y11167D01*
G01X5082Y11167D01*
G01X5074Y11168D01*
G01X5058Y11172D01*
G01X5051Y11176D01*
G01X5044Y11179D01*
G01X5038Y11181D01*
G01X5025Y11181D01*
G01X5019Y11180D01*
G01X5014Y11178D01*
G01X5004Y11172D01*
G01X5000Y11167D01*
G01X4997Y11163D01*
G01X4994Y11158D01*
G01X4992Y11153D01*
G01X4991Y11147D01*
G01X4991Y10898D01*
G01X4992Y10891D01*
G01X4995Y10886D01*
G01X4998Y10880D01*
G01X5002Y10875D01*
G01X5764Y10114D01*
G01X6064Y9814D01*
G01X6070Y9807D01*
G01X6076Y9799D01*
G01X6084Y9783D01*
G01X6087Y9774D01*
G01X6089Y9765D01*
G01X6090Y9756D01*
G01X6091Y9750D01*
G01X6093Y9744D01*
G01X6095Y9739D01*
G01X6103Y9729D01*
G01X6108Y9725D01*
G01X6113Y9722D01*
G01X6118Y9720D01*
G01X6130Y9718D01*
G01X6137Y9719D01*
G01X6143Y9720D01*
G01X6149Y9723D01*
G01X6154Y9726D01*
G01X6159Y9730D01*
G01X6163Y9735D01*
G01X6174Y9751D01*
G01X6198Y9779D01*
G01X6211Y9793D01*
G01X6225Y9805D01*
G01X6239Y9818D01*
G01X6269Y9840D01*
G01X6285Y9850D01*
G01X6302Y9860D01*
G01X6318Y9868D01*
G01X6335Y9876D01*
G01X6353Y9883D01*
G01X6370Y9890D01*
G01X6406Y9900D01*
G01X6425Y9904D01*
G01X6443Y9907D01*
G01X6462Y9909D01*
G01X6500Y9911D01*
G01X6536Y9909D01*
G01X6555Y9907D01*
G01X6573Y9904D01*
G01X6609Y9896D01*
G01X6627Y9890D01*
G01X6644Y9884D01*
G01X6678Y9870D01*
G01X6726Y9843D01*
G01X6756Y9821D01*
G01X6784Y9797D01*
G01X6797Y9784D01*
G01X6821Y9756D01*
G01X6843Y9726D01*
G01X6870Y9678D01*
G01X6884Y9644D01*
G01X6890Y9627D01*
G01X6896Y9609D01*
G01X6904Y9573D01*
G01X6907Y9555D01*
G01X6909Y9536D01*
G01X6911Y9500D01*
G01X6910Y9481D01*
G01X6909Y9463D01*
G01X6907Y9444D01*
G01X6904Y9426D01*
G01X6896Y9390D01*
G01X6890Y9372D01*
G01X6884Y9355D01*
G01X6870Y9321D01*
G01X6843Y9273D01*
G01X6821Y9243D01*
G01X6797Y9215D01*
G01X6784Y9202D01*
G01X6756Y9178D01*
G01X6726Y9156D01*
G01X6678Y9129D01*
G01X6644Y9115D01*
G01X6627Y9109D01*
G01X6609Y9103D01*
G01X6573Y9095D01*
G01X6555Y9092D01*
G01X6536Y9090D01*
G01X6500Y9088D01*
G01X6462Y9090D01*
G01X6443Y9092D01*
G01X6425Y9095D01*
G01X6407Y9099D01*
G01X6388Y9104D01*
G01X6370Y9109D01*
G01X6353Y9116D01*
G01X6335Y9123D01*
G01X6318Y9131D01*
G01X6302Y9139D01*
G01X6270Y9159D01*
G01X6254Y9170D01*
G01X6240Y9181D01*
G01X6225Y9193D01*
G01X6212Y9206D01*
G01X6186Y9234D01*
G01X6174Y9248D01*
G01X6163Y9263D01*
G01X6159Y9268D01*
G01X6149Y9276D01*
G01X6137Y9280D01*
G01X6125Y9280D01*
G01X6119Y9279D01*
G01X6114Y9277D01*
G01X6109Y9274D01*
G01X6104Y9270D01*
G01X6100Y9266D01*
G01X6097Y9262D01*
G01X6094Y9257D01*
G01X6092Y9251D01*
G01X6091Y9246D01*
G01X6091Y8753D01*
G01X6092Y8748D01*
G01X6094Y8742D01*
G01X6097Y8737D01*
G01X6100Y8733D01*
G01X6104Y8729D01*
G01X6109Y8725D01*
G01X6114Y8722D01*
G01X6119Y8720D01*
G01X6125Y8719D01*
G01X6137Y8719D01*
G01X6149Y8723D01*
G01X6159Y8731D01*
G01X6163Y8736D01*
G01X6174Y8751D01*
G01X6186Y8765D01*
G01X6212Y8793D01*
G01X6225Y8806D01*
G01X6240Y8818D01*
G01X6254Y8829D01*
G01X6270Y8840D01*
G01X6302Y8860D01*
G01X6318Y8868D01*
G01X6335Y8876D01*
G01X6353Y8883D01*
G01X6370Y8890D01*
G01X6388Y8895D01*
G01X6407Y8900D01*
G01X6425Y8904D01*
G01X6443Y8907D01*
G01X6462Y8909D01*
G01X6500Y8911D01*
G01X6536Y8909D01*
G01X6555Y8907D01*
G01X6573Y8904D01*
G01X6609Y8896D01*
G01X6627Y8890D01*
G01X6644Y8884D01*
G01X6678Y8870D01*
G01X6726Y8843D01*
G01X6756Y8821D01*
G01X6784Y8797D01*
G01X6797Y8784D01*
G01X6821Y8756D01*
G01X6843Y8726D01*
G01X6870Y8678D01*
G01X6884Y8644D01*
G01X6890Y8627D01*
G01X6896Y8609D01*
G01X6904Y8573D01*
G01X6907Y8555D01*
G01X6909Y8536D01*
G01X6911Y8500D01*
G01X6910Y8481D01*
G01X6909Y8463D01*
G01X6907Y8444D01*
G01X6904Y8426D01*
G01X6896Y8390D01*
G01X6890Y8372D01*
G01X6884Y8355D01*
G01X6870Y8321D01*
G01X6843Y8273D01*
G01X6821Y8243D01*
G01X6797Y8215D01*
G01X6784Y8202D01*
G01X6756Y8178D01*
G01X6726Y8156D01*
G01X6678Y8129D01*
G01X6644Y8115D01*
G01X6627Y8109D01*
G01X6609Y8103D01*
G01X6573Y8095D01*
G01X6555Y8092D01*
G01X6536Y8090D01*
G01X6500Y8088D01*
G01X6481Y8089D01*
G01X6463Y8090D01*
G01X6445Y8092D01*
G01X6427Y8095D01*
G01X6409Y8099D01*
G01X6392Y8103D01*
G01X6374Y8108D01*
G01X6357Y8114D01*
G01X6323Y8128D01*
G01X6307Y8136D01*
G01X6291Y8145D01*
G01X6261Y8165D01*
G01X6246Y8176D01*
G01X6218Y8200D01*
G01X6205Y8212D01*
G01X6181Y8240D01*
G01X6170Y8254D01*
G01X6159Y8269D01*
G01X6155Y8274D01*
G01X6145Y8282D01*
G01X6133Y8286D01*
G01X6120Y8286D01*
G01X6115Y8285D01*
G01X6109Y8283D01*
G01X6104Y8280D01*
G01X6100Y8276D01*
G01X6095Y8272D01*
G01X6089Y8262D01*
G01X6088Y8256D01*
G01X6085Y8247D01*
G01X6081Y8238D01*
G01X6076Y8230D01*
G01X6070Y8222D01*
G01X6064Y8215D01*
G01X5802Y7954D01*
G01X5798Y7949D01*
G01X5795Y7943D01*
G01X5792Y7938D01*
G01X5791Y7931D01*
G01X5791Y6400D01*
G01X5789Y6382D01*
G01X5787Y6373D01*
G01X5784Y6365D01*
G01X5780Y6357D01*
G01X5775Y6349D01*
G01X5770Y6342D01*
G01X5764Y6335D01*
G01X5647Y6219D01*
G01X5643Y6214D01*
G01X5640Y6209D01*
G01X5636Y6197D01*
G01X5636Y6185D01*
G01X5637Y6179D01*
G01X5639Y6174D01*
G01X5642Y6169D01*
G01X5646Y6164D01*
G01X5650Y6160D01*
G01X5654Y6157D01*
G01X5659Y6154D01*
G01X5665Y6152D01*
G01X5670Y6151D01*
G01X5689Y6151D01*
G01X5707Y6149D01*
G01X5716Y6147D01*
G01X5724Y6144D01*
G01X5732Y6140D01*
G01X5740Y6135D01*
G01X5747Y6130D01*
G01X5754Y6124D01*
G01X6094Y5784D01*
G01X6100Y5777D01*
G01X6106Y5769D01*
G01X6110Y5761D01*
G01X6118Y5751D01*
G01X6123Y5747D01*
G01X6128Y5744D01*
G01X6134Y5741D01*
G01X6140Y5740D01*
G01X6152Y5740D01*
G01X6158Y5741D01*
G01X6163Y5743D01*
G01X6169Y5747D01*
G01X6173Y5750D01*
G01X6177Y5755D01*
G01X6189Y5769D01*
G01X6202Y5783D01*
G01X6215Y5796D01*
G01X6228Y5808D01*
G01X6242Y5820D01*
G01X6272Y5842D01*
G01X6288Y5852D01*
G01X6304Y5861D01*
G01X6321Y5869D01*
G01X6337Y5877D01*
G01X6355Y5884D01*
G01X6372Y5890D01*
G01X6390Y5896D01*
G01X6426Y5904D01*
G01X6444Y5907D01*
G01X6463Y5909D01*
G01X6499Y5911D01*
G01X6518Y5910D01*
G01X6536Y5909D01*
G01X6555Y5907D01*
G01X6573Y5904D01*
G01X6609Y5896D01*
G01X6627Y5890D01*
G01X6644Y5884D01*
G01X6678Y5870D01*
G01X6726Y5843D01*
G01X6756Y5821D01*
G01X6784Y5797D01*
G01X6797Y5784D01*
G01X6821Y5756D01*
G01X6843Y5726D01*
G01X6870Y5678D01*
G01X6884Y5644D01*
G01X6890Y5627D01*
G01X6896Y5609D01*
G01X6904Y5573D01*
G01X6907Y5555D01*
G01X6909Y5536D01*
G01X6911Y5500D01*
G01X6910Y5481D01*
G01X6909Y5463D01*
G01X6907Y5444D01*
G01X6904Y5426D01*
G01X6896Y5390D01*
G01X6890Y5372D01*
G01X6884Y5355D01*
G01X6870Y5321D01*
G01X6843Y5273D01*
G01X6821Y5243D01*
G01X6797Y5215D01*
G01X6784Y5202D01*
G01X6756Y5178D01*
G01X6726Y5156D01*
G01X6678Y5129D01*
G01X6644Y5115D01*
G01X6627Y5109D01*
G01X6609Y5103D01*
G01X6573Y5095D01*
G01X6555Y5092D01*
G01X6536Y5090D01*
G01X6500Y5088D01*
G01X6487Y5089D01*
G01X6485Y5089D01*
G01X6480Y5088D01*
G01X6474Y5087D01*
G01X6469Y5085D01*
G01X6459Y5079D01*
G01X6455Y5075D01*
G01X6449Y5065D01*
G01X6447Y5060D01*
G01X6446Y5054D01*
G01X6446Y5042D01*
G01X6448Y5036D01*
G01X6450Y5031D01*
G01X6453Y5025D01*
G01X6457Y5020D01*
G01X6464Y5014D01*
G01X6470Y5007D01*
G01X6475Y5000D01*
G01X6480Y4992D01*
G01X6484Y4984D01*
G01X6487Y4976D01*
G01X6489Y4967D01*
G01X6490Y4958D01*
G01X6491Y4950D01*
G01X6490Y4949D01*
G01X6491Y4943D01*
G01X6492Y4938D01*
G01X6494Y4932D01*
G01X6498Y4927D01*
G01X6501Y4922D01*
G01X6506Y4918D01*
G01X6516Y4912D01*
G01X6522Y4910D01*
G01X6528Y4910D01*
G01X6546Y4908D01*
G01X6582Y4902D01*
G01X6599Y4898D01*
G01X6617Y4893D01*
G01X6634Y4888D01*
G01X6668Y4874D01*
G01X6684Y4867D01*
G01X6716Y4849D01*
G01X6731Y4839D01*
G01X6746Y4828D01*
G01X6760Y4817D01*
G01X6774Y4805D01*
G01X6787Y4793D01*
G01X6800Y4780D01*
G01X6824Y4752D01*
G01X6834Y4738D01*
G01X6845Y4723D01*
G01X6863Y4691D01*
G01X6871Y4675D01*
G01X6878Y4659D01*
G01X6885Y4642D01*
G01X6891Y4625D01*
G01X6896Y4607D01*
G01X6901Y4590D01*
G01X6907Y4554D01*
G01X6909Y4536D01*
G01X6911Y4500D01*
G01X6910Y4481D01*
G01X6909Y4463D01*
G01X6907Y4444D01*
G01X6904Y4426D01*
G01X6896Y4390D01*
G01X6890Y4372D01*
G01X6884Y4355D01*
G01X6870Y4321D01*
G01X6843Y4273D01*
G01X6821Y4243D01*
G01X6797Y4215D01*
G01X6784Y4202D01*
G01X6756Y4178D01*
G01X6726Y4156D01*
G01X6678Y4129D01*
G01X6644Y4115D01*
G01X6627Y4109D01*
G01X6609Y4103D01*
G01X6573Y4095D01*
G01X6555Y4092D01*
G01X6536Y4090D01*
G01X6500Y4088D01*
G01X6481Y4089D01*
G01X6463Y4090D01*
G01X6444Y4092D01*
G01X6426Y4095D01*
G01X6390Y4103D01*
G01X6372Y4109D01*
G01X6355Y4115D01*
G01X6321Y4129D01*
G01X6273Y4156D01*
G01X6243Y4178D01*
G01X6215Y4202D01*
G01X6202Y4215D01*
G01X6178Y4243D01*
G01X6156Y4273D01*
G01X6129Y4321D01*
G01X6115Y4355D01*
G01X6109Y4372D01*
G01X6103Y4390D01*
G01X6095Y4426D01*
G01X6092Y4444D01*
G01X6090Y4463D01*
G01X6088Y4499D01*
G01X6089Y4518D01*
G01X6090Y4536D01*
G01X6092Y4555D01*
G01X6095Y4573D01*
G01X6103Y4609D01*
G01X6109Y4627D01*
G01X6115Y4644D01*
G01X6129Y4678D01*
G01X6147Y4710D01*
G01X6157Y4726D01*
G01X6167Y4741D01*
G01X6178Y4756D01*
G01X6190Y4770D01*
G01X6203Y4784D01*
G01X6216Y4797D01*
G01X6229Y4809D01*
G01X6243Y4821D01*
G01X6273Y4843D01*
G01X6289Y4852D01*
G01X6294Y4856D01*
G01X6298Y4860D01*
G01X6302Y4865D01*
G01X6305Y4870D01*
G01X6307Y4875D01*
G01X6309Y4887D01*
G01X6309Y4895D01*
G01X6308Y4901D01*
G01X6307Y4908D01*
G01X6304Y4913D01*
G01X6301Y4919D01*
G01X6297Y4924D01*
G01X6059Y5162D01*
G01X6054Y5166D01*
G01X6049Y5169D01*
G01X6037Y5173D01*
G01X6025Y5173D01*
G01X6019Y5172D01*
G01X6014Y5170D01*
G01X6009Y5167D01*
G01X6004Y5163D01*
G01X6000Y5159D01*
G01X5997Y5155D01*
G01X5994Y5150D01*
G01X5992Y5145D01*
G01X5991Y5139D01*
G01X5991Y4148D01*
G01X5992Y4141D01*
G01X5995Y4136D01*
G01X5998Y4130D01*
G01X6002Y4125D01*
G01X6259Y3869D01*
G01X6263Y3865D01*
G01X6275Y3859D01*
G01X6287Y3857D01*
G01X6293Y3858D01*
G01X6300Y3859D01*
G01X6322Y3870D01*
G01X6339Y3878D01*
G01X6356Y3885D01*
G01X6373Y3891D01*
G01X6391Y3896D01*
G01X6427Y3904D01*
G01X6445Y3907D01*
G01X6463Y3909D01*
G01X6481Y3910D01*
G01X6500Y3911D01*
G01X6536Y3909D01*
G01X6555Y3907D01*
G01X6573Y3904D01*
G01X6609Y3896D01*
G01X6627Y3890D01*
G01X6644Y3884D01*
G01X6678Y3870D01*
G01X6726Y3843D01*
G01X6756Y3821D01*
G01X6784Y3797D01*
G01X6797Y3784D01*
G01X6821Y3756D01*
G01X6843Y3726D01*
G01X6870Y3678D01*
G01X6884Y3644D01*
G01X6890Y3627D01*
G01X6896Y3609D01*
G01X6904Y3573D01*
G01X6907Y3555D01*
G01X6909Y3536D01*
G01X6911Y3500D01*
G01X6910Y3481D01*
G01X6909Y3463D01*
G01X6907Y3444D01*
G01X6904Y3426D01*
G01X6896Y3390D01*
G01X6890Y3372D01*
G01X6884Y3355D01*
G01X6870Y3321D01*
G01X6843Y3273D01*
G01X6821Y3243D01*
G01X6797Y3215D01*
G01X6784Y3202D01*
G01X6756Y3178D01*
G01X6726Y3156D01*
G01X6678Y3129D01*
G01X6644Y3115D01*
G01X6627Y3109D01*
G01X6609Y3103D01*
G01X6573Y3095D01*
G01X6555Y3092D01*
G01X6536Y3090D01*
G01X6500Y3088D01*
G01X6462Y3090D01*
G01X6443Y3092D01*
G01X6424Y3095D01*
G01X6405Y3099D01*
G01X6387Y3104D01*
G01X6351Y3116D01*
G01X6334Y3124D01*
G01X6316Y3132D01*
G01X6311Y3134D01*
G01X6305Y3135D01*
G01X6298Y3136D01*
G01X6293Y3135D01*
G01X6287Y3134D01*
G01X6282Y3132D01*
G01X6272Y3126D01*
G01X6268Y3122D01*
G01X6262Y3112D01*
G01X6260Y3107D01*
G01X6259Y3101D01*
G01X6258Y3096D01*
G01X6259Y3090D01*
G01X6260Y3083D01*
G01X6263Y3078D01*
G01X6266Y3072D01*
G01X6270Y3067D01*
G01X6419Y2919D01*
G01X6423Y2915D01*
G01X6429Y2912D01*
G01X6434Y2909D01*
G01X6441Y2908D01*
G01X6447Y2907D01*
G01X6452Y2908D01*
G01X6475Y2910D01*
G01X6518Y2910D01*
G01X6536Y2909D01*
G01X6555Y2907D01*
G01X6573Y2904D01*
G01X6609Y2896D01*
G01X6627Y2890D01*
G01X6644Y2884D01*
G01X6678Y2870D01*
G01X6726Y2843D01*
G01X6756Y2821D01*
G01X6784Y2797D01*
G01X6797Y2784D01*
G01X6821Y2756D01*
G01X6843Y2726D01*
G01X6870Y2678D01*
G01X6884Y2644D01*
G01X6890Y2627D01*
G01X6896Y2609D01*
G01X6904Y2573D01*
G01X6907Y2555D01*
G01X6909Y2536D01*
G01X6911Y2500D01*
G01X6910Y2481D01*
G01X6909Y2463D01*
G01X6907Y2444D01*
G01X6904Y2426D01*
G01X6896Y2390D01*
G01X6890Y2372D01*
G01X6884Y2355D01*
G01X6870Y2321D01*
G01X6843Y2273D01*
G01X6821Y2243D01*
G01X6797Y2215D01*
G01X6784Y2202D01*
G01X6756Y2178D01*
G01X6726Y2156D01*
G01X6678Y2129D01*
G01X6644Y2115D01*
G01X6627Y2109D01*
G01X6609Y2103D01*
G01X6573Y2095D01*
G01X6555Y2092D01*
G01X6536Y2090D01*
G01X6500Y2088D01*
G01X6481Y2089D01*
G01X6463Y2090D01*
G01X6444Y2092D01*
G01X6426Y2095D01*
G01X6390Y2103D01*
G01X6372Y2109D01*
G01X6355Y2115D01*
G01X6321Y2129D01*
G01X6273Y2156D01*
G01X6243Y2178D01*
G01X6215Y2202D01*
G01X6202Y2215D01*
G01X6178Y2243D01*
G01X6156Y2273D01*
G01X6129Y2321D01*
G01X6115Y2355D01*
G01X6109Y2372D01*
G01X6103Y2390D01*
G01X6095Y2426D01*
G01X6092Y2444D01*
G01X6090Y2463D01*
G01X6088Y2499D01*
G01X6090Y2537D01*
G01X6092Y2556D01*
G01X6095Y2574D01*
G01X6099Y2593D01*
G01X6109Y2629D01*
G01X6116Y2647D01*
G01X6123Y2664D01*
G01X6131Y2681D01*
G01X6140Y2698D01*
G01X6149Y2714D01*
G01X6159Y2730D01*
G01X6170Y2745D01*
G01X6182Y2760D01*
G01X6194Y2774D01*
G01X6207Y2788D01*
G01X6225Y2806D01*
G01X6231Y2818D01*
G01X6233Y2824D01*
G01X6233Y2837D01*
G01X6229Y2849D01*
G01X6226Y2854D01*
G01X6221Y2859D01*
G01X6009Y3072D01*
G01X6004Y3076D01*
G01X5999Y3079D01*
G01X5987Y3083D01*
G01X5975Y3083D01*
G01X5969Y3082D01*
G01X5964Y3080D01*
G01X5959Y3077D01*
G01X5954Y3073D01*
G01X5950Y3069D01*
G01X5947Y3065D01*
G01X5944Y3060D01*
G01X5942Y3055D01*
G01X5941Y3049D01*
G01X5941Y2198D01*
G01X5942Y2191D01*
G01X5945Y2186D01*
G01X5948Y2180D01*
G01X5952Y2175D01*
G01X6259Y1869D01*
G01X6263Y1865D01*
G01X6275Y1859D01*
G01X6287Y1857D01*
G01X6293Y1858D01*
G01X6300Y1859D01*
G01X6322Y1870D01*
G01X6339Y1878D01*
G01X6356Y1885D01*
G01X6373Y1891D01*
G01X6391Y1896D01*
G01X6427Y1904D01*
G01X6445Y1907D01*
G01X6463Y1909D01*
G01X6481Y1910D01*
G01X6500Y1911D01*
G01X6536Y1909D01*
G01X6555Y1907D01*
G01X6573Y1904D01*
G01X6609Y1896D01*
G01X6627Y1890D01*
G01X6644Y1884D01*
G01X6678Y1870D01*
G01X6726Y1843D01*
G01X6756Y1821D01*
G01X6784Y1797D01*
G01X6797Y1784D01*
G01X6821Y1756D01*
G01X6843Y1726D01*
G01X6870Y1678D01*
G01X6884Y1644D01*
G01X6890Y1627D01*
G01X6896Y1609D01*
G01X6904Y1573D01*
G01X6907Y1555D01*
G01X6909Y1536D01*
G01X6911Y1500D01*
G01X6910Y1481D01*
G01X6909Y1463D01*
G01X6907Y1444D01*
G01X6904Y1426D01*
G01X6896Y1390D01*
G01X6890Y1372D01*
G01X6884Y1355D01*
G01X6870Y1321D01*
G01X6843Y1273D01*
G01X6821Y1243D01*
G01X6797Y1215D01*
G01X6784Y1202D01*
G01X6756Y1178D01*
G01X6726Y1156D01*
G01X6678Y1129D01*
G01X6644Y1115D01*
G01X6627Y1109D01*
G01X6609Y1103D01*
G01X6573Y1095D01*
G01X6555Y1092D01*
G01X6536Y1090D01*
G01X6500Y1088D01*
G01X6481Y1089D01*
G01X6463Y1090D01*
G01X6445Y1092D01*
G01X6409Y1098D01*
G01X6392Y1103D01*
G01X6374Y1108D01*
G01X6357Y1114D01*
G01X6340Y1121D01*
G01X6324Y1128D01*
G01X6307Y1136D01*
G01X6292Y1145D01*
G01X6276Y1155D01*
G01X6261Y1165D01*
G01X6247Y1176D01*
G01X6232Y1187D01*
G01X6219Y1199D01*
G01X6193Y1225D01*
G01X6182Y1239D01*
G01X6170Y1253D01*
G01X6150Y1283D01*
G01X6132Y1315D01*
G01X6124Y1331D01*
G01X6117Y1348D01*
G01X6111Y1365D01*
G01X6106Y1382D01*
G01X6101Y1400D01*
G01X6097Y1418D01*
G01X6091Y1454D01*
G01X6089Y1472D01*
G01X6089Y1477D01*
G01X6087Y1483D01*
G01X6081Y1493D01*
G01X6084Y1498D01*
G01X6087Y1504D01*
G01X6088Y1509D01*
G01X6089Y1515D01*
G01X6090Y1534D01*
G01X6092Y1552D01*
G01X6095Y1571D01*
G01X6098Y1589D01*
G01X6108Y1625D01*
G01X6114Y1642D01*
G01X6121Y1660D01*
G01X6129Y1677D01*
G01X6140Y1699D01*
G01X6141Y1706D01*
G01X6142Y1712D01*
G01X6140Y1724D01*
G01X6134Y1736D01*
G01X6130Y1740D01*
G01X6109Y1762D01*
G01X6104Y1766D01*
G01X6099Y1769D01*
G01X6087Y1773D01*
G01X6074Y1773D01*
G01X6062Y1769D01*
G01X6057Y1766D01*
G01X6048Y1757D01*
G01X6042Y1745D01*
G01X6038Y1734D01*
G01X6033Y1722D01*
G01X6028Y1712D01*
G01X6021Y1701D01*
G01X6007Y1681D01*
G01X5998Y1672D01*
G01X5980Y1656D01*
G01X5976Y1652D01*
G01X5972Y1647D01*
G01X5966Y1637D01*
G01X5964Y1625D01*
G01X5965Y1618D01*
G01X5969Y1606D01*
G01X5973Y1600D01*
G01X5980Y1590D01*
G01X5986Y1580D01*
G01X5992Y1569D01*
G01X5997Y1558D01*
G01X6001Y1547D01*
G01X6005Y1535D01*
G01X6007Y1524D01*
G01X6009Y1512D01*
G01X6013Y1498D01*
G01X6017Y1492D01*
G01X6013Y1486D01*
G01X6011Y1480D01*
G01X6010Y1473D01*
G01X6006Y1449D01*
G01X6003Y1437D01*
G01X5999Y1425D01*
G01X5989Y1403D01*
G01X5983Y1393D01*
G01X5976Y1383D01*
G01X5968Y1373D01*
G01X5960Y1364D01*
G01X5942Y1348D01*
G01X5922Y1334D01*
G01X5911Y1328D01*
G01X5900Y1323D01*
G01X5878Y1315D01*
G01X5866Y1312D01*
G01X5854Y1310D01*
G01X5842Y1309D01*
G01X5817Y1309D01*
G01X5805Y1310D01*
G01X5793Y1312D01*
G01X5781Y1315D01*
G01X5757Y1323D01*
G01X5735Y1335D01*
G01X5715Y1349D01*
G01X5706Y1357D01*
G01X5697Y1366D01*
G01X5689Y1375D01*
G01X5675Y1395D01*
G01X5663Y1417D01*
G01X5655Y1441D01*
G01X5652Y1453D01*
G01X5650Y1465D01*
G01X5649Y1477D01*
G01X5649Y1503D01*
G01X5651Y1517D01*
G01X5651Y1529D01*
G01X5647Y1541D01*
G01X5639Y1551D01*
G01X5375Y1815D01*
G01X5369Y1822D01*
G01X5364Y1829D01*
G01X5359Y1837D01*
G01X5355Y1845D01*
G01X5352Y1853D01*
G01X5350Y1862D01*
G01X5349Y1871D01*
G01X5348Y1879D01*
G01X5348Y2291D01*
G01X5347Y2297D01*
G01X5345Y2302D01*
G01X5342Y2307D01*
G01X5339Y2311D01*
G01X5335Y2316D01*
G01X5325Y2322D01*
G01X5320Y2324D01*
G01X5314Y2325D01*
G01X5302Y2325D01*
G01X5296Y2323D01*
G01X5287Y2321D01*
G01X5277Y2320D01*
G01X5022Y2320D01*
G01X5014Y2321D01*
G01X5007Y2322D01*
G01X5000Y2324D01*
G01X4993Y2327D01*
G01X4987Y2331D01*
G01X4981Y2336D01*
G01X4976Y2341D01*
G01X4968Y2353D01*
G01X4965Y2359D01*
G01X4962Y2366D01*
G01X4961Y2374D01*
G01X4960Y2379D01*
G01X4958Y2385D01*
G01X4955Y2390D01*
G01X4952Y2394D01*
G01X4948Y2399D01*
G01X4938Y2405D01*
G01X4933Y2407D01*
G01X4921Y2409D01*
G01X4891Y2409D01*
G01X4882Y2410D01*
G01X4873Y2412D01*
G01X4865Y2415D01*
G01X4857Y2419D01*
G01X4849Y2424D01*
G01X4842Y2429D01*
G01X4835Y2435D01*
G01X4259Y3011D01*
G01X4254Y3014D01*
G01X4248Y3017D01*
G01X4241Y3019D01*
G01X4075Y3019D01*
G01X4067Y3020D01*
G01X4060Y3021D01*
G01X4053Y3023D01*
G01X4046Y3026D01*
G01X4040Y3030D01*
G01X4034Y3035D01*
G01X4029Y3040D01*
G01X4024Y3046D01*
G01X4021Y3052D01*
G01X4015Y3066D01*
G01X4014Y3073D01*
G01X4014Y3097D01*
G01X4013Y3103D01*
G01X4012Y3108D01*
G01X4010Y3113D01*
G01X4004Y3123D01*
G01X4000Y3127D01*
G01X3990Y3133D01*
G01X3985Y3135D01*
G01X3979Y3136D01*
G01X3974Y3137D01*
G01X2325Y3137D01*
G01X2320Y3136D01*
G01X2314Y3135D01*
G01X2309Y3133D01*
G01X2299Y3127D01*
G01X2295Y3123D01*
G01X2289Y3113D01*
G01X2287Y3108D01*
G01X2286Y3103D01*
G01X2285Y3097D01*
G01X2285Y3073D01*
G01X2284Y3066D01*
G01X2278Y3052D01*
G01X2275Y3046D01*
G01X2270Y3040D01*
G01X2265Y3035D01*
G01X2259Y3030D01*
G01X2253Y3026D01*
G01X2246Y3023D01*
G01X2239Y3021D01*
G01X2232Y3020D01*
G01X2224Y3019D01*
G01X1713Y3019D01*
G01X1705Y3020D01*
G01X1701Y3020D01*
G01X1689Y3018D01*
G01X1679Y3014D01*
G01X1674Y3010D01*
G01X1670Y3006D01*
G01X1667Y3002D01*
G01X1664Y2997D01*
G01X1662Y2991D01*
G01X1661Y2986D01*
G01X1660Y2980D01*
G01X1661Y1577D01*
G01X1659Y1559D01*
G01X1657Y1550D01*
G01X1654Y1542D01*
G01X1650Y1534D01*
G01X1645Y1526D01*
G01X1640Y1519D01*
G01X1634Y1513D01*
G01X868Y742D01*
G01X864Y737D01*
G01X861Y731D01*
G01X859Y726D01*
G01X857Y720D01*
G01X857Y707D01*
G01X859Y700D01*
G01X861Y694D01*
G01X870Y678D01*
G01X884Y644D01*
G01X890Y627D01*
G01X896Y609D01*
G01X904Y573D01*
G01X907Y555D01*
G01X909Y536D01*
G01X910Y518D01*
G01X911Y499D01*
G01X909Y463D01*
G01X907Y444D01*
G01X904Y426D01*
G01X896Y390D01*
G01X890Y372D01*
G01X884Y355D01*
G01X870Y321D01*
G01X843Y273D01*
G01X821Y243D01*
G01X797Y215D01*
G01X784Y202D01*
G01X756Y178D01*
G01X726Y156D01*
G01X678Y129D01*
G01X644Y115D01*
G01X627Y109D01*
G01X609Y103D01*
G01X573Y95D01*
G01X555Y92D01*
G01X536Y90D01*
G01X500Y88D01*
G01X481Y89D01*
G01X463Y90D01*
G01X444Y92D01*
G01X426Y95D01*
G01X390Y103D01*
G01X372Y109D01*
G01X355Y115D01*
G01X321Y129D01*
G01X273Y156D01*
G01X243Y178D01*
G01X215Y202D01*
G01X202Y215D01*
G01X178Y243D01*
G01X156Y273D01*
G01X129Y321D01*
G01X115Y355D01*
G01X109Y372D01*
G01X103Y390D01*
G01X95Y426D01*
G01X92Y444D01*
G01X90Y463D01*
G01X88Y499D01*
G01X89Y518D01*
G01X90Y536D01*
G01X92Y555D01*
G01X95Y573D01*
G01X103Y609D01*
G01X109Y627D01*
G01X115Y644D01*
G01X129Y678D01*
G01X156Y726D01*
G01X178Y756D01*
G01X202Y784D01*
G01X215Y797D01*
G01X243Y821D01*
G01X273Y843D01*
G01X321Y870D01*
G01X355Y884D01*
G01X372Y890D01*
G01X390Y896D01*
G01X426Y904D01*
G01X444Y907D01*
G01X463Y909D01*
G01X481Y910D01*
G01X500Y911D01*
G01X536Y909D01*
G01X554Y907D01*
G01X572Y904D01*
G01X590Y900D01*
G01X607Y896D01*
G01X625Y891D01*
G01X642Y885D01*
G01X676Y871D01*
G01X698Y860D01*
G01X704Y859D01*
G01X711Y858D01*
G01X717Y858D01*
G01X729Y862D01*
G01X739Y870D01*
G01X1467Y1603D01*
G01X1471Y1607D01*
G01X1474Y1613D01*
G01X1477Y1618D01*
G01X1478Y1624D01*
G01X1479Y1631D01*
G01X1478Y2253D01*
G01X1478Y2259D01*
G01X1477Y2265D01*
G01X1475Y2270D01*
G01X1472Y2275D01*
G01X1469Y2279D01*
G01X1465Y2283D01*
G01X1460Y2287D01*
G01X1455Y2290D01*
G01X1450Y2292D01*
G01X1444Y2293D01*
G01X1432Y2293D01*
G01X1420Y2289D01*
G01X1415Y2286D01*
G01X1410Y2282D01*
G01X869Y1740D01*
G01X865Y1736D01*
G01X859Y1724D01*
G01X857Y1712D01*
G01X858Y1706D01*
G01X859Y1699D01*
G01X870Y1677D01*
G01X878Y1660D01*
G01X885Y1643D01*
G01X891Y1626D01*
G01X896Y1608D01*
G01X904Y1572D01*
G01X907Y1554D01*
G01X909Y1536D01*
G01X910Y1518D01*
G01X911Y1499D01*
G01X909Y1463D01*
G01X907Y1444D01*
G01X904Y1426D01*
G01X896Y1390D01*
G01X890Y1372D01*
G01X884Y1355D01*
G01X870Y1321D01*
G01X843Y1273D01*
G01X821Y1243D01*
G01X797Y1215D01*
G01X784Y1202D01*
G01X756Y1178D01*
G01X726Y1156D01*
G01X678Y1129D01*
G01X644Y1115D01*
G01X627Y1109D01*
G01X609Y1103D01*
G01X573Y1095D01*
G01X555Y1092D01*
G01X536Y1090D01*
G01X500Y1088D01*
G01X481Y1089D01*
G01X463Y1090D01*
G01X444Y1092D01*
G01X426Y1095D01*
G01X390Y1103D01*
G01X372Y1109D01*
G01X355Y1115D01*
G01X321Y1129D01*
G01X273Y1156D01*
G01X243Y1178D01*
G01X215Y1202D01*
G01X202Y1215D01*
G01X178Y1243D01*
G01X156Y1273D01*
G01X129Y1321D01*
G01X115Y1355D01*
G01X109Y1372D01*
G01X103Y1390D01*
G01X95Y1426D01*
G01X92Y1444D01*
G01X90Y1463D01*
G01X88Y1499D01*
G01X89Y1518D01*
G01X90Y1536D01*
G01X92Y1555D01*
G01X95Y1573D01*
G01X103Y1609D01*
G01X109Y1627D01*
G01X115Y1644D01*
G01X129Y1678D01*
G01X156Y1726D01*
G01X178Y1756D01*
G01X202Y1784D01*
G01X215Y1797D01*
G01X243Y1821D01*
G01X273Y1843D01*
G01X321Y1870D01*
G01X355Y1884D01*
G01X372Y1890D01*
G01X390Y1896D01*
G01X426Y1904D01*
G01X444Y1907D01*
G01X463Y1909D01*
G01X481Y1910D01*
G01X500Y1911D01*
G01X536Y1909D01*
G01X554Y1907D01*
G01X572Y1904D01*
G01X608Y1896D01*
G01X626Y1891D01*
G01X643Y1885D01*
G01X660Y1878D01*
G01X677Y1870D01*
G01X699Y1859D01*
G01X706Y1858D01*
G01X712Y1857D01*
G01X724Y1859D01*
G01X736Y1865D01*
G01X740Y1869D01*
G01X1317Y2445D01*
G01X1321Y2450D01*
G01X1324Y2456D01*
G01X1327Y2461D01*
G01X1328Y2468D01*
G01X1328Y3109D01*
G01X1327Y3115D01*
G01X1325Y3120D01*
G01X1322Y3125D01*
G01X1319Y3129D01*
G01X1315Y3133D01*
G01X1310Y3137D01*
G01X1305Y3140D01*
G01X1300Y3142D01*
G01X1294Y3143D01*
G01X1282Y3143D01*
G01X1270Y3139D01*
G01X1265Y3136D01*
G01X1260Y3132D01*
G01X869Y2740D01*
G01X865Y2736D01*
G01X859Y2724D01*
G01X857Y2712D01*
G01X858Y2706D01*
G01X859Y2699D01*
G01X870Y2677D01*
G01X878Y2660D01*
G01X885Y2643D01*
G01X891Y2626D01*
G01X896Y2608D01*
G01X904Y2572D01*
G01X907Y2554D01*
G01X909Y2536D01*
G01X910Y2518D01*
G01X911Y2499D01*
G01X909Y2463D01*
G01X907Y2444D01*
G01X904Y2426D01*
G01X896Y2390D01*
G01X890Y2372D01*
G01X884Y2355D01*
G01X870Y2321D01*
G01X843Y2273D01*
G01X821Y2243D01*
G01X797Y2215D01*
G01X784Y2202D01*
G01X756Y2178D01*
G01X726Y2156D01*
G01X678Y2129D01*
G01X644Y2115D01*
G01X627Y2109D01*
G01X609Y2103D01*
G01X573Y2095D01*
G01X555Y2092D01*
G01X536Y2090D01*
G01X500Y2088D01*
G01X481Y2089D01*
G01X463Y2090D01*
G01X444Y2092D01*
G01X426Y2095D01*
G01X390Y2103D01*
G01X372Y2109D01*
G01X355Y2115D01*
G01X321Y2129D01*
G01X273Y2156D01*
G01X243Y2178D01*
G01X215Y2202D01*
G01X202Y2215D01*
G01X178Y2243D01*
G01X156Y2273D01*
G01X129Y2321D01*
G01X115Y2355D01*
G01X109Y2372D01*
G01X103Y2390D01*
G01X95Y2426D01*
G01X92Y2444D01*
G01X90Y2463D01*
G01X88Y2499D01*
G01X89Y2518D01*
G01X90Y2536D01*
G01X92Y2555D01*
G01X95Y2573D01*
G01X103Y2609D01*
G01X109Y2627D01*
G01X115Y2644D01*
G01X129Y2678D01*
G01X156Y2726D01*
G01X178Y2756D01*
G01X202Y2784D01*
G01X215Y2797D01*
G01X243Y2821D01*
G01X273Y2843D01*
G01X321Y2870D01*
G01X355Y2884D01*
G01X372Y2890D01*
G01X390Y2896D01*
G01X426Y2904D01*
G01X444Y2907D01*
G01X463Y2909D01*
G01X481Y2910D01*
G01X500Y2911D01*
G01X536Y2909D01*
G01X554Y2907D01*
G01X572Y2904D01*
G01X608Y2896D01*
G01X626Y2891D01*
G01X643Y2885D01*
G01X660Y2878D01*
G01X677Y2870D01*
G01X699Y2859D01*
G01X706Y2858D01*
G01X712Y2857D01*
G01X724Y2859D01*
G01X736Y2865D01*
G01X740Y2869D01*
G01X1167Y3295D01*
G01X1171Y3300D01*
G01X1174Y3306D01*
G01X1177Y3311D01*
G01X1178Y3318D01*
G01X1178Y3959D01*
G01X1177Y3965D01*
G01X1175Y3970D01*
G01X1172Y3975D01*
G01X1169Y3979D01*
G01X1165Y3983D01*
G01X1160Y3987D01*
G01X1155Y3990D01*
G01X1150Y3992D01*
G01X1144Y3993D01*
G01X1132Y3993D01*
G01X1120Y3989D01*
G01X1115Y3986D01*
G01X1110Y3982D01*
G01X869Y3740D01*
G01X865Y3736D01*
G01X859Y3724D01*
G01X857Y3712D01*
G01X858Y3706D01*
G01X859Y3699D01*
G01X870Y3677D01*
G01X878Y3660D01*
G01X885Y3643D01*
G01X891Y3626D01*
G01X896Y3608D01*
G01X904Y3572D01*
G01X907Y3554D01*
G01X909Y3536D01*
G01X910Y3518D01*
G01X911Y3499D01*
G01X909Y3463D01*
G01X907Y3444D01*
G01X904Y3426D01*
G01X896Y3390D01*
G01X890Y3372D01*
G01X884Y3355D01*
G01X870Y3321D01*
G01X843Y3273D01*
G01X821Y3243D01*
G01X797Y3215D01*
G01X784Y3202D01*
G01X756Y3178D01*
G01X726Y3156D01*
G01X678Y3129D01*
G01X644Y3115D01*
G01X627Y3109D01*
G01X609Y3103D01*
G01X573Y3095D01*
G01X555Y3092D01*
G01X536Y3090D01*
G01X500Y3088D01*
G01X481Y3089D01*
G01X463Y3090D01*
G01X444Y3092D01*
G01X426Y3095D01*
G01X390Y3103D01*
G01X372Y3109D01*
G01X355Y3115D01*
G01X321Y3129D01*
G01X273Y3156D01*
G01X243Y3178D01*
G01X215Y3202D01*
G01X202Y3215D01*
G01X178Y3243D01*
G01X156Y3273D01*
G01X129Y3321D01*
G01X115Y3355D01*
G01X109Y3372D01*
G01X103Y3390D01*
G01X95Y3426D01*
G01X92Y3444D01*
G01X90Y3463D01*
G01X88Y3499D01*
G01X89Y3518D01*
G01X90Y3536D01*
G01X92Y3555D01*
G01X95Y3573D01*
G01X103Y3609D01*
G01X109Y3627D01*
G01X115Y3644D01*
G01X129Y3678D01*
G01X156Y3726D01*
G01X178Y3756D01*
G01X202Y3784D01*
G01X215Y3797D01*
G01X243Y3821D01*
G01X273Y3843D01*
G01X321Y3870D01*
G01X355Y3884D01*
G01X372Y3890D01*
G01X390Y3896D01*
G01X426Y3904D01*
G01X444Y3907D01*
G01X463Y3909D01*
G01X481Y3910D01*
G01X500Y3911D01*
G01X536Y3909D01*
G01X554Y3907D01*
G01X572Y3904D01*
G01X608Y3896D01*
G01X626Y3891D01*
G01X643Y3885D01*
G01X660Y3878D01*
G01X677Y3870D01*
G01X699Y3859D01*
G01X706Y3858D01*
G01X712Y3857D01*
G01X724Y3859D01*
G01X736Y3865D01*
G01X740Y3869D01*
G01X1017Y4145D01*
G01X1021Y4150D01*
G01X1024Y4156D01*
G01X1027Y4161D01*
G01X1028Y4168D01*
G01X1028Y4809D01*
G01X1027Y4815D01*
G01X1025Y4820D01*
G01X1022Y4825D01*
G01X1019Y4829D01*
G01X1015Y4833D01*
G01X1010Y4837D01*
G01X1005Y4840D01*
G01X1000Y4842D01*
G01X994Y4843D01*
G01X982Y4843D01*
G01X970Y4839D01*
G01X965Y4836D01*
G01X960Y4832D01*
G01X869Y4740D01*
G01X865Y4736D01*
G01X859Y4724D01*
G01X857Y4712D01*
G01X858Y4706D01*
G01X859Y4699D01*
G01X870Y4677D01*
G01X878Y4660D01*
G01X885Y4643D01*
G01X891Y4626D01*
G01X896Y4608D01*
G01X904Y4572D01*
G01X907Y4554D01*
G01X909Y4536D01*
G01X910Y4518D01*
G01X911Y4499D01*
G01X909Y4463D01*
G01X907Y4444D01*
G01X904Y4426D01*
G01X896Y4390D01*
G01X890Y4372D01*
G01X884Y4355D01*
G01X870Y4321D01*
G01X843Y4273D01*
G01X821Y4243D01*
G01X797Y4215D01*
G01X784Y4202D01*
G01X756Y4178D01*
G01X726Y4156D01*
G01X678Y4129D01*
G01X644Y4115D01*
G01X627Y4109D01*
G01X609Y4103D01*
G01X573Y4095D01*
G01X555Y4092D01*
G01X536Y4090D01*
G01X500Y4088D01*
G01X481Y4089D01*
G01X463Y4090D01*
G01X444Y4092D01*
G01X426Y4095D01*
G01X390Y4103D01*
G01X372Y4109D01*
G01X355Y4115D01*
G01X321Y4129D01*
G01X273Y4156D01*
G01X243Y4178D01*
G01X215Y4202D01*
G01X202Y4215D01*
G01X178Y4243D01*
G01X156Y4273D01*
G01X129Y4321D01*
G01X115Y4355D01*
G01X109Y4372D01*
G01X103Y4390D01*
G01X95Y4426D01*
G01X92Y4444D01*
G01X90Y4463D01*
G01X88Y4499D01*
G01X89Y4518D01*
G01X90Y4536D01*
G01X92Y4555D01*
G01X95Y4573D01*
G01X103Y4609D01*
G01X109Y4627D01*
G01X115Y4644D01*
G01X129Y4678D01*
G01X156Y4726D01*
G01X178Y4756D01*
G01X202Y4784D01*
G01X215Y4797D01*
G01X243Y4821D01*
G01X273Y4843D01*
G01X321Y4870D01*
G01X355Y4884D01*
G01X372Y4890D01*
G01X390Y4896D01*
G01X426Y4904D01*
G01X444Y4907D01*
G01X463Y4909D01*
G01X481Y4910D01*
G01X500Y4911D01*
G01X536Y4909D01*
G01X554Y4907D01*
G01X572Y4904D01*
G01X608Y4896D01*
G01X626Y4891D01*
G01X643Y4885D01*
G01X660Y4878D01*
G01X677Y4870D01*
G01X699Y4859D01*
G01X706Y4858D01*
G01X712Y4857D01*
G01X724Y4859D01*
G01X736Y4865D01*
G01X740Y4869D01*
G01X877Y5005D01*
G01X881Y5010D01*
G01X884Y5016D01*
G01X887Y5021D01*
G01X888Y5028D01*
G01X888Y5220D01*
G01X887Y5225D01*
G01X885Y5230D01*
G01X879Y5240D01*
G01X875Y5244D01*
G01X865Y5250D01*
G01X860Y5252D01*
G01X854Y5253D01*
G01X849Y5254D01*
G01X837Y5252D01*
G01X831Y5250D01*
G01X826Y5247D01*
G01X818Y5239D01*
G01X806Y5225D01*
G01X780Y5199D01*
G01X767Y5187D01*
G01X753Y5176D01*
G01X738Y5165D01*
G01X708Y5145D01*
G01X692Y5136D01*
G01X675Y5128D01*
G01X659Y5121D01*
G01X642Y5114D01*
G01X625Y5108D01*
G01X607Y5103D01*
G01X590Y5099D01*
G01X572Y5095D01*
G01X554Y5092D01*
G01X536Y5090D01*
G01X518Y5089D01*
G01X481Y5089D01*
G01X463Y5090D01*
G01X444Y5092D01*
G01X426Y5095D01*
G01X390Y5103D01*
G01X372Y5109D01*
G01X355Y5115D01*
G01X321Y5129D01*
G01X273Y5156D01*
G01X243Y5178D01*
G01X215Y5202D01*
G01X202Y5215D01*
G01X178Y5243D01*
G01X156Y5273D01*
G01X129Y5321D01*
G01X115Y5355D01*
G01X109Y5372D01*
G01X103Y5390D01*
G01X95Y5426D01*
G01X92Y5444D01*
G01X90Y5463D01*
G01X88Y5499D01*
G01X89Y5518D01*
G01X90Y5536D01*
G01X92Y5555D01*
G01X95Y5573D01*
G01X103Y5609D01*
G01X109Y5627D01*
G01X115Y5644D01*
G01X129Y5678D01*
G01X156Y5726D01*
G01X178Y5756D01*
G01X202Y5784D01*
G01X215Y5797D01*
G01X243Y5821D01*
G01X273Y5843D01*
G01X321Y5870D01*
G01X355Y5884D01*
G01X372Y5890D01*
G01X390Y5896D01*
G01X426Y5904D01*
G01X444Y5907D01*
G01X463Y5909D01*
G01X481Y5910D01*
G01X500Y5911D01*
G01X536Y5909D01*
G01X554Y5907D01*
G01X572Y5904D01*
G01X608Y5896D01*
G01X626Y5891D01*
G01X643Y5885D01*
G01X660Y5878D01*
G01X677Y5870D01*
G01X699Y5859D01*
G01X706Y5858D01*
G01X712Y5857D01*
G01X724Y5859D01*
G01X736Y5865D01*
G01X845Y5974D01*
G01X854Y5982D01*
G01X859Y5986D01*
G01X863Y5991D01*
G01X866Y5996D01*
G01X870Y6008D01*
G01X870Y6020D01*
G01X866Y6032D01*
G01X858Y6042D01*
G01X755Y6145D01*
G01X749Y6148D01*
G01X744Y6151D01*
G01X737Y6152D01*
G01X731Y6153D01*
G01X724Y6152D01*
G01X717Y6150D01*
G01X711Y6147D01*
G01X695Y6138D01*
G01X678Y6129D01*
G01X644Y6115D01*
G01X627Y6109D01*
G01X609Y6103D01*
G01X573Y6095D01*
G01X555Y6092D01*
G01X536Y6090D01*
G01X518Y6089D01*
G01X499Y6088D01*
G01X463Y6090D01*
G01X444Y6092D01*
G01X426Y6095D01*
G01X390Y6103D01*
G01X372Y6109D01*
G01X355Y6115D01*
G01X321Y6129D01*
G01X273Y6156D01*
G01X243Y6178D01*
G01X215Y6202D01*
G01X202Y6215D01*
G01X178Y6243D01*
G01X156Y6273D01*
G01X129Y6321D01*
G01X115Y6355D01*
G01X109Y6372D01*
G01X103Y6390D01*
G01X95Y6426D01*
G01X92Y6444D01*
G01X90Y6463D01*
G01X88Y6499D01*
G01X89Y6518D01*
G01X90Y6536D01*
G01X92Y6555D01*
G01X95Y6573D01*
G01X103Y6609D01*
G01X109Y6627D01*
G01X115Y6644D01*
G01X129Y6678D01*
G01X156Y6726D01*
G01X178Y6756D01*
G01X202Y6784D01*
G01X215Y6797D01*
G01X243Y6821D01*
G01X273Y6843D01*
G01X321Y6870D01*
G01X355Y6884D01*
G01X372Y6890D01*
G01X390Y6896D01*
G01X426Y6904D01*
G01X444Y6907D01*
G01X463Y6909D01*
G01X481Y6910D01*
G01X500Y6911D01*
G01X518Y6910D01*
G01X537Y6909D01*
G01X556Y6907D01*
G01X574Y6904D01*
G01X592Y6900D01*
G01X611Y6895D01*
G01X629Y6890D01*
G01X646Y6883D01*
G01X664Y6876D01*
G01X681Y6868D01*
G01X697Y6860D01*
G01X729Y6840D01*
G01X745Y6829D01*
G01X759Y6818D01*
G01X774Y6806D01*
G01X787Y6793D01*
G01X813Y6765D01*
G01X825Y6751D01*
G01X836Y6736D01*
G01X840Y6731D01*
G01X850Y6723D01*
G01X862Y6719D01*
G01X874Y6719D01*
G01X880Y6720D01*
G01X885Y6722D01*
G01X890Y6725D01*
G01X895Y6729D01*
G01X899Y6733D01*
G01X902Y6737D01*
G01X905Y6742D01*
G01X907Y6748D01*
G01X908Y6753D01*
G01X909Y6759D01*
G01X909Y6945D01*
G01X908Y6951D01*
G01X907Y6958D01*
G01X904Y6963D01*
G01X901Y6969D01*
G01X897Y6974D01*
G01X740Y7130D01*
G01X736Y7134D01*
G01X724Y7140D01*
G01X712Y7142D01*
G01X706Y7141D01*
G01X699Y7140D01*
G01X677Y7129D01*
G01X660Y7121D01*
G01X643Y7114D01*
G01X626Y7108D01*
G01X608Y7103D01*
G01X572Y7095D01*
G01X554Y7092D01*
G01X536Y7090D01*
G01X518Y7089D01*
G01X499Y7088D01*
G01X463Y7090D01*
G01X444Y7092D01*
G01X426Y7095D01*
G01X390Y7103D01*
G01X372Y7109D01*
G01X355Y7115D01*
G01X321Y7129D01*
G01X273Y7156D01*
G01X243Y7178D01*
G01X215Y7202D01*
G01X202Y7215D01*
G01X178Y7243D01*
G01X156Y7273D01*
G01X129Y7321D01*
G01X115Y7355D01*
G01X109Y7372D01*
G01X103Y7390D01*
G01X95Y7426D01*
G01X92Y7444D01*
G01X90Y7463D01*
G01X88Y7499D01*
G01X89Y7518D01*
G01X90Y7536D01*
G01X92Y7555D01*
G01X95Y7573D01*
G01X103Y7609D01*
G01X109Y7627D01*
G01X115Y7644D01*
G01X129Y7678D01*
G01X156Y7726D01*
G01X178Y7756D01*
G01X202Y7784D01*
G01X215Y7797D01*
G01X243Y7821D01*
G01X273Y7843D01*
G01X321Y7870D01*
G01X355Y7884D01*
G01X372Y7890D01*
G01X390Y7896D01*
G01X426Y7904D01*
G01X444Y7907D01*
G01X463Y7909D01*
G01X481Y7910D01*
G01X500Y7911D01*
G01X512Y7910D01*
G01X514Y7910D01*
G01X519Y7911D01*
G01X525Y7912D01*
G01X530Y7914D01*
G01X540Y7920D01*
G01X544Y7924D01*
G01X550Y7934D01*
G01X552Y7939D01*
G01X553Y7945D01*
G01X553Y7957D01*
G01X551Y7963D01*
G01X549Y7968D01*
G01X546Y7974D01*
G01X542Y7979D01*
G01X435Y8085D01*
G01X430Y8090D01*
G01X425Y8093D01*
G01X419Y8096D01*
G01X414Y8098D01*
G01X396Y8102D01*
G01X378Y8107D01*
G01X360Y8113D01*
G01X326Y8127D01*
G01X309Y8135D01*
G01X293Y8144D01*
G01X277Y8154D01*
G01X261Y8165D01*
G01X246Y8176D01*
G01X218Y8200D01*
G01X205Y8213D01*
G01X192Y8227D01*
G01X180Y8241D01*
G01X158Y8271D01*
G01X148Y8287D01*
G01X130Y8319D01*
G01X122Y8336D01*
G01X115Y8354D01*
G01X109Y8371D01*
G01X99Y8407D01*
G01X95Y8425D01*
G01X92Y8444D01*
G01X90Y8462D01*
G01X89Y8481D01*
G01X88Y8499D01*
G01X89Y8518D01*
G01X90Y8536D01*
G01X92Y8555D01*
G01X95Y8573D01*
G01X103Y8609D01*
G01X109Y8627D01*
G01X115Y8644D01*
G01X129Y8678D01*
G01X156Y8726D01*
G01X178Y8756D01*
G01X202Y8784D01*
G01X215Y8797D01*
G01X243Y8821D01*
G01X273Y8843D01*
G01X321Y8870D01*
G01X355Y8884D01*
G01X372Y8890D01*
G01X390Y8896D01*
G01X426Y8904D01*
G01X444Y8907D01*
G01X463Y8909D01*
G01X481Y8910D01*
G01X500Y8911D01*
G01X522Y8910D01*
G01X530Y8910D01*
G01X535Y8911D01*
G01X541Y8913D01*
G01X546Y8916D01*
G01X558Y8928D01*
G01X560Y8933D01*
G01X562Y8939D01*
G01X563Y8944D01*
G01X564Y8950D01*
G01X562Y8962D01*
G01X560Y8968D01*
G01X552Y8978D01*
G01X446Y9084D01*
G01X441Y9088D01*
G01X431Y9094D01*
G01X425Y9095D01*
G01X407Y9099D01*
G01X389Y9104D01*
G01X372Y9109D01*
G01X354Y9115D01*
G01X337Y9122D01*
G01X320Y9130D01*
G01X304Y9138D01*
G01X288Y9147D01*
G01X272Y9157D01*
G01X257Y9167D01*
G01X243Y9179D01*
G01X229Y9190D01*
G01X215Y9203D01*
G01X202Y9216D01*
G01X178Y9244D01*
G01X167Y9258D01*
G01X156Y9273D01*
G01X146Y9289D01*
G01X137Y9305D01*
G01X129Y9321D01*
G01X121Y9338D01*
G01X115Y9355D01*
G01X109Y9373D01*
G01X103Y9390D01*
G01X95Y9426D01*
G01X92Y9444D01*
G01X90Y9463D01*
G01X88Y9499D01*
G01X89Y9518D01*
G01X90Y9536D01*
G01X92Y9555D01*
G01X95Y9573D01*
G01X103Y9609D01*
G01X109Y9627D01*
G01X115Y9644D01*
G01X129Y9678D01*
G01X156Y9726D01*
G01X178Y9756D01*
G01X202Y9784D01*
G01X215Y9797D01*
G01X243Y9821D01*
G01X273Y9843D01*
G01X321Y9870D01*
G01X355Y9884D01*
G01X372Y9890D01*
G01X390Y9896D01*
G01X426Y9904D01*
G01X444Y9907D01*
G01X463Y9909D01*
G01X481Y9910D01*
G01X500Y9911D01*
G01X521Y9910D01*
G01X542Y9908D01*
G01X564Y9905D01*
G01X585Y9902D01*
G01X593Y9901D01*
G01X599Y9901D01*
G01X604Y9902D01*
G01X610Y9904D01*
G01X615Y9907D01*
G01X619Y9910D01*
G01X623Y9914D01*
G01X627Y9919D01*
G01X631Y9929D01*
G01X633Y9935D01*
G01X633Y9947D01*
G01X629Y9959D01*
G01X621Y9969D01*
G01X509Y10081D01*
G01X504Y10084D01*
G01X498Y10087D01*
G01X486Y10089D01*
G01X468Y10090D01*
G01X449Y10092D01*
G01X431Y10094D01*
G01X413Y10098D01*
G01X394Y10102D01*
G01X377Y10107D01*
G01X359Y10113D01*
G01X342Y10120D01*
G01X308Y10136D01*
G01X292Y10145D01*
G01X276Y10155D01*
G01X261Y10165D01*
G01X246Y10176D01*
G01X231Y10188D01*
G01X217Y10201D01*
G01X204Y10214D01*
G01X192Y10227D01*
G01X180Y10241D01*
G01X168Y10256D01*
G01X158Y10271D01*
G01X138Y10303D01*
G01X122Y10337D01*
G01X115Y10354D01*
G01X109Y10371D01*
G01X99Y10407D01*
G01X95Y10426D01*
G01X92Y10444D01*
G01X90Y10462D01*
G01X89Y10481D01*
G01X88Y10499D01*
G01X89Y10518D01*
G01X90Y10536D01*
G01X92Y10555D01*
G01X95Y10573D01*
G01X103Y10609D01*
G01X109Y10627D01*
G01X115Y10644D01*
G01X129Y10678D01*
G01X156Y10726D01*
G01X178Y10756D01*
G01X202Y10784D01*
G01X215Y10797D01*
G01X243Y10821D01*
G01X273Y10843D01*
G01X321Y10870D01*
G01X355Y10884D01*
G01X372Y10890D01*
G01X390Y10896D01*
G01X426Y10904D01*
G01X444Y10907D01*
G01X463Y10909D01*
G01X481Y10910D01*
G01X500Y10911D01*
G01X518Y10910D01*
G01X537Y10909D01*
G01X556Y10907D01*
G01X575Y10903D01*
G01X594Y10900D01*
G01X612Y10895D01*
G01X648Y10883D01*
G01X666Y10875D01*
G01X700Y10859D01*
G01X732Y10839D01*
G01X747Y10827D01*
G01X762Y10816D01*
G01X790Y10790D01*
G01X795Y10786D01*
G01X800Y10783D01*
G01X806Y10780D01*
G01X812Y10779D01*
G01X819Y10778D01*
G01X824Y10779D01*
G01X830Y10780D01*
G01X835Y10782D01*
G01X845Y10788D01*
G01X849Y10792D01*
G01X855Y10802D01*
G01X857Y10807D01*
G01X858Y10813D01*
G01X859Y10818D01*
G01X859Y10995D01*
G01X858Y11001D01*
G01X857Y11008D01*
G01X854Y11013D01*
G01X851Y11019D01*
G01X847Y11024D01*
G01X740Y11130D01*
G01X736Y11134D01*
G01X724Y11140D01*
G01X712Y11142D01*
G01X706Y11141D01*
G01X699Y11140D01*
G01X677Y11129D01*
G01X660Y11121D01*
G01X643Y11114D01*
G01X626Y11108D01*
G01X608Y11103D01*
G01X572Y11095D01*
G01X554Y11092D01*
G01X536Y11090D01*
G01X518Y11089D01*
G01X499Y11088D01*
G01X463Y11090D01*
G01X444Y11092D01*
G01X426Y11095D01*
G01X390Y11103D01*
G01X372Y11109D01*
G01X355Y11115D01*
G01X321Y11129D01*
G01X273Y11156D01*
G01X243Y11178D01*
G01X215Y11202D01*
G01X202Y11215D01*
G01X178Y11243D01*
G01X156Y11273D01*
G01X129Y11321D01*
G01X115Y11355D01*
G01X109Y11372D01*
G01X103Y11390D01*
G01X95Y11426D01*
G01X92Y11444D01*
G01X90Y11463D01*
G01X88Y11499D01*
G01X89Y11518D01*
G01X90Y11536D01*
G01X92Y11555D01*
G01X95Y11573D01*
G01X103Y11609D01*
G01X109Y11627D01*
G01X115Y11644D01*
G01X129Y11678D01*
G01X156Y11726D01*
G01X178Y11756D01*
G01X202Y11784D01*
G01X215Y11797D01*
G01X243Y11821D01*
G01X273Y11843D01*
G01X321Y11870D01*
G01X355Y11884D01*
G01X372Y11890D01*
G01X390Y11896D01*
G01X426Y11904D01*
G01X444Y11907D01*
G01X463Y11909D01*
G01X481Y11910D01*
G01X500Y11911D01*
G01X518Y11910D01*
G01X537Y11909D01*
G01X556Y11907D01*
G01X574Y11904D01*
G01X592Y11900D01*
G01X611Y11895D01*
G01X629Y11890D01*
G01X646Y11883D01*
G01X664Y11876D01*
G01X681Y11868D01*
G01X697Y11860D01*
G01X714Y11850D01*
G01X729Y11840D01*
G01X745Y11829D01*
G01X759Y11818D01*
G01X774Y11806D01*
G01X787Y11793D01*
G01X813Y11765D01*
G01X825Y11751D01*
G01X836Y11736D01*
G01X856Y11704D01*
G01X865Y11688D01*
G01X873Y11671D01*
G01X879Y11661D01*
G01X883Y11657D01*
G01X893Y11651D01*
G01X898Y11649D01*
G01X910Y11647D01*
G01X915Y11648D01*
G01X921Y11649D01*
G01X926Y11651D01*
G01X936Y11657D01*
G01X940Y11661D01*
G01X946Y11671D01*
G01X948Y11676D01*
G01X949Y11682D01*
G01X950Y11687D01*
G01X950Y11750D01*
G01X2856Y11750D01*
G01X2862Y11751D01*
G01X2867Y11753D01*
G01X2877Y11759D01*
G01X2881Y11763D01*
G01X2887Y11773D01*
G01X2889Y11778D01*
G01X2892Y11796D01*
G01X2895Y11808D01*
G01X2903Y11832D01*
G01X2909Y11843D01*
G01X2915Y11853D01*
G01X2922Y11864D01*
G01X2929Y11874D01*
G01X2937Y11883D01*
G01X2946Y11892D01*
G01X2955Y11900D01*
G01X2975Y11914D01*
G01X2997Y11926D01*
G01X3021Y11934D01*
G01X3033Y11937D01*
G01X3045Y11939D01*
G01X3057Y11940D01*
G01X3082Y11940D01*
G01X3094Y11939D01*
G01X3106Y11937D01*
G01X3118Y11934D01*
G01X3142Y11926D01*
G01X3164Y11914D01*
G01X3184Y11900D01*
G01X3193Y11892D01*
G01X3202Y11883D01*
G01X3210Y11874D01*
G01X3224Y11854D01*
G01X3236Y11832D01*
G01X3244Y11808D01*
G01X3247Y11796D01*
G01X3249Y11784D01*
G01X3250Y11772D01*
G01X3250Y11747D01*
G01X3249Y11734D01*
G01X3246Y11721D01*
G01X3243Y11709D01*
G01X3239Y11696D01*
G01X3234Y11684D01*
G01X3232Y11679D01*
G01X3231Y11674D01*
G01X3231Y11662D01*
G01X3232Y11657D01*
G01X3234Y11651D01*
G01X3237Y11646D01*
G01X3240Y11642D01*
G01X3244Y11638D01*
G01X3249Y11634D01*
G01X3259Y11630D01*
G01X3265Y11628D01*
G01X3394Y11628D01*
G01X3408Y11626D01*
G01X3415Y11624D01*
G01X3422Y11621D01*
G01X3434Y11613D01*
G01X3439Y11607D01*
G01X3444Y11602D01*
G01X3448Y11595D01*
G01X3451Y11589D01*
G01X3453Y11581D01*
G01X3455Y11567D01*
G01X3455Y11397D01*
G01X3456Y11388D01*
G01X3460Y11362D01*
G01X3461Y11350D01*
G01X3461Y11116D01*
G01X3462Y11110D01*
G01X3465Y11105D01*
G01X3468Y11099D01*
G01X3472Y11094D01*
G01X3474Y11092D01*
G01X3479Y11088D01*
G01X3485Y11085D01*
G01X3490Y11082D01*
G01X3496Y11081D01*
G01X3503Y11080D01*
G01X3826Y11080D01*
G01X3833Y11081D01*
G01X3839Y11082D01*
G01X3844Y11085D01*
G01X3850Y11088D01*
G01X3855Y11092D01*
G01X3861Y11098D01*
G01X3865Y11103D01*
G01X3868Y11109D01*
G01X3871Y11114D01*
G01X3872Y11120D01*
G01X3873Y11127D01*
G01X3873Y11133D01*
G01X3872Y11141D01*
G01X3866Y11157D01*
G01X3864Y11173D01*
G01X3864Y11567D01*
G01X3866Y11581D01*
G01X3868Y11589D01*
G01X3871Y11595D01*
G01X3875Y11602D01*
G01X3880Y11607D01*
G01X3885Y11613D01*
G01X3897Y11621D01*
G01X3904Y11624D01*
G01X3911Y11626D01*
G01X3925Y11628D01*
G01X4053Y11628D01*
G01X4060Y11630D01*
G01X4065Y11632D01*
G01X4071Y11636D01*
G01X4075Y11640D01*
G01X4099Y11663D01*
G01X4108Y11671D01*
G01X4126Y11685D01*
G01X4136Y11691D01*
G01X4146Y11696D01*
G01X4168Y11704D01*
G01X4179Y11707D01*
G01X4190Y11709D01*
G01X4202Y11710D01*
G01X4213Y11711D01*
G01X4408Y11710D01*
G01X4413Y11711D01*
G01X4419Y11712D01*
G01X4424Y11714D01*
G01X4436Y11719D01*
G01X4448Y11723D01*
G01X4474Y11729D01*
G01X4500Y11731D01*
G01X4513Y11730D01*
G01X4527Y11728D01*
G01X4540Y11726D01*
G01X4549Y11725D01*
G01X4555Y11725D01*
G01X4570Y11731D01*
G01X4575Y11735D01*
G01X4579Y11739D01*
G01X4582Y11743D01*
G01X4585Y11748D01*
G01X4587Y11754D01*
G01X4588Y11759D01*
G01X4589Y11765D01*
G01X4587Y11777D01*
G01X4584Y11783D01*
G01X4581Y11788D01*
G01X4577Y11793D01*
G01X4236Y12134D01*
G01X4224Y12140D01*
G01X4212Y12142D01*
G01X4206Y12141D01*
G01X4199Y12140D01*
G01X4193Y12137D01*
G01X4176Y12128D01*
G01X4159Y12121D01*
G01X4141Y12114D01*
G01X4123Y12108D01*
G01X4117Y12105D01*
G01X4112Y12102D01*
G01X4107Y12098D01*
G01X4103Y12093D01*
G01X4100Y12088D01*
G01X4097Y12082D01*
G01X4096Y12076D01*
G01X4095Y12069D01*
G01X4096Y12064D01*
G01X4097Y12058D01*
G01X4099Y12053D01*
G01X4102Y12048D01*
G01X4108Y12037D01*
G01X4114Y12025D01*
G01X4119Y12013D01*
G01X4123Y12001D01*
G01X4129Y11975D01*
G01X4130Y11962D01*
G01X4130Y11937D01*
G01X4129Y11925D01*
G01X4127Y11913D01*
G01X4124Y11901D01*
G01X4116Y11877D01*
G01X4104Y11855D01*
G01X4090Y11835D01*
G01X4082Y11826D01*
G01X4073Y11817D01*
G01X4064Y11809D01*
G01X4044Y11795D01*
G01X4022Y11783D01*
G01X3998Y11775D01*
G01X3986Y11772D01*
G01X3974Y11770D01*
G01X3962Y11769D01*
G01X3937Y11769D01*
G01X3925Y11770D01*
G01X3913Y11772D01*
G01X3901Y11775D01*
G01X3890Y11779D01*
G01X3878Y11783D01*
G01X3867Y11788D01*
G01X3857Y11794D01*
G01X3846Y11801D01*
G01X3837Y11808D01*
G01X3827Y11816D01*
G01X3819Y11824D01*
G01X3811Y11833D01*
G01X3803Y11843D01*
G01X3796Y11853D01*
G01X3790Y11864D01*
G01X3780Y11886D01*
G01X3776Y11897D01*
G01X3774Y11904D01*
G01X3766Y11914D01*
G01X3435Y12245D01*
G01X3421Y12263D01*
G01X3416Y12273D01*
G01X3414Y12278D01*
G01X3410Y12283D01*
G01X3406Y12287D01*
G01X3396Y12293D01*
G01X3391Y12295D01*
G01X3385Y12296D01*
G01X3380Y12297D01*
G01X3368Y12295D01*
G01X3363Y12293D01*
G01X3353Y12287D01*
G01X3349Y12283D01*
G01X3346Y12278D01*
G01X3313Y12233D01*
G01X3300Y12219D01*
G01X3287Y12206D01*
G01X3273Y12193D01*
G01X3259Y12181D01*
G01X3244Y12169D01*
G01X3229Y12159D01*
G01X3213Y12148D01*
G01X3197Y12139D01*
G01X3180Y12130D01*
G01X3146Y12116D01*
G01X3128Y12109D01*
G01X3092Y12099D01*
G01X3074Y12095D01*
G01X3056Y12092D01*
G01X3037Y12090D01*
G01X3018Y12089D01*
G01X3000Y12088D01*
G01X2981Y12089D01*
G01X2963Y12090D01*
G01X2944Y12092D01*
G01X2926Y12095D01*
G01X2890Y12103D01*
G01X2872Y12109D01*
G01X2855Y12115D01*
G01X2821Y12129D01*
G01X2773Y12156D01*
G01X2743Y12178D01*
G01X2715Y12202D01*
G01X2702Y12215D01*
G01X2678Y12243D01*
G01X2656Y12273D01*
G01X2629Y12321D01*
G01X2615Y12355D01*
G01X2609Y12372D01*
G01X2603Y12390D01*
G01X2595Y12426D01*
G01X2592Y12444D01*
G01X2590Y12463D01*
G01X2588Y12499D01*
G01X2589Y12518D01*
G01X2590Y12536D01*
G01X2592Y12555D01*
G01X2595Y12573D01*
G01X2603Y12609D01*
G01X2609Y12627D01*
G01X2615Y12644D01*
G01X2629Y12678D01*
G01X2656Y12726D01*
G01X2678Y12756D01*
G01X2702Y12784D01*
G01X2715Y12797D01*
G01X2743Y12821D01*
G01X2773Y12843D01*
G01X2821Y12870D01*
G01X2855Y12884D01*
G01X2872Y12890D01*
G01X2890Y12896D01*
G01X2926Y12904D01*
G01X2944Y12907D01*
G01X2963Y12909D01*
G01X2981Y12910D01*
G01X3000Y12911D01*
G01X3038Y12909D01*
G01X3057Y12907D01*
G01X3075Y12903D01*
G01X3113Y12895D01*
G01X3131Y12889D01*
G01X3149Y12882D01*
G01X3166Y12875D01*
G01X3174Y12873D01*
G01X3183Y12872D01*
G01X3189Y12872D01*
G01X3195Y12874D01*
G01X3200Y12876D01*
G01X3206Y12879D01*
G01X3214Y12887D01*
G01X3218Y12893D01*
G01X3220Y12898D01*
G01X3222Y12904D01*
G01X3225Y12916D01*
G01X3228Y12927D01*
G01X3232Y12939D01*
G01X3237Y12950D01*
G01X3243Y12961D01*
G01X3246Y12967D01*
G01X3248Y12974D01*
G01X3249Y12981D01*
G01X3249Y13013D01*
G01X3248Y13019D01*
G01X3247Y13024D01*
G01X3245Y13030D01*
G01X3242Y13035D01*
G01X3239Y13039D01*
G01X3235Y13043D01*
G01X3230Y13047D01*
G01X3225Y13050D01*
G01X3220Y13052D01*
G01X3214Y13053D01*
G01X3202Y13053D01*
G01X3196Y13051D01*
G01X3191Y13049D01*
G01X3185Y13046D01*
G01X3176Y13037D01*
G01X3170Y13029D01*
G01X3163Y13022D01*
G01X3155Y13015D01*
G01X3147Y13009D01*
G01X3129Y12999D01*
G01X3120Y12995D01*
G01X3110Y12992D01*
G01X3100Y12990D01*
G01X3080Y12988D01*
G01X3058Y12990D01*
G01X3048Y12993D01*
G01X3037Y12996D01*
G01X3028Y13000D01*
G01X3018Y13005D01*
G01X3009Y13011D01*
G01X3001Y13018D01*
G01X2991Y13024D01*
G01X2986Y13026D01*
G01X2980Y13027D01*
G01X2969Y13027D01*
G01X2963Y13026D01*
G01X2958Y13024D01*
G01X2948Y13018D01*
G01X2940Y13011D01*
G01X2931Y13005D01*
G01X2921Y13000D01*
G01X2912Y12996D01*
G01X2901Y12993D01*
G01X2891Y12990D01*
G01X2869Y12988D01*
G01X2849Y12990D01*
G01X2839Y12992D01*
G01X2830Y12995D01*
G01X2820Y12999D01*
G01X2811Y13003D01*
G01X2803Y13009D01*
G01X2794Y13015D01*
G01X2787Y13021D01*
G01X2782Y13025D01*
G01X2777Y13028D01*
G01X2771Y13030D01*
G01X2759Y13032D01*
G01X2754Y13031D01*
G01X2748Y13030D01*
G01X2742Y13028D01*
G01X2737Y13025D01*
G01X2732Y13021D01*
G01X2725Y13015D01*
G01X2716Y13009D01*
G01X2708Y13003D01*
G01X2699Y12999D01*
G01X2689Y12995D01*
G01X2680Y12992D01*
G01X2670Y12990D01*
G01X2650Y12988D01*
G01X2639Y12989D01*
G01X2629Y12990D01*
G01X2619Y12992D01*
G01X2610Y12995D01*
G01X2600Y12999D01*
G01X2591Y13003D01*
G01X2583Y13009D01*
G01X2574Y13015D01*
G01X2567Y13021D01*
G01X2562Y13025D01*
G01X2557Y13028D01*
G01X2551Y13030D01*
G01X2545Y13031D01*
G01X2540Y13032D01*
G01X2528Y13030D01*
G01X2522Y13028D01*
G01X2517Y13025D01*
G01X2512Y13021D01*
G01X2505Y13015D01*
G01X2496Y13009D01*
G01X2488Y13003D01*
G01X2479Y12999D01*
G01X2469Y12995D01*
G01X2460Y12992D01*
G01X2450Y12990D01*
G01X2430Y12988D01*
G01X2419Y12989D01*
G01X2409Y12990D01*
G01X2399Y12992D01*
G01X2390Y12995D01*
G01X2380Y12999D01*
G01X2371Y13003D01*
G01X2363Y13009D01*
G01X2354Y13015D01*
G01X2347Y13021D01*
G01X2342Y13025D01*
G01X2337Y13028D01*
G01X2331Y13030D01*
G01X2319Y13032D01*
G01X2314Y13031D01*
G01X2308Y13030D01*
G01X2302Y13028D01*
G01X2297Y13025D01*
G01X2292Y13021D01*
G01X2285Y13015D01*
G01X2276Y13009D01*
G01X2268Y13003D01*
G01X2259Y12999D01*
G01X2249Y12995D01*
G01X2240Y12992D01*
G01X2230Y12990D01*
G01X2220Y12989D01*
G01X2209Y12988D01*
G01X2189Y12990D01*
G01X2179Y12992D01*
G01X2170Y12995D01*
G01X2160Y12999D01*
G01X2151Y13003D01*
G01X2143Y13009D01*
G01X2134Y13015D01*
G01X2127Y13021D01*
G01X2122Y13025D01*
G01X2117Y13028D01*
G01X2111Y13030D01*
G01X2105Y13031D01*
G01X2100Y13032D01*
G01X2088Y13030D01*
G01X2082Y13028D01*
G01X2077Y13025D01*
G01X2072Y13021D01*
G01X2065Y13015D01*
G01X2056Y13009D01*
G01X2048Y13003D01*
G01X2039Y12999D01*
G01X2029Y12995D01*
G01X2020Y12992D01*
G01X2010Y12990D01*
G01X1990Y12988D01*
G01X1979Y12989D01*
G01X1969Y12990D01*
G01X1959Y12992D01*
G01X1950Y12995D01*
G01X1940Y12999D01*
G01X1931Y13003D01*
G01X1923Y13009D01*
G01X1914Y13015D01*
G01X1907Y13021D01*
G01X1902Y13025D01*
G01X1897Y13028D01*
G01X1891Y13030D01*
G01X1885Y13031D01*
G01X1880Y13032D01*
G01X1868Y13030D01*
G01X1862Y13028D01*
G01X1857Y13025D01*
G01X1852Y13021D01*
G01X1845Y13015D01*
G01X1836Y13009D01*
G01X1828Y13003D01*
G01X1819Y12999D01*
G01X1809Y12995D01*
G01X1800Y12992D01*
G01X1790Y12990D01*
G01X1770Y12988D01*
G01X1759Y12989D01*
G01X1749Y12990D01*
G01X1740Y12992D01*
G01X1730Y12995D01*
G01X1712Y13003D01*
G01X1703Y13008D01*
G01X1695Y13014D01*
G01X1687Y13021D01*
G01X1680Y13028D01*
G01X1668Y13044D01*
G01X1658Y13062D01*
G01X1655Y13071D01*
G01X1652Y13077D01*
G01X1649Y13082D01*
G01X1645Y13087D01*
G01X1640Y13091D01*
G01X1635Y13094D01*
G01X1629Y13097D01*
G37*

%LPC*%
G36*
G01X6536Y909D02*
G01X6500Y911D01*
G01X6481Y910D01*
G01X6463Y909D01*
G01X6444Y907D01*
G01X6426Y904D01*
G01X6390Y896D01*
G01X6372Y890D01*
G01X6355Y884D01*
G01X6321Y870D01*
G01X6273Y843D01*
G01X6243Y821D01*
G01X6215Y797D01*
G01X6202Y784D01*
G01X6178Y756D01*
G01X6156Y726D01*
G01X6129Y678D01*
G01X6115Y644D01*
G01X6109Y627D01*
G01X6103Y609D01*
G01X6095Y573D01*
G01X6092Y555D01*
G01X6090Y536D01*
G01X6089Y518D01*
G01X6088Y499D01*
G01X6090Y463D01*
G01X6092Y444D01*
G01X6095Y426D01*
G01X6103Y390D01*
G01X6109Y372D01*
G01X6115Y355D01*
G01X6129Y321D01*
G01X6156Y273D01*
G01X6178Y243D01*
G01X6202Y215D01*
G01X6215Y202D01*
G01X6243Y178D01*
G01X6273Y156D01*
G01X6321Y129D01*
G01X6355Y115D01*
G01X6372Y109D01*
G01X6390Y103D01*
G01X6426Y95D01*
G01X6444Y92D01*
G01X6463Y90D01*
G01X6481Y89D01*
G01X6500Y88D01*
G01X6536Y90D01*
G01X6555Y92D01*
G01X6573Y95D01*
G01X6609Y103D01*
G01X6627Y109D01*
G01X6644Y115D01*
G01X6678Y129D01*
G01X6726Y156D01*
G01X6756Y178D01*
G01X6784Y202D01*
G01X6797Y215D01*
G01X6821Y243D01*
G01X6843Y273D01*
G01X6870Y321D01*
G01X6884Y355D01*
G01X6890Y372D01*
G01X6896Y390D01*
G01X6904Y426D01*
G01X6907Y444D01*
G01X6909Y463D01*
G01X6910Y481D01*
G01X6911Y500D01*
G01X6909Y536D01*
G01X6907Y555D01*
G01X6904Y573D01*
G01X6896Y609D01*
G01X6890Y627D01*
G01X6884Y644D01*
G01X6870Y678D01*
G01X6843Y726D01*
G01X6821Y756D01*
G01X6797Y784D01*
G01X6784Y797D01*
G01X6756Y821D01*
G01X6726Y843D01*
G01X6678Y870D01*
G01X6644Y884D01*
G01X6627Y890D01*
G01X6609Y896D01*
G01X6573Y904D01*
G01X6555Y907D01*
G01X6536Y909D01*
G37*
G36*
G01X2536Y909D02*
G01X2500Y911D01*
G01X2481Y910D01*
G01X2463Y909D01*
G01X2444Y907D01*
G01X2426Y904D01*
G01X2390Y896D01*
G01X2372Y890D01*
G01X2355Y884D01*
G01X2321Y870D01*
G01X2273Y843D01*
G01X2243Y821D01*
G01X2215Y797D01*
G01X2202Y784D01*
G01X2178Y756D01*
G01X2156Y726D01*
G01X2129Y678D01*
G01X2115Y644D01*
G01X2109Y627D01*
G01X2103Y609D01*
G01X2095Y573D01*
G01X2092Y555D01*
G01X2090Y536D01*
G01X2089Y518D01*
G01X2088Y499D01*
G01X2090Y463D01*
G01X2092Y444D01*
G01X2095Y426D01*
G01X2103Y390D01*
G01X2109Y372D01*
G01X2115Y355D01*
G01X2129Y321D01*
G01X2156Y273D01*
G01X2178Y243D01*
G01X2202Y215D01*
G01X2215Y202D01*
G01X2243Y178D01*
G01X2273Y156D01*
G01X2321Y129D01*
G01X2355Y115D01*
G01X2372Y109D01*
G01X2390Y103D01*
G01X2426Y95D01*
G01X2444Y92D01*
G01X2463Y90D01*
G01X2481Y89D01*
G01X2500Y88D01*
G01X2536Y90D01*
G01X2555Y92D01*
G01X2573Y95D01*
G01X2609Y103D01*
G01X2627Y109D01*
G01X2644Y115D01*
G01X2678Y129D01*
G01X2726Y156D01*
G01X2756Y178D01*
G01X2784Y202D01*
G01X2797Y215D01*
G01X2821Y243D01*
G01X2843Y273D01*
G01X2870Y321D01*
G01X2884Y355D01*
G01X2890Y372D01*
G01X2896Y390D01*
G01X2904Y426D01*
G01X2907Y444D01*
G01X2909Y463D01*
G01X2910Y481D01*
G01X2911Y500D01*
G01X2909Y536D01*
G01X2907Y555D01*
G01X2904Y573D01*
G01X2896Y609D01*
G01X2890Y627D01*
G01X2884Y644D01*
G01X2870Y678D01*
G01X2843Y726D01*
G01X2821Y756D01*
G01X2797Y784D01*
G01X2784Y797D01*
G01X2756Y821D01*
G01X2726Y843D01*
G01X2678Y870D01*
G01X2644Y884D01*
G01X2627Y890D01*
G01X2609Y896D01*
G01X2573Y904D01*
G01X2555Y907D01*
G01X2536Y909D01*
G37*
G36*
G01X4536Y909D02*
G01X4500Y911D01*
G01X4481Y910D01*
G01X4463Y909D01*
G01X4444Y907D01*
G01X4426Y904D01*
G01X4390Y896D01*
G01X4372Y890D01*
G01X4355Y884D01*
G01X4321Y870D01*
G01X4273Y843D01*
G01X4243Y821D01*
G01X4215Y797D01*
G01X4202Y784D01*
G01X4178Y756D01*
G01X4156Y726D01*
G01X4129Y678D01*
G01X4115Y644D01*
G01X4109Y627D01*
G01X4103Y609D01*
G01X4095Y573D01*
G01X4092Y555D01*
G01X4090Y536D01*
G01X4088Y500D01*
G01X4088Y499D01*
G01X4090Y463D01*
G01X4092Y444D01*
G01X4095Y426D01*
G01X4103Y390D01*
G01X4109Y372D01*
G01X4115Y355D01*
G01X4129Y321D01*
G01X4156Y273D01*
G01X4178Y243D01*
G01X4202Y215D01*
G01X4215Y202D01*
G01X4243Y178D01*
G01X4273Y156D01*
G01X4321Y129D01*
G01X4355Y115D01*
G01X4372Y109D01*
G01X4390Y103D01*
G01X4426Y95D01*
G01X4444Y92D01*
G01X4463Y90D01*
G01X4481Y89D01*
G01X4500Y88D01*
G01X4536Y90D01*
G01X4555Y92D01*
G01X4573Y95D01*
G01X4609Y103D01*
G01X4627Y109D01*
G01X4644Y115D01*
G01X4678Y129D01*
G01X4726Y156D01*
G01X4756Y178D01*
G01X4784Y202D01*
G01X4797Y215D01*
G01X4821Y243D01*
G01X4843Y273D01*
G01X4870Y321D01*
G01X4884Y355D01*
G01X4890Y372D01*
G01X4896Y390D01*
G01X4904Y426D01*
G01X4907Y444D01*
G01X4909Y463D01*
G01X4910Y481D01*
G01X4911Y500D01*
G01X4909Y536D01*
G01X4907Y555D01*
G01X4904Y573D01*
G01X4896Y609D01*
G01X4890Y627D01*
G01X4884Y644D01*
G01X4870Y678D01*
G01X4843Y726D01*
G01X4821Y756D01*
G01X4797Y784D01*
G01X4784Y797D01*
G01X4756Y821D01*
G01X4726Y843D01*
G01X4678Y870D01*
G01X4644Y884D01*
G01X4627Y890D01*
G01X4609Y896D01*
G01X4573Y904D01*
G01X4555Y907D01*
G01X4536Y909D01*
G37*
G36*
G01X6536Y6909D02*
G01X6500Y6911D01*
G01X6481Y6910D01*
G01X6463Y6909D01*
G01X6444Y6907D01*
G01X6426Y6904D01*
G01X6390Y6896D01*
G01X6372Y6890D01*
G01X6355Y6884D01*
G01X6321Y6870D01*
G01X6273Y6843D01*
G01X6243Y6821D01*
G01X6215Y6797D01*
G01X6202Y6784D01*
G01X6178Y6756D01*
G01X6156Y6726D01*
G01X6129Y6678D01*
G01X6115Y6644D01*
G01X6109Y6627D01*
G01X6103Y6609D01*
G01X6095Y6573D01*
G01X6092Y6555D01*
G01X6090Y6536D01*
G01X6088Y6500D01*
G01X6088Y6499D01*
G01X6090Y6463D01*
G01X6092Y6444D01*
G01X6095Y6426D01*
G01X6103Y6390D01*
G01X6109Y6372D01*
G01X6115Y6355D01*
G01X6129Y6321D01*
G01X6156Y6273D01*
G01X6178Y6243D01*
G01X6202Y6215D01*
G01X6215Y6202D01*
G01X6243Y6178D01*
G01X6273Y6156D01*
G01X6321Y6129D01*
G01X6355Y6115D01*
G01X6372Y6109D01*
G01X6390Y6103D01*
G01X6426Y6095D01*
G01X6444Y6092D01*
G01X6463Y6090D01*
G01X6481Y6089D01*
G01X6500Y6088D01*
G01X6536Y6090D01*
G01X6555Y6092D01*
G01X6573Y6095D01*
G01X6609Y6103D01*
G01X6627Y6109D01*
G01X6644Y6115D01*
G01X6678Y6129D01*
G01X6726Y6156D01*
G01X6756Y6178D01*
G01X6784Y6202D01*
G01X6797Y6215D01*
G01X6821Y6243D01*
G01X6843Y6273D01*
G01X6870Y6321D01*
G01X6884Y6355D01*
G01X6890Y6372D01*
G01X6896Y6390D01*
G01X6904Y6426D01*
G01X6907Y6444D01*
G01X6909Y6463D01*
G01X6910Y6481D01*
G01X6911Y6500D01*
G01X6909Y6536D01*
G01X6907Y6555D01*
G01X6904Y6573D01*
G01X6896Y6609D01*
G01X6890Y6627D01*
G01X6884Y6644D01*
G01X6870Y6678D01*
G01X6843Y6726D01*
G01X6821Y6756D01*
G01X6797Y6784D01*
G01X6784Y6797D01*
G01X6756Y6821D01*
G01X6726Y6843D01*
G01X6678Y6870D01*
G01X6644Y6884D01*
G01X6627Y6890D01*
G01X6609Y6896D01*
G01X6573Y6904D01*
G01X6555Y6907D01*
G01X6536Y6909D01*
G37*
G36*
G01X6536Y7909D02*
G01X6500Y7911D01*
G01X6481Y7910D01*
G01X6463Y7909D01*
G01X6444Y7907D01*
G01X6426Y7904D01*
G01X6390Y7896D01*
G01X6372Y7890D01*
G01X6355Y7884D01*
G01X6321Y7870D01*
G01X6273Y7843D01*
G01X6243Y7821D01*
G01X6215Y7797D01*
G01X6202Y7784D01*
G01X6178Y7756D01*
G01X6156Y7726D01*
G01X6129Y7678D01*
G01X6115Y7644D01*
G01X6109Y7627D01*
G01X6103Y7609D01*
G01X6095Y7573D01*
G01X6092Y7555D01*
G01X6090Y7536D01*
G01X6089Y7518D01*
G01X6088Y7499D01*
G01X6090Y7463D01*
G01X6092Y7444D01*
G01X6095Y7426D01*
G01X6103Y7390D01*
G01X6109Y7372D01*
G01X6115Y7355D01*
G01X6129Y7321D01*
G01X6156Y7273D01*
G01X6178Y7243D01*
G01X6202Y7215D01*
G01X6215Y7202D01*
G01X6243Y7178D01*
G01X6273Y7156D01*
G01X6321Y7129D01*
G01X6355Y7115D01*
G01X6372Y7109D01*
G01X6390Y7103D01*
G01X6426Y7095D01*
G01X6444Y7092D01*
G01X6463Y7090D01*
G01X6481Y7089D01*
G01X6500Y7088D01*
G01X6536Y7090D01*
G01X6555Y7092D01*
G01X6573Y7095D01*
G01X6609Y7103D01*
G01X6627Y7109D01*
G01X6644Y7115D01*
G01X6678Y7129D01*
G01X6726Y7156D01*
G01X6756Y7178D01*
G01X6784Y7202D01*
G01X6797Y7215D01*
G01X6821Y7243D01*
G01X6843Y7273D01*
G01X6870Y7321D01*
G01X6884Y7355D01*
G01X6890Y7372D01*
G01X6896Y7390D01*
G01X6904Y7426D01*
G01X6907Y7444D01*
G01X6909Y7463D01*
G01X6910Y7481D01*
G01X6911Y7500D01*
G01X6909Y7536D01*
G01X6907Y7555D01*
G01X6904Y7573D01*
G01X6896Y7609D01*
G01X6890Y7627D01*
G01X6884Y7644D01*
G01X6870Y7678D01*
G01X6843Y7726D01*
G01X6821Y7756D01*
G01X6797Y7784D01*
G01X6784Y7797D01*
G01X6756Y7821D01*
G01X6726Y7843D01*
G01X6678Y7870D01*
G01X6644Y7884D01*
G01X6627Y7890D01*
G01X6609Y7896D01*
G01X6573Y7904D01*
G01X6555Y7907D01*
G01X6536Y7909D01*
G37*
G36*
G01X6536Y10909D02*
G01X6500Y10911D01*
G01X6481Y10910D01*
G01X6463Y10909D01*
G01X6444Y10907D01*
G01X6426Y10904D01*
G01X6390Y10896D01*
G01X6372Y10890D01*
G01X6355Y10884D01*
G01X6321Y10870D01*
G01X6273Y10843D01*
G01X6243Y10821D01*
G01X6215Y10797D01*
G01X6202Y10784D01*
G01X6178Y10756D01*
G01X6156Y10726D01*
G01X6129Y10678D01*
G01X6115Y10644D01*
G01X6109Y10627D01*
G01X6103Y10609D01*
G01X6095Y10573D01*
G01X6092Y10555D01*
G01X6090Y10536D01*
G01X6089Y10518D01*
G01X6088Y10499D01*
G01X6090Y10463D01*
G01X6092Y10444D01*
G01X6095Y10426D01*
G01X6103Y10390D01*
G01X6109Y10372D01*
G01X6115Y10355D01*
G01X6129Y10321D01*
G01X6156Y10273D01*
G01X6178Y10243D01*
G01X6202Y10215D01*
G01X6215Y10202D01*
G01X6243Y10178D01*
G01X6273Y10156D01*
G01X6321Y10129D01*
G01X6355Y10115D01*
G01X6372Y10109D01*
G01X6390Y10103D01*
G01X6426Y10095D01*
G01X6444Y10092D01*
G01X6463Y10090D01*
G01X6481Y10089D01*
G01X6500Y10088D01*
G01X6536Y10090D01*
G01X6555Y10092D01*
G01X6573Y10095D01*
G01X6609Y10103D01*
G01X6627Y10109D01*
G01X6644Y10115D01*
G01X6678Y10129D01*
G01X6726Y10156D01*
G01X6756Y10178D01*
G01X6784Y10202D01*
G01X6797Y10215D01*
G01X6821Y10243D01*
G01X6843Y10273D01*
G01X6870Y10321D01*
G01X6884Y10355D01*
G01X6890Y10372D01*
G01X6896Y10390D01*
G01X6904Y10426D01*
G01X6907Y10444D01*
G01X6909Y10463D01*
G01X6910Y10481D01*
G01X6911Y10500D01*
G01X6909Y10536D01*
G01X6907Y10555D01*
G01X6904Y10573D01*
G01X6896Y10609D01*
G01X6890Y10627D01*
G01X6884Y10644D01*
G01X6870Y10678D01*
G01X6843Y10726D01*
G01X6821Y10756D01*
G01X6797Y10784D01*
G01X6784Y10797D01*
G01X6756Y10821D01*
G01X6726Y10843D01*
G01X6678Y10870D01*
G01X6644Y10884D01*
G01X6627Y10890D01*
G01X6609Y10896D01*
G01X6573Y10904D01*
G01X6555Y10907D01*
G01X6536Y10909D01*
G37*
G36*
G01X6536Y11909D02*
G01X6500Y11911D01*
G01X6481Y11910D01*
G01X6463Y11909D01*
G01X6444Y11907D01*
G01X6426Y11904D01*
G01X6390Y11896D01*
G01X6372Y11890D01*
G01X6355Y11884D01*
G01X6321Y11870D01*
G01X6273Y11843D01*
G01X6243Y11821D01*
G01X6215Y11797D01*
G01X6202Y11784D01*
G01X6178Y11756D01*
G01X6156Y11726D01*
G01X6129Y11678D01*
G01X6115Y11644D01*
G01X6109Y11627D01*
G01X6103Y11609D01*
G01X6095Y11573D01*
G01X6092Y11555D01*
G01X6090Y11536D01*
G01X6088Y11500D01*
G01X6088Y11499D01*
G01X6090Y11463D01*
G01X6092Y11444D01*
G01X6095Y11426D01*
G01X6103Y11390D01*
G01X6109Y11372D01*
G01X6115Y11355D01*
G01X6129Y11321D01*
G01X6156Y11273D01*
G01X6178Y11243D01*
G01X6202Y11215D01*
G01X6215Y11202D01*
G01X6243Y11178D01*
G01X6273Y11156D01*
G01X6321Y11129D01*
G01X6355Y11115D01*
G01X6372Y11109D01*
G01X6390Y11103D01*
G01X6426Y11095D01*
G01X6444Y11092D01*
G01X6463Y11090D01*
G01X6481Y11089D01*
G01X6500Y11088D01*
G01X6536Y11090D01*
G01X6555Y11092D01*
G01X6573Y11095D01*
G01X6609Y11103D01*
G01X6627Y11109D01*
G01X6644Y11115D01*
G01X6678Y11129D01*
G01X6726Y11156D01*
G01X6756Y11178D01*
G01X6784Y11202D01*
G01X6797Y11215D01*
G01X6821Y11243D01*
G01X6843Y11273D01*
G01X6870Y11321D01*
G01X6884Y11355D01*
G01X6890Y11372D01*
G01X6896Y11390D01*
G01X6904Y11426D01*
G01X6907Y11444D01*
G01X6909Y11463D01*
G01X6910Y11481D01*
G01X6911Y11500D01*
G01X6909Y11536D01*
G01X6907Y11555D01*
G01X6904Y11573D01*
G01X6896Y11609D01*
G01X6890Y11627D01*
G01X6884Y11644D01*
G01X6870Y11678D01*
G01X6843Y11726D01*
G01X6821Y11756D01*
G01X6797Y11784D01*
G01X6784Y11797D01*
G01X6756Y11821D01*
G01X6726Y11843D01*
G01X6678Y11870D01*
G01X6644Y11884D01*
G01X6627Y11890D01*
G01X6609Y11896D01*
G01X6573Y11904D01*
G01X6555Y11907D01*
G01X6536Y11909D01*
G37*
G36*
G01X1036Y12909D02*
G01X1000Y12911D01*
G01X981Y12910D01*
G01X963Y12909D01*
G01X944Y12907D01*
G01X926Y12904D01*
G01X890Y12896D01*
G01X872Y12890D01*
G01X855Y12884D01*
G01X821Y12870D01*
G01X773Y12843D01*
G01X743Y12821D01*
G01X715Y12797D01*
G01X702Y12784D01*
G01X678Y12756D01*
G01X656Y12726D01*
G01X629Y12678D01*
G01X615Y12644D01*
G01X609Y12627D01*
G01X603Y12609D01*
G01X595Y12573D01*
G01X592Y12555D01*
G01X590Y12536D01*
G01X589Y12518D01*
G01X588Y12499D01*
G01X590Y12463D01*
G01X592Y12444D01*
G01X595Y12426D01*
G01X603Y12390D01*
G01X609Y12372D01*
G01X615Y12355D01*
G01X629Y12321D01*
G01X656Y12273D01*
G01X678Y12243D01*
G01X702Y12215D01*
G01X715Y12202D01*
G01X743Y12178D01*
G01X773Y12156D01*
G01X821Y12129D01*
G01X855Y12115D01*
G01X872Y12109D01*
G01X890Y12103D01*
G01X926Y12095D01*
G01X944Y12092D01*
G01X963Y12090D01*
G01X981Y12089D01*
G01X1000Y12088D01*
G01X1036Y12090D01*
G01X1055Y12092D01*
G01X1073Y12095D01*
G01X1109Y12103D01*
G01X1127Y12109D01*
G01X1144Y12115D01*
G01X1178Y12129D01*
G01X1226Y12156D01*
G01X1256Y12178D01*
G01X1284Y12202D01*
G01X1297Y12215D01*
G01X1321Y12243D01*
G01X1343Y12273D01*
G01X1370Y12321D01*
G01X1384Y12355D01*
G01X1390Y12372D01*
G01X1396Y12390D01*
G01X1404Y12426D01*
G01X1407Y12444D01*
G01X1409Y12463D01*
G01X1410Y12481D01*
G01X1411Y12500D01*
G01X1409Y12536D01*
G01X1407Y12555D01*
G01X1404Y12573D01*
G01X1396Y12609D01*
G01X1390Y12627D01*
G01X1384Y12644D01*
G01X1370Y12678D01*
G01X1343Y12726D01*
G01X1321Y12756D01*
G01X1297Y12784D01*
G01X1284Y12797D01*
G01X1256Y12821D01*
G01X1226Y12843D01*
G01X1178Y12870D01*
G01X1144Y12884D01*
G01X1127Y12890D01*
G01X1109Y12896D01*
G01X1073Y12904D01*
G01X1055Y12907D01*
G01X1036Y12909D01*
G37*
G36*
G01X5536Y909D02*
G01X5500Y911D01*
G01X5481Y910D01*
G01X5463Y909D01*
G01X5444Y907D01*
G01X5426Y904D01*
G01X5390Y896D01*
G01X5372Y890D01*
G01X5355Y884D01*
G01X5321Y870D01*
G01X5273Y843D01*
G01X5243Y821D01*
G01X5215Y797D01*
G01X5202Y784D01*
G01X5178Y756D01*
G01X5156Y726D01*
G01X5129Y678D01*
G01X5115Y644D01*
G01X5109Y627D01*
G01X5103Y609D01*
G01X5095Y573D01*
G01X5092Y555D01*
G01X5090Y536D01*
G01X5088Y500D01*
G01X5088Y499D01*
G01X5090Y463D01*
G01X5092Y444D01*
G01X5095Y426D01*
G01X5103Y390D01*
G01X5109Y372D01*
G01X5115Y355D01*
G01X5129Y321D01*
G01X5156Y273D01*
G01X5178Y243D01*
G01X5202Y215D01*
G01X5215Y202D01*
G01X5243Y178D01*
G01X5273Y156D01*
G01X5321Y129D01*
G01X5355Y115D01*
G01X5372Y109D01*
G01X5390Y103D01*
G01X5426Y95D01*
G01X5444Y92D01*
G01X5463Y90D01*
G01X5481Y89D01*
G01X5500Y88D01*
G01X5536Y90D01*
G01X5555Y92D01*
G01X5573Y95D01*
G01X5609Y103D01*
G01X5627Y109D01*
G01X5644Y115D01*
G01X5678Y129D01*
G01X5726Y156D01*
G01X5756Y178D01*
G01X5784Y202D01*
G01X5797Y215D01*
G01X5821Y243D01*
G01X5843Y273D01*
G01X5870Y321D01*
G01X5884Y355D01*
G01X5890Y372D01*
G01X5896Y390D01*
G01X5904Y426D01*
G01X5907Y444D01*
G01X5909Y463D01*
G01X5910Y481D01*
G01X5911Y500D01*
G01X5909Y536D01*
G01X5907Y555D01*
G01X5904Y573D01*
G01X5896Y609D01*
G01X5890Y627D01*
G01X5884Y644D01*
G01X5870Y678D01*
G01X5843Y726D01*
G01X5821Y756D01*
G01X5797Y784D01*
G01X5784Y797D01*
G01X5756Y821D01*
G01X5726Y843D01*
G01X5678Y870D01*
G01X5644Y884D01*
G01X5627Y890D01*
G01X5609Y896D01*
G01X5573Y904D01*
G01X5555Y907D01*
G01X5536Y909D01*
G37*
G36*
G01X3536Y909D02*
G01X3500Y911D01*
G01X3481Y910D01*
G01X3463Y909D01*
G01X3444Y907D01*
G01X3426Y904D01*
G01X3390Y896D01*
G01X3372Y890D01*
G01X3355Y884D01*
G01X3321Y870D01*
G01X3273Y843D01*
G01X3243Y821D01*
G01X3215Y797D01*
G01X3202Y784D01*
G01X3178Y756D01*
G01X3156Y726D01*
G01X3129Y678D01*
G01X3115Y644D01*
G01X3109Y627D01*
G01X3103Y609D01*
G01X3095Y573D01*
G01X3092Y555D01*
G01X3090Y536D01*
G01X3088Y500D01*
G01X3088Y499D01*
G01X3090Y463D01*
G01X3092Y444D01*
G01X3095Y426D01*
G01X3103Y390D01*
G01X3109Y372D01*
G01X3115Y355D01*
G01X3129Y321D01*
G01X3156Y273D01*
G01X3178Y243D01*
G01X3202Y215D01*
G01X3215Y202D01*
G01X3243Y178D01*
G01X3273Y156D01*
G01X3321Y129D01*
G01X3355Y115D01*
G01X3372Y109D01*
G01X3390Y103D01*
G01X3426Y95D01*
G01X3444Y92D01*
G01X3463Y90D01*
G01X3481Y89D01*
G01X3500Y88D01*
G01X3536Y90D01*
G01X3555Y92D01*
G01X3573Y95D01*
G01X3609Y103D01*
G01X3627Y109D01*
G01X3644Y115D01*
G01X3678Y129D01*
G01X3726Y156D01*
G01X3756Y178D01*
G01X3784Y202D01*
G01X3797Y215D01*
G01X3821Y243D01*
G01X3843Y273D01*
G01X3870Y321D01*
G01X3884Y355D01*
G01X3890Y372D01*
G01X3896Y390D01*
G01X3904Y426D01*
G01X3907Y444D01*
G01X3909Y463D01*
G01X3910Y481D01*
G01X3911Y500D01*
G01X3909Y536D01*
G01X3907Y555D01*
G01X3904Y573D01*
G01X3896Y609D01*
G01X3890Y627D01*
G01X3884Y644D01*
G01X3870Y678D01*
G01X3843Y726D01*
G01X3821Y756D01*
G01X3797Y784D01*
G01X3784Y797D01*
G01X3756Y821D01*
G01X3726Y843D01*
G01X3678Y870D01*
G01X3644Y884D01*
G01X3627Y890D01*
G01X3609Y896D01*
G01X3573Y904D01*
G01X3555Y907D01*
G01X3536Y909D01*
G37*
G36*
G01X1506Y817D02*
G01X1473Y817D01*
G01X1457Y816D01*
G01X1441Y814D01*
G01X1425Y811D01*
G01X1410Y807D01*
G01X1394Y803D01*
G01X1379Y798D01*
G01X1364Y792D01*
G01X1349Y785D01*
G01X1335Y778D01*
G01X1321Y769D01*
G01X1308Y761D01*
G01X1282Y741D01*
G01X1270Y730D01*
G01X1259Y719D01*
G01X1248Y707D01*
G01X1228Y681D01*
G01X1220Y668D01*
G01X1211Y654D01*
G01X1204Y640D01*
G01X1197Y625D01*
G01X1191Y610D01*
G01X1186Y595D01*
G01X1182Y579D01*
G01X1178Y564D01*
G01X1175Y548D01*
G01X1173Y532D01*
G01X1172Y516D01*
G01X1172Y483D01*
G01X1173Y467D01*
G01X1175Y451D01*
G01X1178Y435D01*
G01X1182Y420D01*
G01X1186Y404D01*
G01X1191Y389D01*
G01X1197Y374D01*
G01X1204Y359D01*
G01X1211Y345D01*
G01X1220Y331D01*
G01X1228Y318D01*
G01X1248Y292D01*
G01X1259Y280D01*
G01X1270Y269D01*
G01X1282Y258D01*
G01X1308Y238D01*
G01X1321Y230D01*
G01X1335Y221D01*
G01X1349Y214D01*
G01X1364Y207D01*
G01X1379Y201D01*
G01X1394Y196D01*
G01X1410Y192D01*
G01X1425Y188D01*
G01X1441Y185D01*
G01X1457Y183D01*
G01X1473Y182D01*
G01X1506Y182D01*
G01X1522Y183D01*
G01X1538Y185D01*
G01X1554Y188D01*
G01X1569Y192D01*
G01X1585Y196D01*
G01X1600Y201D01*
G01X1615Y207D01*
G01X1630Y214D01*
G01X1644Y221D01*
G01X1658Y230D01*
G01X1671Y238D01*
G01X1697Y258D01*
G01X1709Y269D01*
G01X1720Y280D01*
G01X1731Y292D01*
G01X1751Y318D01*
G01X1759Y331D01*
G01X1768Y345D01*
G01X1775Y359D01*
G01X1782Y374D01*
G01X1788Y389D01*
G01X1793Y404D01*
G01X1797Y420D01*
G01X1801Y435D01*
G01X1804Y451D01*
G01X1806Y467D01*
G01X1807Y483D01*
G01X1807Y516D01*
G01X1806Y532D01*
G01X1804Y548D01*
G01X1801Y564D01*
G01X1797Y579D01*
G01X1793Y595D01*
G01X1788Y610D01*
G01X1782Y625D01*
G01X1775Y640D01*
G01X1768Y654D01*
G01X1759Y668D01*
G01X1751Y681D01*
G01X1731Y707D01*
G01X1720Y719D01*
G01X1709Y730D01*
G01X1697Y741D01*
G01X1671Y761D01*
G01X1658Y769D01*
G01X1644Y778D01*
G01X1630Y785D01*
G01X1615Y792D01*
G01X1600Y798D01*
G01X1585Y803D01*
G01X1569Y807D01*
G01X1554Y811D01*
G01X1538Y814D01*
G01X1522Y816D01*
G01X1506Y817D01*
G37*

%LPD*%
G54D11*
G01X2490Y8078D02*
G01X1959Y8609D01*
G01X1959Y8819D01*
G01X2059Y8921D01*
G01X2059Y9590D01*
G01X1697Y9950D01*
G01X2313Y9950D02*
G01X2309Y9790D01*
G01X2200Y9684D01*
G01X2200Y8861D01*
G01X2120Y8780D01*
G01X2121Y8728D01*
G01X2628Y8217D01*
G54D12*
G01X2351Y7940D02*
G01X1693Y8598D01*
G01X1690Y8759D01*
G01X1690Y8859D01*
G01X1374Y9230D02*
G01X1470Y9130D01*
G01X1470Y8359D01*
G01X1559Y8280D01*
G01X2450Y9169D02*
G01X2580Y9109D01*
G01X3047Y8636D01*
G01X2450Y9169D02*
G01X2528Y9248D01*
G01X2532Y9490D01*
G01X2563Y9490D01*
G01X2897Y9490D02*
G01X3100Y9490D01*
G01X3209Y9380D01*
G01X500Y500D02*
G01X1570Y1577D01*
G01X1570Y4360D01*
G01X1860Y4650D01*
G01X1960Y4650D01*
G54D13*
G01X3186Y8775D02*
G01X3174Y8775D01*
G01X2850Y9100D01*
G01X5210Y6750D02*
G01X5210Y6739D01*
G01X5410Y6539D01*
G54D12*
G01X5600Y11700D02*
G01X5650Y11650D01*
G01X5650Y11346D01*
G54D13*
G01X5650Y11012D02*
G01X5650Y10700D01*
G01X5620Y10669D01*
G01X5430Y10669D01*
G01X5210Y10889D01*
G01X5210Y11012D01*
G54D12*
G01X1655Y6896D02*
G01X1200Y6450D01*
G54D14*
G01X5270Y11930D02*
G01X5430Y11930D01*
G01X6000Y12500D01*
G54D13*
G01X1960Y4644D02*
G01X1960Y4335D01*
G01X2907Y5642D02*
G01X2430Y5165D01*
G01X2430Y5069D01*
G01X2009Y4650D01*
G01X1959Y4650D01*
G54D12*
G01X3620Y9353D02*
G01X3547Y9353D01*
G01X2950Y9950D01*
G01X2647Y9950D01*
G01X3286Y10189D02*
G01X3620Y9855D01*
G01X3620Y9687D01*
G01X3900Y13500D02*
G01X3450Y13950D01*
G01X3154Y13950D01*
G01X2954Y14150D01*
G01X3420Y4700D02*
G01X3420Y4680D01*
G01X3600Y4500D01*
G01X3970Y4500D01*
G01X4139Y4330D01*
G01X4139Y3830D01*
G01X4647Y7661D02*
G01X5200Y8201D01*
G01X5200Y8300D01*
G01X5430Y8530D01*
G01X5580Y8530D01*
G01X4508Y7800D02*
G01X5150Y8439D01*
G01X5570Y8860D01*
G01X4000Y12500D02*
G01X4750Y11750D01*
G01X4750Y10750D01*
G01X5850Y9650D01*
G01X5850Y8330D01*
G01X5530Y8010D01*
G01X5530Y7700D01*
G01X5064Y7243D01*
G01X5150Y2500D02*
G01X4900Y2500D01*
G01X4331Y3068D01*
G01X4331Y3228D01*
G54D13*
G01X3150Y3850D02*
G01X3150Y4450D01*
G01X2800Y4800D01*
G01X2800Y4978D01*
G01X3186Y5365D01*
G01X5366Y4900D02*
G01X5366Y3786D01*
G01X5180Y3600D01*
G01X4970Y3600D01*
G01X4739Y3830D01*
G01X4739Y4010D01*
G01X4680Y4069D01*
G01X1968Y1771D02*
G01X4331Y1771D01*
G01X4331Y1771D02*
G01X4725Y2165D01*
G01X5150Y2165D01*
G01X5064Y6896D02*
G01X5210Y6750D01*
G01X5289Y6750D01*
G01X5450Y6900D01*
G54D12*
G01X4090Y8218D02*
G01X4589Y8713D01*
G01X4589Y8729D01*
G01X4965Y9105D01*
G01X4965Y9250D01*
G54D13*
G01X3908Y8867D02*
G01X4210Y9168D01*
G01X4210Y9430D01*
G54D12*
G01X1968Y3228D02*
G01X1968Y3481D01*
G01X1850Y3600D01*
G54D13*
G01X3908Y8866D02*
G01X3360Y8318D01*
G01X3360Y7439D01*
G01X3600Y7200D01*
G01X4660Y10366D02*
G01X4482Y10189D01*
G01X4034Y10189D01*
G54D12*
G01X1536Y5180D02*
G01X1536Y4846D01*
G01X1480Y4789D01*
G54D13*
G01X2100Y7640D02*
G01X1580Y8159D01*
G01X1559Y8280D01*
G01X4650Y2400D02*
G01X4884Y2165D01*
G01X5150Y2165D01*
G54D12*
G01X5750Y10000D02*
G01X4900Y10850D01*
G01X4900Y12500D01*
G01X5000Y12500D01*
G01X3951Y8357D02*
G01X4570Y8980D01*
G01X4570Y9010D01*
G01X4229Y8079D02*
G01X4804Y8650D01*
G01X4820Y8650D01*
G01X4369Y7939D02*
G01X4823Y8389D01*
G01X4889Y8389D01*
G01X5100Y8600D01*
G01X5100Y8839D01*
G01X5580Y9180D02*
G01X5580Y9246D01*
G01X5584Y9250D01*
G01X5300Y9250D01*
G01X4786Y7522D02*
G01X5339Y8071D01*
G01X5339Y8139D01*
G01X5430Y8230D01*
G01X1655Y7243D02*
G01X980Y7918D01*
G01X980Y8680D01*
G01X500Y9160D01*
G01X500Y9500D01*
G01X500Y10500D02*
G01X500Y10219D01*
G01X970Y9750D01*
G01X970Y8939D01*
G01X1160Y8750D01*
G01X1160Y8016D01*
G01X1793Y7383D01*
G01X4500Y5050D02*
G01X4410Y5050D01*
G01X3812Y5642D01*
G01X4139Y3850D02*
G01X4139Y3630D01*
G01X4289Y3480D01*
G01X4620Y3480D01*
G01X5439Y2660D01*
G01X5439Y1880D01*
G01X5830Y1489D01*
G54D13*
G01X5036Y4039D02*
G01X5036Y4897D01*
G01X5033Y4900D01*
G54D12*
G01X3250Y13700D02*
G01X2954Y13700D01*
G01X2620Y14034D01*
G01X2620Y14150D01*
G01X3250Y13700D02*
G01X3340Y13619D01*
G01X3340Y12869D01*
G01X3400Y12869D01*
G01X3100Y4850D02*
G01X3200Y4950D01*
G01X3550Y4950D01*
G01X3850Y4650D01*
G01X4020Y4650D01*
G01X4280Y4389D01*
G01X4280Y3680D01*
G01X4350Y3610D01*
G01X4689Y3610D01*
G01X5250Y3050D01*
G01X5870Y1800D02*
G01X5580Y2089D01*
G01X5580Y2719D01*
G01X5250Y3050D01*
G01X3900Y13500D02*
G01X4030Y13630D01*
G01X4030Y13850D01*
G01X5369Y13850D02*
G01X5100Y13850D01*
G01X5700Y10050D02*
G01X5750Y10000D01*
G01X6000Y9750D01*
G01X6000Y8280D01*
G01X5700Y7980D01*
G01X5700Y6400D01*
G01X5489Y6189D01*
G01X5198Y6189D01*
G01X4787Y6617D01*
G01X6500Y4500D02*
G01X6400Y4600D01*
G01X6400Y4950D01*
G01X6030Y5319D01*
G01X6030Y5719D01*
G01X5689Y6060D01*
G01X5060Y6060D01*
G01X4692Y6426D01*
G01X4648Y6478D01*
G01X6500Y3500D02*
G01X5900Y4100D01*
G01X5900Y5639D01*
G01X5620Y5919D01*
G01X4930Y5919D01*
G01X4810Y6039D01*
G01X4508Y6339D01*
G01X6500Y2500D02*
G01X6500Y2710D01*
G01X5770Y3439D01*
G01X5770Y5550D01*
G01X5530Y5789D01*
G01X4780Y5789D01*
G01X4368Y6200D01*
G01X6500Y1500D02*
G01X5850Y2150D01*
G01X5850Y3089D01*
G01X5639Y3300D01*
G01X5639Y5460D01*
G01X5450Y5650D01*
G01X4639Y5650D01*
G01X4230Y6061D01*
G01X5330Y5419D02*
G01X5239Y5510D01*
G01X4501Y5510D01*
G01X4090Y5921D01*
G01X4970Y5300D02*
G01X4439Y5300D01*
G01X3951Y5782D01*
G01X4700Y4810D02*
G01X4670Y4839D01*
G01X4339Y4839D01*
G01X3673Y5503D01*
G01X4489Y4550D02*
G01X4349Y4550D01*
G01X3534Y5364D01*
G01X500Y1500D02*
G01X1420Y2419D01*
G01X1420Y4419D01*
G01X1800Y4800D01*
G01X1909Y4800D01*
G01X2270Y5159D01*
G01X2270Y5280D01*
G01X2768Y5782D01*
G01X500Y2500D02*
G01X1270Y3269D01*
G01X1270Y5319D01*
G01X1410Y5460D01*
G01X1892Y5460D01*
G01X2489Y6061D01*
G01X500Y3500D02*
G01X1120Y4119D01*
G01X1120Y5380D01*
G01X1350Y5610D01*
G01X1764Y5610D01*
G01X2351Y6200D01*
G01X1870Y5180D02*
G01X2060Y5180D01*
G01X2130Y5250D01*
G01X2130Y5418D01*
G01X2628Y5921D01*
G01X500Y4500D02*
G01X980Y4980D01*
G01X980Y5450D01*
G01X1289Y5760D01*
G01X1639Y5760D01*
G01X2212Y6338D01*
G01X500Y5500D02*
G01X910Y5910D01*
G01X1508Y5910D01*
G01X2073Y6478D01*
G01X500Y8500D02*
G01X500Y8150D01*
G01X1339Y7310D01*
G01X1339Y7219D01*
G01X1655Y6896D01*
G01X500Y7500D02*
G01X1000Y7000D01*
G01X1000Y6289D01*
G01X1070Y6219D01*
G01X1261Y6219D01*
G01X1793Y6757D01*
G01X500Y6500D02*
G01X530Y6500D01*
G01X970Y6060D01*
G01X1378Y6060D01*
G01X1933Y6617D01*
G01X500Y11500D02*
G01X950Y11050D01*
G01X950Y10000D01*
G01X1120Y9830D01*
G01X1120Y9039D01*
G01X1339Y8819D01*
G01X1339Y8114D01*
G01X1933Y7521D01*
G54D13*
G01X2480Y4730D02*
G01X2476Y4726D01*
G01X2476Y4339D01*
G01X2476Y4339D02*
G01X2476Y3880D01*
G01X2480Y4730D02*
G01X2609Y4859D01*
G01X2609Y5067D01*
G01X3047Y5503D01*
G01X2810Y4339D02*
G01X2810Y3880D01*
G01X2810Y3880D02*
G01X3120Y3880D01*
G01X3150Y3850D01*
G01X1970Y4006D02*
G01X2096Y3880D01*
G01X2476Y3880D01*
G01X3150Y3850D02*
G01X3350Y4050D01*
G01X3480Y4050D01*
G01X3850Y3660D02*
G01X3813Y3696D01*
G01X3813Y4050D01*
G54D14*
G01X5270Y11930D02*
G01X5210Y11870D01*
G01X5210Y11346D01*
G54D13*
G01X4510Y11189D02*
G01X4520Y11180D01*
G01X4520Y10750D01*
G54D12*
G01X3550Y13500D02*
G01X3700Y13350D01*
G01X3700Y12869D01*
G01X3500Y12669D01*
G01X3500Y12309D01*
G01X3859Y11950D01*
G01X3950Y11950D01*
G54D14*
G01X4034Y11370D02*
G01X4213Y11550D01*
G01X4500Y11550D01*
G01X3300Y11350D02*
G01X3300Y11039D01*
G01X3420Y10919D01*
G01X3910Y10919D01*
G01X4034Y11043D01*
G01X4034Y11371D01*
G54D13*
G01X3660Y11370D02*
G01X3660Y11839D01*
G01X3650Y11850D01*
G54D12*
G01X4660Y9933D02*
G01X4476Y9750D01*
G01X4300Y9750D01*
G54D13*
G01X3339Y9039D02*
G01X3789Y9039D01*
G01X3970Y9219D01*
G01X3970Y10248D01*
G01X4098Y10248D01*
G01X2476Y3880D02*
G01X2476Y3563D01*
G01X2639Y3400D01*
G01X3589Y3400D01*
G01X3850Y3660D01*
G01X5036Y4426D02*
G01X4976Y4426D01*
G01X4850Y4300D01*
G01X4550Y4300D01*
G01X4439Y4189D01*
G01X4439Y3880D01*
G01X4489Y3830D01*
G54D12*
G01X4510Y9330D02*
G01X4510Y9250D01*
G01X4350Y9089D01*
G01X4350Y9034D01*
G01X3812Y8496D01*
G54D13*
G01X3339Y9039D02*
G01X3760Y9039D01*
G01X3760Y9005D01*
G01X3530Y8775D01*
G54D12*
G01X4331Y3228D02*
G01X1968Y3228D01*
G54D13*
G01X4034Y10188D02*
G01X3562Y10660D01*
G01X3320Y10660D01*
G01X3039Y10939D01*
G01X3039Y11730D01*
G01X3070Y11760D01*
G01X3650Y11850D02*
G01X3500Y12000D01*
G01X2500Y12000D01*
G01X2000Y12500D01*
G01X1537Y10585D02*
G01X1360Y10408D01*
G01X1360Y10230D01*
G01X1550Y10230D01*
G01X1697Y10083D01*
G01X1697Y9950D01*
G01X2312Y9950D02*
G01X2110Y9950D01*
G01X1970Y10089D01*
G01X1970Y10919D01*
G01X2264Y11214D01*
G01X2403Y11214D01*
G01X5113Y6569D02*
G01X4480Y7200D01*
G01X2820Y7200D01*
G01X1859Y8140D01*
G01X1362Y9950D02*
G01X1300Y9950D01*
G01X1110Y10139D01*
G01X1110Y11510D01*
G01X1250Y11650D01*
G01X2689Y11650D01*
G01X2839Y11500D01*
G01X2839Y10142D01*
G01X2647Y9950D01*
G01X2550Y11989D02*
G01X2550Y11650D01*
G54D12*
G01X1800Y9500D02*
G01X1806Y9493D01*
G01X1806Y9230D01*
G54D13*
G01X3186Y8775D02*
G01X3339Y8928D01*
G01X3339Y9039D01*
G54D15*
G01X2786Y9174D02*
G01X3209Y8751D01*
G01X2647Y9035D02*
G01X3070Y8612D01*
G01X2508Y8896D02*
G01X2931Y8473D01*
G01X2368Y8756D02*
G01X2792Y8333D01*
G01X2229Y8617D02*
G01X2652Y8194D01*
G01X2090Y8478D02*
G01X2513Y8055D01*
G01X1951Y8339D02*
G01X2374Y7916D01*
G01X1812Y8200D02*
G01X2235Y7777D01*
G01X1673Y8061D02*
G01X2096Y7637D01*
G01X1533Y7921D02*
G01X1956Y7498D01*
G01X1394Y7782D02*
G01X1817Y7359D01*
G01X1255Y7643D02*
G01X1678Y7220D01*
G01X1678Y6919D02*
G01X1255Y6496D01*
G01X1817Y6780D02*
G01X1394Y6357D01*
G01X1956Y6641D02*
G01X1533Y6218D01*
G01X2096Y6502D02*
G01X1673Y6078D01*
G01X2235Y6362D02*
G01X1812Y5939D01*
G01X2374Y6223D02*
G01X1951Y5800D01*
G01X2513Y6084D02*
G01X2090Y5661D01*
G01X2652Y5945D02*
G01X2229Y5522D01*
G01X2792Y5806D02*
G01X2368Y5382D01*
G01X2931Y5666D02*
G01X2508Y5243D01*
G01X3070Y5527D02*
G01X2647Y5104D01*
G01X3209Y5388D02*
G01X2786Y4965D01*
G01X3510Y5388D02*
G01X3933Y4965D01*
G01X3649Y5527D02*
G01X4072Y5104D01*
G01X3788Y5666D02*
G01X4211Y5243D01*
G01X3927Y5806D02*
G01X4351Y5382D01*
G01X4067Y5945D02*
G01X4490Y5522D01*
G01X4206Y6084D02*
G01X4629Y5661D01*
G01X4345Y6223D02*
G01X4768Y5800D01*
G01X4484Y6362D02*
G01X4907Y5939D01*
G01X4623Y6502D02*
G01X5047Y6078D01*
G01X4763Y6641D02*
G01X5186Y6218D01*
G01X4902Y6780D02*
G01X5325Y6357D01*
G01X5041Y6919D02*
G01X5464Y6496D01*
G01X5464Y7643D02*
G01X5041Y7220D01*
G01X5325Y7782D02*
G01X4902Y7359D01*
G01X5186Y7921D02*
G01X4763Y7498D01*
G01X5047Y8061D02*
G01X4623Y7637D01*
G01X4907Y8200D02*
G01X4484Y7777D01*
G01X4768Y8339D02*
G01X4345Y7916D01*
G01X4629Y8478D02*
G01X4206Y8055D01*
G01X4490Y8617D02*
G01X4067Y8194D01*
G01X4351Y8756D02*
G01X3927Y8333D01*
G01X4211Y8896D02*
G01X3788Y8473D01*
G01X4072Y9035D02*
G01X3649Y8612D01*
G01X3933Y9174D02*
G01X3510Y8751D01*
G54D17*
G01X1968Y3218D03*
G01X4331Y3218D03*
G01X1968Y1761D03*
G01X4331Y1761D03*
G54D18*
G01X3480Y4050D03*
G01X3813Y4050D03*
G01X2809Y4340D03*
G01X2476Y4340D03*
G01X2809Y3880D03*
G01X2476Y3880D03*
G54D19*
G01X1970Y4340D03*
G01X1970Y4005D03*
G01X5650Y11013D03*
G01X5650Y11346D03*
G54D18*
G01X2563Y9490D03*
G01X2897Y9490D03*
G54D20*
G01X4659Y10366D03*
G01X4659Y9933D03*
G54D21*
G01X1373Y9230D03*
G01X1806Y9230D03*
G54D18*
G01X1697Y9950D03*
G01X1363Y9950D03*
G01X2313Y9950D03*
G01X2647Y9950D03*
G01X5290Y9259D03*
G01X4955Y9259D03*
G54D22*
G01X4034Y10189D03*
G01X3286Y10189D03*
G01X3286Y11370D03*
G01X3659Y11370D03*
G01X4034Y11370D03*
G54D23*
G01X4650Y15250D03*
G01X4650Y16050D03*
G01X2350Y17140D03*
G01X2350Y17940D03*
G01X4650Y17140D03*
G01X4650Y17940D03*
G01X2350Y15250D03*
G01X2350Y16050D03*
G54D18*
G01X1536Y5180D03*
G01X1870Y5180D03*
G54D24*
G01X4030Y13850D03*
G01X5369Y13850D03*
G54D18*
G01X2954Y14150D03*
G01X2620Y14150D03*
G54D25*
G01X2403Y11215D03*
G36*
G01X1261Y10811D02*
G01X1669Y10811D01*
G01X1812Y10662D01*
G01X1812Y10358D01*
G01X1261Y10358D01*
G01X1261Y10811D01*
G37*
G01X1536Y11215D03*
G01X2403Y10584D03*
G54D18*
G01X5367Y4900D03*
G01X5032Y4900D03*
G54D19*
G01X5150Y2500D03*
G01X5150Y2165D03*
G54D18*
G01X5370Y4469D03*
G01X5036Y4469D03*
G01X5370Y4040D03*
G01X5036Y4040D03*
G54D19*
G01X5209Y11346D03*
G01X5209Y11013D03*
G01X3620Y9686D03*
G01X3620Y9353D03*
G54D26*
G01X1490Y500D03*
G01X3870Y18269D03*
G54D27*
G01X2500Y500D03*
G01X3500Y500D03*
G01X4500Y500D03*
G01X5500Y500D03*
G01X6500Y500D03*
G01X6500Y1500D03*
G01X6500Y2500D03*
G01X6500Y3500D03*
G01X6500Y4500D03*
G01X6500Y5500D03*
G01X6500Y6500D03*
G01X6500Y7500D03*
G01X6500Y8500D03*
G01X6500Y9500D03*
G01X6500Y10500D03*
G01X6500Y11500D03*
G01X6000Y12500D03*
G01X5000Y12500D03*
G01X4000Y12500D03*
G01X3000Y12500D03*
G01X2000Y12500D03*
G01X500Y500D03*
G01X500Y1500D03*
G01X500Y2500D03*
G01X500Y3500D03*
G01X500Y4500D03*
G01X500Y5500D03*
G01X500Y6500D03*
G01X500Y7500D03*
G01X500Y8500D03*
G01X500Y9500D03*
G01X500Y10500D03*
G01X500Y11500D03*
G01X1000Y12500D03*
G54D16*
G01X3209Y9380D03*
G01X1800Y9500D03*
G01X5270Y11930D03*
G01X5450Y6900D03*
G01X4680Y4069D03*
G01X3650Y11850D03*
G01X4209Y9430D03*
G01X1850Y3600D03*
G01X1690Y8859D03*
G01X2480Y4730D03*
G01X5580Y9180D03*
G01X1480Y4790D03*
G01X3150Y3850D03*
G01X1559Y8280D03*
G01X3340Y9040D03*
G01X3850Y3659D03*
G01X4650Y2400D03*
G01X3070Y11759D03*
G01X4500Y11550D03*
G01X4509Y9330D03*
G01X4570Y9009D03*
G01X4820Y8650D03*
G01X5100Y8840D03*
G01X5570Y8859D03*
G01X5570Y8530D03*
G01X5430Y8230D03*
G01X2450Y9169D03*
G01X5330Y5419D03*
G01X4970Y5300D03*
G01X4500Y5050D03*
G01X4700Y4809D03*
G01X4490Y4550D03*
G01X4300Y9750D03*
G01X5600Y11700D03*
G01X4509Y11190D03*
G01X4520Y10750D03*
G01X5620Y10669D03*
G01X5830Y1490D03*
G01X3250Y13700D03*
G01X3550Y13500D03*
G01X3400Y12869D03*
G01X3950Y11950D03*
G01X3420Y4700D03*
G01X3100Y4850D03*
G01X5870Y1800D03*
G01X4490Y3830D03*
G01X3900Y13500D03*
G01X5100Y13850D03*
M00*
M02*
