G04 Layer: TopSolderMaskLayer*
G04 EasyEDA v6.3.22, 2020-03-24T16:05:03+09:00*
G04 334177c2c5fb4733a61f24cf9fce308a,67344a67363949849f01d11c0c7cf016,10*
G04 Gerber Generator version 0.2*
G04 Scale: 100 percent, Rotated: No, Reflected: No *
G04 Dimensions in inches *
G04 leading zeros omitted , absolute positions ,2 integer and 4 decimal *
%FSLAX24Y24*%
%MOIN*%
G90*
G70D02*

%ADD39C,0.019024*%
%ADD40C,0.059400*%
%ADD41C,0.078000*%
%ADD44R,0.033590X0.031620*%

%LPD*%
G54D39*
G01X2786Y9174D02*
G01X3209Y8751D01*
G01X2647Y9035D02*
G01X3070Y8612D01*
G01X2508Y8896D02*
G01X2931Y8473D01*
G01X2368Y8756D02*
G01X2792Y8333D01*
G01X2229Y8617D02*
G01X2652Y8194D01*
G01X2090Y8478D02*
G01X2513Y8055D01*
G01X1951Y8339D02*
G01X2374Y7916D01*
G01X1812Y8200D02*
G01X2235Y7777D01*
G01X1673Y8061D02*
G01X2096Y7637D01*
G01X1533Y7921D02*
G01X1956Y7498D01*
G01X1394Y7782D02*
G01X1817Y7359D01*
G01X1255Y7643D02*
G01X1678Y7220D01*
G01X1678Y6919D02*
G01X1255Y6496D01*
G01X1817Y6780D02*
G01X1394Y6357D01*
G01X1956Y6641D02*
G01X1533Y6218D01*
G01X2096Y6502D02*
G01X1673Y6078D01*
G01X2235Y6362D02*
G01X1812Y5939D01*
G01X2374Y6223D02*
G01X1951Y5800D01*
G01X2513Y6084D02*
G01X2090Y5661D01*
G01X2652Y5945D02*
G01X2229Y5522D01*
G01X2792Y5806D02*
G01X2368Y5382D01*
G01X2931Y5666D02*
G01X2508Y5243D01*
G01X3070Y5527D02*
G01X2647Y5104D01*
G01X3209Y5388D02*
G01X2786Y4965D01*
G01X3510Y5388D02*
G01X3933Y4965D01*
G01X3649Y5527D02*
G01X4072Y5104D01*
G01X3788Y5666D02*
G01X4211Y5243D01*
G01X3927Y5806D02*
G01X4351Y5382D01*
G01X4067Y5945D02*
G01X4490Y5522D01*
G01X4206Y6084D02*
G01X4629Y5661D01*
G01X4345Y6223D02*
G01X4768Y5800D01*
G01X4484Y6362D02*
G01X4907Y5939D01*
G01X4623Y6502D02*
G01X5047Y6078D01*
G01X4763Y6641D02*
G01X5186Y6218D01*
G01X4902Y6780D02*
G01X5325Y6357D01*
G01X5041Y6919D02*
G01X5464Y6496D01*
G01X5464Y7643D02*
G01X5041Y7220D01*
G01X5325Y7782D02*
G01X4902Y7359D01*
G01X5186Y7921D02*
G01X4763Y7498D01*
G01X5047Y8061D02*
G01X4623Y7637D01*
G01X4907Y8200D02*
G01X4484Y7777D01*
G01X4768Y8339D02*
G01X4345Y7916D01*
G01X4629Y8478D02*
G01X4206Y8055D01*
G01X4490Y8617D02*
G01X4067Y8194D01*
G01X4351Y8756D02*
G01X3927Y8333D01*
G01X4211Y8896D02*
G01X3788Y8473D01*
G01X4072Y9035D02*
G01X3649Y8612D01*
G01X3933Y9174D02*
G01X3510Y8751D01*
G54D40*
G01X1490Y500D03*
G01X3870Y18269D03*
G54D41*
G01X2500Y500D03*
G01X3500Y500D03*
G01X4500Y500D03*
G01X5500Y500D03*
G01X6500Y500D03*
G01X6500Y1500D03*
G01X6500Y2500D03*
G01X6500Y3500D03*
G01X6500Y4500D03*
G01X6500Y5500D03*
G01X6500Y6500D03*
G01X6500Y7500D03*
G01X6500Y8500D03*
G01X6500Y9500D03*
G01X6500Y10500D03*
G01X6500Y11500D03*
G01X6000Y12500D03*
G01X5000Y12500D03*
G01X4000Y12500D03*
G01X3000Y12500D03*
G01X2000Y12500D03*
G01X500Y500D03*
G01X500Y1500D03*
G01X500Y2500D03*
G01X500Y3500D03*
G01X500Y4500D03*
G01X500Y5500D03*
G01X500Y6500D03*
G01X500Y7500D03*
G01X500Y8500D03*
G01X500Y9500D03*
G01X500Y10500D03*
G01X500Y11500D03*
G01X1000Y12500D03*
G36*
G01X1673Y3040D02*
G01X1673Y3396D01*
G01X2265Y3396D01*
G01X2265Y3040D01*
G01X1673Y3040D01*
G37*
G36*
G01X4034Y3040D02*
G01X4034Y3396D01*
G01X4626Y3396D01*
G01X4626Y3040D01*
G01X4034Y3040D01*
G37*
G36*
G01X1673Y1584D02*
G01X1673Y1938D01*
G01X2265Y1938D01*
G01X2265Y1584D01*
G01X1673Y1584D01*
G37*
G36*
G01X4034Y1584D02*
G01X4034Y1938D01*
G01X4626Y1938D01*
G01X4626Y1584D01*
G01X4034Y1584D01*
G37*
G36*
G01X3322Y3882D02*
G01X3322Y4217D01*
G01X3638Y4217D01*
G01X3638Y3882D01*
G01X3322Y3882D01*
G37*
G36*
G01X3655Y3882D02*
G01X3655Y4217D01*
G01X3972Y4217D01*
G01X3972Y3882D01*
G01X3655Y3882D01*
G37*
G36*
G01X2651Y4171D02*
G01X2651Y4507D01*
G01X2968Y4507D01*
G01X2968Y4171D01*
G01X2651Y4171D01*
G37*
G36*
G01X2318Y4171D02*
G01X2318Y4507D01*
G01X2634Y4507D01*
G01X2634Y4171D01*
G01X2318Y4171D01*
G37*
G36*
G01X2651Y3711D02*
G01X2651Y4048D01*
G01X2968Y4048D01*
G01X2968Y3711D01*
G01X2651Y3711D01*
G37*
G36*
G01X2318Y3711D02*
G01X2318Y4048D01*
G01X2634Y4048D01*
G01X2634Y3711D01*
G01X2318Y3711D01*
G37*
G36*
G01X1801Y4182D02*
G01X1801Y4498D01*
G01X2138Y4498D01*
G01X2138Y4182D01*
G01X1801Y4182D01*
G37*
G36*
G01X1801Y3848D02*
G01X1801Y4163D01*
G01X2138Y4163D01*
G01X2138Y3848D01*
G01X1801Y3848D01*
G37*
G36*
G01X5482Y10855D02*
G01X5482Y11171D01*
G01X5818Y11171D01*
G01X5818Y10855D01*
G01X5482Y10855D01*
G37*
G36*
G01X5482Y11188D02*
G01X5482Y11505D01*
G01X5818Y11505D01*
G01X5818Y11188D01*
G01X5482Y11188D01*
G37*
G36*
G01X2405Y9321D02*
G01X2405Y9657D01*
G01X2721Y9657D01*
G01X2721Y9321D01*
G01X2405Y9321D01*
G37*
G36*
G01X2738Y9321D02*
G01X2738Y9657D01*
G01X3055Y9657D01*
G01X3055Y9321D01*
G01X2738Y9321D01*
G37*
G36*
G01X4522Y10207D02*
G01X4522Y10525D01*
G01X4798Y10525D01*
G01X4798Y10207D01*
G01X4522Y10207D01*
G37*
G36*
G01X4522Y9775D02*
G01X4522Y10092D01*
G01X4798Y10092D01*
G01X4798Y9775D01*
G01X4522Y9775D01*
G37*
G36*
G01X1215Y9092D02*
G01X1215Y9367D01*
G01X1532Y9367D01*
G01X1532Y9092D01*
G01X1215Y9092D01*
G37*
G36*
G01X1648Y9092D02*
G01X1648Y9367D01*
G01X1965Y9367D01*
G01X1965Y9092D01*
G01X1648Y9092D01*
G37*
G36*
G01X1538Y9782D02*
G01X1538Y10117D01*
G01X1855Y10117D01*
G01X1855Y9782D01*
G01X1538Y9782D01*
G37*
G36*
G01X1205Y9782D02*
G01X1205Y10117D01*
G01X1521Y10117D01*
G01X1521Y9782D01*
G01X1205Y9782D01*
G37*
G36*
G01X2155Y9782D02*
G01X2155Y10117D01*
G01X2471Y10117D01*
G01X2471Y9782D01*
G01X2155Y9782D01*
G37*
G36*
G01X2488Y9782D02*
G01X2488Y10117D01*
G01X2805Y10117D01*
G01X2805Y9782D01*
G01X2488Y9782D01*
G37*
G36*
G01X5132Y9092D02*
G01X5132Y9428D01*
G01X5448Y9428D01*
G01X5448Y9092D01*
G01X5132Y9092D01*
G37*
G36*
G01X4798Y9092D02*
G01X4798Y9428D01*
G01X5113Y9428D01*
G01X5113Y9092D01*
G01X4798Y9092D01*
G37*
G36*
G01X3886Y9953D02*
G01X3886Y10426D01*
G01X4182Y10426D01*
G01X4182Y9953D01*
G01X3886Y9953D01*
G37*
G36*
G01X3138Y9953D02*
G01X3138Y10426D01*
G01X3434Y10426D01*
G01X3434Y9953D01*
G01X3138Y9953D01*
G37*
G36*
G01X3138Y11134D02*
G01X3138Y11607D01*
G01X3434Y11607D01*
G01X3434Y11134D01*
G01X3138Y11134D01*
G37*
G36*
G01X3511Y11134D02*
G01X3511Y11607D01*
G01X3807Y11607D01*
G01X3807Y11134D01*
G01X3511Y11134D01*
G37*
G36*
G01X3886Y11134D02*
G01X3886Y11607D01*
G01X4182Y11607D01*
G01X4182Y11134D01*
G01X3886Y11134D01*
G37*
G36*
G01X4325Y14982D02*
G01X4325Y15517D01*
G01X4975Y15517D01*
G01X4975Y14982D01*
G01X4325Y14982D01*
G37*
G36*
G01X4325Y15782D02*
G01X4325Y16317D01*
G01X4975Y16317D01*
G01X4975Y15782D01*
G01X4325Y15782D01*
G37*
G36*
G01X2025Y16871D02*
G01X2025Y17407D01*
G01X2675Y17407D01*
G01X2675Y16871D01*
G01X2025Y16871D01*
G37*
G36*
G01X2025Y17671D02*
G01X2025Y18207D01*
G01X2675Y18207D01*
G01X2675Y17671D01*
G01X2025Y17671D01*
G37*
G36*
G01X4325Y16871D02*
G01X4325Y17407D01*
G01X4975Y17407D01*
G01X4975Y16871D01*
G01X4325Y16871D01*
G37*
G36*
G01X4325Y17671D02*
G01X4325Y18207D01*
G01X4975Y18207D01*
G01X4975Y17671D01*
G01X4325Y17671D01*
G37*
G36*
G01X2025Y14982D02*
G01X2025Y15517D01*
G01X2675Y15517D01*
G01X2675Y14982D01*
G01X2025Y14982D01*
G37*
G36*
G01X2025Y15782D02*
G01X2025Y16317D01*
G01X2675Y16317D01*
G01X2675Y15782D01*
G01X2025Y15782D01*
G37*
G36*
G01X1378Y5011D02*
G01X1378Y5348D01*
G01X1694Y5348D01*
G01X1694Y5011D01*
G01X1378Y5011D01*
G37*
G36*
G01X1711Y5011D02*
G01X1711Y5348D01*
G01X2028Y5348D01*
G01X2028Y5011D01*
G01X1711Y5011D01*
G37*
G36*
G01X3753Y13534D02*
G01X3753Y14165D01*
G01X4307Y14165D01*
G01X4307Y13534D01*
G01X3753Y13534D01*
G37*
G36*
G01X5093Y13534D02*
G01X5093Y14165D01*
G01X5646Y14165D01*
G01X5646Y13534D01*
G01X5093Y13534D01*
G37*
G36*
G01X2797Y13982D02*
G01X2797Y14317D01*
G01X3113Y14317D01*
G01X3113Y13982D01*
G01X2797Y13982D01*
G37*
G36*
G01X2463Y13982D02*
G01X2463Y14317D01*
G01X2778Y14317D01*
G01X2778Y13982D01*
G01X2463Y13982D01*
G37*
G36*
G01X2086Y10948D02*
G01X2086Y11480D01*
G01X2719Y11480D01*
G01X2719Y10948D01*
G01X2086Y10948D01*
G37*
G36*
G01X1221Y10319D02*
G01X1221Y10851D01*
G01X1686Y10851D01*
G01X1851Y10678D01*
G01X1851Y10319D01*
G01X1221Y10319D01*
G37*
G36*
G01X1221Y10948D02*
G01X1221Y11480D01*
G01X1851Y11480D01*
G01X1851Y10948D01*
G01X1221Y10948D01*
G37*
G36*
G01X2086Y10319D02*
G01X2086Y10851D01*
G01X2719Y10851D01*
G01X2719Y10319D01*
G01X2086Y10319D01*
G37*
G36*
G01X5209Y4732D02*
G01X5209Y5067D01*
G01X5525Y5067D01*
G01X5525Y4732D01*
G01X5209Y4732D01*
G37*
G36*
G01X4875Y4732D02*
G01X4875Y5067D01*
G01X5191Y5067D01*
G01X5191Y4732D01*
G01X4875Y4732D01*
G37*
G36*
G01X4982Y2342D02*
G01X4982Y2657D01*
G01X5318Y2657D01*
G01X5318Y2342D01*
G01X4982Y2342D01*
G37*
G36*
G01X4982Y2007D02*
G01X4982Y2323D01*
G01X5318Y2323D01*
G01X5318Y2007D01*
G01X4982Y2007D01*
G37*
G36*
G01X5211Y4301D02*
G01X5211Y4638D01*
G01X5528Y4638D01*
G01X5528Y4301D01*
G01X5211Y4301D01*
G37*
G36*
G01X4878Y4301D02*
G01X4878Y4638D01*
G01X5194Y4638D01*
G01X5194Y4301D01*
G01X4878Y4301D01*
G37*
G36*
G01X5211Y3871D02*
G01X5211Y4207D01*
G01X5528Y4207D01*
G01X5528Y3871D01*
G01X5211Y3871D01*
G37*
G36*
G01X4878Y3871D02*
G01X4878Y4207D01*
G01X5194Y4207D01*
G01X5194Y3871D01*
G01X4878Y3871D01*
G37*
G54D44*
G01X5209Y11346D03*
G36*
G01X5042Y10855D02*
G01X5042Y11171D01*
G01X5378Y11171D01*
G01X5378Y10855D01*
G01X5042Y10855D01*
G37*
G36*
G01X3451Y9528D02*
G01X3451Y9844D01*
G01X3788Y9844D01*
G01X3788Y9528D01*
G01X3451Y9528D01*
G37*
G36*
G01X3451Y9194D02*
G01X3451Y9511D01*
G01X3788Y9511D01*
G01X3788Y9194D01*
G01X3451Y9194D01*
G37*
M00*
M02*
