;Layer: Drill PTH
;EasyEDA v6.3.22, 2020-03-24T16:05:03+09:00
;334177c2c5fb4733a61f24cf9fce308a,67344a67363949849f01d11c0c7cf016,10
;Gerber Generator version 0.2
M48
INCH,LZ,00.0000
;Holesize 1 = 0.012 INCH
T01C0.012
;Holesize 2 = 0.036 INCH
T02C0.036
%
G05
G90
T01
X+003209Y+009380
X+001800Y+009500
X+005270Y+011930
X+005450Y+006900
X+004680Y+004069
X+003650Y+011850
X+004209Y+009430
X+001850Y+003600
X+001690Y+008859
X+002480Y+004730
X+005580Y+009180
X+001480Y+004790
X+003150Y+003850
X+001559Y+008280
X+003340Y+009040
X+003850Y+003659
X+004650Y+002400
X+003070Y+011759
X+004500Y+011550
X+004509Y+009330
X+004570Y+009009
X+004820Y+008650
X+005100Y+008840
X+005570Y+008859
X+005570Y+008530
X+005430Y+008230
X+002450Y+009169
X+005330Y+005419
X+004970Y+005300
X+004500Y+005050
X+004700Y+004809
X+004490Y+004550
X+004300Y+009750
X+005600Y+011700
X+004509Y+011190
X+004520Y+010750
X+005620Y+010669
X+005830Y+001490
X+003250Y+013700
X+003550Y+013500
X+003400Y+012869
X+003950Y+011950
X+003420Y+004700
X+003100Y+004850
X+005870Y+001800
X+004490Y+003830
X+003900Y+013500
X+005100Y+013850
T02
X+002500Y+000500
X+003500Y+000500
X+004500Y+000500
X+005500Y+000500
X+006500Y+000500
X+006500Y+001500
X+006500Y+002500
X+006500Y+003500
X+006500Y+004500
X+006500Y+005500
X+006500Y+006500
X+006500Y+007500
X+006500Y+008500
X+006500Y+009500
X+006500Y+010500
X+006500Y+011500
X+006000Y+012500
X+005000Y+012500
X+004000Y+012500
X+003000Y+012500
X+002000Y+012500
X+000500Y+000500
X+000500Y+001500
X+000500Y+002500
X+000500Y+003500
X+000500Y+004500
X+000500Y+005500
X+000500Y+006500
X+000500Y+007500
X+000500Y+008500
X+000500Y+009500
X+000500Y+010500
X+000500Y+011500
X+001000Y+012500
M30
